<svg id="Group_265" data-name="Group 265" xmlns="http://www.w3.org/2000/svg" viewBox="0 0 104.684 104.685">
  <defs>
    <style>
      .cls-1 {
        fill: #dd4b39;
      }

      .cls-2 {
        fill: #fff;
        fill-rule: evenodd;
      }
    </style>
  </defs>
  <g id="Group_5" data-name="Group 5" transform="translate(0 0)">
    <ellipse id="Oval-1-Copy-6" class="cls-1" cx="52.342" cy="52.343" rx="52.342" ry="52.343"/>
    <path id="Fill-186" class="cls-2" d="M17.045,40.251c.147-8.813,8.24-16.531,17.044-16.237,4.218-.2,8.183,1.642,11.413,4.223a60.753,60.753,0,0,1-4.332,4.492c-3.883-2.687-9.407-3.455-13.29-.351-5.556,3.847-5.809,12.929-.465,17.069,5.2,4.721,15.02,2.376,16.456-4.851-3.256-.049-6.519,0-9.774-.106-.008-1.944-.016-3.888-.008-5.832,5.442-.016,10.884-.024,16.334.016.326,4.574-.277,9.441-3.084,13.223-4.251,5.987-12.785,7.734-19.442,5.17A17.119,17.119,0,0,1,17.045,40.251" transform="translate(8.423 11.892)"/>
    <path id="Fill-187" class="cls-2" d="M48.92,31h4.854c.008,1.625.016,3.258.033,4.884,1.624.016,3.255.016,4.879.033v4.86c-1.624.016-3.247.024-4.879.041q-.024,2.45-.033,4.884H48.911c-.016-1.625-.016-3.25-.033-4.876L44,40.776v-4.86q2.435-.024,4.879-.033c.008-1.634.024-3.258.041-4.884" transform="translate(21.801 15.361)"/>
  </g>
</svg>
