<svg id="Layer_1" data-name="Layer 1" xmlns="http://www.w3.org/2000/svg" viewBox="0 0 93.66 97.3"><defs><style>.cls-1{fill:#f16d10;}.cls-2{fill:#dce4ea;}.cls-3{fill:#fff;}</style></defs><title>bot</title><path class="cls-1" d="M42.16,59.88H27.52a1.11,1.11,0,0,1-1.14-1.06s0,0,0,0v-.24a1.11,1.11,0,0,1,1.14-1.06H42.16C42.67,57.5,42.67,59.88,42.16,59.88Z" transform="translate(-3.39 -1.26)"/><path class="cls-1" d="M75,58.69a1.13,1.13,0,0,1-1.16,1.19H59.23c-.51,0-.51-2.38,0-2.38H73.86A1.11,1.11,0,0,1,75,58.58.41.41,0,0,1,75,58.69Z" transform="translate(-3.39 -1.26)"/><path class="cls-1" d="M52.44,18.71v3.56c1.61.38,2.68,1.27,2.68,2.35,0,1.43-1.94,2.55-4.42,2.55s-4.43-1.12-4.43-2.55c0-1.06,1.09-2,2.68-2.35V18.68C23.67,19.25,3.39,36.91,3.39,58.61c0,22.06,21,40,46.83,40S97.05,80.67,97.05,58.61C97.05,37.18,77.27,19.69,52.44,18.71ZM65.91,69.62c-7,.27-22.83.29-30.43,0-11.33-.43-18.56-3.23-18.56-10.94,0-11.81,14.16-12.33,33.77-12.33s33.78.52,33.78,12.33C84.47,66.39,77.23,69.18,65.91,69.62Z" transform="translate(-3.39 -1.26)"/><circle class="cls-2" cx="47.31" cy="5.14" r="2.77"/><circle class="cls-3" cx="47.31" cy="5.14" r="2.77"/><circle class="cls-1" cx="47.31" cy="5.14" r="2.77"/><path class="cls-1" d="M55.84,6.41A5.15,5.15,0,1,0,50,11.5a1.29,1.29,0,0,0,0,.35v12c0,1.28,1.43,1.28,1.43,0v-12a1.29,1.29,0,0,0,0-.35A5.14,5.14,0,0,0,55.84,6.41ZM51,10.62h-.57a4.23,4.23,0,1,1,.57,0Z" transform="translate(-3.39 -1.26)"/></svg>