<svg xmlns="http://www.w3.org/2000/svg" viewBox="0 0 43.999 37.482">
  <defs>
    <style>
      .cls-1, .cls-2 {
        fill: none;
      }

      .cls-2 {
        stroke: #f16d10;
        stroke-width: 6px;
      }

      .cls-3, .cls-4 {
        stroke: none;
      }

      .cls-4 {
        fill: #002a7b;
      }
    </style>
  </defs>
  <g id="Group_486" data-name="Group 486" transform="translate(0 -2.398)">
    <g id="Group_479" data-name="Group 479" transform="translate(0 4.429)">
      <g id="Path_2261" data-name="Path 2261" class="cls-1" transform="translate(0 5.272)">
        <path class="cls-3" d="M3.234,0h29.1a3.234,3.234,0,0,1,3.234,3.234V26.947a3.234,3.234,0,0,1-3.234,3.234H3.234A3.234,3.234,0,0,1,0,26.947V3.234A3.234,3.234,0,0,1,3.234,0Z"/>
        <path class="cls-4" d="M 3.233585357666016 3.000003814697266 C 3.104785919189453 3.000003814697266 2.999996185302734 3.10478401184082 2.999996185302734 3.233583450317383 L 2.999996185302734 26.94650268554688 C 2.999996185302734 27.07530212402344 3.104785919189453 27.18008232116699 3.233585357666016 27.18008232116699 L 32.3358039855957 27.18008232116699 C 32.46460342407227 27.18008232116699 32.56938552856445 27.07530212402344 32.56938552856445 26.94650268554688 L 32.56938552856445 3.233583450317383 C 32.56938552856445 3.10478401184082 32.46460342407227 3.000003814697266 32.3358039855957 3.000003814697266 L 3.233585357666016 3.000003814697266 M 3.233585357666016 3.814697265625e-06 L 32.3358039855957 3.814697265625e-06 C 34.12166595458984 3.814697265625e-06 35.56938552856445 1.447723388671875 35.56938552856445 3.233583450317383 L 35.56938552856445 26.94650268554688 C 35.56938552856445 28.73236274719238 34.12166595458984 30.18008232116699 32.3358039855957 30.18008232116699 L 3.233585357666016 30.18008232116699 C 1.447723388671875 30.18008232116699 -3.814697265625e-06 28.73236274719238 -3.814697265625e-06 26.94650268554688 L -3.814697265625e-06 3.233583450317383 C -3.814697265625e-06 1.447723388671875 1.447723388671875 3.814697265625e-06 3.233585357666016 3.814697265625e-06 Z"/>
      </g>
      <path id="Path_2260" data-name="Path 2260" class="cls-2" d="M2327.5,840.315l8.641,5.539,21.832-23.746" transform="translate(-2316.182 -822.109)"/>
    </g>
  </g>
</svg>
