<svg id="Layer_1" data-name="Layer 1" xmlns="http://www.w3.org/2000/svg" xmlns:xlink="http://www.w3.org/1999/xlink" viewBox="0 0 633.26 137.25"><defs><style>.cls-1{fill:#fff;}.cls-2{fill-rule:evenodd;fill:url(#linear-gradient);}</style><linearGradient id="linear-gradient" x1="68.97" y1="137.25" x2="68.97" gradientUnits="userSpaceOnUse"><stop offset="0" stop-color="#ef6e22"/><stop offset="0.44" stop-color="#ef7024"/><stop offset="0.65" stop-color="#f1782a"/><stop offset="0.82" stop-color="#f48535"/><stop offset="0.96" stop-color="#f89844"/><stop offset="1" stop-color="#f99e49"/></linearGradient></defs><title>Logo TM white</title><path class="cls-1" d="M201.54,40a36.45,36.45,0,0,1,13.34,2.33A28.73,28.73,0,0,1,225.16,49a30.38,30.38,0,0,1,6.64,10.58,39.18,39.18,0,0,1,2.35,14,59.18,59.18,0,0,1-2.87,18.84A43,43,0,0,1,223,107.11a37.35,37.35,0,0,1-13.11,9.62,42.44,42.44,0,0,1-17.48,3.46A36.62,36.62,0,0,1,179,117.83a28.9,28.9,0,0,1-10.31-6.72,30.09,30.09,0,0,1-6.63-10.55,38.71,38.71,0,0,1-2.36-13.92,59.11,59.11,0,0,1,2.88-18.86A42.9,42.9,0,0,1,170.84,53,36.87,36.87,0,0,1,184,43.41,43.1,43.1,0,0,1,201.54,40Zm-1.48,13a22,22,0,0,0-10.61,2.52,24.2,24.2,0,0,0-8,6.91,31.93,31.93,0,0,0-5,10.27,44.49,44.49,0,0,0-1.73,12.64,29.65,29.65,0,0,0,1.34,9.24,19.64,19.64,0,0,0,3.81,6.88,16.1,16.1,0,0,0,6,4.25,20.58,20.58,0,0,0,7.92,1.45,22.23,22.23,0,0,0,10.6-2.49,24,24,0,0,0,8-6.88,32.1,32.1,0,0,0,5-10.28,44.8,44.8,0,0,0,1.72-12.64,29.44,29.44,0,0,0-1.34-9.24A19.22,19.22,0,0,0,214,58.73a16.48,16.48,0,0,0-6-4.27A20.07,20.07,0,0,0,200.06,53ZM288.21,119H277.13l.27-6.19a25.48,25.48,0,0,1-7.48,5.48,21,21,0,0,1-9,1.87,20.74,20.74,0,0,1-7.15-1.18,14.66,14.66,0,0,1-5.45-3.46,15.22,15.22,0,0,1-3.46-5.64,23.12,23.12,0,0,1-1.2-7.76c0-1.06.05-2.26.16-3.59s.31-2.86.61-4.58l4.87-30.92h14l-4.89,31.31c-.25,1.28-.41,2.32-.49,3.12s-.1,1.52-.1,2.14a12.16,12.16,0,0,0,.57,4,7.59,7.59,0,0,0,1.56,2.68,6.05,6.05,0,0,0,2.33,1.54,8.48,8.48,0,0,0,2.94.49,10.35,10.35,0,0,0,3.12-.47,12.88,12.88,0,0,0,3-1.37,18.09,18.09,0,0,0,2.9-2.24,28.63,28.63,0,0,0,2.8-3.1l6-38h14Zm40.51-56h14.74l-1.81,11.41H327l-3.88,24a18.31,18.31,0,0,0-.35,2.11,16,16,0,0,0-.09,1.68,5.49,5.49,0,0,0,1.49,4.19,5.78,5.78,0,0,0,4.12,1.4,12.75,12.75,0,0,0,4.43-.8,20,20,0,0,0,4.43-2.33l.28,11.73a24.4,24.4,0,0,1-6.84,2.88,29.88,29.88,0,0,1-7.28.91q-7.35,0-11.12-3.79t-3.76-11q0-.66,0-1.32c0-.44,0-.89.08-1.34s.09-1,.16-1.54.17-1.18.28-1.83l4-24.89h-7.46l1.81-11.41h7.41l2.14-13.48L331,48.48Zm34-20.23,5.21-.3c1.6-.09,3.14-.15,4.6-.19s2.86-.06,4.19-.08,2.68,0,4,0A59.16,59.16,0,0,1,396.1,44a33.86,33.86,0,0,1,11.41,5.23,23.06,23.06,0,0,1,7.09,8.31,24.12,24.12,0,0,1,2.44,11,32.34,32.34,0,0,1-2.79,13.65,30,30,0,0,1-8,10.5,39.91,39.91,0,0,1-12.72,7,62.71,62.71,0,0,1-16.86,3.15h-.38l-2.8,17.87H350.33ZM379.44,83h.66a15.34,15.34,0,0,0,5.83-1,11.83,11.83,0,0,0,4.14-2.69,10.75,10.75,0,0,0,2.47-3.92,13.53,13.53,0,0,0,.82-4.71,7.79,7.79,0,0,0-2.52-6.3q-2.52-2.14-7.51-2.14h-.55Zm63.92,17.71h21.1l-3.18,20H417l12.39-77.9h23.14Zm82.5-38.26H500.81l-1.48,9.32H523L519.77,91.4H496.2l-1.42,9.71h25l-3.12,19.62H468.46l12.39-77.9H529Zm78.89-19.63q-5.93,10.86-12.48,21.38A191.72,191.72,0,0,1,578.6,83.56q4.27,8.94,8.06,18t6.85,19.16H568.4q-1.1-3.23-2.22-6.39t-2.33-6.24c-.8-2.07-1.64-4.1-2.49-6.09s-1.75-4-2.66-5.89c-1.21,1.93-2.42,3.94-3.65,6s-2.43,4.16-3.62,6.28-2.32,4.22-3.39,6.3-2.08,4.09-3,6H521q5.6-11,12.23-22.09a225.5,225.5,0,0,1,14.63-21.49q-3.78-8.18-7.15-16.58t-6.33-17.74h25.16q1.92,5.76,4,11.13T567.8,64.6q3.56-5.16,6.77-10.47t6.17-11.3Z"/><path class="cls-1" d="M620.82,34.49H618l-1.43,9h-2l1.43-9h-2.84l.28-1.77h7.7Z"/><path class="cls-1" d="M633.26,32.72c0,1,0,1.92,0,2.84s-.08,1.82-.14,2.7-.14,1.76-.23,2.63-.19,1.72-.29,2.59h-2c.09-.74.17-1.48.25-2.22s.14-1.46.21-2.19.11-1.44.15-2.15.07-1.41.09-2.11l-3.76,8.67h-2.19l-1-8.7c-.2.7-.39,1.4-.57,2.12s-.36,1.43-.53,2.15-.33,1.46-.49,2.2-.31,1.48-.46,2.23h-2c.17-.87.34-1.73.53-2.59s.38-1.74.6-2.63.46-1.78.71-2.7.54-1.86.86-2.84h2.89l.95,8.34,3.61-8.34Z"/><path class="cls-2" d="M50.43,62.79a17,17,0,1,1-1.79,24,17,17,0,0,1,1.79-24m20.22-48a61.55,61.55,0,0,1,52.44,62l-7.41-.55a54.11,54.11,0,0,0-45.58-54ZM69.54,29.67a46.71,46.71,0,0,1,38.73,46l-7.43-.56A39.28,39.28,0,0,0,69,37.12l.49-6.58Zm36.37,60.7,7.59.57a54.14,54.14,0,1,1-58.32-69l-.56,7.56a46.71,46.71,0,1,0,51.29,60.87m14-6.58h0l-14.19-1.06h0l-5.45-.4A39.3,39.3,0,1,1,61.79,36.41L62.27,30l.08-1h-.07l.55-7.42h.07l.4-5.33.15-2.07A61.55,61.55,0,1,0,122.54,84ZM71.76,0a76.36,76.36,0,0,1,66.15,77.89l-7.41-.55A69,69,0,0,0,71.2,7.41Z"/></svg>