<svg id="Layer_1" data-name="Layer 1" xmlns="http://www.w3.org/2000/svg" viewBox="0 0 216 216"><defs><style>.cls-1{fill:#f16d10;}</style></defs><title>Software Development</title><path class="cls-1" d="M215.7,41.36c-.15-13.62-8.76-20-25.06-20-27.83-.06-55.67,0-83.5,0s-55.67-.05-83.5,0C7.74,21.35.11,27.69.06,41.1q-.13,52,0,104c0,13.7,7.93,20.25,24.36,20.26l67.3,0v30.5H60a5,5,0,1,0,0,10H156a5,5,0,0,0,0-10H124.28v-30.5l66.09,0c16,0,25.14-6.67,25.31-20Q216.33,93.35,215.7,41.36ZM205.31,144.88l-194.85-.24q-.12-48.72,0-97.45c0-12.58,6.94-18.51,21.31-18.53q37.73-.07,75.45,0c25.15,0,50.3,0,75.45,0,14.74,0,22.51,6,22.66,18.77Q205.86,96.15,205.31,144.88Z"/><path class="cls-1" d="M48.07,82l35-14.79L86.23,77,60.68,87,86.23,97l-3.17,9.84L48.07,92Z"/><path class="cls-1" d="M100.64,126.42H88.19l27.35-78.77h12.27Z"/><path class="cls-1" d="M167.93,92l-35,14.78L129.77,97l25.55-10L129.77,77l3.17-9.85,35,14.79Z"/></svg>