<svg xmlns="http://www.w3.org/2000/svg" viewBox="0 0 771.255 244.633">
  <defs>
    <style>
      .cls-1 {
        fill: #545a66;
      }

      .cls-2 {
        fill: #f17821;
      }

      .cls-3 {
        fill: #fff;
      }
    </style>
  </defs>
  <g id="Group_340" data-name="Group 340" transform="translate(0)">
    <g id="Group_339" data-name="Group 339">
      <g id="Group_337" data-name="Group 337" transform="translate(74.342)">
        <path id="Path_2227" data-name="Path 2227" class="cls-1" d="M128.394,21.949a9.1,9.1,0,0,1-3.472-.62,8.087,8.087,0,0,1-2.666-1.8,8.767,8.767,0,0,1-1.736-2.976,11.707,11.707,0,0,1-.62-4.03,11.68,11.68,0,0,1,.682-4.03,8.1,8.1,0,0,1,1.86-2.976,7.226,7.226,0,0,1,2.728-1.8,8.685,8.685,0,0,1,3.348-.62,10.452,10.452,0,0,1,2.046.186c.62.124,1.116.248,1.55.372a3.372,3.372,0,0,1,1.054.434,3.575,3.575,0,0,1,.558.31l-.744,2.108a1.744,1.744,0,0,0-.682-.31c-.31-.124-.62-.248-.992-.372a7.252,7.252,0,0,0-1.24-.31,9.287,9.287,0,0,0-1.364-.124,7.206,7.206,0,0,0-2.6.5,4.887,4.887,0,0,0-1.922,1.426,6.257,6.257,0,0,0-1.24,2.294,9.223,9.223,0,0,0-.434,3.038,10.706,10.706,0,0,0,.372,2.914,6.6,6.6,0,0,0,1.116,2.294,5.49,5.49,0,0,0,1.86,1.488,5.858,5.858,0,0,0,2.666.5,9.8,9.8,0,0,0,2.914-.372,8.387,8.387,0,0,0,1.736-.682l.682,2.108a3.8,3.8,0,0,1-.682.31c-.372.124-.682.248-1.178.372a10.645,10.645,0,0,1-1.612.31C129.82,21.887,129.138,21.949,128.394,21.949Z" transform="translate(-119.9 -1.178)"/>
        <path id="Path_2228" data-name="Path 2228" class="cls-1" d="M150.892,20.761a4.673,4.673,0,0,1-3.162-.992,3.851,3.851,0,0,1-.93-2.852V.734L149.218.3V16.545a4.315,4.315,0,0,0,.124.992,1.454,1.454,0,0,0,.31.62,2.064,2.064,0,0,0,.62.372,9.73,9.73,0,0,0,.992.186Z" transform="translate(-130.121 -0.114)"/>
        <path id="Path_2229" data-name="Path 2229" class="cls-1" d="M159.35,5.124a1.494,1.494,0,0,1-1.116-.434,1.544,1.544,0,0,1-.434-1.178,1.544,1.544,0,0,1,.434-1.178,1.652,1.652,0,0,1,2.232,0,1.543,1.543,0,0,1,.434,1.178,1.543,1.543,0,0,1-.434,1.178A1.494,1.494,0,0,1,159.35,5.124Zm1.24,16h-2.418V7.542h2.418Z" transform="translate(-134.301 -0.722)"/>
        <path id="Path_2230" data-name="Path 2230" class="cls-1" d="M167.8,17.63a9.951,9.951,0,0,1,.5-3.162,7.965,7.965,0,0,1,1.364-2.232,4.621,4.621,0,0,1,1.984-1.3,5.807,5.807,0,0,1,2.294-.434,5.215,5.215,0,0,1,4.216,1.736q1.488,1.674,1.488,5.208v.868h-9.3a4.948,4.948,0,0,0,1.24,3.224,4.358,4.358,0,0,0,3.348,1.116,7.463,7.463,0,0,0,2.17-.248,7.889,7.889,0,0,0,1.3-.434l.31,2.046a6.46,6.46,0,0,1-1.55.5,10.387,10.387,0,0,1-2.542.248,7.593,7.593,0,0,1-3.038-.558,5.885,5.885,0,0,1-2.108-1.488,5.623,5.623,0,0,1-1.24-2.232A8.347,8.347,0,0,1,167.8,17.63Zm9.238-1.3a4.026,4.026,0,0,0-.806-2.666,2.924,2.924,0,0,0-2.356-1.054,3.746,3.746,0,0,0-1.488.31,2.941,2.941,0,0,0-1.054.868,4.489,4.489,0,0,0-.682,1.178,5.417,5.417,0,0,0-.31,1.364Z" transform="translate(-138.101 -3.99)"/>
        <path id="Path_2231" data-name="Path 2231" class="cls-1" d="M192.362,11.282c.558-.124,1.3-.31,2.232-.434a16.361,16.361,0,0,1,3.162-.248,6.668,6.668,0,0,1,2.666.434,4.585,4.585,0,0,1,1.736,1.3,4.144,4.144,0,0,1,.868,1.984,10.714,10.714,0,0,1,.248,2.542v7.626h-2.418v-7.13a10.228,10.228,0,0,0-.186-2.108,3.8,3.8,0,0,0-.558-1.426,2.3,2.3,0,0,0-1.054-.806,4.2,4.2,0,0,0-1.612-.248h-.806c-.248,0-.558.062-.806.062s-.5.062-.682.062a1.4,1.4,0,0,1-.434.062V24.365H192.3V11.282Z" transform="translate(-147.41 -4.028)"/>
        <path id="Path_2232" data-name="Path 2232" class="cls-1" d="M218.756,8.454H223.9V10.5h-5.146v6.262a6.24,6.24,0,0,0,.186,1.674,2.386,2.386,0,0,0,.5,1.054,1.888,1.888,0,0,0,.806.558,3,3,0,0,0,1.116.186,4.476,4.476,0,0,0,1.736-.248q.651-.279.93-.372l.5,1.984a10.246,10.246,0,0,1-1.3.434,7.289,7.289,0,0,1-2.108.248,6.126,6.126,0,0,1-2.294-.372,3.086,3.086,0,0,1-1.426-1.054,4,4,0,0,1-.744-1.736,13.088,13.088,0,0,1-.248-2.356V4.734l2.418-.434V8.454Z" transform="translate(-156.567 -1.634)"/>
        <path id="Path_2233" data-name="Path 2233" class="cls-1" d="M241.28,25.235H238.8L247.6,0h2.418Z" transform="translate(-165.078)"/>
        <path id="Path_2234" data-name="Path 2234" class="cls-1" d="M257.38,25.235H254.9L263.7,0h2.418Z" transform="translate(-171.196)"/>
        <path id="Path_2235" data-name="Path 2235" class="cls-1" d="M285.6,7.52a16.187,16.187,0,0,0,2.914-1.488,14.625,14.625,0,0,0,2.6-2.232h1.736V21.843h-2.418V7.148c-.186.186-.434.372-.744.62a5.354,5.354,0,0,1-.992.62l-1.116.558a8.28,8.28,0,0,1-1.116.434Z" transform="translate(-182.861 -1.444)"/>
        <path id="Path_2236" data-name="Path 2236" class="cls-1" d="M309.3,7.52a16.189,16.189,0,0,0,2.914-1.488,14.624,14.624,0,0,0,2.6-2.232h1.736V21.843h-2.48V7.148c-.186.186-.434.372-.744.62a5.355,5.355,0,0,1-.992.62l-1.116.558a8.28,8.28,0,0,1-1.116.434Z" transform="translate(-191.866 -1.444)"/>
        <path id="Path_2237" data-name="Path 2237" class="cls-1" d="M334.9,12.836a1.843,1.843,0,0,1-.5,1.24,1.562,1.562,0,0,1-1.3.5,1.776,1.776,0,0,1-1.3-.5,1.8,1.8,0,0,1,0-2.48,1.562,1.562,0,0,1,1.3-.5,1.776,1.776,0,0,1,1.3.5A1.731,1.731,0,0,1,334.9,12.836Zm0,10.355a1.843,1.843,0,0,1-.5,1.24,1.562,1.562,0,0,1-1.3.5,1.776,1.776,0,0,1-1.3-.5,1.8,1.8,0,0,1,0-2.48,1.562,1.562,0,0,1,1.3-.5,1.776,1.776,0,0,1,1.3.5A1.969,1.969,0,0,1,334.9,23.191Z" transform="translate(-200.226 -4.218)"/>
        <path id="Path_2238" data-name="Path 2238" class="cls-1" d="M341.5,12.524a13.013,13.013,0,0,1,1.612-7.006A5.036,5.036,0,0,1,347.576,3.1a5.107,5.107,0,0,1,4.464,2.418,12.866,12.866,0,0,1,1.612,7.006,13.013,13.013,0,0,1-1.612,7.006,4.911,4.911,0,0,1-4.464,2.418,5.107,5.107,0,0,1-4.464-2.418A13.013,13.013,0,0,1,341.5,12.524Zm9.548,0a19.757,19.757,0,0,0-.186-2.79A10.36,10.36,0,0,0,350.3,7.44a3.618,3.618,0,0,0-1.054-1.55,2.79,2.79,0,0,0-3.348,0,4.042,4.042,0,0,0-1.054,1.55,11.3,11.3,0,0,0-.558,2.294,19.757,19.757,0,0,0-.186,2.79,19.757,19.757,0,0,0,.186,2.79,10.362,10.362,0,0,0,.558,2.294,3.618,3.618,0,0,0,1.054,1.55,2.79,2.79,0,0,0,3.348,0,4.042,4.042,0,0,0,1.054-1.55,11.3,11.3,0,0,0,.558-2.294A19.757,19.757,0,0,0,351.048,12.524Z" transform="translate(-204.101 -1.178)"/>
        <path id="Path_2239" data-name="Path 2239" class="cls-1" d="M376.241,8.046a4.449,4.449,0,0,1-.372,1.8,8.273,8.273,0,0,1-.992,1.736,17.08,17.08,0,0,1-1.426,1.674c-.558.558-1.054,1.054-1.55,1.612l-1.054,1.054c-.372.372-.744.806-1.116,1.24a11.524,11.524,0,0,0-.868,1.24,1.976,1.976,0,0,0-.372,1.054H376.8V21.5H365.886v-.62a5.807,5.807,0,0,1,.434-2.294,8.737,8.737,0,0,1,1.054-1.984,13.465,13.465,0,0,1,1.488-1.8c.558-.558,1.054-1.116,1.612-1.612.434-.434.868-.806,1.24-1.24s.744-.806,1.054-1.24a6.571,6.571,0,0,0,.744-1.24,3.336,3.336,0,0,0,.248-1.364,2.715,2.715,0,0,0-.248-1.3,2.712,2.712,0,0,0-1.674-1.488,3.61,3.61,0,0,0-1.178-.186,4.536,4.536,0,0,0-1.364.186,4.653,4.653,0,0,0-1.116.5,4.526,4.526,0,0,0-.806.558c-.248.186-.372.372-.5.434L365.7,5.07a7.466,7.466,0,0,1,.682-.62,8.7,8.7,0,0,1,1.116-.744,5.3,5.3,0,0,1,1.488-.558,7.816,7.816,0,0,1,1.736-.248A6.2,6.2,0,0,1,375,4.2,5.838,5.838,0,0,1,376.241,8.046Z" transform="translate(-213.297 -1.102)"/>
      </g>
      <path id="Path_2240" data-name="Path 2240" class="cls-2" d="M78.983,325.1s9.672,42.72-19.283,41.356c0,0,43.9,13.579,52.269-35.9Z" transform="translate(-22.684 -123.528)"/>
      <path id="Path_2241" data-name="Path 2241" class="cls-2" d="M690.279,237.693H80.976A81,81,0,0,1,0,156.717V136.876A81,81,0,0,1,80.976,55.9h609.3a81,81,0,0,1,80.976,80.976v19.841A80.959,80.959,0,0,1,690.279,237.693Z" transform="translate(0 -21.24)"/>
      <g id="Group_338" data-name="Group 338" transform="translate(56.609 80.542)">
        <path id="Path_2242" data-name="Path 2242" class="cls-3" d="M104.959,135.446c.248.93.558,1.922.868,2.914s.62,2.046.992,3.038c.31.992.682,1.984.992,2.976s.682,1.922.992,2.79c.248-.93.5-1.984.744-3.038.248-1.116.5-2.232.744-3.41s.5-2.418.744-3.658.434-2.418.682-3.658h3.41c-.62,3.286-1.3,6.386-2.046,9.424s-1.55,5.89-2.48,8.618h-3.162c-1.364-3.534-2.666-7.316-3.906-11.471-.62,2.108-1.3,4.092-1.984,6.014s-1.3,3.72-1.984,5.518h-3.1a87.388,87.388,0,0,1-2.48-8.618c-.744-3.038-1.426-6.138-1.984-9.424h3.534c.186,1.178.434,2.418.682,3.6.248,1.24.5,2.418.744,3.658.248,1.178.5,2.356.744,3.472s.5,2.108.806,3.1c.31-.868.682-1.8.992-2.79s.682-1.984.992-2.976.62-2.046.93-3.038.558-1.984.868-2.914h2.666Z" transform="translate(-91.566 -131.23)"/>
        <path id="Path_2243" data-name="Path 2243" class="cls-3" d="M131.4,147.292a8.456,8.456,0,0,1,.558-3.162,5.777,5.777,0,0,1,1.426-2.232,5.65,5.65,0,0,1,2.046-1.364,6.112,6.112,0,0,1,2.356-.434,5.613,5.613,0,0,1,4.4,1.736,7.58,7.58,0,0,1,1.55,5.208v.558a1.376,1.376,0,0,1-.062.558h-8.99a3.53,3.53,0,0,0,1.178,2.542,4.271,4.271,0,0,0,2.976.868,11.115,11.115,0,0,0,2.108-.186,11.4,11.4,0,0,0,1.488-.434l.434,2.6a5.168,5.168,0,0,1-.744.248,4.4,4.4,0,0,1-1.054.248c-.372.062-.806.124-1.24.186a10.044,10.044,0,0,1-1.364.062,7.909,7.909,0,0,1-3.1-.558,6.14,6.14,0,0,1-2.17-1.488,6.622,6.622,0,0,1-1.3-2.232A7.63,7.63,0,0,1,131.4,147.292Zm9.176-1.426a4,4,0,0,0-.186-1.24,2.587,2.587,0,0,0-.558-.992,3.259,3.259,0,0,0-.868-.682,2.459,2.459,0,0,0-1.24-.248,2.876,2.876,0,0,0-1.3.248,2.746,2.746,0,0,0-.93.744,3.145,3.145,0,0,0-.558.992,6.541,6.541,0,0,0-.31,1.178h5.952Z" transform="translate(-106.537 -133.776)"/>
        <path id="Path_2244" data-name="Path 2244" class="cls-3" d="M158.916,130.7a2.109,2.109,0,0,0,.062.62v.558a10.2,10.2,0,0,1-.62,3.038,9.909,9.909,0,0,1-1.364,2.542l-2.294-.62a10.079,10.079,0,0,0,.806-2.418,11.749,11.749,0,0,0,.31-2.418v-.558a3.019,3.019,0,0,0-.062-.744h3.162Z" transform="translate(-115.39 -130.204)"/>
        <path id="Path_2245" data-name="Path 2245" class="cls-3" d="M174.95,143.238a9.036,9.036,0,0,0-1.054-.248,6.3,6.3,0,0,0-1.612-.124,6.833,6.833,0,0,0-1.116.124,3.906,3.906,0,0,0-.806.186v10.913H167.2V141.13a13.294,13.294,0,0,1,2.294-.62,15.256,15.256,0,0,1,3.038-.31,3.559,3.559,0,0,1,.744.062,3.629,3.629,0,0,1,.806.124c.248.062.558.124.806.186a3.849,3.849,0,0,1,.62.186Z" transform="translate(-120.14 -133.814)"/>
        <path id="Path_2246" data-name="Path 2246" class="cls-3" d="M182.9,147.292a8.456,8.456,0,0,1,.558-3.162,5.777,5.777,0,0,1,1.426-2.232,5.65,5.65,0,0,1,2.046-1.364,6.112,6.112,0,0,1,2.356-.434,5.613,5.613,0,0,1,4.4,1.736,7.58,7.58,0,0,1,1.55,5.208v.558a1.376,1.376,0,0,1-.062.558h-8.99a3.53,3.53,0,0,0,1.178,2.542,4.271,4.271,0,0,0,2.976.868,11.115,11.115,0,0,0,2.108-.186,11.4,11.4,0,0,0,1.488-.434l.434,2.6a5.168,5.168,0,0,1-.744.248,4.4,4.4,0,0,1-1.054.248c-.372.062-.806.124-1.24.186a10.045,10.045,0,0,1-1.364.062,7.909,7.909,0,0,1-3.1-.558,6.14,6.14,0,0,1-2.17-1.488,6.622,6.622,0,0,1-1.3-2.232A6.487,6.487,0,0,1,182.9,147.292Zm9.176-1.426a4,4,0,0,0-.186-1.24,2.587,2.587,0,0,0-.558-.992,3.26,3.26,0,0,0-.868-.682,2.459,2.459,0,0,0-1.24-.248,2.876,2.876,0,0,0-1.3.248,2.745,2.745,0,0,0-.93.744,3.146,3.146,0,0,0-.558.992,6.542,6.542,0,0,0-.31,1.178h5.952Z" transform="translate(-126.105 -133.776)"/>
        <path id="Path_2247" data-name="Path 2247" class="cls-3" d="M221.818,140a7.724,7.724,0,0,1,2.6.372,4.2,4.2,0,0,1,1.736,1.116,4.275,4.275,0,0,1,.93,1.736,8.323,8.323,0,0,1,.248,2.17v8.246a21.583,21.583,0,0,1-2.17.372,26.416,26.416,0,0,1-3.348.248,8.495,8.495,0,0,1-2.232-.248,6.371,6.371,0,0,1-1.736-.744,3.4,3.4,0,0,1-1.116-1.364,4.991,4.991,0,0,1-.434-2.046,3.915,3.915,0,0,1,.434-1.984,3.581,3.581,0,0,1,1.24-1.3,6.817,6.817,0,0,1,1.8-.744,12.231,12.231,0,0,1,2.17-.248,7.121,7.121,0,0,1,1.116.062,10.954,10.954,0,0,1,1.24.248v-.5a6.109,6.109,0,0,0-.124-1.054,1.915,1.915,0,0,0-.434-.868,2.1,2.1,0,0,0-.868-.558,4.261,4.261,0,0,0-1.364-.186,9.385,9.385,0,0,0-1.984.186,12.862,12.862,0,0,0-1.488.372l-.372-2.542c.372-.124.992-.248,1.736-.434A7.611,7.611,0,0,1,221.818,140Zm.248,11.781a9.916,9.916,0,0,0,2.232-.186v-3.472a6.436,6.436,0,0,0-.744-.186,9.514,9.514,0,0,0-2.17,0,2.657,2.657,0,0,0-.992.31,1.516,1.516,0,0,0-.682.558,1.494,1.494,0,0,0-.248.93,1.764,1.764,0,0,0,.682,1.55A3.525,3.525,0,0,0,222.066,151.781Z" transform="translate(-138.796 -133.738)"/>
        <path id="Path_2248" data-name="Path 2248" class="cls-3" d="M252.826,151.719a4.254,4.254,0,0,0,1.8-.31,1.086,1.086,0,0,0,.558-1.054,1.314,1.314,0,0,0-.62-1.116,8.943,8.943,0,0,0-2.046-.992,8.967,8.967,0,0,1-1.55-.682,6.115,6.115,0,0,1-1.24-.806,2.87,2.87,0,0,1-.806-1.116,4.147,4.147,0,0,1-.31-1.612,3.592,3.592,0,0,1,1.364-2.976,5.767,5.767,0,0,1,3.72-1.054,9.3,9.3,0,0,1,2.294.248,7.965,7.965,0,0,1,1.612.434l-.558,2.542a6.405,6.405,0,0,0-1.3-.434,8.591,8.591,0,0,0-1.86-.186,3.614,3.614,0,0,0-1.55.31,1.179,1.179,0,0,0-.62.992,1.835,1.835,0,0,0,.124.62,1.041,1.041,0,0,0,.434.5,3.935,3.935,0,0,0,.744.434,10.584,10.584,0,0,0,1.116.434,20.066,20.066,0,0,1,1.922.806,4.965,4.965,0,0,1,1.3.93,3.432,3.432,0,0,1,.744,1.178,3.874,3.874,0,0,1,.248,1.55,3.484,3.484,0,0,1-1.426,2.976,7.225,7.225,0,0,1-4.154.992,12.305,12.305,0,0,1-2.914-.31,11.593,11.593,0,0,1-1.55-.5l.558-2.6q.744.279,1.674.558A13.676,13.676,0,0,0,252.826,151.719Z" transform="translate(-150.955 -133.738)"/>
        <path id="Path_2249" data-name="Path 2249" class="cls-3" d="M281.183,147.168a8.7,8.7,0,0,1-.5,2.914,7.6,7.6,0,0,1-1.3,2.294,5.941,5.941,0,0,1-4.712,1.984,7.29,7.29,0,0,1-2.666-.5,5.454,5.454,0,0,1-2.046-1.488,8.33,8.33,0,0,1-1.364-2.294,8.809,8.809,0,0,1,0-5.828,6.222,6.222,0,0,1,3.41-3.658,7.206,7.206,0,0,1,2.6-.5,7.545,7.545,0,0,1,2.666.5,5.308,5.308,0,0,1,2.046,1.426,7.964,7.964,0,0,1,1.364,2.232A8.7,8.7,0,0,1,281.183,147.168Zm-3.224,0a5.521,5.521,0,0,0-.868-3.224,3.071,3.071,0,0,0-4.836,0,5.521,5.521,0,0,0-.868,3.224,5.387,5.387,0,0,0,.868,3.224,3.071,3.071,0,0,0,4.836,0A5.387,5.387,0,0,0,277.959,147.168Z" transform="translate(-158.479 -133.776)"/>
        <path id="Path_2250" data-name="Path 2250" class="cls-3" d="M299.98,129.9a8.782,8.782,0,0,1,1.922.186,6.106,6.106,0,0,1,1.24.372l-.62,2.6a4.258,4.258,0,0,0-1.054-.31,7.632,7.632,0,0,0-1.24-.124,2.876,2.876,0,0,0-1.3.248,1.664,1.664,0,0,0-.806.62,2.158,2.158,0,0,0-.434.93,7.635,7.635,0,0,0-.124,1.24v.93h4.96v2.6h-4.96v10.975H294.4V135.542a6,6,0,0,1,1.364-4.154A5.791,5.791,0,0,1,299.98,129.9Z" transform="translate(-168.472 -129.9)"/>
        <path id="Path_2251" data-name="Path 2251" class="cls-3" d="M311,134.5l3.162-.5v4.092H319v2.6h-4.836v5.518a4.44,4.44,0,0,0,.5,2.356,1.958,1.958,0,0,0,1.8.682,6.246,6.246,0,0,0,1.55-.186c.434-.124.806-.248,1.054-.31l.5,2.48a12.345,12.345,0,0,1-1.426.5,7.288,7.288,0,0,1-2.108.248,6.6,6.6,0,0,1-2.418-.372,3.246,3.246,0,0,1-1.55-1.116,4.334,4.334,0,0,1-.806-1.8,9.359,9.359,0,0,1-.248-2.418Z" transform="translate(-174.779 -131.458)"/>
        <path id="Path_2252" data-name="Path 2252" class="cls-3" d="M335.858,145.622q-.558,2.325-1.3,4.464c-.5,1.426-.93,2.79-1.364,4.092h-2.6c-.372-.806-.744-1.736-1.116-2.728s-.744-2.108-1.178-3.286c-.372-1.178-.744-2.356-1.178-3.658L326,140.6h3.348c.186.744.31,1.488.558,2.356s.434,1.674.682,2.6.434,1.736.682,2.542.5,1.612.744,2.294c.248-.806.5-1.612.744-2.48s.5-1.674.744-2.542.434-1.674.62-2.48.372-1.55.558-2.294H337.1c.186.682.31,1.488.5,2.294s.372,1.612.62,2.48c.186.868.434,1.674.682,2.542s.5,1.674.744,2.48c.248-.682.434-1.488.682-2.294s.5-1.674.744-2.542.434-1.736.682-2.6c.186-.868.372-1.612.558-2.356h3.286q-.558,2.046-1.116,3.906c-.372,1.3-.744,2.48-1.178,3.658-.372,1.178-.744,2.232-1.178,3.286-.372,1.054-.744,1.922-1.116,2.728h-2.542c-.434-1.3-.93-2.666-1.364-4.092S336.293,147.172,335.858,145.622Z" transform="translate(-180.479 -133.966)"/>
        <path id="Path_2253" data-name="Path 2253" class="cls-3" d="M365.518,140a7.724,7.724,0,0,1,2.6.372,4.2,4.2,0,0,1,1.736,1.116,4.276,4.276,0,0,1,.93,1.736,8.324,8.324,0,0,1,.248,2.17v8.246a21.584,21.584,0,0,1-2.17.372,26.415,26.415,0,0,1-3.348.248,8.495,8.495,0,0,1-2.232-.248,6.371,6.371,0,0,1-1.736-.744,3.4,3.4,0,0,1-1.116-1.364,4.992,4.992,0,0,1-.434-2.046,3.915,3.915,0,0,1,.434-1.984,3.581,3.581,0,0,1,1.24-1.3,6.817,6.817,0,0,1,1.8-.744,12.231,12.231,0,0,1,2.17-.248,7.121,7.121,0,0,1,1.116.062,10.954,10.954,0,0,1,1.24.248v-.5a6.111,6.111,0,0,0-.124-1.054,1.915,1.915,0,0,0-.434-.868,2.1,2.1,0,0,0-.868-.558,4.261,4.261,0,0,0-1.364-.186,9.385,9.385,0,0,0-1.984.186,12.862,12.862,0,0,0-1.488.372l-.372-2.542c.372-.124.992-.248,1.736-.434A7.381,7.381,0,0,1,365.518,140Zm.248,11.781a9.917,9.917,0,0,0,2.232-.186v-3.472a6.44,6.44,0,0,0-.744-.186,9.514,9.514,0,0,0-2.17,0,2.656,2.656,0,0,0-.992.31,1.516,1.516,0,0,0-.682.558,1.494,1.494,0,0,0-.248.93,1.764,1.764,0,0,0,.682,1.55A3.525,3.525,0,0,0,365.766,151.781Z" transform="translate(-193.398 -133.738)"/>
        <path id="Path_2254" data-name="Path 2254" class="cls-3" d="M391.75,143.238a9.036,9.036,0,0,0-1.054-.248,6.3,6.3,0,0,0-1.612-.124,6.832,6.832,0,0,0-1.116.124,3.905,3.905,0,0,0-.806.186v10.913H384V141.13a13.294,13.294,0,0,1,2.294-.62,15.257,15.257,0,0,1,3.038-.31,3.559,3.559,0,0,1,.744.062,3.628,3.628,0,0,1,.806.124c.248.062.558.124.806.186a3.849,3.849,0,0,1,.62.186Z" transform="translate(-202.517 -133.814)"/>
        <path id="Path_2255" data-name="Path 2255" class="cls-3" d="M399.7,147.292a8.456,8.456,0,0,1,.558-3.162,5.776,5.776,0,0,1,1.426-2.232,5.649,5.649,0,0,1,2.046-1.364,6.111,6.111,0,0,1,2.356-.434,5.613,5.613,0,0,1,4.4,1.736,7.579,7.579,0,0,1,1.55,5.208v.558a1.377,1.377,0,0,1-.062.558h-8.99a3.53,3.53,0,0,0,1.178,2.542,4.271,4.271,0,0,0,2.976.868,11.113,11.113,0,0,0,2.108-.186,11.4,11.4,0,0,0,1.488-.434l.434,2.6a5.167,5.167,0,0,1-.744.248,4.4,4.4,0,0,1-1.054.248c-.372.062-.806.124-1.24.186a10.044,10.044,0,0,1-1.364.062,7.909,7.909,0,0,1-3.1-.558,6.14,6.14,0,0,1-2.17-1.488,6.622,6.622,0,0,1-1.3-2.232A6.488,6.488,0,0,1,399.7,147.292Zm9.114-1.426a4,4,0,0,0-.186-1.24,2.586,2.586,0,0,0-.558-.992,3.258,3.258,0,0,0-.868-.682,2.459,2.459,0,0,0-1.24-.248,2.876,2.876,0,0,0-1.3.248,2.745,2.745,0,0,0-.93.744,3.145,3.145,0,0,0-.558.992,6.537,6.537,0,0,0-.31,1.178h5.952Z" transform="translate(-208.483 -133.776)"/>
        <path id="Path_2256" data-name="Path 2256" class="cls-3" d="M445.677,149.817a15.413,15.413,0,0,1-2.356.5,15.22,15.22,0,0,1-2.976.248,8.7,8.7,0,0,1-2.914-.5,5.76,5.76,0,0,1-2.17-1.426,5.864,5.864,0,0,1-1.364-2.232,9.565,9.565,0,0,1-.062-5.89,6.393,6.393,0,0,1,1.178-2.232,4.887,4.887,0,0,1,1.922-1.426,6.723,6.723,0,0,1,2.6-.5,4.889,4.889,0,0,1,1.736.248c.5.186.93.31,1.3.5V130.6l3.162-.5v19.717Zm-8.99-6.448a4.952,4.952,0,0,0,.992,3.286,3.315,3.315,0,0,0,2.728,1.178,8.324,8.324,0,0,0,1.3-.062c.372-.062.62-.062.868-.124v-7.812a4.616,4.616,0,0,0-1.116-.558,3.752,3.752,0,0,0-1.488-.248,2.885,2.885,0,0,0-2.542,1.178A5.678,5.678,0,0,0,436.686,143.369Z" transform="translate(-221.288 -129.976)"/>
        <path id="Path_2257" data-name="Path 2257" class="cls-3" d="M458.5,147.292a8.456,8.456,0,0,1,.558-3.162,5.776,5.776,0,0,1,1.426-2.232,5.649,5.649,0,0,1,2.046-1.364,6.112,6.112,0,0,1,2.356-.434,5.612,5.612,0,0,1,4.4,1.736,7.579,7.579,0,0,1,1.55,5.208v.558a1.376,1.376,0,0,1-.062.558h-8.99a3.53,3.53,0,0,0,1.178,2.542,4.271,4.271,0,0,0,2.976.868,11.114,11.114,0,0,0,2.108-.186,11.4,11.4,0,0,0,1.488-.434l.434,2.6a5.17,5.17,0,0,1-.744.248,4.4,4.4,0,0,1-1.054.248c-.372.062-.806.124-1.24.186a10.044,10.044,0,0,1-1.364.062,7.909,7.909,0,0,1-3.1-.558,6.14,6.14,0,0,1-2.17-1.488,6.621,6.621,0,0,1-1.3-2.232A6.489,6.489,0,0,1,458.5,147.292Zm9.114-1.426a4,4,0,0,0-.186-1.24,2.587,2.587,0,0,0-.558-.992,3.259,3.259,0,0,0-.868-.682,2.459,2.459,0,0,0-1.24-.248,2.876,2.876,0,0,0-1.3.248,2.746,2.746,0,0,0-.93.744,3.145,3.145,0,0,0-.558.992,6.545,6.545,0,0,0-.31,1.178h5.952Z" transform="translate(-230.825 -133.776)"/>
        <path id="Path_2258" data-name="Path 2258" class="cls-3" d="M486.146,154.179c-.868-1.8-1.736-3.844-2.666-6.138A69.72,69.72,0,0,1,481,140.6h3.348c.186.744.434,1.612.682,2.48s.5,1.736.806,2.6.558,1.736.868,2.542.558,1.55.868,2.232c.248-.682.558-1.426.806-2.232.31-.806.558-1.674.868-2.542s.558-1.736.806-2.6.5-1.674.682-2.48h3.286c-.744,2.666-1.612,5.146-2.48,7.44-.93,2.294-1.8,4.34-2.666,6.138Z" transform="translate(-239.374 -133.966)"/>
        <path id="Path_2259" data-name="Path 2259" class="cls-3" d="M504,147.292a8.456,8.456,0,0,1,.558-3.162,5.777,5.777,0,0,1,1.426-2.232,5.649,5.649,0,0,1,2.046-1.364,6.112,6.112,0,0,1,2.356-.434,5.612,5.612,0,0,1,4.4,1.736,7.58,7.58,0,0,1,1.55,5.208v.558a1.376,1.376,0,0,1-.062.558h-8.99a3.53,3.53,0,0,0,1.178,2.542,4.271,4.271,0,0,0,2.976.868,11.115,11.115,0,0,0,2.108-.186,11.4,11.4,0,0,0,1.488-.434l.434,2.6a5.167,5.167,0,0,1-.744.248,4.4,4.4,0,0,1-1.054.248c-.372.062-.806.124-1.24.186a10.045,10.045,0,0,1-1.364.062,7.908,7.908,0,0,1-3.1-.558,6.14,6.14,0,0,1-2.17-1.488,6.621,6.621,0,0,1-1.3-2.232A7.63,7.63,0,0,1,504,147.292Zm9.176-1.426a4,4,0,0,0-.186-1.24,2.585,2.585,0,0,0-.558-.992,3.257,3.257,0,0,0-.868-.682,2.459,2.459,0,0,0-1.24-.248,2.876,2.876,0,0,0-1.3.248,2.745,2.745,0,0,0-.93.744,3.145,3.145,0,0,0-.558.992,6.545,6.545,0,0,0-.31,1.178h5.952Z" transform="translate(-248.114 -133.776)"/>
        <path id="Path_2260" data-name="Path 2260" class="cls-3" d="M533.936,150.5a8.348,8.348,0,0,1-2.356-.31,3.431,3.431,0,0,1-1.488-.806,2.759,2.759,0,0,1-.744-1.3,7.863,7.863,0,0,1-.248-1.8V130.6l3.162-.5v15.625a5.011,5.011,0,0,0,.062.992,2.292,2.292,0,0,0,.31.682,1.583,1.583,0,0,0,.62.434,3.765,3.765,0,0,0,1.054.248Z" transform="translate(-257.651 -129.976)"/>
        <path id="Path_2261" data-name="Path 2261" class="cls-3" d="M553.583,147.168a8.7,8.7,0,0,1-.5,2.914,7.6,7.6,0,0,1-1.3,2.294,5.941,5.941,0,0,1-4.712,1.984,7.29,7.29,0,0,1-2.666-.5,5.455,5.455,0,0,1-2.046-1.488A8.331,8.331,0,0,1,541,150.082a8.808,8.808,0,0,1,0-5.828,6.222,6.222,0,0,1,3.41-3.658,7.206,7.206,0,0,1,2.6-.5,7.545,7.545,0,0,1,2.666.5,5.308,5.308,0,0,1,2.046,1.426,7.965,7.965,0,0,1,1.364,2.232A8.7,8.7,0,0,1,553.583,147.168Zm-3.224,0a5.521,5.521,0,0,0-.868-3.224,3.071,3.071,0,0,0-4.836,0,5.521,5.521,0,0,0-.868,3.224,5.387,5.387,0,0,0,.868,3.224,3.071,3.071,0,0,0,4.836,0A5.387,5.387,0,0,0,550.359,147.168Z" transform="translate(-261.983 -133.776)"/>
        <path id="Path_2262" data-name="Path 2262" class="cls-3" d="M579.077,147.23a8.348,8.348,0,0,1-.434,2.852,6.393,6.393,0,0,1-1.178,2.232,5.49,5.49,0,0,1-1.86,1.488,5.65,5.65,0,0,1-2.542.5,5.734,5.734,0,0,1-1.8-.248,7.23,7.23,0,0,1-1.3-.5v5.27H566.8V140.844c.62-.186,1.426-.31,2.356-.5a15.22,15.22,0,0,1,2.976-.248,8.7,8.7,0,0,1,2.914.5,5.76,5.76,0,0,1,2.17,1.426,5.864,5.864,0,0,1,1.364,2.232A7.5,7.5,0,0,1,579.077,147.23Zm-3.224.062a5.18,5.18,0,0,0-.93-3.286,3.633,3.633,0,0,0-3.038-1.178,4.693,4.693,0,0,0-.93.062,2.489,2.489,0,0,0-.93.186v7.812a4.618,4.618,0,0,0,1.116.558,3.752,3.752,0,0,0,1.488.248,2.885,2.885,0,0,0,2.542-1.178A7.093,7.093,0,0,0,575.852,147.292Z" transform="translate(-271.976 -133.776)"/>
        <path id="Path_2263" data-name="Path 2263" class="cls-3" d="M599.65,146.82a6.405,6.405,0,0,0-.558-3.1,2.078,2.078,0,0,0-1.984-.93,6.736,6.736,0,0,0-1.116.062c-.434.062-.744.124-.93.124v10.975H591.9V140.744c.62-.186,1.426-.31,2.356-.5a16.97,16.97,0,0,1,3.1-.248,5.908,5.908,0,0,1,2.294.372,3.7,3.7,0,0,1,1.488.992,3.934,3.934,0,0,1,.744-.434c.31-.124.62-.31.992-.434a6.536,6.536,0,0,1,1.178-.31,8.4,8.4,0,0,1,1.24-.124,6.351,6.351,0,0,1,2.6.434,3.762,3.762,0,0,1,1.612,1.3,4.782,4.782,0,0,1,.806,1.984,15.356,15.356,0,0,1,.248,2.542v7.626H607.4v-7.13a7.426,7.426,0,0,0-.5-3.1,2.079,2.079,0,0,0-1.984-.93,4.4,4.4,0,0,0-2.418.744,8.8,8.8,0,0,1,.31,1.364,12.45,12.45,0,0,1,.062,1.55v7.5h-3.162v-7.13Z" transform="translate(-281.513 -133.738)"/>
        <path id="Path_2264" data-name="Path 2264" class="cls-3" d="M627,147.292a8.455,8.455,0,0,1,.558-3.162,5.776,5.776,0,0,1,1.426-2.232,5.65,5.65,0,0,1,2.046-1.364,6.112,6.112,0,0,1,2.356-.434,5.612,5.612,0,0,1,4.4,1.736,7.579,7.579,0,0,1,1.55,5.208v.558a1.375,1.375,0,0,1-.062.558h-8.99a3.53,3.53,0,0,0,1.178,2.542,4.27,4.27,0,0,0,2.976.868,11.113,11.113,0,0,0,2.108-.186,11.4,11.4,0,0,0,1.488-.434l.434,2.6a5.168,5.168,0,0,1-.744.248,4.4,4.4,0,0,1-1.054.248c-.372.062-.806.124-1.24.186a10.044,10.044,0,0,1-1.364.062,7.909,7.909,0,0,1-3.1-.558,6.14,6.14,0,0,1-2.17-1.488,6.621,6.621,0,0,1-1.3-2.232A6.485,6.485,0,0,1,627,147.292Zm9.114-1.426a4,4,0,0,0-.186-1.24,2.586,2.586,0,0,0-.558-.992,3.257,3.257,0,0,0-.868-.682,2.459,2.459,0,0,0-1.24-.248,2.876,2.876,0,0,0-1.3.248,2.746,2.746,0,0,0-.93.744,3.145,3.145,0,0,0-.558.992,6.545,6.545,0,0,0-.31,1.178h5.952Z" transform="translate(-294.85 -133.776)"/>
        <path id="Path_2265" data-name="Path 2265" class="cls-3" d="M652.162,140.844c.62-.186,1.426-.31,2.356-.5a17.463,17.463,0,0,1,3.224-.248,7.328,7.328,0,0,1,2.79.434,4.359,4.359,0,0,1,1.8,1.3,4.905,4.905,0,0,1,.93,1.984,10.71,10.71,0,0,1,.248,2.542v7.626h-3.162v-7.13a14.654,14.654,0,0,0-.124-1.86,3.247,3.247,0,0,0-.5-1.24,1.864,1.864,0,0,0-.868-.682,4.125,4.125,0,0,0-1.364-.248,8.732,8.732,0,0,0-1.24.062,8.488,8.488,0,0,1-.992.124v10.975H652.1V140.844Z" transform="translate(-304.387 -133.776)"/>
        <path id="Path_2266" data-name="Path 2266" class="cls-3" d="M676.5,134.5l3.162-.5v4.092H684.5v2.6h-4.836v5.518a4.439,4.439,0,0,0,.5,2.356,1.957,1.957,0,0,0,1.8.682,6.246,6.246,0,0,0,1.55-.186c.434-.124.806-.248,1.054-.31l.5,2.48a12.354,12.354,0,0,1-1.426.5,7.289,7.289,0,0,1-2.108.248,6.6,6.6,0,0,1-2.418-.372,3.247,3.247,0,0,1-1.55-1.116,5.308,5.308,0,0,1-.806-1.8,9.359,9.359,0,0,1-.248-2.418V134.5Z" transform="translate(-313.658 -131.458)"/>
        <path id="Path_2267" data-name="Path 2267" class="cls-3" d="M702.9,147.192a8.9,8.9,0,0,1,.5-2.852,6.636,6.636,0,0,1,1.364-2.294,6.484,6.484,0,0,1,2.108-1.488,6.8,6.8,0,0,1,2.79-.558,10.355,10.355,0,0,1,3.658.682l-.682,2.6a4.115,4.115,0,0,0-1.24-.372,9.729,9.729,0,0,0-1.488-.186,3.281,3.281,0,0,0-2.79,1.178,5.995,5.995,0,0,0-.062,6.51,3.608,3.608,0,0,0,3.1,1.178,7.148,7.148,0,0,0,1.612-.186,13.5,13.5,0,0,0,1.364-.372l.434,2.6a9.188,9.188,0,0,1-1.55.5,12.292,12.292,0,0,1-2.17.186,7.593,7.593,0,0,1-3.038-.558,5.884,5.884,0,0,1-2.108-1.488,5.468,5.468,0,0,1-1.24-2.294A5.923,5.923,0,0,1,702.9,147.192Z" transform="translate(-323.69 -133.738)"/>
        <path id="Path_2268" data-name="Path 2268" class="cls-3" d="M735.283,147.168a8.7,8.7,0,0,1-.5,2.914,7.6,7.6,0,0,1-1.3,2.294,5.453,5.453,0,0,1-2.046,1.488,6.2,6.2,0,0,1-2.666.5,7.29,7.29,0,0,1-2.666-.5,5.454,5.454,0,0,1-2.046-1.488,8.33,8.33,0,0,1-1.364-2.294,8.808,8.808,0,0,1,0-5.828,5.865,5.865,0,0,1,1.364-2.232,6.433,6.433,0,0,1,2.046-1.426,7.206,7.206,0,0,1,2.6-.5,7.546,7.546,0,0,1,2.666.5,5.309,5.309,0,0,1,2.046,1.426,7.967,7.967,0,0,1,1.364,2.232A7.388,7.388,0,0,1,735.283,147.168Zm-3.224,0a5.521,5.521,0,0,0-.868-3.224,3.071,3.071,0,0,0-4.836,0,5.521,5.521,0,0,0-.868,3.224,5.387,5.387,0,0,0,.868,3.224,3.071,3.071,0,0,0,4.836,0A5.387,5.387,0,0,0,732.058,147.168Z" transform="translate(-331.023 -133.776)"/>
        <path id="Path_2269" data-name="Path 2269" class="cls-3" d="M756.35,146.82a6.405,6.405,0,0,0-.558-3.1,2.078,2.078,0,0,0-1.984-.93,6.737,6.737,0,0,0-1.116.062,7.777,7.777,0,0,1-.93.124v10.975H748.6V140.744c.62-.186,1.426-.31,2.356-.5a16.969,16.969,0,0,1,3.1-.248,5.907,5.907,0,0,1,2.294.372,3.7,3.7,0,0,1,1.488.992,3.934,3.934,0,0,1,.744-.434,4.8,4.8,0,0,1,.992-.434,6.541,6.541,0,0,1,1.178-.31,8.4,8.4,0,0,1,1.24-.124,6.35,6.35,0,0,1,2.6.434,3.76,3.76,0,0,1,1.612,1.3,4.78,4.78,0,0,1,.806,1.984,15.349,15.349,0,0,1,.248,2.542v7.626H764.1v-7.13a7.426,7.426,0,0,0-.5-3.1,2.079,2.079,0,0,0-1.984-.93,4.4,4.4,0,0,0-2.418.744,8.8,8.8,0,0,1,.31,1.364,12.463,12.463,0,0,1,.062,1.55v7.5h-3.162v-7.13Z" transform="translate(-341.054 -133.738)"/>
        <path id="Path_2270" data-name="Path 2270" class="cls-3" d="M797.177,147.23a8.348,8.348,0,0,1-.434,2.852,6.394,6.394,0,0,1-1.178,2.232,5.491,5.491,0,0,1-1.86,1.488,5.649,5.649,0,0,1-2.542.5,5.733,5.733,0,0,1-1.8-.248,7.23,7.23,0,0,1-1.3-.5v5.27H784.9V140.844c.62-.186,1.426-.31,2.356-.5a15.22,15.22,0,0,1,2.976-.248,8.7,8.7,0,0,1,2.914.5,5.759,5.759,0,0,1,2.17,1.426,5.864,5.864,0,0,1,1.364,2.232A8.8,8.8,0,0,1,797.177,147.23Zm-3.224.062a5.18,5.18,0,0,0-.93-3.286,3.633,3.633,0,0,0-3.038-1.178,4.692,4.692,0,0,0-.93.062,4.945,4.945,0,0,0-.93.186v7.812a4.617,4.617,0,0,0,1.116.558,3.752,3.752,0,0,0,1.488.248,2.885,2.885,0,0,0,2.542-1.178A8.013,8.013,0,0,0,793.953,147.292Z" transform="translate(-354.847 -133.776)"/>
        <path id="Path_2271" data-name="Path 2271" class="cls-3" d="M813.818,140a7.724,7.724,0,0,1,2.6.372,4.2,4.2,0,0,1,1.736,1.116,4.276,4.276,0,0,1,.93,1.736,8.325,8.325,0,0,1,.248,2.17v8.246a21.587,21.587,0,0,1-2.17.372,26.415,26.415,0,0,1-3.348.248,8.495,8.495,0,0,1-2.232-.248,6.371,6.371,0,0,1-1.736-.744,3.4,3.4,0,0,1-1.116-1.364,4.992,4.992,0,0,1-.434-2.046,3.915,3.915,0,0,1,.434-1.984,3.581,3.581,0,0,1,1.24-1.3,6.816,6.816,0,0,1,1.8-.744,12.23,12.23,0,0,1,2.17-.248,7.12,7.12,0,0,1,1.116.062,8.781,8.781,0,0,1,1.24.248v-.5a6.114,6.114,0,0,0-.124-1.054,2.292,2.292,0,0,0-.434-.868,2.1,2.1,0,0,0-.868-.558,4.261,4.261,0,0,0-1.364-.186,9.386,9.386,0,0,0-1.984.186c-.558.124-1.116.248-1.488.372l-.372-2.542c.372-.124.992-.248,1.736-.434A7.61,7.61,0,0,1,813.818,140Zm.31,11.781a9.915,9.915,0,0,0,2.232-.186v-3.472a6.435,6.435,0,0,0-.744-.186,9.514,9.514,0,0,0-2.17,0,2.656,2.656,0,0,0-.992.31,1.515,1.515,0,0,0-.682.558,1.494,1.494,0,0,0-.248.93,1.764,1.764,0,0,0,.682,1.55A3.378,3.378,0,0,0,814.128,151.781Z" transform="translate(-363.739 -133.738)"/>
        <path id="Path_2272" data-name="Path 2272" class="cls-3" d="M832.362,140.844c.62-.186,1.426-.31,2.356-.5a17.035,17.035,0,0,1,3.224-.248,7.328,7.328,0,0,1,2.79.434,4.359,4.359,0,0,1,1.8,1.3,4.907,4.907,0,0,1,.93,1.984,10.717,10.717,0,0,1,.248,2.542v7.626h-3.162v-7.13a14.642,14.642,0,0,0-.124-1.86,3.248,3.248,0,0,0-.5-1.24,1.6,1.6,0,0,0-.868-.682,4.126,4.126,0,0,0-1.364-.248,8.732,8.732,0,0,0-1.24.062,8.488,8.488,0,0,1-.992.124v10.975H832.3V140.844Z" transform="translate(-372.858 -133.776)"/>
        <path id="Path_2273" data-name="Path 2273" class="cls-3" d="M866.183,140.562a103.436,103.436,0,0,1-4.9,14.075,14.391,14.391,0,0,1-1.054,1.984,5.262,5.262,0,0,1-1.24,1.364,4.33,4.33,0,0,1-1.488.806,6.027,6.027,0,0,1-1.922.248,5.284,5.284,0,0,1-1.426-.186c-.5-.124-.868-.248-1.054-.31l.558-2.542a4.975,4.975,0,0,0,1.86.372,2.958,2.958,0,0,0,1.922-.558,5.338,5.338,0,0,0,1.24-1.8c-.992-1.922-1.922-3.968-2.852-6.262a61.149,61.149,0,0,1-2.418-7.192h3.348c.186.744.372,1.55.62,2.356.248.868.558,1.736.806,2.6s.62,1.736.93,2.6.682,1.674.992,2.418c.558-1.55,1.054-3.162,1.55-4.96.5-1.736.93-3.41,1.3-5.084h3.224Z" transform="translate(-380.761 -133.928)"/>
        <path id="Path_2274" data-name="Path 2274" class="cls-3" d="M891.718,140a7.725,7.725,0,0,1,2.6.372,4.2,4.2,0,0,1,1.736,1.116,4.275,4.275,0,0,1,.93,1.736,8.328,8.328,0,0,1,.248,2.17v8.246a21.591,21.591,0,0,1-2.17.372,26.415,26.415,0,0,1-3.348.248,8.494,8.494,0,0,1-2.232-.248,6.371,6.371,0,0,1-1.736-.744,3.4,3.4,0,0,1-1.116-1.364,4.992,4.992,0,0,1-.434-2.046,3.914,3.914,0,0,1,.434-1.984,3.581,3.581,0,0,1,1.24-1.3,6.816,6.816,0,0,1,1.8-.744,12.231,12.231,0,0,1,2.17-.248,7.121,7.121,0,0,1,1.116.062,8.779,8.779,0,0,1,1.24.248v-.5a6.113,6.113,0,0,0-.124-1.054,2.29,2.29,0,0,0-.434-.868,2.1,2.1,0,0,0-.868-.558,4.262,4.262,0,0,0-1.364-.186,9.385,9.385,0,0,0-1.984.186c-.558.124-1.116.248-1.488.372l-.372-2.542c.372-.124.992-.248,1.736-.434A7.612,7.612,0,0,1,891.718,140Zm.31,11.781a9.916,9.916,0,0,0,2.232-.186v-3.472a6.438,6.438,0,0,0-.744-.186,9.513,9.513,0,0,0-2.17,0,2.656,2.656,0,0,0-.992.31,1.516,1.516,0,0,0-.682.558,1.494,1.494,0,0,0-.248.93,1.764,1.764,0,0,0,.682,1.55A3.526,3.526,0,0,0,892.028,151.781Z" transform="translate(-393.338 -133.738)"/>
        <path id="Path_2275" data-name="Path 2275" class="cls-3" d="M910.262,140.844c.62-.186,1.426-.31,2.356-.5a17.035,17.035,0,0,1,3.224-.248,7.328,7.328,0,0,1,2.79.434,4.359,4.359,0,0,1,1.8,1.3,4.907,4.907,0,0,1,.93,1.984,10.717,10.717,0,0,1,.248,2.542v7.626h-3.162v-7.13a14.643,14.643,0,0,0-.124-1.86,3.247,3.247,0,0,0-.5-1.24,1.6,1.6,0,0,0-.868-.682,4.125,4.125,0,0,0-1.364-.248,8.732,8.732,0,0,0-1.24.062,8.492,8.492,0,0,1-.992.124v10.975H910.2V140.844Z" transform="translate(-402.458 -133.776)"/>
        <path id="Path_2276" data-name="Path 2276" class="cls-3" d="M945.877,149.817a15.413,15.413,0,0,1-2.356.5,15.22,15.22,0,0,1-2.976.248,8.7,8.7,0,0,1-2.914-.5,5.76,5.76,0,0,1-2.17-1.426,5.865,5.865,0,0,1-1.364-2.232,9.565,9.565,0,0,1-.062-5.89,6.394,6.394,0,0,1,1.178-2.232,4.887,4.887,0,0,1,1.922-1.426,6.723,6.723,0,0,1,2.6-.5,4.889,4.889,0,0,1,1.736.248c.5.186.93.31,1.3.5V130.6l3.162-.5v19.717Zm-9.052-6.448a4.952,4.952,0,0,0,.992,3.286,3.315,3.315,0,0,0,2.728,1.178,8.323,8.323,0,0,0,1.3-.062c.372-.062.62-.062.868-.124v-7.812a4.617,4.617,0,0,0-1.116-.558,3.752,3.752,0,0,0-1.488-.248,2.885,2.885,0,0,0-2.542,1.178A6.256,6.256,0,0,0,936.824,143.369Z" transform="translate(-411.349 -129.976)"/>
        <path id="Path_2277" data-name="Path 2277" class="cls-3" d="M101.158,196.022q-.558,2.325-1.3,4.464c-.434,1.426-.93,2.79-1.364,4.092h-2.6c-.372-.806-.744-1.736-1.116-2.728-.372-1.054-.744-2.108-1.178-3.286-.372-1.178-.744-2.356-1.178-3.658L91.3,191h3.348c.186.744.31,1.488.558,2.356.186.868.434,1.674.682,2.6.248.868.434,1.736.682,2.542s.5,1.612.744,2.294c.248-.806.5-1.612.744-2.48s.5-1.674.744-2.542.434-1.674.62-2.48.372-1.55.558-2.294H102.4c.186.682.31,1.488.5,2.294s.372,1.612.62,2.48.434,1.674.682,2.542.5,1.674.744,2.48c.248-.682.434-1.488.682-2.294s.5-1.674.744-2.542.434-1.736.682-2.6c.186-.868.372-1.612.558-2.356h3.286q-.558,2.046-1.116,3.906c-.372,1.3-.744,2.48-1.178,3.658-.372,1.178-.744,2.232-1.178,3.286-.372,1.054-.744,1.922-1.116,2.728h-2.542c-.434-1.3-.93-2.666-1.364-4.092S101.531,197.572,101.158,196.022Z" transform="translate(-91.3 -153.116)"/>
        <path id="Path_2278" data-name="Path 2278" class="cls-3" d="M138.283,197.568a8.7,8.7,0,0,1-.5,2.914,7.6,7.6,0,0,1-1.3,2.294,5.941,5.941,0,0,1-4.712,1.984,7.29,7.29,0,0,1-2.666-.5,5.454,5.454,0,0,1-2.046-1.488,8.329,8.329,0,0,1-1.364-2.294,8.808,8.808,0,0,1,0-5.828,6.222,6.222,0,0,1,3.41-3.658,7.207,7.207,0,0,1,2.6-.5,7.545,7.545,0,0,1,2.666.5,5.308,5.308,0,0,1,2.046,1.426,7.965,7.965,0,0,1,1.364,2.232A8.7,8.7,0,0,1,138.283,197.568Zm-3.286,0a5.521,5.521,0,0,0-.868-3.224,3.071,3.071,0,0,0-4.836,0,5.521,5.521,0,0,0-.868,3.224,5.387,5.387,0,0,0,.868,3.224,3.071,3.071,0,0,0,4.836,0A4.988,4.988,0,0,0,135,197.568Z" transform="translate(-104.181 -152.926)"/>
        <path id="Path_2279" data-name="Path 2279" class="cls-3" d="M162.547,204.207c-.62.186-1.426.31-2.356.5a17.461,17.461,0,0,1-3.224.248,6.92,6.92,0,0,1-2.728-.5,4.807,4.807,0,0,1-1.8-1.3,5.329,5.329,0,0,1-.93-1.984,10.569,10.569,0,0,1-.31-2.542V191h3.162v7.13a5.526,5.526,0,0,0,.62,3.1,2.533,2.533,0,0,0,2.232.93,8.731,8.731,0,0,0,1.24-.062,8.617,8.617,0,0,0,.93-.124V191h3.162v13.207Z" transform="translate(-114.06 -153.116)"/>
        <path id="Path_2280" data-name="Path 2280" class="cls-3" d="M180.636,200.9a8.348,8.348,0,0,1-2.356-.31,3.431,3.431,0,0,1-1.488-.806,2.759,2.759,0,0,1-.744-1.3,7.869,7.869,0,0,1-.248-1.8V181l3.162-.5v15.625a5.011,5.011,0,0,0,.062.992,2.292,2.292,0,0,0,.31.682,1.583,1.583,0,0,0,.62.434,3.766,3.766,0,0,0,1.054.248Z" transform="translate(-123.407 -149.126)"/>
        <path id="Path_2281" data-name="Path 2281" class="cls-3" d="M199.477,200.217a15.414,15.414,0,0,1-2.356.5,15.22,15.22,0,0,1-2.976.248,8.7,8.7,0,0,1-2.914-.5,5.76,5.76,0,0,1-2.17-1.426,5.864,5.864,0,0,1-1.364-2.232,9.566,9.566,0,0,1-.062-5.89,6.394,6.394,0,0,1,1.178-2.232,4.887,4.887,0,0,1,1.922-1.426,6.722,6.722,0,0,1,2.6-.5,4.889,4.889,0,0,1,1.736.248c.5.186.93.31,1.3.5V181l3.162-.5v19.717Zm-8.99-6.448a4.952,4.952,0,0,0,.992,3.286,3.315,3.315,0,0,0,2.728,1.178,8.319,8.319,0,0,0,1.3-.062c.372-.062.62-.062.868-.124v-7.812a4.617,4.617,0,0,0-1.116-.558,3.752,3.752,0,0,0-1.488-.248,2.885,2.885,0,0,0-2.542,1.178A5.678,5.678,0,0,0,190.486,193.769Z" transform="translate(-127.739 -149.126)"/>
        <path id="Path_2282" data-name="Path 2282" class="cls-3" d="M227.936,200.9a8.348,8.348,0,0,1-2.356-.31,3.431,3.431,0,0,1-1.488-.806,2.76,2.76,0,0,1-.744-1.3,7.869,7.869,0,0,1-.248-1.8V181l3.162-.5v15.625a5.012,5.012,0,0,0,.062.992,2.292,2.292,0,0,0,.31.682,1.583,1.583,0,0,0,.62.434,3.766,3.766,0,0,0,1.054.248Z" transform="translate(-141.38 -149.126)"/>
        <path id="Path_2283" data-name="Path 2283" class="cls-3" d="M239.044,183.322a1.868,1.868,0,0,1-.558,1.426,1.776,1.776,0,0,1-1.364.5,2.043,2.043,0,0,1-1.364-.5,1.868,1.868,0,0,1-.558-1.426,1.779,1.779,0,0,1,.558-1.426,1.865,1.865,0,0,1,1.364-.5,2.167,2.167,0,0,1,1.364.5A1.964,1.964,0,0,1,239.044,183.322Zm-.31,17.609h-3.162V187.29h3.162Z" transform="translate(-145.978 -149.468)"/>
        <path id="Path_2284" data-name="Path 2284" class="cls-3" d="M250.462,192.243c.372-.434.806-.868,1.3-1.364.434-.5.868-.93,1.3-1.426s.868-.93,1.24-1.364a14.355,14.355,0,0,0,.992-1.178h3.72c-.868.992-1.8,1.984-2.728,3.038-.992,1.054-1.922,2.046-2.914,3.038a18.254,18.254,0,0,1,1.612,1.55c.558.62,1.116,1.3,1.674,1.984a16.215,16.215,0,0,1,1.488,2.108c.434.744.868,1.364,1.178,1.922H255.67c-.31-.558-.682-1.116-1.054-1.674-.434-.62-.868-1.178-1.3-1.736-.5-.558-.93-1.054-1.426-1.55a11.908,11.908,0,0,0-1.426-1.24v6.262H247.3V180.9l3.162-.5Z" transform="translate(-150.575 -149.088)"/>
        <path id="Path_2285" data-name="Path 2285" class="cls-3" d="M268.3,197.692a8.456,8.456,0,0,1,.558-3.162,5.776,5.776,0,0,1,1.426-2.232,5.65,5.65,0,0,1,2.046-1.364,6.111,6.111,0,0,1,2.356-.434,5.612,5.612,0,0,1,4.4,1.736,7.579,7.579,0,0,1,1.55,5.208V198a1.377,1.377,0,0,1-.062.558h-8.99a3.53,3.53,0,0,0,1.178,2.542,4.271,4.271,0,0,0,2.976.868,11.113,11.113,0,0,0,2.108-.186,11.4,11.4,0,0,0,1.488-.434l.434,2.6a5.168,5.168,0,0,1-.744.248,4.4,4.4,0,0,1-1.054.248c-.372.062-.806.124-1.24.186a10.047,10.047,0,0,1-1.364.062,7.91,7.91,0,0,1-3.1-.558,6.141,6.141,0,0,1-2.17-1.488,6.622,6.622,0,0,1-1.3-2.232A6.489,6.489,0,0,1,268.3,197.692Zm9.114-1.426a4,4,0,0,0-.186-1.24,2.587,2.587,0,0,0-.558-.992,2.365,2.365,0,0,0-.868-.682,2.459,2.459,0,0,0-1.24-.248,2.876,2.876,0,0,0-1.3.248,2.745,2.745,0,0,0-.93.744,3.145,3.145,0,0,0-.558.992,6.54,6.54,0,0,0-.31,1.178Z" transform="translate(-158.555 -152.926)"/>
        <path id="Path_2286" data-name="Path 2286" class="cls-3" d="M303,184.9l3.162-.5v4.092H311v2.6h-4.836v5.518a4.44,4.44,0,0,0,.5,2.356,1.958,1.958,0,0,0,1.8.682,6.246,6.246,0,0,0,1.55-.186c.434-.124.806-.248,1.054-.31l.5,2.48a12.349,12.349,0,0,1-1.426.5,7.289,7.289,0,0,1-2.108.248,6.6,6.6,0,0,1-2.418-.372,3.247,3.247,0,0,1-1.55-1.116,4.334,4.334,0,0,1-.806-1.8,13.209,13.209,0,0,1-.248-2.418Z" transform="translate(-171.74 -150.608)"/>
        <path id="Path_2287" data-name="Path 2287" class="cls-3" d="M320.8,200.513V180.8l3.162-.5v6.758a6.03,6.03,0,0,1,1.24-.31,10.141,10.141,0,0,1,1.364-.124,6.993,6.993,0,0,1,2.728.434,4.15,4.15,0,0,1,1.736,1.3,4.906,4.906,0,0,1,.93,1.984,10.717,10.717,0,0,1,.248,2.542v7.626h-3.162v-7.13a14.654,14.654,0,0,0-.124-1.86,3.247,3.247,0,0,0-.5-1.24,1.865,1.865,0,0,0-.868-.682,4.125,4.125,0,0,0-1.364-.248,9.251,9.251,0,0,0-1.3.124,7.6,7.6,0,0,0-.992.248v10.851h-3.1Z" transform="translate(-178.503 -149.05)"/>
        <path id="Path_2288" data-name="Path 2288" class="cls-3" d="M344.1,197.692a8.456,8.456,0,0,1,.558-3.162,5.776,5.776,0,0,1,1.426-2.232,5.649,5.649,0,0,1,2.046-1.364,6.112,6.112,0,0,1,2.356-.434,5.612,5.612,0,0,1,4.4,1.736,7.579,7.579,0,0,1,1.55,5.208V198a1.376,1.376,0,0,1-.062.558h-8.99a3.53,3.53,0,0,0,1.178,2.542,4.271,4.271,0,0,0,2.976.868,11.112,11.112,0,0,0,2.108-.186,11.4,11.4,0,0,0,1.488-.434l.434,2.6a5.169,5.169,0,0,1-.744.248,4.4,4.4,0,0,1-1.054.248c-.372.062-.806.124-1.24.186a10.047,10.047,0,0,1-1.364.062,7.909,7.909,0,0,1-3.1-.558,6.141,6.141,0,0,1-2.17-1.488,6.622,6.622,0,0,1-1.3-2.232A6.488,6.488,0,0,1,344.1,197.692Zm9.114-1.426a4,4,0,0,0-.186-1.24,2.586,2.586,0,0,0-.558-.992,2.365,2.365,0,0,0-.868-.682,2.459,2.459,0,0,0-1.24-.248,2.876,2.876,0,0,0-1.3.248,2.745,2.745,0,0,0-.93.744,3.144,3.144,0,0,0-.558.992,6.537,6.537,0,0,0-.31,1.178Z" transform="translate(-187.356 -152.926)"/>
        <path id="Path_2289" data-name="Path 2289" class="cls-3" d="M383.018,190.4a7.724,7.724,0,0,1,2.6.372,4.2,4.2,0,0,1,1.736,1.116,4.276,4.276,0,0,1,.93,1.736,8.325,8.325,0,0,1,.248,2.17v8.246a21.578,21.578,0,0,1-2.17.372,26.413,26.413,0,0,1-3.348.248,8.494,8.494,0,0,1-2.232-.248,6.37,6.37,0,0,1-1.736-.744,3.4,3.4,0,0,1-1.116-1.364,4.991,4.991,0,0,1-.434-2.046,3.915,3.915,0,0,1,.434-1.984,3.581,3.581,0,0,1,1.24-1.3,6.817,6.817,0,0,1,1.8-.744,12.233,12.233,0,0,1,2.17-.248,7.119,7.119,0,0,1,1.116.062,10.946,10.946,0,0,1,1.24.248v-.5a6.107,6.107,0,0,0-.124-1.054,2.29,2.29,0,0,0-.434-.868,2.1,2.1,0,0,0-.868-.558,4.261,4.261,0,0,0-1.364-.186,9.387,9.387,0,0,0-1.984.186,12.873,12.873,0,0,0-1.488.372l-.372-2.542c.372-.124.992-.248,1.736-.434A7.382,7.382,0,0,1,383.018,190.4Zm.248,11.781a9.916,9.916,0,0,0,2.232-.186v-3.472a6.435,6.435,0,0,0-.744-.186,9.516,9.516,0,0,0-2.17,0,2.656,2.656,0,0,0-.992.31,1.516,1.516,0,0,0-.682.558,1.494,1.494,0,0,0-.248.93,1.764,1.764,0,0,0,.682,1.55A3.378,3.378,0,0,0,383.266,202.181Z" transform="translate(-200.047 -152.888)"/>
        <path id="Path_2290" data-name="Path 2290" class="cls-3" d="M413.777,193.793a8.8,8.8,0,0,1-.5,2.976A6.75,6.75,0,0,1,411.917,199a5.76,5.76,0,0,1-2.17,1.426,8.433,8.433,0,0,1-2.914.5,15.221,15.221,0,0,1-2.976-.248c-.93-.186-1.736-.31-2.356-.5V180.9l3.162-.5v7.068a5.749,5.749,0,0,1,1.364-.5,5.349,5.349,0,0,1,1.736-.248,6.635,6.635,0,0,1,2.542.5,4.688,4.688,0,0,1,1.86,1.426,7.618,7.618,0,0,1,1.178,2.232A10.648,10.648,0,0,1,413.777,193.793Zm-3.224-.062a5.191,5.191,0,0,0-.806-3.162,2.816,2.816,0,0,0-2.542-1.178,4.168,4.168,0,0,0-1.488.248,9.836,9.836,0,0,0-1.116.5v7.812a3.232,3.232,0,0,0,.868.124,8.322,8.322,0,0,0,1.3.062,3.315,3.315,0,0,0,2.728-1.178A4.689,4.689,0,0,0,410.552,193.731Z" transform="translate(-209.167 -149.088)"/>
        <path id="Path_2291" data-name="Path 2291" class="cls-3" d="M429.844,183.322a1.868,1.868,0,0,1-.558,1.426,1.776,1.776,0,0,1-1.364.5,2.043,2.043,0,0,1-1.364-.5,1.868,1.868,0,0,1-.558-1.426,1.779,1.779,0,0,1,.558-1.426,1.865,1.865,0,0,1,1.364-.5,2.167,2.167,0,0,1,1.364.5A1.964,1.964,0,0,1,429.844,183.322Zm-.372,17.609H426.31V187.29h3.162Z" transform="translate(-218.476 -149.468)"/>
        <path id="Path_2292" data-name="Path 2292" class="cls-3" d="M442.836,200.9a8.348,8.348,0,0,1-2.356-.31,3.432,3.432,0,0,1-1.488-.806,2.76,2.76,0,0,1-.744-1.3,7.867,7.867,0,0,1-.248-1.8V181l3.162-.5v15.625a5.014,5.014,0,0,0,.062.992,2.292,2.292,0,0,0,.31.682,1.583,1.583,0,0,0,.62.434,3.766,3.766,0,0,0,1.054.248Z" transform="translate(-223.036 -149.126)"/>
        <path id="Path_2293" data-name="Path 2293" class="cls-3" d="M453.944,183.322a1.868,1.868,0,0,1-.558,1.426,1.776,1.776,0,0,1-1.364.5,2.043,2.043,0,0,1-1.364-.5,1.868,1.868,0,0,1-.558-1.426,1.779,1.779,0,0,1,.558-1.426,1.865,1.865,0,0,1,1.364-.5,2.167,2.167,0,0,1,1.364.5A2.258,2.258,0,0,1,453.944,183.322Zm-.372,17.609H450.41V187.29h3.162Z" transform="translate(-227.633 -149.468)"/>
        <path id="Path_2294" data-name="Path 2294" class="cls-3" d="M461.9,184.9l3.162-.5v4.092H469.9v2.6h-4.836v5.518a4.44,4.44,0,0,0,.5,2.356,1.957,1.957,0,0,0,1.8.682,6.247,6.247,0,0,0,1.55-.186c.434-.124.806-.248,1.054-.31l.5,2.48a12.345,12.345,0,0,1-1.426.5,7.288,7.288,0,0,1-2.108.248,6.6,6.6,0,0,1-2.418-.372,3.247,3.247,0,0,1-1.55-1.116,4.334,4.334,0,0,1-.806-1.8,13.209,13.209,0,0,1-.248-2.418Z" transform="translate(-232.117 -150.608)"/>
        <path id="Path_2295" data-name="Path 2295" class="cls-3" d="M489.683,190.962a103.448,103.448,0,0,1-4.9,14.075,14.4,14.4,0,0,1-1.054,1.984,5.261,5.261,0,0,1-1.24,1.364,4.33,4.33,0,0,1-1.488.806,6.026,6.026,0,0,1-1.922.248,5.285,5.285,0,0,1-1.426-.186c-.5-.124-.868-.248-1.054-.31l.558-2.542a4.976,4.976,0,0,0,1.86.372,2.958,2.958,0,0,0,1.922-.558,5.338,5.338,0,0,0,1.24-1.8c-.992-1.922-1.922-3.968-2.852-6.262a57.519,57.519,0,0,1-2.418-7.192h3.348c.186.744.372,1.55.62,2.356.248.868.558,1.736.806,2.6l.93,2.6c.31.868.682,1.674.992,2.418.558-1.55,1.054-3.162,1.55-4.96.5-1.736.93-3.41,1.3-5.084h3.224Z" transform="translate(-237.702 -153.078)"/>
        <path id="Path_2296" data-name="Path 2296" class="cls-3" d="M523.183,197.568a8.7,8.7,0,0,1-.5,2.914,7.6,7.6,0,0,1-1.3,2.294,5.941,5.941,0,0,1-4.712,1.984,7.29,7.29,0,0,1-2.666-.5,5.455,5.455,0,0,1-2.046-1.488,8.33,8.33,0,0,1-1.364-2.294,8.808,8.808,0,0,1,0-5.828,6.222,6.222,0,0,1,3.41-3.658,7.207,7.207,0,0,1,2.6-.5,7.545,7.545,0,0,1,2.666.5,5.308,5.308,0,0,1,2.046,1.426,7.965,7.965,0,0,1,1.364,2.232A8.7,8.7,0,0,1,523.183,197.568Zm-3.224,0a5.521,5.521,0,0,0-.868-3.224,3.071,3.071,0,0,0-4.836,0,5.521,5.521,0,0,0-.868,3.224,5.387,5.387,0,0,0,.868,3.224,3.071,3.071,0,0,0,4.836,0A5.387,5.387,0,0,0,519.959,197.568Z" transform="translate(-250.432 -152.926)"/>
        <path id="Path_2297" data-name="Path 2297" class="cls-3" d="M541.98,180.3a8.78,8.78,0,0,1,1.922.186,6.1,6.1,0,0,1,1.24.372l-.62,2.6a4.257,4.257,0,0,0-1.054-.31,7.63,7.63,0,0,0-1.24-.124,2.876,2.876,0,0,0-1.3.248,1.664,1.664,0,0,0-.806.62,2.159,2.159,0,0,0-.434.93,7.631,7.631,0,0,0-.124,1.24V187h4.96v2.6h-4.96v10.975H536.4V186a6,6,0,0,1,1.364-4.154A5.568,5.568,0,0,1,541.98,180.3Z" transform="translate(-260.425 -149.05)"/>
        <path id="Path_2298" data-name="Path 2298" class="cls-3" d="M570.75,193.6a9.037,9.037,0,0,0-1.054-.248,6.3,6.3,0,0,0-1.612-.124,6.832,6.832,0,0,0-1.116.124,3.9,3.9,0,0,0-.806.186v10.913H563V191.43a13.293,13.293,0,0,1,2.294-.62,15.256,15.256,0,0,1,3.038-.31,3.557,3.557,0,0,1,.744.062,3.628,3.628,0,0,1,.806.124c.248.062.558.124.806.186a3.859,3.859,0,0,1,.62.186Z" transform="translate(-270.532 -152.926)"/>
        <path id="Path_2299" data-name="Path 2299" class="cls-3" d="M578.7,197.692a8.455,8.455,0,0,1,.558-3.162,5.777,5.777,0,0,1,1.426-2.232,5.649,5.649,0,0,1,2.046-1.364,6.112,6.112,0,0,1,2.356-.434,5.612,5.612,0,0,1,4.4,1.736,7.579,7.579,0,0,1,1.55,5.208V198a1.377,1.377,0,0,1-.062.558h-8.99a3.53,3.53,0,0,0,1.178,2.542,4.271,4.271,0,0,0,2.976.868,11.114,11.114,0,0,0,2.108-.186,11.4,11.4,0,0,0,1.488-.434l.434,2.6a5.169,5.169,0,0,1-.744.248,4.4,4.4,0,0,1-1.054.248c-.372.062-.806.124-1.24.186a10.046,10.046,0,0,1-1.364.062,7.909,7.909,0,0,1-3.1-.558,6.141,6.141,0,0,1-2.17-1.488,6.622,6.622,0,0,1-1.3-2.232A6.488,6.488,0,0,1,578.7,197.692Zm9.176-1.426a4,4,0,0,0-.186-1.24,2.586,2.586,0,0,0-.558-.992,2.365,2.365,0,0,0-.868-.682,2.459,2.459,0,0,0-1.24-.248,2.876,2.876,0,0,0-1.3.248,2.746,2.746,0,0,0-.93.744,3.144,3.144,0,0,0-.558.992,6.535,6.535,0,0,0-.31,1.178Z" transform="translate(-276.497 -152.926)"/>
        <path id="Path_2300" data-name="Path 2300" class="cls-3" d="M607.818,190.4a7.724,7.724,0,0,1,2.6.372,4.2,4.2,0,0,1,1.736,1.116,4.274,4.274,0,0,1,.93,1.736,8.322,8.322,0,0,1,.248,2.17v8.246a21.572,21.572,0,0,1-2.17.372,26.414,26.414,0,0,1-3.348.248,8.494,8.494,0,0,1-2.232-.248,6.369,6.369,0,0,1-1.736-.744,3.4,3.4,0,0,1-1.116-1.364,4.991,4.991,0,0,1-.434-2.046,3.915,3.915,0,0,1,.434-1.984,3.581,3.581,0,0,1,1.24-1.3,6.815,6.815,0,0,1,1.8-.744,12.232,12.232,0,0,1,2.17-.248,7.12,7.12,0,0,1,1.116.062,10.947,10.947,0,0,1,1.24.248v-.5a6.1,6.1,0,0,0-.124-1.054,2.291,2.291,0,0,0-.434-.868,2.1,2.1,0,0,0-.868-.558,4.262,4.262,0,0,0-1.364-.186,9.387,9.387,0,0,0-1.984.186,12.879,12.879,0,0,0-1.488.372l-.372-2.542c.372-.124.992-.248,1.736-.434A7.612,7.612,0,0,1,607.818,190.4Zm.248,11.781a9.916,9.916,0,0,0,2.232-.186v-3.472a6.438,6.438,0,0,0-.744-.186,9.516,9.516,0,0,0-2.17,0,2.656,2.656,0,0,0-.992.31,1.516,1.516,0,0,0-.682.558,1.5,1.5,0,0,0-.248.93,1.764,1.764,0,0,0,.682,1.55A3.526,3.526,0,0,0,608.066,202.181Z" transform="translate(-285.465 -152.888)"/>
        <path id="Path_2301" data-name="Path 2301" class="cls-3" d="M625.1,197.592a8.9,8.9,0,0,1,.5-2.852,6.111,6.111,0,0,1,1.364-2.294,6.484,6.484,0,0,1,2.108-1.488,6.8,6.8,0,0,1,2.79-.558,10.354,10.354,0,0,1,3.658.682l-.682,2.6a4.115,4.115,0,0,0-1.24-.372,5.426,5.426,0,0,0-1.488-.186,3.281,3.281,0,0,0-2.79,1.178,5.995,5.995,0,0,0-.062,6.51,3.609,3.609,0,0,0,3.1,1.178,7.15,7.15,0,0,0,1.612-.186,13.5,13.5,0,0,0,1.364-.372l.434,2.6a9.183,9.183,0,0,1-1.55.5,12.293,12.293,0,0,1-2.17.186,7.593,7.593,0,0,1-3.038-.558,5.884,5.884,0,0,1-2.108-1.488,5.469,5.469,0,0,1-1.24-2.294A6.8,6.8,0,0,1,625.1,197.592Z" transform="translate(-294.128 -152.888)"/>
        <path id="Path_2302" data-name="Path 2302" class="cls-3" d="M646.2,200.513V180.8l3.162-.5v6.758a6.029,6.029,0,0,1,1.24-.31,10.139,10.139,0,0,1,1.364-.124,6.994,6.994,0,0,1,2.728.434,4.151,4.151,0,0,1,1.736,1.3,4.906,4.906,0,0,1,.93,1.984,10.714,10.714,0,0,1,.248,2.542v7.626h-3.162v-7.13a14.655,14.655,0,0,0-.124-1.86,3.248,3.248,0,0,0-.5-1.24,1.865,1.865,0,0,0-.868-.682,4.125,4.125,0,0,0-1.364-.248,9.25,9.25,0,0,0-1.3.124,7.6,7.6,0,0,0-.992.248v10.851h-3.1Z" transform="translate(-302.145 -149.05)"/>
        <path id="Path_2303" data-name="Path 2303" class="cls-3" d="M673.944,183.322a1.868,1.868,0,0,1-.558,1.426,1.776,1.776,0,0,1-1.364.5,2.043,2.043,0,0,1-1.364-.5,1.868,1.868,0,0,1-.558-1.426,1.779,1.779,0,0,1,.558-1.426,1.865,1.865,0,0,1,1.364-.5,2.167,2.167,0,0,1,1.364.5A1.965,1.965,0,0,1,673.944,183.322Zm-.372,17.609H670.41V187.29h3.162Z" transform="translate(-311.227 -149.468)"/>
        <path id="Path_2304" data-name="Path 2304" class="cls-3" d="M682.162,191.244c.62-.186,1.426-.31,2.356-.5a17.033,17.033,0,0,1,3.224-.248,7.328,7.328,0,0,1,2.79.434,4.36,4.36,0,0,1,1.8,1.3,4.906,4.906,0,0,1,.93,1.984,10.707,10.707,0,0,1,.248,2.542v7.626h-3.162v-7.13a14.68,14.68,0,0,0-.124-1.86,3.248,3.248,0,0,0-.5-1.24,1.6,1.6,0,0,0-.868-.682,4.124,4.124,0,0,0-1.364-.248,8.73,8.73,0,0,0-1.24.062,8.494,8.494,0,0,1-.992.124v10.975H682.1V191.244Z" transform="translate(-315.786 -152.926)"/>
        <path id="Path_2305" data-name="Path 2305" class="cls-3" d="M717.567,203.063c0,2.17-.558,3.782-1.674,4.774a7.433,7.433,0,0,1-5.084,1.488,15.292,15.292,0,0,1-2.418-.186,11.1,11.1,0,0,1-2.17-.558l.558-2.666a8.162,8.162,0,0,0,1.86.558,12.5,12.5,0,0,0,2.232.186,3.781,3.781,0,0,0,2.728-.806,2.962,2.962,0,0,0,.806-2.294v-.5a8.538,8.538,0,0,1-1.24.5,5.112,5.112,0,0,1-1.736.248,5.7,5.7,0,0,1-2.356-.434,4.286,4.286,0,0,1-1.86-1.24,5.547,5.547,0,0,1-1.178-2.046,7.76,7.76,0,0,1-.434-2.79,7.638,7.638,0,0,1,.434-2.728,6.055,6.055,0,0,1,1.3-2.108,6.188,6.188,0,0,1,2.108-1.364,8.074,8.074,0,0,1,2.852-.5,14.585,14.585,0,0,1,2.914.248c.93.186,1.674.31,2.356.5Zm-8.742-5.766a4.193,4.193,0,0,0,.868,2.914,2.856,2.856,0,0,0,2.232.93,5.286,5.286,0,0,0,1.426-.186,3.341,3.341,0,0,0,1.054-.5V193.39a3.14,3.14,0,0,0-.806-.124,7.143,7.143,0,0,0-1.24-.062,3.121,3.121,0,0,0-2.6,1.116A4.5,4.5,0,0,0,708.824,197.3Z" transform="translate(-324.716 -152.964)"/>
        <path id="Path_2306" data-name="Path 2306" class="cls-3" d="M752.983,197.568a8.7,8.7,0,0,1-.5,2.914,7.6,7.6,0,0,1-1.3,2.294,5.453,5.453,0,0,1-2.046,1.488,6.2,6.2,0,0,1-2.666.5,7.29,7.29,0,0,1-2.666-.5,5.453,5.453,0,0,1-2.046-1.488,8.328,8.328,0,0,1-1.364-2.294,8.809,8.809,0,0,1,0-5.828,6.223,6.223,0,0,1,3.41-3.658,7.207,7.207,0,0,1,2.6-.5,7.544,7.544,0,0,1,2.666.5,5.306,5.306,0,0,1,2.046,1.426,7.963,7.963,0,0,1,1.364,2.232A7.387,7.387,0,0,1,752.983,197.568Zm-3.224,0a5.521,5.521,0,0,0-.868-3.224,3.071,3.071,0,0,0-4.836,0,5.521,5.521,0,0,0-.868,3.224,5.387,5.387,0,0,0,.868,3.224,3.071,3.071,0,0,0,4.836,0A4.988,4.988,0,0,0,749.758,197.568Z" transform="translate(-337.749 -152.926)"/>
        <path id="Path_2307" data-name="Path 2307" class="cls-3" d="M777.346,204.207c-.62.186-1.426.31-2.356.5a17.033,17.033,0,0,1-3.224.248,6.92,6.92,0,0,1-2.728-.5,4.807,4.807,0,0,1-1.8-1.3,5.328,5.328,0,0,1-.93-1.984,10.57,10.57,0,0,1-.31-2.542V191h3.162v7.13a5.526,5.526,0,0,0,.62,3.1,2.533,2.533,0,0,0,2.232.93,8.731,8.731,0,0,0,1.24-.062,8.619,8.619,0,0,0,.93-.124V191h3.162v13.207Z" transform="translate(-347.666 -153.116)"/>
        <path id="Path_2308" data-name="Path 2308" class="cls-3" d="M790.5,184.9l3.162-.5v4.092H798.5v2.6h-4.836v5.518a4.44,4.44,0,0,0,.5,2.356,2.026,2.026,0,0,0,1.8.682,6.247,6.247,0,0,0,1.55-.186c.434-.124.806-.248,1.054-.31l.5,2.48a12.354,12.354,0,0,1-1.426.5,7.289,7.289,0,0,1-2.108.248,6.6,6.6,0,0,1-2.418-.372,3.577,3.577,0,0,1-1.55-1.116,5.307,5.307,0,0,1-.806-1.8,9.359,9.359,0,0,1-.248-2.418V184.9Z" transform="translate(-356.975 -150.608)"/>
        <path id="Path_2309" data-name="Path 2309" class="cls-3" d="M817.9,184.9l3.162-.5v4.092H825.9v2.6h-4.836v5.518a4.44,4.44,0,0,0,.5,2.356,2.026,2.026,0,0,0,1.8.682,6.247,6.247,0,0,0,1.55-.186c.434-.124.806-.248,1.054-.31l.5,2.48a12.344,12.344,0,0,1-1.426.5,7.288,7.288,0,0,1-2.108.248,6.6,6.6,0,0,1-2.418-.372,3.577,3.577,0,0,1-1.55-1.116,5.305,5.305,0,0,1-.806-1.8,9.356,9.356,0,0,1-.248-2.418Z" transform="translate(-367.386 -150.608)"/>
        <path id="Path_2310" data-name="Path 2310" class="cls-3" d="M846.983,197.568a8.7,8.7,0,0,1-.5,2.914,7.6,7.6,0,0,1-1.3,2.294,5.453,5.453,0,0,1-2.046,1.488,6.2,6.2,0,0,1-2.666.5,7.29,7.29,0,0,1-2.666-.5,5.454,5.454,0,0,1-2.046-1.488,8.325,8.325,0,0,1-1.364-2.294,8.808,8.808,0,0,1,0-5.828,6.222,6.222,0,0,1,3.41-3.658,7.206,7.206,0,0,1,2.6-.5,7.545,7.545,0,0,1,2.666.5,5.309,5.309,0,0,1,2.046,1.426,7.966,7.966,0,0,1,1.364,2.232A7.389,7.389,0,0,1,846.983,197.568Zm-3.224,0a5.521,5.521,0,0,0-.868-3.224,3.071,3.071,0,0,0-4.836,0,5.522,5.522,0,0,0-.868,3.224,5.388,5.388,0,0,0,.868,3.224,3.071,3.071,0,0,0,4.836,0A4.988,4.988,0,0,0,843.758,197.568Z" transform="translate(-373.466 -152.926)"/>
        <path id="Path_2311" data-name="Path 2311" class="cls-3" d="M882.277,197.63a8.347,8.347,0,0,1-.434,2.852,6.393,6.393,0,0,1-1.178,2.232,5.489,5.489,0,0,1-1.86,1.488,5.649,5.649,0,0,1-2.542.5,5.733,5.733,0,0,1-1.8-.248,7.229,7.229,0,0,1-1.3-.5v5.27H870V191.244c.62-.186,1.426-.31,2.356-.5a15.22,15.22,0,0,1,2.976-.248,8.7,8.7,0,0,1,2.914.5,5.759,5.759,0,0,1,2.17,1.426,5.863,5.863,0,0,1,1.364,2.232A7.5,7.5,0,0,1,882.277,197.63Zm-3.224.062a5.18,5.18,0,0,0-.93-3.286,3.633,3.633,0,0,0-3.038-1.178,4.692,4.692,0,0,0-.93.062,4.942,4.942,0,0,0-.93.186v7.812a4.619,4.619,0,0,0,1.116.558,3.752,3.752,0,0,0,1.488.248,2.885,2.885,0,0,0,2.542-1.178A7.094,7.094,0,0,0,879.052,197.692Z" transform="translate(-387.183 -152.926)"/>
        <path id="Path_2312" data-name="Path 2312" class="cls-3" d="M902.85,193.6a9.034,9.034,0,0,0-1.054-.248,6.3,6.3,0,0,0-1.612-.124,6.833,6.833,0,0,0-1.116.124,3.9,3.9,0,0,0-.806.186v10.913H895.1V191.43a13.3,13.3,0,0,1,2.294-.62,15.259,15.259,0,0,1,3.038-.31,3.557,3.557,0,0,1,.744.062c.31.062.558.062.806.124s.558.124.806.186a3.855,3.855,0,0,1,.62.186Z" transform="translate(-396.72 -152.926)"/>
        <path id="Path_2313" data-name="Path 2313" class="cls-3" d="M923.883,197.568a8.7,8.7,0,0,1-.5,2.914,7.6,7.6,0,0,1-1.3,2.294,5.453,5.453,0,0,1-2.046,1.488,6.2,6.2,0,0,1-2.666.5,7.29,7.29,0,0,1-2.666-.5,5.454,5.454,0,0,1-2.046-1.488,8.332,8.332,0,0,1-1.364-2.294,8.809,8.809,0,0,1,0-5.828,6.222,6.222,0,0,1,3.41-3.658,7.206,7.206,0,0,1,2.6-.5,7.545,7.545,0,0,1,2.666.5,5.307,5.307,0,0,1,2.046,1.426,7.966,7.966,0,0,1,1.364,2.232A8.7,8.7,0,0,1,923.883,197.568Zm-3.224,0a5.521,5.521,0,0,0-.868-3.224,3.071,3.071,0,0,0-4.836,0,5.521,5.521,0,0,0-.868,3.224,5.387,5.387,0,0,0,.868,3.224,3.071,3.071,0,0,0,4.836,0A5.387,5.387,0,0,0,920.659,197.568Z" transform="translate(-402.686 -152.926)"/>
        <path id="Path_2314" data-name="Path 2314" class="cls-3" d="M939.826,202.119a4.254,4.254,0,0,0,1.8-.31,1.086,1.086,0,0,0,.558-1.054,1.314,1.314,0,0,0-.62-1.116,8.94,8.94,0,0,0-2.046-.992,8.968,8.968,0,0,1-1.55-.682,6.113,6.113,0,0,1-1.24-.806,2.871,2.871,0,0,1-.806-1.116,4.147,4.147,0,0,1-.31-1.612,3.592,3.592,0,0,1,1.364-2.976,5.767,5.767,0,0,1,3.72-1.054,9.3,9.3,0,0,1,2.294.248,7.963,7.963,0,0,1,1.612.434l-.558,2.542a6.4,6.4,0,0,0-1.3-.434,8.591,8.591,0,0,0-1.86-.186,3.615,3.615,0,0,0-1.55.31,1.179,1.179,0,0,0-.62.992,1.836,1.836,0,0,0,.124.62,1.041,1.041,0,0,0,.434.5,3.931,3.931,0,0,0,.744.434,10.585,10.585,0,0,0,1.116.434,20.06,20.06,0,0,1,1.922.806,4.965,4.965,0,0,1,1.3.93,3.814,3.814,0,0,1,.744,1.178,3.876,3.876,0,0,1,.248,1.55,3.484,3.484,0,0,1-1.426,2.976,7.226,7.226,0,0,1-4.154.992,12.3,12.3,0,0,1-2.914-.31,11.6,11.6,0,0,1-1.55-.5l.558-2.6q.744.279,1.674.558A13.676,13.676,0,0,0,939.826,202.119Z" transform="translate(-411.995 -152.888)"/>
        <path id="Path_2315" data-name="Path 2315" class="cls-3" d="M968.577,197.63a8.349,8.349,0,0,1-.434,2.852,6.393,6.393,0,0,1-1.178,2.232,5.489,5.489,0,0,1-1.86,1.488,5.649,5.649,0,0,1-2.542.5,5.733,5.733,0,0,1-1.8-.248,7.229,7.229,0,0,1-1.3-.5v5.27H956.3V191.244c.62-.186,1.426-.31,2.356-.5a15.222,15.222,0,0,1,2.976-.248,8.7,8.7,0,0,1,2.914.5,5.759,5.759,0,0,1,2.17,1.426,5.862,5.862,0,0,1,1.364,2.232A7.5,7.5,0,0,1,968.577,197.63Zm-3.224.062a5.18,5.18,0,0,0-.93-3.286,3.633,3.633,0,0,0-3.038-1.178,4.692,4.692,0,0,0-.93.062,4.94,4.94,0,0,0-.93.186v7.812a4.617,4.617,0,0,0,1.116.558,3.751,3.751,0,0,0,1.488.248,2.885,2.885,0,0,0,2.542-1.178A7.093,7.093,0,0,0,965.353,197.692Z" transform="translate(-419.974 -152.926)"/>
        <path id="Path_2316" data-name="Path 2316" class="cls-3" d="M980.1,197.692a8.455,8.455,0,0,1,.558-3.162,5.776,5.776,0,0,1,1.426-2.232,5.65,5.65,0,0,1,2.046-1.364,6.112,6.112,0,0,1,2.356-.434,5.612,5.612,0,0,1,4.4,1.736,7.579,7.579,0,0,1,1.55,5.208V198a1.376,1.376,0,0,1-.062.558h-8.99a3.53,3.53,0,0,0,1.178,2.542,4.271,4.271,0,0,0,2.976.868,11.113,11.113,0,0,0,2.108-.186,11.4,11.4,0,0,0,1.488-.434l.434,2.6a5.179,5.179,0,0,1-.744.248,4.4,4.4,0,0,1-1.054.248c-.434.062-.806.124-1.24.186a10.048,10.048,0,0,1-1.364.062,7.909,7.909,0,0,1-3.1-.558,6.14,6.14,0,0,1-2.17-1.488,6.619,6.619,0,0,1-1.3-2.232A7.632,7.632,0,0,1,980.1,197.692Zm9.177-1.426a4,4,0,0,0-.186-1.24,2.586,2.586,0,0,0-.558-.992,2.367,2.367,0,0,0-.868-.682,2.459,2.459,0,0,0-1.24-.248,2.876,2.876,0,0,0-1.3.248,2.746,2.746,0,0,0-.93.744,3.144,3.144,0,0,0-.558.992,6.53,6.53,0,0,0-.31,1.178Z" transform="translate(-429.017 -152.926)"/>
        <path id="Path_2317" data-name="Path 2317" class="cls-3" d="M1004.1,197.592a8.9,8.9,0,0,1,.5-2.852,6.638,6.638,0,0,1,1.364-2.294,6.223,6.223,0,0,1,2.108-1.488,6.8,6.8,0,0,1,2.79-.558,10.355,10.355,0,0,1,3.658.682l-.682,2.6a4.113,4.113,0,0,0-1.24-.372,9.728,9.728,0,0,0-1.488-.186,3.281,3.281,0,0,0-2.79,1.178,5.995,5.995,0,0,0-.062,6.51,3.608,3.608,0,0,0,3.1,1.178,7.148,7.148,0,0,0,1.612-.186,13.494,13.494,0,0,0,1.364-.372l.434,2.6a9.192,9.192,0,0,1-1.55.5,12.294,12.294,0,0,1-2.17.186,7.593,7.593,0,0,1-3.038-.558,5.886,5.886,0,0,1-2.108-1.488,5.469,5.469,0,0,1-1.24-2.294A6.8,6.8,0,0,1,1004.1,197.592Z" transform="translate(-438.137 -152.888)"/>
        <path id="Path_2318" data-name="Path 2318" class="cls-3" d="M1024.9,184.9l3.162-.5v4.092h4.836v2.6h-4.836v5.518a4.441,4.441,0,0,0,.5,2.356,2.026,2.026,0,0,0,1.8.682,6.247,6.247,0,0,0,1.55-.186c.434-.124.806-.248,1.054-.31l.5,2.48a12.344,12.344,0,0,1-1.426.5,7.289,7.289,0,0,1-2.108.248,6.6,6.6,0,0,1-2.418-.372,3.577,3.577,0,0,1-1.55-1.116,5.311,5.311,0,0,1-.806-1.8,9.356,9.356,0,0,1-.248-2.418V184.9Z" transform="translate(-446.04 -150.608)"/>
        <path id="Path_2319" data-name="Path 2319" class="cls-3" d="M1045.426,202.119a4.254,4.254,0,0,0,1.8-.31,1.086,1.086,0,0,0,.558-1.054,1.315,1.315,0,0,0-.62-1.116,8.94,8.94,0,0,0-2.046-.992,8.963,8.963,0,0,1-1.55-.682,6.11,6.11,0,0,1-1.24-.806,2.871,2.871,0,0,1-.806-1.116,4.147,4.147,0,0,1-.31-1.612,3.592,3.592,0,0,1,1.364-2.976,5.766,5.766,0,0,1,3.72-1.054,9.3,9.3,0,0,1,2.294.248,7.965,7.965,0,0,1,1.612.434l-.558,2.542a6.406,6.406,0,0,0-1.3-.434,8.59,8.59,0,0,0-1.86-.186,3.614,3.614,0,0,0-1.55.31,1.179,1.179,0,0,0-.62.992,1.837,1.837,0,0,0,.124.62,1.043,1.043,0,0,0,.434.5,3.937,3.937,0,0,0,.744.434,10.581,10.581,0,0,0,1.116.434,20.043,20.043,0,0,1,1.922.806,4.962,4.962,0,0,1,1.3.93,3.815,3.815,0,0,1,.744,1.178,3.879,3.879,0,0,1,.248,1.55,3.484,3.484,0,0,1-1.426,2.976,7.226,7.226,0,0,1-4.154.992,12.3,12.3,0,0,1-2.914-.31,11.6,11.6,0,0,1-1.55-.5l.558-2.6q.744.279,1.674.558A13.686,13.686,0,0,0,1045.426,202.119Z" transform="translate(-452.119 -152.888)"/>
        <path id="Path_2320" data-name="Path 2320" class="cls-3" d="M105.883,247.968a8.7,8.7,0,0,1-.5,2.914,7.6,7.6,0,0,1-1.3,2.294,5.941,5.941,0,0,1-4.712,1.984,7.29,7.29,0,0,1-2.666-.5,5.454,5.454,0,0,1-2.046-1.488,8.329,8.329,0,0,1-1.364-2.294,8.808,8.808,0,0,1,0-5.828,6.223,6.223,0,0,1,3.41-3.658,7.207,7.207,0,0,1,2.6-.5,7.546,7.546,0,0,1,2.666.5,5.308,5.308,0,0,1,2.046,1.426,7.963,7.963,0,0,1,1.364,2.232A7.387,7.387,0,0,1,105.883,247.968Zm-3.224,0a5.521,5.521,0,0,0-.868-3.224,3.071,3.071,0,0,0-4.836,0,5.521,5.521,0,0,0-.868,3.224,5.388,5.388,0,0,0,.868,3.224,3.071,3.071,0,0,0,4.836,0A5.388,5.388,0,0,0,102.658,247.968Z" transform="translate(-91.87 -172.077)"/>
        <path id="Path_2321" data-name="Path 2321" class="cls-3" d="M119.162,241.644c.62-.186,1.426-.31,2.356-.5a17.462,17.462,0,0,1,3.224-.248,7.328,7.328,0,0,1,2.79.434,4.359,4.359,0,0,1,1.8,1.3,4.907,4.907,0,0,1,.93,1.984,11.055,11.055,0,0,1,.248,2.542v7.626h-3.162v-7.13a14.656,14.656,0,0,0-.124-1.86,3.246,3.246,0,0,0-.5-1.24,1.864,1.864,0,0,0-.868-.682,4.124,4.124,0,0,0-1.364-.248,8.731,8.731,0,0,0-1.24.062,8.492,8.492,0,0,1-.992.124v10.975H119.1V241.644Z" transform="translate(-101.863 -172.077)"/>
        <path id="Path_2322" data-name="Path 2322" class="cls-3" d="M148.436,251.3a8.348,8.348,0,0,1-2.356-.31,3.431,3.431,0,0,1-1.488-.806,2.759,2.759,0,0,1-.744-1.3,7.868,7.868,0,0,1-.248-1.8V231.4l3.162-.5v15.625a5.011,5.011,0,0,0,.062.992,2.293,2.293,0,0,0,.31.682,1.583,1.583,0,0,0,.62.434,3.765,3.765,0,0,0,1.054.248Z" transform="translate(-111.172 -168.277)"/>
        <path id="Path_2323" data-name="Path 2323" class="cls-3" d="M159.544,233.722a1.868,1.868,0,0,1-.558,1.426,1.776,1.776,0,0,1-1.364.5,2.043,2.043,0,0,1-1.364-.5,1.868,1.868,0,0,1-.558-1.426,1.779,1.779,0,0,1,.558-1.426,1.865,1.865,0,0,1,1.364-.5,2.167,2.167,0,0,1,1.364.5A1.964,1.964,0,0,1,159.544,233.722Zm-.372,17.609H156.01V237.69h3.162Z" transform="translate(-115.77 -168.619)"/>
        <path id="Path_2324" data-name="Path 2324" class="cls-3" d="M167.762,241.644c.62-.186,1.426-.31,2.356-.5a17.462,17.462,0,0,1,3.224-.248,7.328,7.328,0,0,1,2.79.434,4.359,4.359,0,0,1,1.8,1.3,4.907,4.907,0,0,1,.93,1.984,11.057,11.057,0,0,1,.248,2.542v7.626h-3.162v-7.13a14.657,14.657,0,0,0-.124-1.86,3.246,3.246,0,0,0-.5-1.24,1.864,1.864,0,0,0-.868-.682,4.125,4.125,0,0,0-1.364-.248,8.731,8.731,0,0,0-1.24.062,8.492,8.492,0,0,1-.992.124v10.975H167.7V241.644Z" transform="translate(-120.33 -172.077)"/>
        <path id="Path_2325" data-name="Path 2325" class="cls-3" d="M191.2,248.092a8.457,8.457,0,0,1,.558-3.162,5.776,5.776,0,0,1,1.426-2.232,5.65,5.65,0,0,1,2.046-1.364,6.112,6.112,0,0,1,2.356-.434,5.612,5.612,0,0,1,4.4,1.736,7.579,7.579,0,0,1,1.55,5.208v.558a1.376,1.376,0,0,1-.062.558h-8.99a3.53,3.53,0,0,0,1.178,2.542,4.271,4.271,0,0,0,2.976.868,11.114,11.114,0,0,0,2.108-.186,11.39,11.39,0,0,0,1.488-.434l.434,2.6a5.168,5.168,0,0,1-.744.248,4.4,4.4,0,0,1-1.054.248c-.372.062-.806.124-1.24.186a10.044,10.044,0,0,1-1.364.062,7.909,7.909,0,0,1-3.1-.558,6.14,6.14,0,0,1-2.17-1.488,6.622,6.622,0,0,1-1.3-2.232A6.487,6.487,0,0,1,191.2,248.092Zm9.114-1.426a4,4,0,0,0-.186-1.24,2.586,2.586,0,0,0-.558-.992,2.365,2.365,0,0,0-.868-.682,2.459,2.459,0,0,0-1.24-.248,2.876,2.876,0,0,0-1.3.248,2.746,2.746,0,0,0-.93.744,3.145,3.145,0,0,0-.558.992,6.541,6.541,0,0,0-.31,1.178Z" transform="translate(-129.259 -172.077)"/>
        <path id="Path_2326" data-name="Path 2326" class="cls-3" d="M219.516,259.346a1.838,1.838,0,0,1-.62,1.488,2.112,2.112,0,0,1-1.488.558,2.011,2.011,0,0,1-1.488-.558,2.054,2.054,0,0,1-.62-1.488,1.838,1.838,0,0,1,.62-1.488,2.011,2.011,0,0,1,1.488-.558,2.222,2.222,0,0,1,1.488.558A2.054,2.054,0,0,1,219.516,259.346Z" transform="translate(-138.416 -178.308)"/>
      </g>
    </g>
  </g>
</svg>
