<svg xmlns="http://www.w3.org/2000/svg" viewBox="0 0 612.958 219.522">
  <defs>
    <style>
      .cls-1 {
        fill: #f17821;
      }

      .cls-2 {
        fill: #fff;
      }

      .cls-3 {
        fill: #545a66;
      }
    </style>
  </defs>
  <g id="Group_339" data-name="Group 339" transform="translate(0)">
    <path id="Path_2227" data-name="Path 2227" class="cls-1" d="M532.9,209.494H80.178A80.152,80.152,0,0,1,0,129.378H0A80.152,80.152,0,0,1,80.116,49.2H532.841a80.139,80.139,0,0,1,80.116,80.116h0A80.06,80.06,0,0,1,532.9,209.494Z" transform="translate(0 -19.018)"/>
    <g id="Group_337" data-name="Group 337" transform="translate(56.56 66.866)">
      <path id="Path_2228" data-name="Path 2228" class="cls-2" d="M94.3,112.5h3.251v17.851H94.3Z" transform="translate(-93.012 -110.353)"/>
      <path id="Path_2229" data-name="Path 2229" class="cls-2" d="M108.571,109.7a2.087,2.087,0,0,0,.061.613v.552a10.088,10.088,0,0,1-.613,3.006,9.8,9.8,0,0,1-1.35,2.515l-2.27-.613a9.972,9.972,0,0,0,.8-2.392,11.625,11.625,0,0,0,.307-2.392v-.552a2.987,2.987,0,0,0-.061-.736Z" transform="translate(-96.916 -109.271)"/>
      <path id="Path_2230" data-name="Path 2230" class="cls-2" d="M124.568,125.748a6.337,6.337,0,0,0-.552-3.067,2.056,2.056,0,0,0-1.963-.92,6.668,6.668,0,0,0-1.1.061c-.429.061-.736.123-.92.123V132.8H116.9V119.736c.613-.184,1.411-.307,2.331-.491A16.79,16.79,0,0,1,122.3,119a5.845,5.845,0,0,1,2.27.368,4.135,4.135,0,0,1,1.472.982,3.9,3.9,0,0,1,.736-.429c.307-.123.613-.307.982-.429a6.471,6.471,0,0,1,1.166-.307,8.314,8.314,0,0,1,1.227-.123,6.283,6.283,0,0,1,2.576.429,3.721,3.721,0,0,1,1.595,1.288,4.731,4.731,0,0,1,.8,1.963,15.194,15.194,0,0,1,.245,2.515V132.8h-3.129v-7.055a7.346,7.346,0,0,0-.491-3.067,2.056,2.056,0,0,0-1.963-.92,4.356,4.356,0,0,0-2.392.736,8.705,8.705,0,0,1,.307,1.35,12.321,12.321,0,0,1,.061,1.534V132.8h-3.129v-7.055Z" transform="translate(-101.748 -112.866)"/>
      <path id="Path_2231" data-name="Path 2231" class="cls-2" d="M173.946,128.608a15.249,15.249,0,0,1-2.331.491,15.058,15.058,0,0,1-2.945.245,8.609,8.609,0,0,1-2.883-.491,5.7,5.7,0,0,1-2.147-1.411,5.8,5.8,0,0,1-1.35-2.208,9.464,9.464,0,0,1-.061-5.828,6.326,6.326,0,0,1,1.166-2.208,4.835,4.835,0,0,1,1.9-1.411,6.651,6.651,0,0,1,2.576-.491,4.837,4.837,0,0,1,1.718.245c.491.184.92.307,1.288.491v-6.441l3.129-.491v19.508Zm-8.956-6.38a4.9,4.9,0,0,0,.982,3.251,3.28,3.28,0,0,0,2.7,1.166,8.233,8.233,0,0,0,1.288-.061c.368-.061.613-.061.859-.123v-7.729a4.569,4.569,0,0,0-1.1-.552,3.712,3.712,0,0,0-1.472-.245,2.855,2.855,0,0,0-2.515,1.166A5.9,5.9,0,0,0,164.99,122.228Z" transform="translate(-119.104 -109.039)"/>
      <path id="Path_2232" data-name="Path 2232" class="cls-2" d="M199.744,126.193a8.608,8.608,0,0,1-.491,2.883,7.518,7.518,0,0,1-1.288,2.27,5.878,5.878,0,0,1-4.662,1.963,7.213,7.213,0,0,1-2.638-.491,5.4,5.4,0,0,1-2.024-1.472,8.24,8.24,0,0,1-1.35-2.27,8.715,8.715,0,0,1,0-5.766,6.156,6.156,0,0,1,3.374-3.619,7.13,7.13,0,0,1,2.576-.491,7.465,7.465,0,0,1,2.638.491A5.251,5.251,0,0,1,197.9,121.1a7.88,7.88,0,0,1,1.35,2.208A8.344,8.344,0,0,1,199.744,126.193Zm-3.19,0a5.463,5.463,0,0,0-.859-3.19,3.038,3.038,0,0,0-4.785,0,5.463,5.463,0,0,0-.859,3.19,5.33,5.33,0,0,0,.859,3.19,3.038,3.038,0,0,0,4.785,0A5.463,5.463,0,0,0,196.554,126.193Z" transform="translate(-128.768 -112.943)"/>
      <path id="Path_2233" data-name="Path 2233" class="cls-2" d="M216.4,112a1.848,1.848,0,0,1-.552,1.411,1.757,1.757,0,0,1-1.35.491,2.021,2.021,0,0,1-1.35-.491,1.9,1.9,0,0,1,1.35-3.313,2.144,2.144,0,0,1,1.35.491A1.76,1.76,0,0,1,216.4,112Zm-.307,17.422h-3.129v-13.5H216.1Z" transform="translate(-138.741 -109.425)"/>
      <path id="Path_2234" data-name="Path 2234" class="cls-2" d="M224.7,119.836c.613-.184,1.411-.307,2.331-.491a17.276,17.276,0,0,1,3.19-.245,7.249,7.249,0,0,1,2.76.429,4.313,4.313,0,0,1,1.779,1.288,4.854,4.854,0,0,1,.92,1.963,10.6,10.6,0,0,1,.245,2.515v7.545h-3.067v-7.055a14.5,14.5,0,0,0-.123-1.84,3.211,3.211,0,0,0-.491-1.227,1.844,1.844,0,0,0-.859-.675,4.081,4.081,0,0,0-1.35-.245,8.64,8.64,0,0,0-1.227.061,8.4,8.4,0,0,1-.982.123v10.858H224.7Z" transform="translate(-143.418 -112.904)"/>
      <path id="Path_2235" data-name="Path 2235" class="cls-2" d="M260.04,131.53c0,2.147-.552,3.742-1.656,4.724a7.354,7.354,0,0,1-5.03,1.472,15.128,15.128,0,0,1-2.392-.184,10.986,10.986,0,0,1-2.147-.552l.552-2.638a8.075,8.075,0,0,0,1.84.552,12.365,12.365,0,0,0,2.208.184,3.741,3.741,0,0,0,2.7-.8,2.931,2.931,0,0,0,.8-2.27v-.491a8.451,8.451,0,0,1-1.227.491,5.058,5.058,0,0,1-1.718.245,5.645,5.645,0,0,1-2.331-.429,4.24,4.24,0,0,1-1.84-1.227,5.487,5.487,0,0,1-1.166-2.024,7.677,7.677,0,0,1-.429-2.761,7.556,7.556,0,0,1,.429-2.7,5.992,5.992,0,0,1,1.288-2.086,5.336,5.336,0,0,1,2.086-1.35,7.99,7.99,0,0,1,2.822-.491,14.43,14.43,0,0,1,2.883.245c.92.184,1.656.307,2.331.491Zm-8.711-5.705a4.148,4.148,0,0,0,.859,2.883,2.825,2.825,0,0,0,2.208.92,5.228,5.228,0,0,0,1.411-.184,3.306,3.306,0,0,0,1.043-.491V121.96a3.108,3.108,0,0,0-.8-.123,7.065,7.065,0,0,0-1.227-.061,3.088,3.088,0,0,0-2.576,1.1A4.452,4.452,0,0,0,251.329,125.825Z" transform="translate(-152.502 -112.943)"/>
      <path id="Path_2236" data-name="Path 2236" class="cls-2" d="M286.378,130.594a4.208,4.208,0,0,0,1.779-.307,1.075,1.075,0,0,0,.552-1.043,1.3,1.3,0,0,0-.613-1.1,8.849,8.849,0,0,0-2.024-.982,8.87,8.87,0,0,1-1.534-.675,6.048,6.048,0,0,1-1.227-.8,2.839,2.839,0,0,1-.8-1.1,4.1,4.1,0,0,1-.307-1.595,3.554,3.554,0,0,1,1.35-2.945A5.706,5.706,0,0,1,287.237,119a9.2,9.2,0,0,1,2.27.245,7.881,7.881,0,0,1,1.595.429l-.552,2.515a6.336,6.336,0,0,0-1.288-.429,8.5,8.5,0,0,0-1.84-.184,3.576,3.576,0,0,0-1.534.307,1.166,1.166,0,0,0-.613.982,1.815,1.815,0,0,0,.123.613,1.031,1.031,0,0,0,.429.491,3.894,3.894,0,0,0,.736.429,10.481,10.481,0,0,0,1.1.429,19.853,19.853,0,0,1,1.9.8,4.912,4.912,0,0,1,1.288.92,3.4,3.4,0,0,1,.736,1.166,3.834,3.834,0,0,1,.245,1.534,3.447,3.447,0,0,1-1.411,2.945,7.149,7.149,0,0,1-4.11.982,12.176,12.176,0,0,1-2.883-.307,11.475,11.475,0,0,1-1.534-.491l.552-2.576q.736.276,1.656.552A9.2,9.2,0,0,0,286.378,130.594Z" transform="translate(-165.529 -112.866)"/>
      <path id="Path_2237" data-name="Path 2237" class="cls-2" d="M314.644,126.193a8.608,8.608,0,0,1-.491,2.883,7.517,7.517,0,0,1-1.288,2.27,5.878,5.878,0,0,1-4.662,1.963,7.213,7.213,0,0,1-2.638-.491,5.4,5.4,0,0,1-2.024-1.472,8.241,8.241,0,0,1-1.35-2.27,8.714,8.714,0,0,1,0-5.766,6.156,6.156,0,0,1,3.374-3.619,7.13,7.13,0,0,1,2.577-.491,7.465,7.465,0,0,1,2.638.491A5.252,5.252,0,0,1,312.8,121.1a7.879,7.879,0,0,1,1.35,2.208A8.344,8.344,0,0,1,314.644,126.193Zm-3.19,0A5.463,5.463,0,0,0,310.6,123a3.038,3.038,0,0,0-4.785,0,5.463,5.463,0,0,0-.859,3.19,5.33,5.33,0,0,0,.859,3.19,3.038,3.038,0,0,0,4.785,0A5.463,5.463,0,0,0,311.454,126.193Z" transform="translate(-173.183 -112.943)"/>
      <path id="Path_2238" data-name="Path 2238" class="cls-2" d="M335.668,125.748a6.338,6.338,0,0,0-.552-3.067,2.056,2.056,0,0,0-1.963-.92,6.668,6.668,0,0,0-1.1.061c-.429.061-.736.123-.92.123V132.8H328V119.736c.613-.184,1.411-.307,2.331-.491A16.79,16.79,0,0,1,333.4,119a5.844,5.844,0,0,1,2.27.368,4.135,4.135,0,0,1,1.472.982,3.894,3.894,0,0,1,.736-.429c.307-.123.613-.307.982-.429a6.471,6.471,0,0,1,1.166-.307,8.315,8.315,0,0,1,1.227-.123,6.283,6.283,0,0,1,2.577.429,3.721,3.721,0,0,1,1.595,1.288,4.731,4.731,0,0,1,.8,1.963,15.2,15.2,0,0,1,.245,2.515V132.8h-3.129v-7.055a7.346,7.346,0,0,0-.491-3.067,2.056,2.056,0,0,0-1.963-.92,4.356,4.356,0,0,0-2.392.736,8.705,8.705,0,0,1,.307,1.35,12.315,12.315,0,0,1,.061,1.534V132.8h-3.129v-7.055Z" transform="translate(-183.349 -112.866)"/>
      <path id="Path_2239" data-name="Path 2239" class="cls-2" d="M363.1,126.216a8.365,8.365,0,0,1,.552-3.129,5.715,5.715,0,0,1,1.411-2.208,5.589,5.589,0,0,1,2.024-1.35,6.047,6.047,0,0,1,2.331-.429,5.553,5.553,0,0,1,4.355,1.718,7.5,7.5,0,0,1,1.534,5.153v.552a1.362,1.362,0,0,1-.061.552h-8.895a3.493,3.493,0,0,0,1.166,2.515,4.225,4.225,0,0,0,2.945.859,11,11,0,0,0,2.086-.184,11.271,11.271,0,0,0,1.472-.429l.429,2.576a5.115,5.115,0,0,1-.736.245,4.349,4.349,0,0,1-1.043.245c-.368.061-.8.123-1.227.184a9.938,9.938,0,0,1-1.35.061,7.825,7.825,0,0,1-3.067-.552,6.075,6.075,0,0,1-2.147-1.472,6.551,6.551,0,0,1-1.288-2.208A7.3,7.3,0,0,1,363.1,126.216Zm9.079-1.411a3.956,3.956,0,0,0-.184-1.227,2.56,2.56,0,0,0-.552-.982,2.34,2.34,0,0,0-.859-.675,2.433,2.433,0,0,0-1.227-.245,2.845,2.845,0,0,0-1.288.245,2.716,2.716,0,0,0-.92.736,3.111,3.111,0,0,0-.552.982,6.471,6.471,0,0,0-.307,1.166Z" transform="translate(-196.917 -112.904)"/>
      <path id="Path_2240" data-name="Path 2240" class="cls-2" d="M405.768,122.306a8.942,8.942,0,0,0-1.043-.245,6.237,6.237,0,0,0-1.6-.123,6.759,6.759,0,0,0-1.1.123,3.864,3.864,0,0,0-.8.184v10.8H398.1V120.22a13.156,13.156,0,0,1,2.27-.613,15.1,15.1,0,0,1,3.006-.307,3.52,3.52,0,0,1,.736.061,3.591,3.591,0,0,1,.8.123c.245.061.552.123.8.184a3.812,3.812,0,0,1,.613.184Z" transform="translate(-210.446 -112.981)"/>
      <path id="Path_2241" data-name="Path 2241" class="cls-2" d="M413.8,126.216a8.367,8.367,0,0,1,.552-3.129,5.715,5.715,0,0,1,1.411-2.208,5.589,5.589,0,0,1,2.024-1.35,6.047,6.047,0,0,1,2.331-.429,5.553,5.553,0,0,1,4.355,1.718,7.5,7.5,0,0,1,1.534,5.153v.552a1.361,1.361,0,0,1-.061.552h-8.895a3.492,3.492,0,0,0,1.166,2.515,4.225,4.225,0,0,0,2.945.859,10.994,10.994,0,0,0,2.086-.184,11.273,11.273,0,0,0,1.472-.429l.429,2.576a5.114,5.114,0,0,1-.736.245,4.348,4.348,0,0,1-1.043.245c-.368.061-.8.123-1.227.184a9.937,9.937,0,0,1-1.35.061,7.825,7.825,0,0,1-3.067-.552,6.076,6.076,0,0,1-2.147-1.472,6.552,6.552,0,0,1-1.288-2.208A7.306,7.306,0,0,1,413.8,126.216Zm9.079-1.411a3.956,3.956,0,0,0-.184-1.227,2.559,2.559,0,0,0-.552-.982,2.34,2.34,0,0,0-.859-.675,2.433,2.433,0,0,0-1.227-.245,2.845,2.845,0,0,0-1.288.245,2.716,2.716,0,0,0-.92.736,3.111,3.111,0,0,0-.552.982,6.469,6.469,0,0,0-.307,1.166Z" transform="translate(-216.515 -112.904)"/>
      <path id="Path_2242" data-name="Path 2242" class="cls-2" d="M441.678,130.594a4.208,4.208,0,0,0,1.779-.307,1.075,1.075,0,0,0,.552-1.043,1.3,1.3,0,0,0-.613-1.1,8.848,8.848,0,0,0-2.024-.982,8.871,8.871,0,0,1-1.534-.675,6.05,6.05,0,0,1-1.227-.8,2.839,2.839,0,0,1-.8-1.1,4.1,4.1,0,0,1-.307-1.595,3.554,3.554,0,0,1,1.35-2.945A5.706,5.706,0,0,1,442.537,119a9.2,9.2,0,0,1,2.27.245,7.88,7.88,0,0,1,1.595.429l-.552,2.515a6.337,6.337,0,0,0-1.288-.429,8.5,8.5,0,0,0-1.84-.184,3.576,3.576,0,0,0-1.534.307,1.166,1.166,0,0,0-.613.982,1.815,1.815,0,0,0,.123.613,1.03,1.03,0,0,0,.429.491,3.9,3.9,0,0,0,.736.429,10.482,10.482,0,0,0,1.1.429,19.848,19.848,0,0,1,1.9.8,4.912,4.912,0,0,1,1.288.92,3.4,3.4,0,0,1,.736,1.166,3.833,3.833,0,0,1,.245,1.534,3.447,3.447,0,0,1-1.411,2.945,7.148,7.148,0,0,1-4.11.982,12.176,12.176,0,0,1-2.883-.307,11.472,11.472,0,0,1-1.534-.491l.552-2.576q.736.276,1.656.552A9.2,9.2,0,0,0,441.678,130.594Z" transform="translate(-225.56 -112.866)"/>
      <path id="Path_2243" data-name="Path 2243" class="cls-2" d="M457,126.216a8.366,8.366,0,0,1,.552-3.129,5.715,5.715,0,0,1,1.411-2.208,5.589,5.589,0,0,1,2.024-1.35,6.046,6.046,0,0,1,2.331-.429,5.553,5.553,0,0,1,4.355,1.718,7.5,7.5,0,0,1,1.534,5.153v.552a1.36,1.36,0,0,1-.061.552h-8.895a3.493,3.493,0,0,0,1.166,2.515,4.225,4.225,0,0,0,2.944.859,11,11,0,0,0,2.086-.184,11.274,11.274,0,0,0,1.472-.429l.429,2.576a5.114,5.114,0,0,1-.736.245,4.348,4.348,0,0,1-1.043.245c-.368.061-.8.123-1.227.184a9.936,9.936,0,0,1-1.35.061,7.825,7.825,0,0,1-3.067-.552,6.075,6.075,0,0,1-2.147-1.472,6.552,6.552,0,0,1-1.288-2.208A6.242,6.242,0,0,1,457,126.216Zm9.018-1.411a3.956,3.956,0,0,0-.184-1.227,2.56,2.56,0,0,0-.552-.982,2.34,2.34,0,0,0-.859-.675,2.433,2.433,0,0,0-1.227-.245,2.845,2.845,0,0,0-1.288.245,2.716,2.716,0,0,0-.92.736,3.112,3.112,0,0,0-.552.982,6.476,6.476,0,0,0-.307,1.166Z" transform="translate(-233.214 -112.904)"/>
      <path id="Path_2244" data-name="Path 2244" class="cls-2" d="M486.06,119.1a7.641,7.641,0,0,1,2.576.368,4.159,4.159,0,0,1,1.718,1.1,4.23,4.23,0,0,1,.92,1.718,8.236,8.236,0,0,1,.245,2.147V132.6a21.347,21.347,0,0,1-2.147.368,26.134,26.134,0,0,1-3.313.245,8.4,8.4,0,0,1-2.208-.245,6.3,6.3,0,0,1-1.718-.736,3.364,3.364,0,0,1-1.1-1.35,4.938,4.938,0,0,1-.429-2.024,3.873,3.873,0,0,1,.429-1.963,3.543,3.543,0,0,1,1.227-1.288,6.744,6.744,0,0,1,1.779-.736,12.1,12.1,0,0,1,2.147-.245,7.043,7.043,0,0,1,1.1.061,10.83,10.83,0,0,1,1.227.245v-.491a6.044,6.044,0,0,0-.123-1.043,2.266,2.266,0,0,0-.429-.859,2.079,2.079,0,0,0-.859-.552,4.216,4.216,0,0,0-1.35-.184,9.286,9.286,0,0,0-1.963.184,12.73,12.73,0,0,0-1.472.368l-.368-2.515c.368-.123.982-.245,1.718-.429A7.53,7.53,0,0,1,486.06,119.1Zm.245,11.594a9.81,9.81,0,0,0,2.208-.184v-3.435a6.367,6.367,0,0,0-.736-.184,9.417,9.417,0,0,0-2.147,0,2.628,2.628,0,0,0-.982.307,1.5,1.5,0,0,0-.675.552,1.478,1.478,0,0,0-.245.92,1.745,1.745,0,0,0,.675,1.534A3.033,3.033,0,0,0,486.305,130.694Z" transform="translate(-242.337 -112.904)"/>
      <path id="Path_2245" data-name="Path 2245" class="cls-2" d="M512.268,122.306a8.94,8.94,0,0,0-1.043-.245,6.236,6.236,0,0,0-1.595-.123,6.761,6.761,0,0,0-1.1.123,3.863,3.863,0,0,0-.8.184v10.8H504.6V120.22a13.157,13.157,0,0,1,2.27-.613,15.1,15.1,0,0,1,3.006-.307,3.52,3.52,0,0,1,.736.061,3.59,3.59,0,0,1,.8.123c.245.061.552.123.8.184a3.813,3.813,0,0,1,.613.184Z" transform="translate(-251.614 -112.981)"/>
      <path id="Path_2246" data-name="Path 2246" class="cls-2" d="M520.3,126.116a8.8,8.8,0,0,1,.491-2.822,6.567,6.567,0,0,1,1.35-2.27,6.415,6.415,0,0,1,2.086-1.472,6.723,6.723,0,0,1,2.76-.552,10.245,10.245,0,0,1,3.619.675l-.675,2.576a4.071,4.071,0,0,0-1.227-.368,5.368,5.368,0,0,0-1.472-.184,3.246,3.246,0,0,0-2.76,1.166,5.931,5.931,0,0,0-.061,6.441,3.57,3.57,0,0,0,3.067,1.166,7.073,7.073,0,0,0,1.595-.184,13.363,13.363,0,0,0,1.35-.368l.429,2.576a9.1,9.1,0,0,1-1.534.491,12.161,12.161,0,0,1-2.147.184,7.513,7.513,0,0,1-3.006-.552,5.823,5.823,0,0,1-2.086-1.472,5.41,5.41,0,0,1-1.227-2.27A6.522,6.522,0,0,1,520.3,126.116Z" transform="translate(-257.683 -112.866)"/>
      <path id="Path_2247" data-name="Path 2247" class="cls-2" d="M541.4,129V109.491l3.129-.491v6.687a5.967,5.967,0,0,1,1.227-.307,10.034,10.034,0,0,1,1.35-.123,6.919,6.919,0,0,1,2.7.429,4.107,4.107,0,0,1,1.718,1.288,4.855,4.855,0,0,1,.92,1.963,10.6,10.6,0,0,1,.245,2.515V129h-3.129v-7.116a14.491,14.491,0,0,0-.123-1.84,3.212,3.212,0,0,0-.491-1.227,1.844,1.844,0,0,0-.859-.675,4.081,4.081,0,0,0-1.35-.245,9.15,9.15,0,0,0-1.288.123,7.512,7.512,0,0,0-.982.245V129Z" transform="translate(-265.839 -109)"/>
      <path id="Path_2248" data-name="Path 2248" class="cls-2" d="M587.344,126.193a8.608,8.608,0,0,1-.491,2.883,7.519,7.519,0,0,1-1.288,2.27,5.878,5.878,0,0,1-4.662,1.963,7.213,7.213,0,0,1-2.638-.491,5.4,5.4,0,0,1-2.024-1.472,8.242,8.242,0,0,1-1.35-2.27,8.715,8.715,0,0,1,0-5.766,6.157,6.157,0,0,1,3.374-3.619,7.13,7.13,0,0,1,2.576-.491,7.464,7.464,0,0,1,2.638.491A5.251,5.251,0,0,1,585.5,121.1a7.88,7.88,0,0,1,1.35,2.208A8.345,8.345,0,0,1,587.344,126.193Zm-3.19,0a5.463,5.463,0,0,0-.859-3.19,3.038,3.038,0,0,0-4.785,0,5.463,5.463,0,0,0-.859,3.19,5.33,5.33,0,0,0,.859,3.19,3.038,3.038,0,0,0,4.785,0A5.463,5.463,0,0,0,584.154,126.193Z" transform="translate(-278.595 -112.943)"/>
      <path id="Path_2249" data-name="Path 2249" class="cls-2" d="M600.7,119.836c.613-.184,1.411-.307,2.331-.491a17.274,17.274,0,0,1,3.19-.245,7.25,7.25,0,0,1,2.761.429,4.313,4.313,0,0,1,1.779,1.288,4.855,4.855,0,0,1,.92,1.963,10.6,10.6,0,0,1,.245,2.515v7.545h-3.067v-7.055a14.478,14.478,0,0,0-.123-1.84,3.211,3.211,0,0,0-.491-1.227,1.844,1.844,0,0,0-.859-.675,4.081,4.081,0,0,0-1.35-.245,8.641,8.641,0,0,0-1.227.061,8.4,8.4,0,0,1-.982.123v10.858H600.7Z" transform="translate(-288.762 -112.904)"/>
      <path id="Path_2250" data-name="Path 2250" class="cls-2" d="M645.946,128.608a15.25,15.25,0,0,1-2.331.491,15.057,15.057,0,0,1-2.944.245,8.609,8.609,0,0,1-2.883-.491,5.7,5.7,0,0,1-2.147-1.411,5.8,5.8,0,0,1-1.35-2.208,8.708,8.708,0,0,1-.491-2.945,8.621,8.621,0,0,1,.429-2.883,6.326,6.326,0,0,1,1.166-2.208,4.835,4.835,0,0,1,1.9-1.411,6.651,6.651,0,0,1,2.576-.491,4.837,4.837,0,0,1,1.718.245c.491.184.92.307,1.288.491v-6.441l3.129-.491v19.508Zm-8.9-6.38a4.9,4.9,0,0,0,.982,3.251,3.28,3.28,0,0,0,2.7,1.166,8.232,8.232,0,0,0,1.288-.061c.368-.061.613-.061.859-.123v-7.729a4.568,4.568,0,0,0-1.1-.552,3.712,3.712,0,0,0-1.472-.245,2.855,2.855,0,0,0-2.515,1.166A5.905,5.905,0,0,0,637.051,122.228Z" transform="translate(-301.557 -109.039)"/>
      <path id="Path_2251" data-name="Path 2251" class="cls-2" d="M663.4,112a1.848,1.848,0,0,1-.552,1.411,1.757,1.757,0,0,1-1.35.491,2.021,2.021,0,0,1-1.35-.491,1.9,1.9,0,0,1,1.35-3.313,2.144,2.144,0,0,1,1.35.491A1.76,1.76,0,0,1,663.4,112Zm-.368,17.422h-3.129v-13.5h3.129Z" transform="translate(-311.53 -109.425)"/>
      <path id="Path_2252" data-name="Path 2252" class="cls-2" d="M677.221,109a8.687,8.687,0,0,1,1.9.184,6.039,6.039,0,0,1,1.227.368l-.613,2.576a4.213,4.213,0,0,0-1.043-.307,7.551,7.551,0,0,0-1.227-.123,2.845,2.845,0,0,0-1.288.245,1.647,1.647,0,0,0-.8.613,2.134,2.134,0,0,0-.429.92,7.545,7.545,0,0,0-.123,1.227v.92h4.908V118.2h-4.908V129.06H671.7V114.644a5.934,5.934,0,0,1,1.35-4.11A5.289,5.289,0,0,1,677.221,109Zm10.367,0a8.688,8.688,0,0,1,1.9.184,6.037,6.037,0,0,1,1.227.368l-.613,2.576a4.212,4.212,0,0,0-1.043-.307,7.551,7.551,0,0,0-1.227-.123,2.845,2.845,0,0,0-1.288.245,1.646,1.646,0,0,0-.8.613,2.133,2.133,0,0,0-.429.92,7.545,7.545,0,0,0-.123,1.227v.92H690.1V118.2H685.2V129.06h-3.129V114.644a5.934,5.934,0,0,1,1.35-4.11A5.376,5.376,0,0,1,687.588,109Z" transform="translate(-316.207 -109)"/>
      <path id="Path_2253" data-name="Path 2253" class="cls-2" d="M703.8,126.216a8.364,8.364,0,0,1,.552-3.129,5.715,5.715,0,0,1,1.411-2.208,5.589,5.589,0,0,1,2.024-1.35,6.047,6.047,0,0,1,2.331-.429,5.553,5.553,0,0,1,4.355,1.718,7.5,7.5,0,0,1,1.534,5.153v.552a1.36,1.36,0,0,1-.061.552h-8.895a3.492,3.492,0,0,0,1.166,2.515,4.225,4.225,0,0,0,2.945.859,10.994,10.994,0,0,0,2.086-.184,11.273,11.273,0,0,0,1.472-.429l.429,2.576a5.112,5.112,0,0,1-.736.245,4.349,4.349,0,0,1-1.043.245c-.429.061-.8.123-1.227.184a9.937,9.937,0,0,1-1.35.061,7.825,7.825,0,0,1-3.067-.552,6.076,6.076,0,0,1-2.147-1.472,6.552,6.552,0,0,1-1.288-2.208A7.3,7.3,0,0,1,703.8,126.216Zm9.079-1.411a3.956,3.956,0,0,0-.184-1.227,2.56,2.56,0,0,0-.552-.982,2.341,2.341,0,0,0-.859-.675,2.433,2.433,0,0,0-1.227-.245,2.845,2.845,0,0,0-1.288.245,2.717,2.717,0,0,0-.92.736,3.112,3.112,0,0,0-.552.982,6.466,6.466,0,0,0-.307,1.166Z" transform="translate(-328.615 -112.904)"/>
      <path id="Path_2254" data-name="Path 2254" class="cls-2" d="M736.729,122.306a8.948,8.948,0,0,0-1.043-.245,6.236,6.236,0,0,0-1.595-.123,6.759,6.759,0,0,0-1.1.123,3.865,3.865,0,0,0-.8.184v10.8H729V120.22a13.155,13.155,0,0,1,2.27-.613,15.1,15.1,0,0,1,3.006-.307,3.519,3.519,0,0,1,.736.061c.307.061.552.061.8.123s.552.123.8.184a3.815,3.815,0,0,1,.614.184Z" transform="translate(-338.356 -112.981)"/>
      <path id="Path_2255" data-name="Path 2255" class="cls-2" d="M744.7,126.216a8.364,8.364,0,0,1,.552-3.129,5.715,5.715,0,0,1,1.411-2.208,5.589,5.589,0,0,1,2.024-1.35,6.047,6.047,0,0,1,2.331-.429,5.553,5.553,0,0,1,4.355,1.718,7.5,7.5,0,0,1,1.534,5.153v.552a1.36,1.36,0,0,1-.061.552h-8.895a3.492,3.492,0,0,0,1.166,2.515,4.225,4.225,0,0,0,2.945.859,10.994,10.994,0,0,0,2.086-.184,11.273,11.273,0,0,0,1.472-.429l.429,2.576a5.112,5.112,0,0,1-.736.245,4.349,4.349,0,0,1-1.043.245c-.429.061-.8.123-1.227.184a9.937,9.937,0,0,1-1.35.061,7.825,7.825,0,0,1-3.067-.552,6.076,6.076,0,0,1-2.147-1.472,6.552,6.552,0,0,1-1.288-2.208A7.3,7.3,0,0,1,744.7,126.216Zm9.079-1.411a3.954,3.954,0,0,0-.184-1.227,2.559,2.559,0,0,0-.552-.982,2.341,2.341,0,0,0-.859-.675,2.433,2.433,0,0,0-1.227-.245,2.845,2.845,0,0,0-1.288.245,2.716,2.716,0,0,0-.92.736,3.111,3.111,0,0,0-.552.982,6.466,6.466,0,0,0-.307,1.166Z" transform="translate(-344.425 -112.904)"/>
      <path id="Path_2256" data-name="Path 2256" class="cls-2" d="M769.861,119.836c.614-.184,1.411-.307,2.331-.491a16.854,16.854,0,0,1,3.19-.245,7.25,7.25,0,0,1,2.76.429,4.313,4.313,0,0,1,1.779,1.288,4.855,4.855,0,0,1,.92,1.963,10.6,10.6,0,0,1,.245,2.515v7.545h-3.129v-7.055a14.5,14.5,0,0,0-.123-1.84,3.213,3.213,0,0,0-.491-1.227,1.586,1.586,0,0,0-.859-.675,4.08,4.08,0,0,0-1.35-.245,8.64,8.64,0,0,0-1.227.061,8.4,8.4,0,0,1-.982.123v10.858H769.8V119.836Z" transform="translate(-354.128 -112.904)"/>
      <path id="Path_2257" data-name="Path 2257" class="cls-2" d="M794.3,113.491l3.129-.491v4.049h4.785v2.576h-4.785v5.46a4.392,4.392,0,0,0,.491,2.331,2,2,0,0,0,1.779.675,6.182,6.182,0,0,0,1.534-.184c.429-.123.8-.245,1.043-.307l.491,2.454a12.222,12.222,0,0,1-1.411.491,7.211,7.211,0,0,1-2.086.245,6.533,6.533,0,0,1-2.392-.368,3.538,3.538,0,0,1-1.534-1.1,5.249,5.249,0,0,1-.8-1.779,9.258,9.258,0,0,1-.245-2.392Z" transform="translate(-363.598 -110.546)"/>
      <path id="Path_2258" data-name="Path 2258" class="cls-2" d="M96.678,180.994a4.208,4.208,0,0,0,1.779-.307,1.075,1.075,0,0,0,.552-1.043,1.3,1.3,0,0,0-.613-1.1,8.848,8.848,0,0,0-2.024-.982,8.871,8.871,0,0,1-1.534-.675,6.048,6.048,0,0,1-1.227-.8,2.839,2.839,0,0,1-.8-1.1,4.1,4.1,0,0,1-.307-1.595,3.554,3.554,0,0,1,1.35-2.945,5.706,5.706,0,0,1,3.681-1.043,9.2,9.2,0,0,1,2.27.245,7.88,7.88,0,0,1,1.595.429l-.552,2.515a6.337,6.337,0,0,0-1.288-.429,8.5,8.5,0,0,0-1.84-.184,3.577,3.577,0,0,0-1.534.307,1.166,1.166,0,0,0-.613.982,1.815,1.815,0,0,0,.123.613,1.031,1.031,0,0,0,.429.491,3.894,3.894,0,0,0,.736.429,10.475,10.475,0,0,0,1.1.429,19.849,19.849,0,0,1,1.9.8,4.912,4.912,0,0,1,1.288.92,3.4,3.4,0,0,1,.736,1.166,3.833,3.833,0,0,1,.245,1.534,3.447,3.447,0,0,1-1.411,2.945,7.149,7.149,0,0,1-4.11.982,12.175,12.175,0,0,1-2.883-.307,11.473,11.473,0,0,1-1.534-.491l.552-2.576q.736.276,1.656.552A9.2,9.2,0,0,0,96.678,180.994Z" transform="translate(-92.2 -132.348)"/>
      <path id="Path_2259" data-name="Path 2259" class="cls-2" d="M124.944,176.593a8.609,8.609,0,0,1-.491,2.883,7.519,7.519,0,0,1-1.288,2.27,5.878,5.878,0,0,1-4.662,1.963,7.213,7.213,0,0,1-2.638-.491,5.4,5.4,0,0,1-2.024-1.472,8.241,8.241,0,0,1-1.35-2.27,8.715,8.715,0,0,1,0-5.766,6.156,6.156,0,0,1,3.374-3.619,7.13,7.13,0,0,1,2.576-.491,7.465,7.465,0,0,1,2.638.491A5.251,5.251,0,0,1,123.1,171.5a7.88,7.88,0,0,1,1.35,2.208A8.344,8.344,0,0,1,124.944,176.593Zm-3.19,0a5.463,5.463,0,0,0-.859-3.19,3.038,3.038,0,0,0-4.785,0,5.463,5.463,0,0,0-.859,3.19,5.33,5.33,0,0,0,.859,3.19,3.038,3.038,0,0,0,4.785,0A5.463,5.463,0,0,0,121.754,176.593Z" transform="translate(-99.854 -132.425)"/>
      <path id="Path_2260" data-name="Path 2260" class="cls-2" d="M142.985,179.682a8.259,8.259,0,0,1-2.331-.307,3.4,3.4,0,0,1-1.472-.8,2.73,2.73,0,0,1-.736-1.288,7.784,7.784,0,0,1-.245-1.779v-15.52l3.129-.491v15.459a4.958,4.958,0,0,0,.061.982,2.268,2.268,0,0,0,.307.675,1.566,1.566,0,0,0,.613.429,3.725,3.725,0,0,0,1.043.245Z" transform="translate(-109.981 -128.521)"/>
      <path id="Path_2261" data-name="Path 2261" class="cls-2" d="M161.726,183.066c-.613.184-1.411.307-2.331.491a17.278,17.278,0,0,1-3.19.245,6.846,6.846,0,0,1-2.7-.491,4.756,4.756,0,0,1-1.779-1.288,5.271,5.271,0,0,1-.92-1.963,10.456,10.456,0,0,1-.307-2.515V170h3.129v7.055a5.468,5.468,0,0,0,.613,3.067,2.506,2.506,0,0,0,2.208.92,8.64,8.64,0,0,0,1.227-.061,8.53,8.53,0,0,0,.92-.123V170h3.129v13.066Z" transform="translate(-114.736 -132.58)"/>
      <path id="Path_2262" data-name="Path 2262" class="cls-2" d="M175.1,163.891l3.129-.491v4.049h4.785v2.576h-4.785v5.46a4.393,4.393,0,0,0,.491,2.331,1.937,1.937,0,0,0,1.779.675,6.18,6.18,0,0,0,1.534-.184c.429-.123.8-.245,1.043-.307l.491,2.454a12.221,12.221,0,0,1-1.411.491,7.212,7.212,0,0,1-2.086.245,6.533,6.533,0,0,1-2.392-.368,3.212,3.212,0,0,1-1.534-1.1,4.287,4.287,0,0,1-.8-1.779,9.257,9.257,0,0,1-.245-2.392Z" transform="translate(-124.245 -130.028)"/>
      <path id="Path_2263" data-name="Path 2263" class="cls-2" d="M196.1,162.4a1.848,1.848,0,0,1-.552,1.411,1.757,1.757,0,0,1-1.35.491,2.021,2.021,0,0,1-1.35-.491,1.9,1.9,0,0,1,1.35-3.313,2.144,2.144,0,0,1,1.35.491A1.76,1.76,0,0,1,196.1,162.4Zm-.307,17.422h-3.129v-13.5H195.8Z" transform="translate(-130.894 -128.907)"/>
      <path id="Path_2264" data-name="Path 2264" class="cls-2" d="M216.144,176.593a8.609,8.609,0,0,1-.491,2.883,7.519,7.519,0,0,1-1.288,2.27,5.878,5.878,0,0,1-4.662,1.963,7.214,7.214,0,0,1-2.638-.491,5.4,5.4,0,0,1-2.024-1.472,8.241,8.241,0,0,1-1.35-2.27,8.715,8.715,0,0,1,0-5.766,6.156,6.156,0,0,1,3.374-3.619,7.13,7.13,0,0,1,2.576-.491,7.465,7.465,0,0,1,2.638.491A5.251,5.251,0,0,1,214.3,171.5a7.88,7.88,0,0,1,1.35,2.208A7.118,7.118,0,0,1,216.144,176.593Zm-3.19,0a5.463,5.463,0,0,0-.859-3.19,3.038,3.038,0,0,0-4.785,0,5.463,5.463,0,0,0-.859,3.19,5.33,5.33,0,0,0,.859,3.19,3.038,3.038,0,0,0,4.785,0A5.048,5.048,0,0,0,212.954,176.593Z" transform="translate(-135.107 -132.425)"/>
      <path id="Path_2265" data-name="Path 2265" class="cls-2" d="M229.561,170.236c.613-.184,1.411-.307,2.331-.491a17.275,17.275,0,0,1,3.19-.245,7.249,7.249,0,0,1,2.76.429,4.313,4.313,0,0,1,1.779,1.288,4.855,4.855,0,0,1,.92,1.963,10.6,10.6,0,0,1,.245,2.515V183.3h-3.129v-7.055a14.5,14.5,0,0,0-.123-1.84,3.211,3.211,0,0,0-.491-1.227,1.844,1.844,0,0,0-.859-.675,4.081,4.081,0,0,0-1.35-.245,8.636,8.636,0,0,0-1.227.061,8.4,8.4,0,0,1-.982.123V183.3H229.5V170.236Z" transform="translate(-145.274 -132.386)"/>
      <path id="Path_2266" data-name="Path 2266" class="cls-2" d="M256.878,180.994a4.209,4.209,0,0,0,1.779-.307,1.075,1.075,0,0,0,.552-1.043,1.3,1.3,0,0,0-.613-1.1,8.849,8.849,0,0,0-2.024-.982,8.871,8.871,0,0,1-1.534-.675,6.049,6.049,0,0,1-1.227-.8,2.839,2.839,0,0,1-.8-1.1,4.1,4.1,0,0,1-.307-1.595,3.554,3.554,0,0,1,1.35-2.945,5.706,5.706,0,0,1,3.681-1.043,9.2,9.2,0,0,1,2.27.245,7.879,7.879,0,0,1,1.595.429l-.552,2.515a6.337,6.337,0,0,0-1.288-.429,8.5,8.5,0,0,0-1.84-.184,3.576,3.576,0,0,0-1.534.307,1.166,1.166,0,0,0-.613.982,1.815,1.815,0,0,0,.123.613,1.031,1.031,0,0,0,.429.491,3.891,3.891,0,0,0,.736.429,10.475,10.475,0,0,0,1.1.429,19.846,19.846,0,0,1,1.9.8,4.912,4.912,0,0,1,1.288.92,3.4,3.4,0,0,1,.736,1.166,3.834,3.834,0,0,1,.245,1.534,3.447,3.447,0,0,1-1.411,2.945,7.149,7.149,0,0,1-4.11.982,12.175,12.175,0,0,1-2.883-.307,11.474,11.474,0,0,1-1.534-.491l.552-2.576q.736.276,1.656.552A8.581,8.581,0,0,0,256.878,180.994Z" transform="translate(-154.126 -132.348)"/>
      <path id="Path_2267" data-name="Path 2267" class="cls-2" d="M288.621,159.4a8.689,8.689,0,0,1,1.9.184,6.041,6.041,0,0,1,1.227.368l-.613,2.576a4.211,4.211,0,0,0-1.043-.307,7.55,7.55,0,0,0-1.227-.123,2.845,2.845,0,0,0-1.288.245,1.646,1.646,0,0,0-.8.613,2.135,2.135,0,0,0-.429.92,7.552,7.552,0,0,0-.123,1.227v.92h4.908V168.6h-4.908v10.8H283.1V164.982a5.934,5.934,0,0,1,1.35-4.11A5.485,5.485,0,0,1,288.621,159.4Z" transform="translate(-165.993 -128.482)"/>
      <path id="Path_2268" data-name="Path 2268" class="cls-2" d="M311.244,176.593a8.609,8.609,0,0,1-.491,2.883,7.519,7.519,0,0,1-1.288,2.27,5.878,5.878,0,0,1-4.662,1.963,7.213,7.213,0,0,1-2.638-.491,5.4,5.4,0,0,1-2.024-1.472,8.241,8.241,0,0,1-1.35-2.27,8.715,8.715,0,0,1,0-5.766,6.157,6.157,0,0,1,3.374-3.619,7.13,7.13,0,0,1,2.576-.491,7.465,7.465,0,0,1,2.638.491A5.251,5.251,0,0,1,309.4,171.5a7.88,7.88,0,0,1,1.35,2.208A8.346,8.346,0,0,1,311.244,176.593Zm-3.19,0a5.463,5.463,0,0,0-.859-3.19,3.038,3.038,0,0,0-4.785,0,5.463,5.463,0,0,0-.859,3.19,5.33,5.33,0,0,0,.859,3.19,3.038,3.038,0,0,0,4.785,0A5.463,5.463,0,0,0,308.054,176.593Z" transform="translate(-171.868 -132.425)"/>
      <path id="Path_2269" data-name="Path 2269" class="cls-2" d="M332.268,172.667a8.939,8.939,0,0,0-1.043-.245,6.237,6.237,0,0,0-1.6-.123,6.759,6.759,0,0,0-1.1.123,3.863,3.863,0,0,0-.8.184v10.735H324.6V170.52a13.155,13.155,0,0,1,2.27-.613,15.1,15.1,0,0,1,3.006-.307,3.52,3.52,0,0,1,.736.061,3.591,3.591,0,0,1,.8.123c.245.061.552.123.8.184a3.809,3.809,0,0,1,.613.184Z" transform="translate(-182.035 -132.425)"/>
      <path id="Path_2270" data-name="Path 2270" class="cls-2" d="M363.044,176.593a8.609,8.609,0,0,1-.491,2.883,7.519,7.519,0,0,1-1.288,2.27,5.878,5.878,0,0,1-4.662,1.963,7.213,7.213,0,0,1-2.638-.491,5.4,5.4,0,0,1-2.024-1.472,8.241,8.241,0,0,1-1.35-2.27,8.714,8.714,0,0,1,0-5.766,6.156,6.156,0,0,1,3.374-3.619,7.13,7.13,0,0,1,2.577-.491,7.465,7.465,0,0,1,2.638.491A5.251,5.251,0,0,1,361.2,171.5a7.88,7.88,0,0,1,1.35,2.208A8.346,8.346,0,0,1,363.044,176.593Zm-3.19,0a5.463,5.463,0,0,0-.859-3.19,3.038,3.038,0,0,0-4.785,0,5.463,5.463,0,0,0-.859,3.19,5.33,5.33,0,0,0,.859,3.19,3.038,3.038,0,0,0,4.785,0A5.463,5.463,0,0,0,359.854,176.593Z" transform="translate(-191.892 -132.425)"/>
      <path id="Path_2271" data-name="Path 2271" class="cls-2" d="M387.426,183.066c-.613.184-1.411.307-2.331.491a17.277,17.277,0,0,1-3.19.245,6.846,6.846,0,0,1-2.7-.491,4.755,4.755,0,0,1-1.779-1.288,5.271,5.271,0,0,1-.92-1.963,10.457,10.457,0,0,1-.307-2.515V170h3.129v7.055a5.467,5.467,0,0,0,.613,3.067,2.506,2.506,0,0,0,2.208.92,8.64,8.64,0,0,0,1.227-.061,8.53,8.53,0,0,0,.92-.123V170h3.129Z" transform="translate(-201.981 -132.58)"/>
      <path id="Path_2272" data-name="Path 2272" class="cls-2" d="M408.668,172.667a8.936,8.936,0,0,0-1.043-.245,6.236,6.236,0,0,0-1.595-.123,6.76,6.76,0,0,0-1.1.123,3.863,3.863,0,0,0-.8.184v10.735H401V170.52a13.153,13.153,0,0,1,2.27-.613,15.1,15.1,0,0,1,3.006-.307,3.52,3.52,0,0,1,.736.061,3.591,3.591,0,0,1,.8.123c.245.061.552.123.8.184a3.81,3.81,0,0,1,.613.184Z" transform="translate(-211.567 -132.425)"/>
      <path id="Path_2273" data-name="Path 2273" class="cls-2" d="M426.4,176.516a8.8,8.8,0,0,1,.491-2.822,6.564,6.564,0,0,1,1.35-2.27,6.415,6.415,0,0,1,2.086-1.472,6.723,6.723,0,0,1,2.761-.552,10.245,10.245,0,0,1,3.619.675l-.675,2.576a4.073,4.073,0,0,0-1.227-.368,5.369,5.369,0,0,0-1.472-.184,3.247,3.247,0,0,0-2.76,1.166,5.931,5.931,0,0,0-.061,6.441,3.57,3.57,0,0,0,3.067,1.166,7.073,7.073,0,0,0,1.595-.184,13.36,13.36,0,0,0,1.35-.368l.429,2.576a9.093,9.093,0,0,1-1.534.491,12.163,12.163,0,0,1-2.147.184,7.513,7.513,0,0,1-3.006-.552,5.822,5.822,0,0,1-2.086-1.472,5.409,5.409,0,0,1-1.227-2.27A6.522,6.522,0,0,1,426.4,176.516Z" transform="translate(-221.386 -132.348)"/>
      <path id="Path_2274" data-name="Path 2274" class="cls-2" d="M458.744,176.593a8.609,8.609,0,0,1-.491,2.883,7.52,7.52,0,0,1-1.288,2.27,5.878,5.878,0,0,1-4.662,1.963,7.213,7.213,0,0,1-2.638-.491,5.4,5.4,0,0,1-2.024-1.472,8.241,8.241,0,0,1-1.35-2.27,8.716,8.716,0,0,1,0-5.766,6.157,6.157,0,0,1,3.374-3.619,7.13,7.13,0,0,1,2.576-.491,7.465,7.465,0,0,1,2.638.491A5.251,5.251,0,0,1,456.9,171.5a7.879,7.879,0,0,1,1.35,2.208A8.345,8.345,0,0,1,458.744,176.593Zm-3.19,0a5.463,5.463,0,0,0-.859-3.19,3.038,3.038,0,0,0-4.785,0,5.463,5.463,0,0,0-.859,3.19,5.33,5.33,0,0,0,.859,3.19,3.038,3.038,0,0,0,4.785,0A5.463,5.463,0,0,0,455.554,176.593Z" transform="translate(-228.885 -132.425)"/>
      <path id="Path_2275" data-name="Path 2275" class="cls-2" d="M479.768,176.187a6.338,6.338,0,0,0-.552-3.067,2.056,2.056,0,0,0-1.963-.92,6.667,6.667,0,0,0-1.1.061c-.429.061-.736.123-.92.123V183.3H472.1V170.236c.613-.184,1.411-.307,2.331-.491a16.79,16.79,0,0,1,3.067-.245,5.845,5.845,0,0,1,2.27.368,4.135,4.135,0,0,1,1.472.982,3.894,3.894,0,0,1,.736-.429c.307-.123.613-.307.982-.429a6.472,6.472,0,0,1,1.166-.307,8.311,8.311,0,0,1,1.227-.123,6.283,6.283,0,0,1,2.576.429,3.721,3.721,0,0,1,1.595,1.288,4.73,4.73,0,0,1,.8,1.963,15.2,15.2,0,0,1,.245,2.515V183.3h-3.129v-7.055a7.347,7.347,0,0,0-.491-3.067,2.056,2.056,0,0,0-1.963-.92,4.356,4.356,0,0,0-2.392.736,8.706,8.706,0,0,1,.307,1.35,12.321,12.321,0,0,1,.061,1.534V183.3h-3.129v-7.116Z" transform="translate(-239.051 -132.386)"/>
      <path id="Path_2276" data-name="Path 2276" class="cls-2" d="M520.546,176.555a8.259,8.259,0,0,1-.429,2.822,6.326,6.326,0,0,1-1.166,2.208,5.432,5.432,0,0,1-1.84,1.472,5.589,5.589,0,0,1-2.515.491,5.672,5.672,0,0,1-1.779-.245,7.153,7.153,0,0,1-1.288-.491v5.214H508.4v-17.79c.613-.184,1.411-.307,2.331-.491a15.06,15.06,0,0,1,2.945-.245,8.609,8.609,0,0,1,2.883.491,5.7,5.7,0,0,1,2.147,1.411,5.8,5.8,0,0,1,1.35,2.208A7.618,7.618,0,0,1,520.546,176.555Zm-3.19.061a5.125,5.125,0,0,0-.92-3.251,3.594,3.594,0,0,0-3.006-1.166,4.643,4.643,0,0,0-.92.061,2.462,2.462,0,0,0-.92.184v7.729a4.569,4.569,0,0,0,1.1.552,3.712,3.712,0,0,0,1.472.245,2.855,2.855,0,0,0,2.515-1.166A7.02,7.02,0,0,0,517.356,176.616Z" transform="translate(-253.083 -132.386)"/>
      <path id="Path_2277" data-name="Path 2277" class="cls-2" d="M537.36,169.5a7.642,7.642,0,0,1,2.576.368,4.159,4.159,0,0,1,1.718,1.1,4.229,4.229,0,0,1,.92,1.718,8.236,8.236,0,0,1,.245,2.147V183a21.359,21.359,0,0,1-2.147.368,26.135,26.135,0,0,1-3.313.245,8.4,8.4,0,0,1-2.208-.245,6.3,6.3,0,0,1-1.718-.736,3.365,3.365,0,0,1-1.1-1.35,4.939,4.939,0,0,1-.429-2.024,3.873,3.873,0,0,1,.429-1.963A3.542,3.542,0,0,1,533.556,176a6.744,6.744,0,0,1,1.779-.736,12.1,12.1,0,0,1,2.147-.245,7.044,7.044,0,0,1,1.1.061,10.834,10.834,0,0,1,1.227.245v-.491a6.038,6.038,0,0,0-.123-1.043,2.266,2.266,0,0,0-.429-.859,2.08,2.08,0,0,0-.859-.552,4.215,4.215,0,0,0-1.35-.184,9.285,9.285,0,0,0-1.963.184,12.731,12.731,0,0,0-1.472.368l-.368-2.515c.368-.123.982-.245,1.718-.429A7.53,7.53,0,0,1,537.36,169.5Zm.245,11.594a9.811,9.811,0,0,0,2.208-.184v-3.435a6.358,6.358,0,0,0-.736-.184,9.417,9.417,0,0,0-2.147,0,2.628,2.628,0,0,0-.982.307,1.5,1.5,0,0,0-.675.552,1.479,1.479,0,0,0-.245.92,1.745,1.745,0,0,0,.675,1.534A3.033,3.033,0,0,0,537.605,181.094Z" transform="translate(-262.167 -132.386)"/>
      <path id="Path_2278" data-name="Path 2278" class="cls-2" d="M555.861,170.236c.613-.184,1.411-.307,2.331-.491a17.275,17.275,0,0,1,3.19-.245,7.25,7.25,0,0,1,2.76.429,4.313,4.313,0,0,1,1.779,1.288,4.855,4.855,0,0,1,.92,1.963,10.6,10.6,0,0,1,.245,2.515V183.3h-3.129v-7.055a14.5,14.5,0,0,0-.123-1.84,3.213,3.213,0,0,0-.491-1.227,1.844,1.844,0,0,0-.859-.675,4.081,4.081,0,0,0-1.35-.245,8.637,8.637,0,0,0-1.227.061,8.4,8.4,0,0,1-.982.123V183.3H555.8V170.236Z" transform="translate(-271.406 -132.386)"/>
      <path id="Path_2279" data-name="Path 2279" class="cls-2" d="M589.544,169.961a102.334,102.334,0,0,1-4.846,13.925,14.239,14.239,0,0,1-1.043,1.963,5.2,5.2,0,0,1-1.227,1.35,4.284,4.284,0,0,1-1.472.8,5.964,5.964,0,0,1-1.9.245,5.228,5.228,0,0,1-1.411-.184c-.491-.123-.859-.245-1.043-.307l.552-2.515a4.924,4.924,0,0,0,1.84.368,2.927,2.927,0,0,0,1.9-.552,5.281,5.281,0,0,0,1.227-1.779c-.982-1.9-1.9-3.926-2.822-6.2a56.913,56.913,0,0,1-2.392-7.116h3.313c.184.736.368,1.534.613,2.331.245.859.552,1.718.8,2.576l.92,2.576c.307.859.675,1.656.982,2.392.552-1.534,1.043-3.129,1.534-4.908.491-1.718.92-3.374,1.288-5.03h3.19Z" transform="translate(-279.446 -132.541)"/>
      <path id="Path_2280" data-name="Path 2280" class="cls-2" d="M615.26,169.5a7.642,7.642,0,0,1,2.576.368,4.158,4.158,0,0,1,1.718,1.1,4.229,4.229,0,0,1,.92,1.718,8.236,8.236,0,0,1,.245,2.147V183a21.362,21.362,0,0,1-2.147.368,26.136,26.136,0,0,1-3.313.245,8.406,8.406,0,0,1-2.208-.245,6.3,6.3,0,0,1-1.718-.736,3.366,3.366,0,0,1-1.1-1.35,4.94,4.94,0,0,1-.429-2.024,3.874,3.874,0,0,1,.429-1.963A3.543,3.543,0,0,1,611.456,176a6.745,6.745,0,0,1,1.779-.736,12.1,12.1,0,0,1,2.147-.245,7.044,7.044,0,0,1,1.1.061,10.834,10.834,0,0,1,1.227.245v-.491a6.032,6.032,0,0,0-.123-1.043,2.265,2.265,0,0,0-.429-.859,2.08,2.08,0,0,0-.859-.552,4.216,4.216,0,0,0-1.35-.184,9.285,9.285,0,0,0-1.963.184,12.733,12.733,0,0,0-1.472.368l-.368-2.515c.368-.123.982-.245,1.718-.429A7.53,7.53,0,0,1,615.26,169.5Zm.245,11.594a9.811,9.811,0,0,0,2.208-.184v-3.435a6.358,6.358,0,0,0-.736-.184,9.417,9.417,0,0,0-2.147,0,2.628,2.628,0,0,0-.982.307,1.5,1.5,0,0,0-.675.552,1.479,1.479,0,0,0-.245.92,1.745,1.745,0,0,0,.675,1.534A3.033,3.033,0,0,0,615.505,181.094Z" transform="translate(-292.279 -132.386)"/>
      <path id="Path_2281" data-name="Path 2281" class="cls-2" d="M633.761,170.236c.613-.184,1.411-.307,2.331-.491a17.274,17.274,0,0,1,3.19-.245,7.25,7.25,0,0,1,2.761.429,4.313,4.313,0,0,1,1.779,1.288,4.854,4.854,0,0,1,.92,1.963,10.6,10.6,0,0,1,.245,2.515V183.3h-3.129v-7.055a14.5,14.5,0,0,0-.123-1.84,3.213,3.213,0,0,0-.491-1.227,1.845,1.845,0,0,0-.859-.675,4.081,4.081,0,0,0-1.35-.245,8.636,8.636,0,0,0-1.227.061,8.4,8.4,0,0,1-.982.123V183.3H633.7V170.236Z" transform="translate(-301.518 -132.386)"/>
      <path id="Path_2282" data-name="Path 2282" class="cls-2" d="M669.346,179.008a15.249,15.249,0,0,1-2.331.491,15.058,15.058,0,0,1-2.945.245,8.61,8.61,0,0,1-2.883-.491,5.7,5.7,0,0,1-2.147-1.411,5.8,5.8,0,0,1-1.35-2.208,9.463,9.463,0,0,1-.061-5.828,6.324,6.324,0,0,1,1.166-2.208,4.835,4.835,0,0,1,1.9-1.411,6.651,6.651,0,0,1,2.577-.491,4.837,4.837,0,0,1,1.718.245c.491.184.92.307,1.288.491v-6.441l3.129-.491v19.508Zm-8.956-6.38a4.9,4.9,0,0,0,.981,3.251,3.28,3.28,0,0,0,2.7,1.166,8.235,8.235,0,0,0,1.288-.061c.368-.061.613-.061.859-.123v-7.729a4.572,4.572,0,0,0-1.1-.552,3.712,3.712,0,0,0-1.472-.245,2.855,2.855,0,0,0-2.515,1.166A5.9,5.9,0,0,0,660.39,172.628Z" transform="translate(-310.602 -128.521)"/>
      <path id="Path_2283" data-name="Path 2283" class="cls-2" d="M700.154,175.069q-.552,2.3-1.288,4.417c-.429,1.411-.92,2.761-1.35,4.049H694.94c-.368-.8-.736-1.718-1.1-2.7-.368-1.043-.736-2.086-1.166-3.251-.368-1.166-.736-2.331-1.166-3.619l-1.1-3.865h3.313c.184.736.307,1.472.552,2.331.184.859.429,1.656.675,2.576.245.859.429,1.718.675,2.515s.491,1.595.736,2.27c.245-.8.491-1.595.736-2.454s.491-1.656.736-2.515.429-1.656.613-2.454.368-1.534.552-2.27h2.392c.184.675.307,1.472.491,2.27s.368,1.595.614,2.454c.184.859.429,1.656.675,2.515s.491,1.656.736,2.454c.245-.675.429-1.472.675-2.27s.491-1.656.736-2.515.429-1.718.675-2.576c.184-.859.368-1.595.552-2.331h3.251q-.552,2.024-1.1,3.865c-.368,1.288-.736,2.454-1.166,3.619-.368,1.166-.736,2.208-1.166,3.251-.368,1.043-.736,1.9-1.1,2.7H702.73c-.429-1.288-.92-2.638-1.35-4.049C701.013,178.013,700.583,176.541,700.154,175.069Z" transform="translate(-323.435 -132.618)"/>
      <path id="Path_2284" data-name="Path 2284" class="cls-2" d="M729.86,169.5a7.641,7.641,0,0,1,2.576.368,4.16,4.16,0,0,1,1.718,1.1,4.23,4.23,0,0,1,.92,1.718,8.233,8.233,0,0,1,.245,2.147V183a21.357,21.357,0,0,1-2.147.368,26.137,26.137,0,0,1-3.313.245,8.4,8.4,0,0,1-2.208-.245,6.3,6.3,0,0,1-1.718-.736,3,3,0,0,1-1.1-1.35,4.941,4.941,0,0,1-.429-2.024,3.874,3.874,0,0,1,.429-1.963A3.543,3.543,0,0,1,726.056,176a6.746,6.746,0,0,1,1.779-.736,12.1,12.1,0,0,1,2.147-.245,7.044,7.044,0,0,1,1.1.061,10.837,10.837,0,0,1,1.227.245v-.491a6.038,6.038,0,0,0-.123-1.043,2.265,2.265,0,0,0-.429-.859,2.08,2.08,0,0,0-.859-.552,4.216,4.216,0,0,0-1.35-.184,9.284,9.284,0,0,0-1.963.184c-.552.123-1.1.245-1.472.368l-.368-2.515c.368-.123.982-.245,1.718-.429A9.816,9.816,0,0,1,729.86,169.5Zm.245,11.594a9.811,9.811,0,0,0,2.208-.184v-3.435a6.355,6.355,0,0,0-.736-.184,9.417,9.417,0,0,0-2.147,0,2.628,2.628,0,0,0-.981.307,1.5,1.5,0,0,0-.675.552,1.479,1.479,0,0,0-.245.92,1.745,1.745,0,0,0,.675,1.534A3.033,3.033,0,0,0,730.1,181.094Z" transform="translate(-336.578 -132.386)"/>
      <path id="Path_2285" data-name="Path 2285" class="cls-2" d="M748.361,170.236c.614-.184,1.411-.307,2.331-.491a16.853,16.853,0,0,1,3.19-.245,7.25,7.25,0,0,1,2.76.429,4.314,4.314,0,0,1,1.779,1.288,4.855,4.855,0,0,1,.92,1.963,10.6,10.6,0,0,1,.245,2.515V183.3h-3.129v-7.055a14.5,14.5,0,0,0-.123-1.84,3.213,3.213,0,0,0-.491-1.227,1.586,1.586,0,0,0-.859-.675,4.081,4.081,0,0,0-1.35-.245,8.636,8.636,0,0,0-1.227.061,8.4,8.4,0,0,1-.982.123V183.3H748.3V170.236Z" transform="translate(-345.817 -132.386)"/>
      <path id="Path_2286" data-name="Path 2286" class="cls-2" d="M772.7,163.891l3.129-.491v4.049h4.785v2.576h-4.785v5.46a4.393,4.393,0,0,0,.491,2.331,2,2,0,0,0,1.779.675,6.18,6.18,0,0,0,1.534-.184c.429-.123.8-.245,1.043-.307l.491,2.454a12.221,12.221,0,0,1-1.411.491,7.211,7.211,0,0,1-2.086.245,6.534,6.534,0,0,1-2.392-.368,3.538,3.538,0,0,1-1.534-1.1,5.249,5.249,0,0,1-.8-1.779,9.259,9.259,0,0,1-.245-2.392Z" transform="translate(-355.249 -130.028)"/>
      <path id="Path_2287" data-name="Path 2287" class="cls-2" d="M788.9,176.616a8.367,8.367,0,0,1,.552-3.129,5.715,5.715,0,0,1,1.411-2.208,5.589,5.589,0,0,1,2.024-1.35,6.046,6.046,0,0,1,2.331-.429,5.553,5.553,0,0,1,4.355,1.718,7.5,7.5,0,0,1,1.534,5.153v.552a1.362,1.362,0,0,1-.061.552h-8.9a3.492,3.492,0,0,0,1.166,2.515,4.225,4.225,0,0,0,2.945.859,11,11,0,0,0,2.086-.184,11.273,11.273,0,0,0,1.472-.429l.43,2.576a5.115,5.115,0,0,1-.736.245,4.35,4.35,0,0,1-1.043.245c-.429.061-.8.123-1.227.184a9.94,9.94,0,0,1-1.35.061,7.825,7.825,0,0,1-3.067-.552,6.075,6.075,0,0,1-2.147-1.472,6.551,6.551,0,0,1-1.288-2.208A7.3,7.3,0,0,1,788.9,176.616Zm9.079-1.411a3.956,3.956,0,0,0-.184-1.227,2.557,2.557,0,0,0-.552-.982,2.34,2.34,0,0,0-.859-.675,2.433,2.433,0,0,0-1.227-.245,2.845,2.845,0,0,0-1.288.245,2.715,2.715,0,0,0-.92.736,3.108,3.108,0,0,0-.552.982,6.466,6.466,0,0,0-.307,1.166Z" transform="translate(-361.511 -132.386)"/>
      <path id="Path_2288" data-name="Path 2288" class="cls-2" d="M825.046,179.008a15.246,15.246,0,0,1-2.331.491,15.058,15.058,0,0,1-2.945.245,8.609,8.609,0,0,1-2.883-.491,5.7,5.7,0,0,1-2.147-1.411,5.8,5.8,0,0,1-1.35-2.208,8.71,8.71,0,0,1-.491-2.945,8.622,8.622,0,0,1,.429-2.883,6.327,6.327,0,0,1,1.166-2.208,4.835,4.835,0,0,1,1.9-1.411,6.651,6.651,0,0,1,2.576-.491,4.837,4.837,0,0,1,1.718.245c.491.184.92.307,1.288.491v-6.441l3.129-.491v19.508Zm-8.956-6.38a4.9,4.9,0,0,0,.981,3.251,3.28,3.28,0,0,0,2.7,1.166,8.234,8.234,0,0,0,1.288-.061c.368-.061.613-.061.859-.123v-7.729a4.569,4.569,0,0,0-1.1-.552,3.712,3.712,0,0,0-1.472-.245,2.855,2.855,0,0,0-2.515,1.166A5.9,5.9,0,0,0,816.09,172.628Z" transform="translate(-370.788 -128.521)"/>
      <path id="Path_2289" data-name="Path 2289" class="cls-2" d="M848.7,163.891l3.129-.491v4.049h4.785v2.576h-4.785v5.46a4.393,4.393,0,0,0,.491,2.331,2,2,0,0,0,1.779.675,6.179,6.179,0,0,0,1.534-.184c.429-.123.8-.245,1.043-.307l.491,2.454a12.226,12.226,0,0,1-1.411.491,7.211,7.211,0,0,1-2.086.245,6.534,6.534,0,0,1-2.392-.368,3.538,3.538,0,0,1-1.534-1.1,5.247,5.247,0,0,1-.8-1.779,9.259,9.259,0,0,1-.245-2.392Z" transform="translate(-384.626 -130.028)"/>
      <path id="Path_2290" data-name="Path 2290" class="cls-2" d="M877.744,176.593a8.608,8.608,0,0,1-.491,2.883,7.519,7.519,0,0,1-1.288,2.27,5.4,5.4,0,0,1-2.024,1.472,6.135,6.135,0,0,1-2.638.491,7.214,7.214,0,0,1-2.638-.491,5.4,5.4,0,0,1-2.024-1.472,8.241,8.241,0,0,1-1.35-2.27,8.714,8.714,0,0,1,0-5.766,6.156,6.156,0,0,1,3.374-3.619,7.13,7.13,0,0,1,2.576-.491,7.465,7.465,0,0,1,2.638.491A5.252,5.252,0,0,1,875.9,171.5a7.879,7.879,0,0,1,1.35,2.208A8.345,8.345,0,0,1,877.744,176.593Zm-3.19,0a5.462,5.462,0,0,0-.859-3.19,3.038,3.038,0,0,0-4.785,0,5.463,5.463,0,0,0-.859,3.19,5.331,5.331,0,0,0,.859,3.19,3.038,3.038,0,0,0,4.785,0A5.462,5.462,0,0,0,874.554,176.593Z" transform="translate(-390.85 -132.425)"/>
      <path id="Path_2291" data-name="Path 2291" class="cls-2" d="M97.129,221.617c.368-.429.8-.859,1.288-1.35.429-.491.859-.92,1.288-1.411s.859-.92,1.227-1.35a14.2,14.2,0,0,0,.982-1.166h3.681c-.859.982-1.779,1.963-2.7,3.006-.982,1.043-1.9,2.024-2.883,3.006a18.059,18.059,0,0,1,1.595,1.534c.552.613,1.1,1.288,1.656,1.963a16.045,16.045,0,0,1,1.472,2.086,17.8,17.8,0,0,1,1.166,1.9h-3.619c-.307-.552-.675-1.1-1.043-1.656-.429-.613-.859-1.166-1.288-1.718-.491-.552-.92-1.043-1.411-1.534a11.783,11.783,0,0,0-1.411-1.227v6.2H94V210.391l3.129-.491Z" transform="translate(-92.896 -148.003)"/>
      <path id="Path_2292" data-name="Path 2292" class="cls-2" d="M117.161,220.636c.613-.184,1.411-.307,2.331-.491a17.275,17.275,0,0,1,3.19-.245,7.25,7.25,0,0,1,2.761.429,4.313,4.313,0,0,1,1.779,1.288,4.855,4.855,0,0,1,.92,1.963,10.6,10.6,0,0,1,.245,2.515v7.545h-3.129v-7.055a14.5,14.5,0,0,0-.123-1.84,3.212,3.212,0,0,0-.491-1.227,1.845,1.845,0,0,0-.859-.675,4.081,4.081,0,0,0-1.35-.245,8.64,8.64,0,0,0-1.227.061,8.4,8.4,0,0,1-.982.123v10.858H117.1V220.636Z" transform="translate(-101.825 -151.869)"/>
      <path id="Path_2293" data-name="Path 2293" class="cls-2" d="M153.444,226.993a8.609,8.609,0,0,1-.491,2.883,7.519,7.519,0,0,1-1.288,2.27A5.878,5.878,0,0,1,147,234.109a7.213,7.213,0,0,1-2.638-.491,5.4,5.4,0,0,1-2.024-1.472,8.24,8.24,0,0,1-1.35-2.27,8.715,8.715,0,0,1,0-5.766,6.156,6.156,0,0,1,3.374-3.619,7.13,7.13,0,0,1,2.576-.491,7.465,7.465,0,0,1,2.638.491A5.251,5.251,0,0,1,151.6,221.9a7.879,7.879,0,0,1,1.35,2.208A7.118,7.118,0,0,1,153.444,226.993Zm-3.19,0a5.463,5.463,0,0,0-.859-3.19,3.038,3.038,0,0,0-4.785,0,5.463,5.463,0,0,0-.859,3.19,5.33,5.33,0,0,0,.859,3.19,3.038,3.038,0,0,0,4.785,0A5.463,5.463,0,0,0,150.254,226.993Z" transform="translate(-110.87 -151.907)"/>
      <path id="Path_2294" data-name="Path 2294" class="cls-2" d="M173.354,225.469q-.552,2.3-1.288,4.417c-.429,1.411-.92,2.761-1.35,4.049h-2.576c-.368-.8-.736-1.718-1.1-2.7-.368-1.043-.736-2.086-1.166-3.251-.368-1.166-.736-2.331-1.166-3.619l-1.1-3.865h3.313c.184.736.307,1.472.552,2.331.184.859.429,1.656.675,2.576.245.859.429,1.718.675,2.515s.491,1.595.736,2.27c.245-.8.491-1.595.736-2.454s.491-1.656.736-2.515.429-1.656.613-2.454.368-1.534.552-2.27h2.392c.184.675.307,1.472.491,2.27s.368,1.595.613,2.454c.184.859.429,1.656.675,2.515s.491,1.656.736,2.454c.245-.675.429-1.472.675-2.27s.491-1.656.736-2.515.429-1.718.675-2.576c.184-.859.368-1.595.552-2.331h3.251q-.552,2.024-1.1,3.865c-.368,1.288-.736,2.454-1.166,3.619-.368,1.166-.736,2.208-1.166,3.251-.368,1.043-.736,1.9-1.1,2.7H175.93c-.429-1.288-.92-2.638-1.35-4.049C174.213,228.413,173.783,226.941,173.354,225.469Z" transform="translate(-119.8 -152.101)"/>
      <path id="Path_2295" data-name="Path 2295" class="cls-2" d="M216.668,226.548a6.337,6.337,0,0,0-.552-3.067,2.056,2.056,0,0,0-1.963-.92,6.67,6.67,0,0,0-1.1.061c-.429.061-.736.123-.92.123V233.6H209V220.536c.613-.184,1.411-.307,2.331-.491a16.79,16.79,0,0,1,3.067-.245,5.845,5.845,0,0,1,2.27.368,4.135,4.135,0,0,1,1.472.982,3.894,3.894,0,0,1,.736-.429c.307-.123.613-.307.982-.429a6.474,6.474,0,0,1,1.166-.307,8.316,8.316,0,0,1,1.227-.123,6.283,6.283,0,0,1,2.576.429,3.721,3.721,0,0,1,1.595,1.288,4.73,4.73,0,0,1,.8,1.963,15.194,15.194,0,0,1,.245,2.515V233.6h-3.129v-7.055a7.346,7.346,0,0,0-.491-3.067,2.056,2.056,0,0,0-1.963-.92,4.356,4.356,0,0,0-2.392.736,8.7,8.7,0,0,1,.307,1.35,12.318,12.318,0,0,1,.061,1.534V233.6h-3.129v-7.055Z" transform="translate(-137.349 -151.83)"/>
      <path id="Path_2296" data-name="Path 2296" class="cls-2" d="M257.044,226.993a8.609,8.609,0,0,1-.491,2.883,7.519,7.519,0,0,1-1.288,2.27,5.878,5.878,0,0,1-4.662,1.963,7.213,7.213,0,0,1-2.638-.491,5.4,5.4,0,0,1-2.024-1.472,8.241,8.241,0,0,1-1.35-2.27,8.715,8.715,0,0,1,0-5.766,6.156,6.156,0,0,1,3.374-3.619,7.13,7.13,0,0,1,2.576-.491,7.465,7.465,0,0,1,2.638.491A5.251,5.251,0,0,1,255.2,221.9a7.881,7.881,0,0,1,1.35,2.208A8.345,8.345,0,0,1,257.044,226.993Zm-3.251,0a5.463,5.463,0,0,0-.859-3.19,3.038,3.038,0,0,0-4.785,0,5.463,5.463,0,0,0-.859,3.19,5.33,5.33,0,0,0,.859,3.19,3.038,3.038,0,0,0,4.785,0A5.048,5.048,0,0,0,253.792,226.993Z" transform="translate(-150.917 -151.907)"/>
      <path id="Path_2297" data-name="Path 2297" class="cls-2" d="M278.068,223.106a8.946,8.946,0,0,0-1.043-.245,6.236,6.236,0,0,0-1.595-.123,6.76,6.76,0,0,0-1.1.123,3.862,3.862,0,0,0-.8.184v10.8H270.4V221.02a13.153,13.153,0,0,1,2.27-.613,15.1,15.1,0,0,1,3.006-.307,3.522,3.522,0,0,1,.736.061,3.591,3.591,0,0,1,.8.123c.245.061.552.123.8.184a3.815,3.815,0,0,1,.613.184Z" transform="translate(-161.084 -151.946)"/>
      <path id="Path_2298" data-name="Path 2298" class="cls-2" d="M286.1,227.016a8.366,8.366,0,0,1,.552-3.129,5.715,5.715,0,0,1,1.411-2.208,5.589,5.589,0,0,1,2.024-1.35,6.047,6.047,0,0,1,2.331-.429,5.553,5.553,0,0,1,4.355,1.718,7.5,7.5,0,0,1,1.534,5.153v.552a1.361,1.361,0,0,1-.061.552h-8.9a3.492,3.492,0,0,0,1.166,2.515,4.225,4.225,0,0,0,2.945.859,11,11,0,0,0,2.086-.184,11.275,11.275,0,0,0,1.472-.429l.429,2.576a5.111,5.111,0,0,1-.736.245,4.348,4.348,0,0,1-1.043.245c-.368.061-.8.123-1.227.184a9.945,9.945,0,0,1-1.35.061,7.825,7.825,0,0,1-3.067-.552,6.075,6.075,0,0,1-2.147-1.472,6.551,6.551,0,0,1-1.288-2.208A6.242,6.242,0,0,1,286.1,227.016Zm9.079-1.411a3.956,3.956,0,0,0-.184-1.227,2.559,2.559,0,0,0-.552-.982,2.34,2.34,0,0,0-.859-.675,2.433,2.433,0,0,0-1.227-.245,2.846,2.846,0,0,0-1.288.245,2.717,2.717,0,0,0-.92.736,3.111,3.111,0,0,0-.552.982,6.468,6.468,0,0,0-.307,1.166h5.889Z" transform="translate(-167.152 -151.869)"/>
      <path id="Path_2299" data-name="Path 2299" class="cls-2" d="M324.96,219.9a7.642,7.642,0,0,1,2.577.368,4.159,4.159,0,0,1,1.718,1.1,4.23,4.23,0,0,1,.92,1.718,8.235,8.235,0,0,1,.245,2.147V233.4a21.352,21.352,0,0,1-2.147.368,26.129,26.129,0,0,1-3.313.245,8.4,8.4,0,0,1-2.208-.245,6.3,6.3,0,0,1-1.718-.736,3.365,3.365,0,0,1-1.1-1.35,4.938,4.938,0,0,1-.429-2.024,3.873,3.873,0,0,1,.429-1.963,3.543,3.543,0,0,1,1.227-1.288,6.745,6.745,0,0,1,1.779-.736,12.1,12.1,0,0,1,2.147-.245,7.045,7.045,0,0,1,1.1.061,10.835,10.835,0,0,1,1.227.245v-.491a6.044,6.044,0,0,0-.123-1.043,2.267,2.267,0,0,0-.429-.859,2.08,2.08,0,0,0-.859-.552,4.216,4.216,0,0,0-1.35-.184,9.286,9.286,0,0,0-1.963.184,12.733,12.733,0,0,0-1.472.368l-.368-2.515c.368-.123.982-.245,1.718-.429A7.53,7.53,0,0,1,324.96,219.9Zm.245,11.594a9.812,9.812,0,0,0,2.208-.184v-3.435a6.369,6.369,0,0,0-.736-.184,9.415,9.415,0,0,0-2.147,0,2.628,2.628,0,0,0-.982.307,1.5,1.5,0,0,0-.675.552,1.479,1.479,0,0,0-.245.92A1.745,1.745,0,0,0,323.3,231,3.033,3.033,0,0,0,325.205,231.494Z" transform="translate(-180.063 -151.869)"/>
      <path id="Path_2300" data-name="Path 2300" class="cls-2" d="M355.646,223.05a8.708,8.708,0,0,1-.491,2.945,6.679,6.679,0,0,1-1.35,2.208,5.7,5.7,0,0,1-2.147,1.411,8.344,8.344,0,0,1-2.883.491,15.061,15.061,0,0,1-2.945-.245c-.92-.184-1.718-.307-2.331-.491V210.291l3.129-.491v6.993a5.69,5.69,0,0,1,1.35-.491,5.292,5.292,0,0,1,1.718-.245,6.564,6.564,0,0,1,2.515.491,4.638,4.638,0,0,1,1.84,1.411,7.536,7.536,0,0,1,1.166,2.208A8.622,8.622,0,0,1,355.646,223.05Zm-3.19-.061a5.136,5.136,0,0,0-.8-3.129,2.786,2.786,0,0,0-2.515-1.166,4.124,4.124,0,0,0-1.472.245,9.73,9.73,0,0,0-1.1.491v7.729a3.2,3.2,0,0,0,.859.123,8.233,8.233,0,0,0,1.288.061,3.28,3.28,0,0,0,2.7-1.166A4.267,4.267,0,0,0,352.456,222.989Z" transform="translate(-189.34 -147.964)"/>
      <path id="Path_2301" data-name="Path 2301" class="cls-2" d="M380.244,226.993a8.609,8.609,0,0,1-.491,2.883,7.519,7.519,0,0,1-1.288,2.27,5.878,5.878,0,0,1-4.662,1.963,7.213,7.213,0,0,1-2.638-.491,5.4,5.4,0,0,1-2.024-1.472,8.241,8.241,0,0,1-1.35-2.27,8.715,8.715,0,0,1,0-5.766,6.156,6.156,0,0,1,3.374-3.619,7.13,7.13,0,0,1,2.576-.491,7.465,7.465,0,0,1,2.638.491A5.251,5.251,0,0,1,378.4,221.9a7.88,7.88,0,0,1,1.35,2.208A7.119,7.119,0,0,1,380.244,226.993Zm-3.19,0a5.463,5.463,0,0,0-.859-3.19,3.038,3.038,0,0,0-4.785,0,5.463,5.463,0,0,0-.859,3.19,5.33,5.33,0,0,0,.859,3.19,3.038,3.038,0,0,0,4.785,0A5.463,5.463,0,0,0,377.054,226.993Z" transform="translate(-198.54 -151.907)"/>
      <path id="Path_2302" data-name="Path 2302" class="cls-2" d="M404.626,233.428c-.613.184-1.411.307-2.331.491a17.277,17.277,0,0,1-3.19.245,6.846,6.846,0,0,1-2.7-.491,4.755,4.755,0,0,1-1.779-1.288,5.271,5.271,0,0,1-.92-1.963,10.457,10.457,0,0,1-.307-2.515v-7.545h3.129v7.055a5.468,5.468,0,0,0,.613,3.067,2.506,2.506,0,0,0,2.208.92,8.641,8.641,0,0,0,1.227-.061,8.529,8.529,0,0,0,.92-.123V220.3h3.129Z" transform="translate(-208.629 -152.023)"/>
      <path id="Path_2303" data-name="Path 2303" class="cls-2" d="M417.9,214.291l3.129-.491v4.049h4.785v2.576h-4.785v5.46a4.393,4.393,0,0,0,.491,2.331,1.937,1.937,0,0,0,1.779.675,6.18,6.18,0,0,0,1.534-.184c.429-.123.8-.245,1.043-.307l.491,2.454a12.229,12.229,0,0,1-1.411.491,7.212,7.212,0,0,1-2.086.245,6.533,6.533,0,0,1-2.392-.368,3.212,3.212,0,0,1-1.534-1.1,4.288,4.288,0,0,1-.8-1.779,9.259,9.259,0,0,1-.245-2.392V214.291Z" transform="translate(-218.1 -149.511)"/>
      <path id="Path_2304" data-name="Path 2304" class="cls-2" d="M455.244,220.361a102.338,102.338,0,0,1-4.846,13.925,14.25,14.25,0,0,1-1.043,1.963,5.2,5.2,0,0,1-1.227,1.35,4.284,4.284,0,0,1-1.472.8,5.964,5.964,0,0,1-1.9.245,5.228,5.228,0,0,1-1.411-.184c-.491-.123-.859-.245-1.043-.307l.552-2.515a4.923,4.923,0,0,0,1.84.368,2.927,2.927,0,0,0,1.9-.552,5.281,5.281,0,0,0,1.227-1.779c-.982-1.9-1.9-3.926-2.822-6.2a56.91,56.91,0,0,1-2.392-7.116h3.313c.184.736.368,1.534.613,2.331.245.859.552,1.718.8,2.576l.92,2.576c.307.859.675,1.656.982,2.392.552-1.534,1.043-3.129,1.534-4.908.491-1.718.92-3.374,1.288-5.03h3.19Z" transform="translate(-227.532 -152.023)"/>
      <path id="Path_2305" data-name="Path 2305" class="cls-2" d="M479.044,226.993a8.609,8.609,0,0,1-.491,2.883,7.52,7.52,0,0,1-1.288,2.27,5.878,5.878,0,0,1-4.662,1.963,7.213,7.213,0,0,1-2.638-.491,5.4,5.4,0,0,1-2.024-1.472,8.239,8.239,0,0,1-1.35-2.27,8.715,8.715,0,0,1,0-5.766,6.156,6.156,0,0,1,3.374-3.619,7.13,7.13,0,0,1,2.576-.491,7.464,7.464,0,0,1,2.638.491A5.252,5.252,0,0,1,477.2,221.9a7.88,7.88,0,0,1,1.35,2.208A8.345,8.345,0,0,1,479.044,226.993Zm-3.19,0A5.463,5.463,0,0,0,475,223.8a3.038,3.038,0,0,0-4.785,0,5.463,5.463,0,0,0-.859,3.19,5.33,5.33,0,0,0,.859,3.19,3.038,3.038,0,0,0,4.785,0A5.463,5.463,0,0,0,475.854,226.993Z" transform="translate(-236.732 -151.907)"/>
      <path id="Path_2306" data-name="Path 2306" class="cls-2" d="M503.326,233.428c-.613.184-1.411.307-2.331.491a17.277,17.277,0,0,1-3.19.245,6.846,6.846,0,0,1-2.7-.491,4.755,4.755,0,0,1-1.779-1.288,5.271,5.271,0,0,1-.92-1.963,10.457,10.457,0,0,1-.307-2.515v-7.545h3.129v7.055a5.467,5.467,0,0,0,.613,3.067,2.506,2.506,0,0,0,2.208.92,8.64,8.64,0,0,0,1.227-.061,8.533,8.533,0,0,0,.92-.123V220.3h3.129Z" transform="translate(-246.782 -152.023)"/>
      <path id="Path_2307" data-name="Path 2307" class="cls-2" d="M524.568,223.106a8.946,8.946,0,0,0-1.043-.245,6.236,6.236,0,0,0-1.595-.123,6.761,6.761,0,0,0-1.1.123,3.864,3.864,0,0,0-.8.184v10.8H516.9V221.02a13.152,13.152,0,0,1,2.27-.613,15.1,15.1,0,0,1,3.006-.307,3.522,3.522,0,0,1,.736.061,3.591,3.591,0,0,1,.8.123c.245.061.552.123.8.184a3.819,3.819,0,0,1,.613.184Z" transform="translate(-256.369 -151.946)"/>
      <path id="Path_2308" data-name="Path 2308" class="cls-2" d="M555.746,226.955a8.258,8.258,0,0,1-.429,2.822,6.325,6.325,0,0,1-1.166,2.208,5.433,5.433,0,0,1-1.84,1.472,5.59,5.59,0,0,1-2.515.491,5.672,5.672,0,0,1-1.779-.245,7.155,7.155,0,0,1-1.288-.491v5.214H543.6v-17.79c.613-.184,1.411-.307,2.331-.491a15.058,15.058,0,0,1,2.945-.245,8.609,8.609,0,0,1,2.883.491,5.7,5.7,0,0,1,2.147,1.411,5.8,5.8,0,0,1,1.35,2.208A8.979,8.979,0,0,1,555.746,226.955Zm-3.19.061a5.125,5.125,0,0,0-.92-3.251,3.594,3.594,0,0,0-3.006-1.166,4.642,4.642,0,0,0-.92.061,2.462,2.462,0,0,0-.92.184v7.729a4.569,4.569,0,0,0,1.1.552,3.712,3.712,0,0,0,1.472.245,2.855,2.855,0,0,0,2.515-1.166A7.018,7.018,0,0,0,552.556,227.016Z" transform="translate(-266.69 -151.869)"/>
      <path id="Path_2309" data-name="Path 2309" class="cls-2" d="M576.368,223.106a8.946,8.946,0,0,0-1.043-.245,6.236,6.236,0,0,0-1.595-.123,6.761,6.761,0,0,0-1.1.123,3.864,3.864,0,0,0-.8.184v10.8H568.7V221.02a13.154,13.154,0,0,1,2.27-.613,15.1,15.1,0,0,1,3.006-.307,3.522,3.522,0,0,1,.736.061,3.591,3.591,0,0,1,.8.123c.245.061.552.123.8.184a3.819,3.819,0,0,1,.613.184Z" transform="translate(-276.392 -151.946)"/>
      <path id="Path_2310" data-name="Path 2310" class="cls-2" d="M597.244,226.993a8.608,8.608,0,0,1-.491,2.883,7.519,7.519,0,0,1-1.288,2.27,5.878,5.878,0,0,1-4.662,1.963,7.213,7.213,0,0,1-2.638-.491,5.4,5.4,0,0,1-2.024-1.472,8.241,8.241,0,0,1-1.35-2.27,8.714,8.714,0,0,1,0-5.766,6.157,6.157,0,0,1,3.374-3.619,7.13,7.13,0,0,1,2.577-.491,7.465,7.465,0,0,1,2.638.491A5.251,5.251,0,0,1,595.4,221.9a7.879,7.879,0,0,1,1.35,2.208A7.119,7.119,0,0,1,597.244,226.993Zm-3.19,0a5.462,5.462,0,0,0-.859-3.19,3.038,3.038,0,0,0-4.785,0,5.463,5.463,0,0,0-.859,3.19,5.331,5.331,0,0,0,.859,3.19,3.038,3.038,0,0,0,4.785,0A5.048,5.048,0,0,0,594.054,226.993Z" transform="translate(-282.422 -151.907)"/>
      <path id="Path_2311" data-name="Path 2311" class="cls-2" d="M621.546,229.408a15.251,15.251,0,0,1-2.331.491,15.058,15.058,0,0,1-2.945.245,8.609,8.609,0,0,1-2.883-.491,5.7,5.7,0,0,1-2.147-1.411,5.8,5.8,0,0,1-1.35-2.208,9.465,9.465,0,0,1-.061-5.828A6.327,6.327,0,0,1,610.995,218a4.836,4.836,0,0,1,1.9-1.411,6.651,6.651,0,0,1,2.576-.491,4.837,4.837,0,0,1,1.718.245c.491.184.92.307,1.288.491v-6.441l3.129-.491v19.508Zm-8.9-6.38a4.9,4.9,0,0,0,.982,3.251,3.28,3.28,0,0,0,2.7,1.166,8.235,8.235,0,0,0,1.288-.061c.368-.061.613-.061.859-.123v-7.729a4.568,4.568,0,0,0-1.1-.552,3.711,3.711,0,0,0-1.472-.245,2.855,2.855,0,0,0-2.515,1.166A5.9,5.9,0,0,0,612.651,223.028Z" transform="translate(-292.125 -148.003)"/>
      <path id="Path_2312" data-name="Path 2312" class="cls-2" d="M646.626,233.428c-.614.184-1.411.307-2.331.491a17.277,17.277,0,0,1-3.19.245,6.846,6.846,0,0,1-2.7-.491,4.756,4.756,0,0,1-1.779-1.288,5.272,5.272,0,0,1-.92-1.963,10.457,10.457,0,0,1-.307-2.515v-7.545h3.129v7.055a5.467,5.467,0,0,0,.614,3.067,2.506,2.506,0,0,0,2.208.92,8.639,8.639,0,0,0,1.227-.061,8.528,8.528,0,0,0,.92-.123V220.3h3.129v13.128Z" transform="translate(-302.175 -152.023)"/>
      <path id="Path_2313" data-name="Path 2313" class="cls-2" d="M659,226.916a8.8,8.8,0,0,1,.491-2.822,6.565,6.565,0,0,1,1.35-2.27,6.416,6.416,0,0,1,2.086-1.472,6.724,6.724,0,0,1,2.761-.552,10.246,10.246,0,0,1,3.619.675l-.675,2.576a4.071,4.071,0,0,0-1.227-.368,5.369,5.369,0,0,0-1.472-.184,3.246,3.246,0,0,0-2.76,1.166,5.931,5.931,0,0,0-.061,6.441,3.57,3.57,0,0,0,3.067,1.166,7.073,7.073,0,0,0,1.595-.184,13.366,13.366,0,0,0,1.35-.368l.429,2.576a9.092,9.092,0,0,1-1.534.491,12.163,12.163,0,0,1-2.147.184,7.513,7.513,0,0,1-3.006-.552,5.822,5.822,0,0,1-2.086-1.472,5.41,5.41,0,0,1-1.227-2.27A5.709,5.709,0,0,1,659,226.916Z" transform="translate(-311.298 -151.83)"/>
      <path id="Path_2314" data-name="Path 2314" class="cls-2" d="M679.8,214.291l3.129-.491v4.049h4.785v2.576h-4.785v5.46a4.393,4.393,0,0,0,.491,2.331,2,2,0,0,0,1.779.675,6.181,6.181,0,0,0,1.534-.184c.429-.123.8-.245,1.043-.307l.491,2.454a12.222,12.222,0,0,1-1.411.491,7.211,7.211,0,0,1-2.086.245,6.533,6.533,0,0,1-2.392-.368,3.538,3.538,0,0,1-1.534-1.1,5.248,5.248,0,0,1-.8-1.779,9.259,9.259,0,0,1-.245-2.392Z" transform="translate(-319.338 -149.511)"/>
      <path id="Path_2315" data-name="Path 2315" class="cls-2" d="M701.071,238.324a1.819,1.819,0,0,1-.613,1.472,2.09,2.09,0,0,1-1.472.552,1.99,1.99,0,0,1-1.472-.552,2.032,2.032,0,0,1-.613-1.472,1.819,1.819,0,0,1,.613-1.472,1.99,1.99,0,0,1,1.472-.552,2.2,2.2,0,0,1,1.472.552A2.032,2.032,0,0,1,701.071,238.324Z" transform="translate(-325.948 -158.208)"/>
    </g>
    <g id="Group_338" data-name="Group 338" transform="translate(73.552)">
      <path id="Path_2316" data-name="Path 2316" class="cls-3" d="M128.3,21.749a9,9,0,0,1-3.435-.613,8,8,0,0,1-2.638-1.779,8.674,8.674,0,0,1-1.718-2.945,11.583,11.583,0,0,1-.613-3.987,11.556,11.556,0,0,1,.675-3.987,8.015,8.015,0,0,1,1.84-2.945,7.15,7.15,0,0,1,2.7-1.779,8.592,8.592,0,0,1,3.313-.613,10.341,10.341,0,0,1,2.024.184c.613.123,1.1.245,1.534.368a3.336,3.336,0,0,1,1.043.429,3.537,3.537,0,0,1,.552.307l-.736,2.086a1.725,1.725,0,0,0-.675-.307c-.307-.123-.613-.245-.982-.368a7.175,7.175,0,0,0-1.227-.307,9.189,9.189,0,0,0-1.35-.123,7.13,7.13,0,0,0-2.576.491,4.835,4.835,0,0,0-1.9,1.411,6.191,6.191,0,0,0-1.227,2.27,9.125,9.125,0,0,0-.429,3.006,10.592,10.592,0,0,0,.368,2.883,6.529,6.529,0,0,0,1.1,2.27,5.432,5.432,0,0,0,1.84,1.472,5.8,5.8,0,0,0,2.638.491,9.693,9.693,0,0,0,2.883-.368,8.3,8.3,0,0,0,1.718-.675l.675,2.086a3.764,3.764,0,0,1-.675.307c-.368.123-.675.245-1.166.368a10.531,10.531,0,0,1-1.595.307C129.715,21.687,129.04,21.749,128.3,21.749Z" transform="translate(-119.9 -1.198)"/>
      <path id="Path_2317" data-name="Path 2317" class="cls-3" d="M150.849,20.544a4.623,4.623,0,0,1-3.129-.982,3.81,3.81,0,0,1-.92-2.822V.729L149.192.3V16.372a4.27,4.27,0,0,0,.123.982,1.439,1.439,0,0,0,.307.613,2.042,2.042,0,0,0,.613.368,9.627,9.627,0,0,0,.982.184Z" transform="translate(-130.298 -0.116)"/>
      <path id="Path_2318" data-name="Path 2318" class="cls-3" d="M159.334,5.09a1.478,1.478,0,0,1-1.1-.429,1.527,1.527,0,0,1-.429-1.166,1.527,1.527,0,0,1,.429-1.166,1.634,1.634,0,0,1,2.208,0,1.527,1.527,0,0,1,.429,1.166,1.527,1.527,0,0,1-.429,1.166A1.478,1.478,0,0,1,159.334,5.09Zm1.227,15.827h-2.392V7.482h2.392Z" transform="translate(-134.55 -0.734)"/>
      <path id="Path_2319" data-name="Path 2319" class="cls-3" d="M167.8,17.555a9.845,9.845,0,0,1,.491-3.129,7.88,7.88,0,0,1,1.35-2.208,4.572,4.572,0,0,1,1.963-1.288,5.746,5.746,0,0,1,2.27-.429,5.159,5.159,0,0,1,4.171,1.718q1.472,1.656,1.472,5.153v.859h-9.2a4.9,4.9,0,0,0,1.227,3.19,4.312,4.312,0,0,0,3.313,1.1A7.384,7.384,0,0,0,177,22.278a7.805,7.805,0,0,0,1.288-.429l.307,2.024a6.391,6.391,0,0,1-1.534.491,10.277,10.277,0,0,1-2.515.245,7.513,7.513,0,0,1-3.006-.552,5.823,5.823,0,0,1-2.086-1.472,5.564,5.564,0,0,1-1.227-2.208A8.259,8.259,0,0,1,167.8,17.555Zm9.14-1.288a3.983,3.983,0,0,0-.8-2.638,2.893,2.893,0,0,0-2.331-1.043,3.707,3.707,0,0,0-1.472.307,2.91,2.91,0,0,0-1.043.859,4.442,4.442,0,0,0-.675,1.166,5.358,5.358,0,0,0-.307,1.35Z" transform="translate(-138.416 -4.059)"/>
      <path id="Path_2320" data-name="Path 2320" class="cls-3" d="M192.361,11.275c.552-.123,1.288-.307,2.208-.429A16.188,16.188,0,0,1,197.7,10.6a6.6,6.6,0,0,1,2.638.429,4.536,4.536,0,0,1,1.718,1.288,4.1,4.1,0,0,1,.859,1.963,10.6,10.6,0,0,1,.245,2.515v7.545h-2.392V17.287a10.12,10.12,0,0,0-.184-2.086,3.765,3.765,0,0,0-.552-1.411,2.275,2.275,0,0,0-1.043-.8,4.155,4.155,0,0,0-1.595-.245h-.8c-.245,0-.552.061-.8.061s-.491.061-.675.061a1.382,1.382,0,0,1-.429.061V24.219H192.3V11.275Z" transform="translate(-147.886 -4.097)"/>
      <path id="Path_2321" data-name="Path 2321" class="cls-3" d="M218.731,8.41h5.092v2.024h-5.092v6.2a6.172,6.172,0,0,0,.184,1.656,2.361,2.361,0,0,0,.491,1.043,1.868,1.868,0,0,0,.8.552,2.972,2.972,0,0,0,1.1.184,4.429,4.429,0,0,0,1.718-.245q.644-.276.92-.368l.491,1.963a10.136,10.136,0,0,1-1.288.429,7.212,7.212,0,0,1-2.086.245,6.061,6.061,0,0,1-2.27-.368,3.053,3.053,0,0,1-1.411-1.043,3.959,3.959,0,0,1-.736-1.718,12.952,12.952,0,0,1-.245-2.331V4.729l2.392-.429V8.41Z" transform="translate(-157.202 -1.662)"/>
      <path id="Path_2322" data-name="Path 2322" class="cls-3" d="M241.254,24.967H238.8L247.511,0H249.9Z" transform="translate(-165.861)"/>
      <path id="Path_2323" data-name="Path 2323" class="cls-3" d="M257.354,24.967H254.9L263.611,0H266Z" transform="translate(-172.085)"/>
      <path id="Path_2324" data-name="Path 2324" class="cls-3" d="M285.6,7.481a16.017,16.017,0,0,0,2.883-1.472A14.47,14.47,0,0,0,291.06,3.8h1.718V21.651h-2.392V7.113c-.184.184-.429.368-.736.613a5.3,5.3,0,0,1-.982.613l-1.1.552a8.194,8.194,0,0,1-1.1.429Z" transform="translate(-183.952 -1.469)"/>
      <path id="Path_2325" data-name="Path 2325" class="cls-3" d="M309.3,7.481a16.016,16.016,0,0,0,2.883-1.472A14.47,14.47,0,0,0,314.76,3.8h1.718V21.651h-2.454V7.113c-.184.184-.429.368-.736.613a5.3,5.3,0,0,1-.982.613l-1.1.552a8.2,8.2,0,0,1-1.1.429Z" transform="translate(-193.113 -1.469)"/>
      <path id="Path_2326" data-name="Path 2326" class="cls-3" d="M334.858,12.818a1.824,1.824,0,0,1-.491,1.227,1.546,1.546,0,0,1-1.288.491,1.757,1.757,0,0,1-1.288-.491,1.779,1.779,0,0,1,0-2.454,1.546,1.546,0,0,1,1.288-.491,1.757,1.757,0,0,1,1.288.491A1.713,1.713,0,0,1,334.858,12.818Zm0,10.245a1.824,1.824,0,0,1-.491,1.227,1.546,1.546,0,0,1-1.288.491,1.757,1.757,0,0,1-1.288-.491,1.779,1.779,0,0,1,0-2.454,1.546,1.546,0,0,1,1.288-.491,1.757,1.757,0,0,1,1.288.491A1.948,1.948,0,0,1,334.858,23.062Z" transform="translate(-201.617 -4.291)"/>
      <path id="Path_2327" data-name="Path 2327" class="cls-3" d="M341.5,12.424a12.875,12.875,0,0,1,1.595-6.932A4.983,4.983,0,0,1,347.512,3.1a5.053,5.053,0,0,1,4.417,2.392,12.729,12.729,0,0,1,1.595,6.932,12.875,12.875,0,0,1-1.595,6.932,4.983,4.983,0,0,1-4.417,2.392,5.053,5.053,0,0,1-4.417-2.392A12.875,12.875,0,0,1,341.5,12.424Zm9.447,0a19.547,19.547,0,0,0-.184-2.761,10.252,10.252,0,0,0-.552-2.27,3.58,3.58,0,0,0-1.043-1.534,2.761,2.761,0,0,0-3.313,0,4,4,0,0,0-1.043,1.534,11.184,11.184,0,0,0-.552,2.27,19.547,19.547,0,0,0-.184,2.761,19.551,19.551,0,0,0,.184,2.761,10.253,10.253,0,0,0,.552,2.27,3.58,3.58,0,0,0,1.043,1.534,2.761,2.761,0,0,0,3.313,0,4,4,0,0,0,1.043-1.534,11.184,11.184,0,0,0,.552-2.27A19.547,19.547,0,0,0,350.947,12.424Z" transform="translate(-205.56 -1.198)"/>
      <path id="Path_2328" data-name="Path 2328" class="cls-3" d="M365.2,12.424a12.875,12.875,0,0,1,1.595-6.932A4.983,4.983,0,0,1,371.212,3.1a5.053,5.053,0,0,1,4.417,2.392,12.729,12.729,0,0,1,1.595,6.932,12.875,12.875,0,0,1-1.595,6.932,4.983,4.983,0,0,1-4.417,2.392,5.053,5.053,0,0,1-4.417-2.392A12.874,12.874,0,0,1,365.2,12.424Zm9.447,0a19.542,19.542,0,0,0-.184-2.761,10.25,10.25,0,0,0-.552-2.27,3.58,3.58,0,0,0-1.043-1.534,2.761,2.761,0,0,0-3.313,0,4,4,0,0,0-1.043,1.534,11.184,11.184,0,0,0-.552,2.27,19.542,19.542,0,0,0-.184,2.761,19.547,19.547,0,0,0,.184,2.761,10.253,10.253,0,0,0,.552,2.27,3.58,3.58,0,0,0,1.043,1.534,2.761,2.761,0,0,0,3.313,0,4,4,0,0,0,1.043-1.534,11.182,11.182,0,0,0,.552-2.27A19.542,19.542,0,0,0,374.647,12.424Z" transform="translate(-214.721 -1.198)"/>
    </g>
    <path id="Path_2329" data-name="Path 2329" class="cls-1" d="M78.778,288.4s9.57,42.267-19.078,40.917c0,0,43.432,13.435,51.714-35.519Z" transform="translate(-23.077 -111.482)"/>
  </g>
</svg>
