<svg xmlns="http://www.w3.org/2000/svg" viewBox="0 0 612.958 219.522">
  <defs>
    <style>
      .cls-1 {
        fill: #f17821;
      }

      .cls-2 {
        fill: #fff;
      }

      .cls-3 {
        fill: #545a66;
      }
    </style>
  </defs>
  <g id="Group_345" data-name="Group 345" transform="translate(0)">
    <path id="Path_2506" data-name="Path 2506" class="cls-1" d="M532.9,209.494H80.178A80.152,80.152,0,0,1,0,129.378H0A80.152,80.152,0,0,1,80.116,49.2H532.841a80.139,80.139,0,0,1,80.116,80.116h0A80.06,80.06,0,0,1,532.9,209.494Z" transform="translate(0 -19.018)"/>
    <g id="Group_343" data-name="Group 343" transform="translate(56.437 66.866)">
      <path id="Path_2507" data-name="Path 2507" class="cls-2" d="M104.821,114.424c.245.92.552,1.9.859,2.883s.613,2.024.982,3.006c.307.982.675,1.963.982,2.945s.675,1.9.982,2.761c.245-.92.491-1.963.736-3.006.245-1.1.491-2.208.736-3.374s.491-2.392.736-3.619.429-2.392.675-3.619h3.374c-.613,3.251-1.288,6.319-2.024,9.324s-1.534,5.828-2.454,8.527h-3.129c-1.35-3.5-2.638-7.239-3.865-11.349-.613,2.086-1.288,4.049-1.963,5.95s-1.288,3.681-1.963,5.46H96.417a86.463,86.463,0,0,1-2.454-8.527c-.736-3.006-1.411-6.073-1.963-9.324h3.5c.184,1.166.429,2.331.675,3.558s.491,2.392.736,3.619c.245,1.166.491,2.331.736,3.435s.491,2.086.8,3.067c.307-.859.675-1.779.982-2.761s.675-1.963.982-2.945.613-2.024.92-3.006.552-1.963.859-2.883h2.638Z" transform="translate(-92 -110.314)"/>
      <path id="Path_2508" data-name="Path 2508" class="cls-2" d="M131.4,126.216a8.366,8.366,0,0,1,.552-3.129,5.715,5.715,0,0,1,1.411-2.208,5.589,5.589,0,0,1,2.024-1.35,6.047,6.047,0,0,1,2.331-.429,5.553,5.553,0,0,1,4.355,1.718,7.5,7.5,0,0,1,1.534,5.153v.552a1.361,1.361,0,0,1-.061.552h-8.895a3.493,3.493,0,0,0,1.166,2.515,4.225,4.225,0,0,0,2.945.859,11,11,0,0,0,2.086-.184,11.273,11.273,0,0,0,1.472-.429l.429,2.576a5.115,5.115,0,0,1-.736.245,4.349,4.349,0,0,1-1.043.245c-.368.061-.8.123-1.227.184a9.937,9.937,0,0,1-1.35.061,7.825,7.825,0,0,1-3.067-.552,6.075,6.075,0,0,1-2.147-1.472,6.551,6.551,0,0,1-1.288-2.208A7.3,7.3,0,0,1,131.4,126.216Zm9.079-1.411a3.956,3.956,0,0,0-.184-1.227,2.559,2.559,0,0,0-.552-.982,2.34,2.34,0,0,0-.859-.675,2.433,2.433,0,0,0-1.227-.245,2.845,2.845,0,0,0-1.288.245,2.716,2.716,0,0,0-.92.736,3.111,3.111,0,0,0-.552.982,6.471,6.471,0,0,0-.307,1.166Z" transform="translate(-107.23 -112.904)"/>
      <path id="Path_2509" data-name="Path 2509" class="cls-2" d="M158.871,109.7a2.088,2.088,0,0,0,.061.613v.552a10.087,10.087,0,0,1-.613,3.006,9.8,9.8,0,0,1-1.35,2.515l-2.27-.613a9.972,9.972,0,0,0,.8-2.392,11.625,11.625,0,0,0,.307-2.392v-.552a2.987,2.987,0,0,0-.061-.736Z" transform="translate(-116.237 -109.271)"/>
      <path id="Path_2510" data-name="Path 2510" class="cls-2" d="M174.868,122.306a8.941,8.941,0,0,0-1.043-.245,6.236,6.236,0,0,0-1.595-.123,6.76,6.76,0,0,0-1.1.123,3.864,3.864,0,0,0-.8.184v10.8H167.2V120.22a13.156,13.156,0,0,1,2.27-.613,15.1,15.1,0,0,1,3.006-.307,3.52,3.52,0,0,1,.736.061,3.59,3.59,0,0,1,.8.123c.245.061.552.123.8.184a3.812,3.812,0,0,1,.613.184Z" transform="translate(-121.069 -112.981)"/>
      <path id="Path_2511" data-name="Path 2511" class="cls-2" d="M182.9,126.216a8.366,8.366,0,0,1,.552-3.129,5.715,5.715,0,0,1,1.411-2.208,5.589,5.589,0,0,1,2.024-1.35,6.047,6.047,0,0,1,2.331-.429,5.553,5.553,0,0,1,4.355,1.718,7.5,7.5,0,0,1,1.534,5.153v.552a1.361,1.361,0,0,1-.061.552h-8.895a3.492,3.492,0,0,0,1.166,2.515,4.225,4.225,0,0,0,2.945.859,11,11,0,0,0,2.086-.184,11.273,11.273,0,0,0,1.472-.429l.429,2.576a5.116,5.116,0,0,1-.736.245,4.349,4.349,0,0,1-1.043.245c-.368.061-.8.123-1.227.184a9.937,9.937,0,0,1-1.35.061,7.825,7.825,0,0,1-3.067-.552,6.075,6.075,0,0,1-2.147-1.472,6.552,6.552,0,0,1-1.288-2.208A6.241,6.241,0,0,1,182.9,126.216Zm9.079-1.411a3.956,3.956,0,0,0-.184-1.227,2.559,2.559,0,0,0-.552-.982,2.34,2.34,0,0,0-.859-.675,2.433,2.433,0,0,0-1.227-.245,2.845,2.845,0,0,0-1.288.245,2.716,2.716,0,0,0-.92.736,3.111,3.111,0,0,0-.552.982,6.47,6.47,0,0,0-.307,1.166Z" transform="translate(-127.138 -112.904)"/>
      <path id="Path_2512" data-name="Path 2512" class="cls-2" d="M221.76,119.1a7.642,7.642,0,0,1,2.576.368,4.159,4.159,0,0,1,1.718,1.1,4.23,4.23,0,0,1,.92,1.718,8.235,8.235,0,0,1,.245,2.147V132.6a21.352,21.352,0,0,1-2.147.368,26.135,26.135,0,0,1-3.313.245,8.4,8.4,0,0,1-2.208-.245,6.3,6.3,0,0,1-1.718-.736,3.365,3.365,0,0,1-1.1-1.35,4.939,4.939,0,0,1-.429-2.024,3.873,3.873,0,0,1,.429-1.963,3.543,3.543,0,0,1,1.227-1.288,6.744,6.744,0,0,1,1.779-.736,12.1,12.1,0,0,1,2.147-.245,7.043,7.043,0,0,1,1.1.061,10.833,10.833,0,0,1,1.227.245v-.491a6.044,6.044,0,0,0-.123-1.043,2.266,2.266,0,0,0-.429-.859,2.08,2.08,0,0,0-.859-.552,4.216,4.216,0,0,0-1.35-.184,9.286,9.286,0,0,0-1.963.184,12.73,12.73,0,0,0-1.472.368l-.368-2.515c.368-.123.982-.245,1.718-.429A7.53,7.53,0,0,1,221.76,119.1Zm.245,11.594a9.81,9.81,0,0,0,2.208-.184v-3.435a6.371,6.371,0,0,0-.736-.184,9.417,9.417,0,0,0-2.147,0,2.628,2.628,0,0,0-.982.307,1.5,1.5,0,0,0-.675.552,1.479,1.479,0,0,0-.245.92,1.745,1.745,0,0,0,.675,1.534A3.342,3.342,0,0,0,222.005,130.694Z" transform="translate(-140.048 -112.904)"/>
      <path id="Path_2513" data-name="Path 2513" class="cls-2" d="M252.778,130.594a4.208,4.208,0,0,0,1.779-.307,1.075,1.075,0,0,0,.552-1.043,1.3,1.3,0,0,0-.613-1.1,8.848,8.848,0,0,0-2.024-.982,8.87,8.87,0,0,1-1.534-.675,6.047,6.047,0,0,1-1.227-.8,2.839,2.839,0,0,1-.8-1.1,4.1,4.1,0,0,1-.307-1.595,3.554,3.554,0,0,1,1.35-2.945A5.706,5.706,0,0,1,253.637,119a9.2,9.2,0,0,1,2.27.245,7.881,7.881,0,0,1,1.595.429l-.552,2.515a6.337,6.337,0,0,0-1.288-.429,8.5,8.5,0,0,0-1.84-.184,3.576,3.576,0,0,0-1.534.307,1.166,1.166,0,0,0-.613.982,1.816,1.816,0,0,0,.123.613,1.031,1.031,0,0,0,.429.491,3.9,3.9,0,0,0,.736.429,10.48,10.48,0,0,0,1.1.429,19.848,19.848,0,0,1,1.9.8,4.913,4.913,0,0,1,1.288.92,3.4,3.4,0,0,1,.736,1.166,3.834,3.834,0,0,1,.245,1.534,3.447,3.447,0,0,1-1.411,2.945,7.148,7.148,0,0,1-4.11.982,12.176,12.176,0,0,1-2.883-.307,11.472,11.472,0,0,1-1.534-.491l.552-2.576q.736.276,1.656.552A9.2,9.2,0,0,0,252.778,130.594Z" transform="translate(-152.418 -112.866)"/>
      <path id="Path_2514" data-name="Path 2514" class="cls-2" d="M281.044,126.193a8.608,8.608,0,0,1-.491,2.883,7.519,7.519,0,0,1-1.288,2.27,5.878,5.878,0,0,1-4.662,1.963,7.213,7.213,0,0,1-2.638-.491,5.4,5.4,0,0,1-2.024-1.472,8.239,8.239,0,0,1-1.35-2.27,8.715,8.715,0,0,1,0-5.766,6.156,6.156,0,0,1,3.374-3.619,7.13,7.13,0,0,1,2.576-.491,7.465,7.465,0,0,1,2.638.491A5.252,5.252,0,0,1,279.2,121.1a7.881,7.881,0,0,1,1.35,2.208A8.345,8.345,0,0,1,281.044,126.193Zm-3.19,0A5.463,5.463,0,0,0,277,123a3.038,3.038,0,0,0-4.785,0,5.463,5.463,0,0,0-.859,3.19,5.33,5.33,0,0,0,.859,3.19,3.038,3.038,0,0,0,4.785,0A5.463,5.463,0,0,0,277.854,126.193Z" transform="translate(-160.072 -112.943)"/>
      <path id="Path_2515" data-name="Path 2515" class="cls-2" d="M299.921,109a8.687,8.687,0,0,1,1.9.184,6.039,6.039,0,0,1,1.227.368l-.613,2.576a4.211,4.211,0,0,0-1.043-.307,7.551,7.551,0,0,0-1.227-.123,2.845,2.845,0,0,0-1.288.245,1.646,1.646,0,0,0-.8.613,2.135,2.135,0,0,0-.429.92,7.552,7.552,0,0,0-.123,1.227v.92h4.908V118.2h-4.908V129.06H294.4V114.644a5.934,5.934,0,0,1,1.35-4.11A5.289,5.289,0,0,1,299.921,109Z" transform="translate(-170.238 -109)"/>
      <path id="Path_2516" data-name="Path 2516" class="cls-2" d="M311,113.491l3.129-.491v4.049h4.785v2.576h-4.785v5.46a4.393,4.393,0,0,0,.491,2.331,1.937,1.937,0,0,0,1.779.675,6.181,6.181,0,0,0,1.534-.184c.429-.123.8-.245,1.043-.307l.491,2.454a12.227,12.227,0,0,1-1.411.491,7.212,7.212,0,0,1-2.086.245,6.533,6.533,0,0,1-2.392-.368,3.212,3.212,0,0,1-1.534-1.1,4.288,4.288,0,0,1-.8-1.779,13.068,13.068,0,0,1-.245-2.392Z" transform="translate(-176.655 -110.546)"/>
      <path id="Path_2517" data-name="Path 2517" class="cls-2" d="M335.754,124.669q-.552,2.3-1.288,4.417c-.429,1.411-.92,2.761-1.35,4.049h-2.577c-.368-.8-.736-1.718-1.1-2.7-.368-1.043-.736-2.086-1.166-3.251-.368-1.166-.736-2.331-1.166-3.619L326,119.7h3.313c.184.736.307,1.472.552,2.331.184.859.429,1.656.675,2.576.245.859.429,1.718.675,2.515s.491,1.595.736,2.27c.245-.8.491-1.595.736-2.454s.491-1.656.736-2.515.429-1.656.613-2.454.368-1.534.552-2.27h2.392c.184.675.307,1.472.491,2.27s.368,1.595.613,2.454.429,1.656.675,2.515.491,1.656.736,2.454c.245-.675.429-1.472.675-2.27s.491-1.656.736-2.515.429-1.718.675-2.576c.184-.859.368-1.595.552-2.331h3.251q-.552,2.024-1.1,3.865c-.368,1.288-.736,2.454-1.166,3.619-.368,1.166-.736,2.208-1.166,3.251-.368,1.043-.736,1.9-1.1,2.7H338.33c-.429-1.288-.92-2.638-1.35-4.049C336.613,127.613,336.183,126.141,335.754,124.669Z" transform="translate(-182.453 -113.136)"/>
      <path id="Path_2518" data-name="Path 2518" class="cls-2" d="M365.46,119.1a7.642,7.642,0,0,1,2.577.368,4.16,4.16,0,0,1,1.718,1.1,4.23,4.23,0,0,1,.92,1.718,8.236,8.236,0,0,1,.245,2.147V132.6a21.351,21.351,0,0,1-2.147.368,26.136,26.136,0,0,1-3.313.245,8.4,8.4,0,0,1-2.208-.245,6.3,6.3,0,0,1-1.718-.736,3.365,3.365,0,0,1-1.1-1.35,4.938,4.938,0,0,1-.429-2.024,3.873,3.873,0,0,1,.429-1.963,3.542,3.542,0,0,1,1.227-1.288,6.743,6.743,0,0,1,1.779-.736,12.1,12.1,0,0,1,2.147-.245,7.043,7.043,0,0,1,1.1.061,10.833,10.833,0,0,1,1.227.245v-.491a6.047,6.047,0,0,0-.123-1.043,2.265,2.265,0,0,0-.429-.859,2.079,2.079,0,0,0-.859-.552,4.216,4.216,0,0,0-1.35-.184,9.286,9.286,0,0,0-1.963.184,12.727,12.727,0,0,0-1.472.368l-.368-2.515c.368-.123.982-.245,1.718-.429A7.3,7.3,0,0,1,365.46,119.1Zm.245,11.594a9.81,9.81,0,0,0,2.208-.184v-3.435a6.368,6.368,0,0,0-.736-.184,9.417,9.417,0,0,0-2.147,0,2.628,2.628,0,0,0-.982.307,1.5,1.5,0,0,0-.675.552,1.479,1.479,0,0,0-.245.92,1.745,1.745,0,0,0,.675,1.534A3.343,3.343,0,0,0,365.705,130.694Z" transform="translate(-195.596 -112.904)"/>
      <path id="Path_2519" data-name="Path 2519" class="cls-2" d="M391.668,122.306a8.94,8.94,0,0,0-1.043-.245,6.236,6.236,0,0,0-1.595-.123,6.76,6.76,0,0,0-1.1.123,3.865,3.865,0,0,0-.8.184v10.8H384V120.22a13.155,13.155,0,0,1,2.27-.613,15.1,15.1,0,0,1,3.006-.307,3.52,3.52,0,0,1,.736.061,3.591,3.591,0,0,1,.8.123c.245.061.552.123.8.184a3.814,3.814,0,0,1,.613.184Z" transform="translate(-204.873 -112.981)"/>
      <path id="Path_2520" data-name="Path 2520" class="cls-2" d="M399.7,126.216a8.367,8.367,0,0,1,.552-3.129,5.715,5.715,0,0,1,1.411-2.208,5.589,5.589,0,0,1,2.024-1.35,6.047,6.047,0,0,1,2.331-.429,5.553,5.553,0,0,1,4.355,1.718,7.5,7.5,0,0,1,1.534,5.153v.552a1.361,1.361,0,0,1-.061.552h-8.895a3.492,3.492,0,0,0,1.166,2.515,4.225,4.225,0,0,0,2.945.859,10.994,10.994,0,0,0,2.086-.184,11.273,11.273,0,0,0,1.472-.429l.429,2.576a5.114,5.114,0,0,1-.736.245,4.348,4.348,0,0,1-1.043.245c-.368.061-.8.123-1.227.184a9.937,9.937,0,0,1-1.35.061,7.825,7.825,0,0,1-3.067-.552,6.076,6.076,0,0,1-2.147-1.472,6.552,6.552,0,0,1-1.288-2.208A6.242,6.242,0,0,1,399.7,126.216Zm9.018-1.411a3.956,3.956,0,0,0-.184-1.227,2.559,2.559,0,0,0-.552-.982,2.34,2.34,0,0,0-.859-.675,2.433,2.433,0,0,0-1.227-.245,2.845,2.845,0,0,0-1.288.245,2.716,2.716,0,0,0-.92.736,3.111,3.111,0,0,0-.552.982,6.471,6.471,0,0,0-.307,1.166Z" transform="translate(-210.942 -112.904)"/>
      <path id="Path_2521" data-name="Path 2521" class="cls-2" d="M445.546,128.608a15.248,15.248,0,0,1-2.331.491,15.058,15.058,0,0,1-2.945.245,8.609,8.609,0,0,1-2.883-.491,5.7,5.7,0,0,1-2.147-1.411,5.8,5.8,0,0,1-1.35-2.208,8.709,8.709,0,0,1-.491-2.945,8.621,8.621,0,0,1,.429-2.883,6.325,6.325,0,0,1,1.166-2.208,4.835,4.835,0,0,1,1.9-1.411,6.651,6.651,0,0,1,2.576-.491,4.837,4.837,0,0,1,1.718.245c.491.184.92.307,1.288.491v-6.441l3.129-.491v19.508Zm-8.895-6.38a4.9,4.9,0,0,0,.982,3.251,3.28,3.28,0,0,0,2.7,1.166,8.233,8.233,0,0,0,1.288-.061c.368-.061.613-.061.859-.123v-7.729a4.569,4.569,0,0,0-1.1-.552,3.712,3.712,0,0,0-1.472-.245,2.855,2.855,0,0,0-2.515,1.166A5.9,5.9,0,0,0,436.651,122.228Z" transform="translate(-223.969 -109.039)"/>
      <path id="Path_2522" data-name="Path 2522" class="cls-2" d="M458.5,126.216a8.366,8.366,0,0,1,.552-3.129,5.714,5.714,0,0,1,1.411-2.208,5.589,5.589,0,0,1,2.024-1.35,6.046,6.046,0,0,1,2.331-.429,5.553,5.553,0,0,1,4.356,1.718,7.5,7.5,0,0,1,1.534,5.153v.552a1.362,1.362,0,0,1-.061.552h-8.9a3.493,3.493,0,0,0,1.166,2.515,4.225,4.225,0,0,0,2.945.859,10.994,10.994,0,0,0,2.086-.184,11.274,11.274,0,0,0,1.472-.429l.429,2.576a5.116,5.116,0,0,1-.736.245,4.348,4.348,0,0,1-1.043.245c-.368.061-.8.123-1.227.184a9.937,9.937,0,0,1-1.35.061,7.825,7.825,0,0,1-3.067-.552,6.075,6.075,0,0,1-2.147-1.472,6.552,6.552,0,0,1-1.288-2.208A6.242,6.242,0,0,1,458.5,126.216Zm9.018-1.411a3.956,3.956,0,0,0-.184-1.227,2.561,2.561,0,0,0-.552-.982,2.341,2.341,0,0,0-.859-.675,2.433,2.433,0,0,0-1.227-.245,2.845,2.845,0,0,0-1.288.245,2.716,2.716,0,0,0-.92.736,3.112,3.112,0,0,0-.552.982,6.474,6.474,0,0,0-.307,1.166Z" transform="translate(-233.671 -112.904)"/>
      <path id="Path_2523" data-name="Path 2523" class="cls-2" d="M486.092,133.135c-.859-1.779-1.718-3.8-2.638-6.073A68.948,68.948,0,0,1,481,119.7h3.313c.184.736.429,1.595.675,2.454s.491,1.718.8,2.576.552,1.718.859,2.515.552,1.534.859,2.208c.245-.675.552-1.411.8-2.208.307-.8.552-1.656.859-2.515s.552-1.718.8-2.576.491-1.656.675-2.454h3.251c-.736,2.638-1.595,5.092-2.454,7.361-.92,2.27-1.779,4.294-2.638,6.073Z" transform="translate(-242.369 -113.136)"/>
      <path id="Path_2524" data-name="Path 2524" class="cls-2" d="M504,126.216a8.367,8.367,0,0,1,.552-3.129,5.715,5.715,0,0,1,1.411-2.208,5.589,5.589,0,0,1,2.024-1.35,6.047,6.047,0,0,1,2.331-.429,5.553,5.553,0,0,1,4.355,1.718,7.5,7.5,0,0,1,1.534,5.153v.552a1.362,1.362,0,0,1-.061.552h-8.895a3.492,3.492,0,0,0,1.166,2.515,4.225,4.225,0,0,0,2.945.859,11,11,0,0,0,2.086-.184,11.276,11.276,0,0,0,1.472-.429l.429,2.576a5.116,5.116,0,0,1-.736.245,4.348,4.348,0,0,1-1.043.245c-.368.061-.8.123-1.227.184a9.937,9.937,0,0,1-1.35.061,7.825,7.825,0,0,1-3.067-.552,6.076,6.076,0,0,1-2.147-1.472,6.551,6.551,0,0,1-1.288-2.208A7.3,7.3,0,0,1,504,126.216Zm9.079-1.411a3.954,3.954,0,0,0-.184-1.227,2.559,2.559,0,0,0-.552-.982,2.34,2.34,0,0,0-.859-.675,2.433,2.433,0,0,0-1.227-.245,2.845,2.845,0,0,0-1.288.245,2.715,2.715,0,0,0-.92.736,3.112,3.112,0,0,0-.552.982,6.476,6.476,0,0,0-.307,1.166Z" transform="translate(-251.259 -112.904)"/>
      <path id="Path_2525" data-name="Path 2525" class="cls-2" d="M533.885,129.282a8.259,8.259,0,0,1-2.331-.307,3.4,3.4,0,0,1-1.472-.8,2.73,2.73,0,0,1-.736-1.288,7.781,7.781,0,0,1-.245-1.779v-15.52l3.129-.491v15.459a4.954,4.954,0,0,0,.061.982,2.266,2.266,0,0,0,.307.675,1.566,1.566,0,0,0,.613.429,3.725,3.725,0,0,0,1.043.245Z" transform="translate(-260.962 -109.039)"/>
      <path id="Path_2526" data-name="Path 2526" class="cls-2" d="M553.444,126.193a8.608,8.608,0,0,1-.491,2.883,7.517,7.517,0,0,1-1.288,2.27A5.878,5.878,0,0,1,547,133.309a7.213,7.213,0,0,1-2.638-.491,5.4,5.4,0,0,1-2.024-1.472,8.242,8.242,0,0,1-1.35-2.27,8.715,8.715,0,0,1,0-5.766,6.157,6.157,0,0,1,3.374-3.619,7.13,7.13,0,0,1,2.576-.491,7.465,7.465,0,0,1,2.638.491A5.251,5.251,0,0,1,551.6,121.1a7.88,7.88,0,0,1,1.35,2.208A8.345,8.345,0,0,1,553.444,126.193Zm-3.19,0A5.463,5.463,0,0,0,549.4,123a3.038,3.038,0,0,0-4.785,0,5.463,5.463,0,0,0-.859,3.19,5.33,5.33,0,0,0,.859,3.19,3.038,3.038,0,0,0,4.785,0A5.463,5.463,0,0,0,550.254,126.193Z" transform="translate(-265.369 -112.943)"/>
      <path id="Path_2527" data-name="Path 2527" class="cls-2" d="M578.946,126.155a8.258,8.258,0,0,1-.429,2.822,6.325,6.325,0,0,1-1.166,2.208,5.433,5.433,0,0,1-1.84,1.472,5.59,5.59,0,0,1-2.515.491,5.672,5.672,0,0,1-1.779-.245,7.156,7.156,0,0,1-1.288-.491v5.214H566.8v-17.79c.613-.184,1.411-.307,2.331-.491a15.059,15.059,0,0,1,2.945-.245,8.609,8.609,0,0,1,2.883.491A5.7,5.7,0,0,1,577.106,121a5.8,5.8,0,0,1,1.35,2.208A8.708,8.708,0,0,1,578.946,126.155Zm-3.19.061a5.126,5.126,0,0,0-.92-3.251,3.6,3.6,0,0,0-3.006-1.166,4.642,4.642,0,0,0-.92.061,2.462,2.462,0,0,0-.92.184v7.729a4.569,4.569,0,0,0,1.1.552,3.712,3.712,0,0,0,1.472.245,2.855,2.855,0,0,0,2.515-1.166A7.018,7.018,0,0,0,575.756,126.216Z" transform="translate(-275.535 -112.904)"/>
      <path id="Path_2528" data-name="Path 2528" class="cls-2" d="M599.568,125.748a6.337,6.337,0,0,0-.552-3.067,2.056,2.056,0,0,0-1.963-.92,6.667,6.667,0,0,0-1.1.061c-.429.061-.736.123-.92.123V132.8H591.9V119.736c.613-.184,1.411-.307,2.331-.491A16.792,16.792,0,0,1,597.3,119a5.845,5.845,0,0,1,2.27.368,3.656,3.656,0,0,1,1.472.982,3.9,3.9,0,0,1,.736-.429c.307-.123.613-.307.982-.429a6.471,6.471,0,0,1,1.166-.307,8.311,8.311,0,0,1,1.227-.123,6.283,6.283,0,0,1,2.576.429,3.721,3.721,0,0,1,1.595,1.288,4.731,4.731,0,0,1,.8,1.963,15.188,15.188,0,0,1,.245,2.515V132.8h-3.129v-7.055a7.346,7.346,0,0,0-.491-3.067,2,2,0,0,0-1.963-.92,4.356,4.356,0,0,0-2.393.736,8.691,8.691,0,0,1,.307,1.35,12.333,12.333,0,0,1,.061,1.534V132.8H599.63v-7.055Z" transform="translate(-285.237 -112.866)"/>
      <path id="Path_2529" data-name="Path 2529" class="cls-2" d="M627,126.216a8.367,8.367,0,0,1,.552-3.129,5.715,5.715,0,0,1,1.411-2.208,5.589,5.589,0,0,1,2.024-1.35,6.047,6.047,0,0,1,2.331-.429,5.553,5.553,0,0,1,4.356,1.718,7.5,7.5,0,0,1,1.534,5.153v.552a1.362,1.362,0,0,1-.061.552h-8.895a3.492,3.492,0,0,0,1.166,2.515,4.225,4.225,0,0,0,2.945.859,11,11,0,0,0,2.086-.184,11.274,11.274,0,0,0,1.472-.429l.429,2.576a5.117,5.117,0,0,1-.736.245,4.35,4.35,0,0,1-1.043.245c-.368.061-.8.123-1.227.184a9.939,9.939,0,0,1-1.35.061,7.825,7.825,0,0,1-3.067-.552,6.076,6.076,0,0,1-2.147-1.472,6.552,6.552,0,0,1-1.288-2.208A6.241,6.241,0,0,1,627,126.216Zm9.018-1.411a3.957,3.957,0,0,0-.184-1.227,2.558,2.558,0,0,0-.552-.982,2.339,2.339,0,0,0-.859-.675,2.433,2.433,0,0,0-1.227-.245,2.845,2.845,0,0,0-1.288.245,2.716,2.716,0,0,0-.92.736,3.109,3.109,0,0,0-.552.982,6.466,6.466,0,0,0-.307,1.166Z" transform="translate(-298.805 -112.904)"/>
      <path id="Path_2530" data-name="Path 2530" class="cls-2" d="M652.161,119.836c.613-.184,1.411-.307,2.331-.491a17.276,17.276,0,0,1,3.19-.245,7.25,7.25,0,0,1,2.761.429,4.313,4.313,0,0,1,1.779,1.288,4.854,4.854,0,0,1,.92,1.963,10.939,10.939,0,0,1,.245,2.515v7.545h-3.129v-7.055a14.491,14.491,0,0,0-.123-1.84,3.211,3.211,0,0,0-.491-1.227,1.845,1.845,0,0,0-.859-.675,4.081,4.081,0,0,0-1.35-.245,8.641,8.641,0,0,0-1.227.061,8.4,8.4,0,0,1-.982.123v10.858H652.1V119.836Z" transform="translate(-308.508 -112.904)"/>
      <path id="Path_2531" data-name="Path 2531" class="cls-2" d="M676.5,113.491l3.129-.491v4.049h4.785v2.576h-4.785v5.46a4.393,4.393,0,0,0,.491,2.331,1.937,1.937,0,0,0,1.779.675,6.18,6.18,0,0,0,1.534-.184c.43-.123.8-.245,1.043-.307l.491,2.454a12.222,12.222,0,0,1-1.411.491,7.211,7.211,0,0,1-2.086.245,6.534,6.534,0,0,1-2.392-.368,3.212,3.212,0,0,1-1.534-1.1,5.248,5.248,0,0,1-.8-1.779,9.258,9.258,0,0,1-.245-2.392V113.491Z" transform="translate(-317.94 -110.546)"/>
      <path id="Path_2532" data-name="Path 2532" class="cls-2" d="M702.9,126.116a8.806,8.806,0,0,1,.491-2.822,6.565,6.565,0,0,1,1.35-2.27,6.158,6.158,0,0,1,2.086-1.472,6.723,6.723,0,0,1,2.76-.552,10.245,10.245,0,0,1,3.619.675l-.675,2.576a4.071,4.071,0,0,0-1.227-.368,9.627,9.627,0,0,0-1.472-.184,3.246,3.246,0,0,0-2.76,1.166,5.931,5.931,0,0,0-.061,6.441,3.57,3.57,0,0,0,3.067,1.166,7.073,7.073,0,0,0,1.595-.184,13.372,13.372,0,0,0,1.35-.368l.429,2.576a9.092,9.092,0,0,1-1.534.491,12.161,12.161,0,0,1-2.147.184,7.512,7.512,0,0,1-3.006-.552,5.823,5.823,0,0,1-2.086-1.472,5.41,5.41,0,0,1-1.227-2.27A5.707,5.707,0,0,1,702.9,126.116Z" transform="translate(-328.145 -112.866)"/>
      <path id="Path_2533" data-name="Path 2533" class="cls-2" d="M735.144,126.193a8.611,8.611,0,0,1-.491,2.883,7.519,7.519,0,0,1-1.288,2.27,5.4,5.4,0,0,1-2.024,1.472,6.135,6.135,0,0,1-2.638.491,7.212,7.212,0,0,1-2.638-.491,5.4,5.4,0,0,1-2.024-1.472,8.242,8.242,0,0,1-1.35-2.27,8.715,8.715,0,0,1,0-5.766,6.156,6.156,0,0,1,3.374-3.619,7.129,7.129,0,0,1,2.576-.491,7.464,7.464,0,0,1,2.638.491A5.251,5.251,0,0,1,733.3,121.1a7.882,7.882,0,0,1,1.35,2.208A7.12,7.12,0,0,1,735.144,126.193Zm-3.19,0a5.463,5.463,0,0,0-.859-3.19,3.038,3.038,0,0,0-4.785,0,5.462,5.462,0,0,0-.859,3.19,5.33,5.33,0,0,0,.859,3.19,3.038,3.038,0,0,0,4.785,0A5.463,5.463,0,0,0,731.954,126.193Z" transform="translate(-335.605 -112.943)"/>
      <path id="Path_2534" data-name="Path 2534" class="cls-2" d="M756.268,125.748a6.336,6.336,0,0,0-.552-3.067,2.056,2.056,0,0,0-1.963-.92,6.667,6.667,0,0,0-1.1.061,7.7,7.7,0,0,1-.92.123V132.8H748.6V119.736c.613-.184,1.411-.307,2.331-.491A16.79,16.79,0,0,1,754,119a5.845,5.845,0,0,1,2.27.368,3.657,3.657,0,0,1,1.472.982,3.894,3.894,0,0,1,.736-.429,4.751,4.751,0,0,1,.982-.429,6.471,6.471,0,0,1,1.166-.307,8.315,8.315,0,0,1,1.227-.123,6.283,6.283,0,0,1,2.576.429,3.721,3.721,0,0,1,1.595,1.288,4.732,4.732,0,0,1,.8,1.963,15.2,15.2,0,0,1,.245,2.515V132.8h-3.129v-7.055a7.347,7.347,0,0,0-.491-3.067,2.056,2.056,0,0,0-1.963-.92,4.355,4.355,0,0,0-2.392.736,8.705,8.705,0,0,1,.307,1.35,12.333,12.333,0,0,1,.061,1.534V132.8h-3.129v-7.055Z" transform="translate(-345.81 -112.866)"/>
      <path id="Path_2535" data-name="Path 2535" class="cls-2" d="M797.046,126.155a8.259,8.259,0,0,1-.429,2.822,6.325,6.325,0,0,1-1.166,2.208,5.433,5.433,0,0,1-1.84,1.472,5.589,5.589,0,0,1-2.515.491,5.672,5.672,0,0,1-1.779-.245,7.154,7.154,0,0,1-1.288-.491v5.214H784.9v-17.79c.613-.184,1.411-.307,2.331-.491a15.058,15.058,0,0,1,2.945-.245,8.609,8.609,0,0,1,2.883.491A5.7,5.7,0,0,1,795.206,121a5.8,5.8,0,0,1,1.35,2.208A8.977,8.977,0,0,1,797.046,126.155Zm-3.19.061a5.126,5.126,0,0,0-.92-3.251,3.6,3.6,0,0,0-3.006-1.166,4.642,4.642,0,0,0-.92.061,4.889,4.889,0,0,0-.92.184v7.729a4.568,4.568,0,0,0,1.1.552,3.712,3.712,0,0,0,1.472.245,2.855,2.855,0,0,0,2.515-1.166A7.929,7.929,0,0,0,793.856,126.216Z" transform="translate(-359.842 -112.904)"/>
      <path id="Path_2536" data-name="Path 2536" class="cls-2" d="M813.76,119.1a7.641,7.641,0,0,1,2.576.368,4.16,4.16,0,0,1,1.718,1.1,4.229,4.229,0,0,1,.92,1.718,8.236,8.236,0,0,1,.245,2.147V132.6a21.356,21.356,0,0,1-2.147.368,26.136,26.136,0,0,1-3.313.245,8.4,8.4,0,0,1-2.208-.245,6.3,6.3,0,0,1-1.718-.736,3.365,3.365,0,0,1-1.1-1.35,4.939,4.939,0,0,1-.429-2.024,3.874,3.874,0,0,1,.429-1.963,3.543,3.543,0,0,1,1.227-1.288,6.744,6.744,0,0,1,1.779-.736,12.1,12.1,0,0,1,2.147-.245,7.043,7.043,0,0,1,1.1.061,10.833,10.833,0,0,1,1.227.245v-.491a6.038,6.038,0,0,0-.123-1.043,2.266,2.266,0,0,0-.429-.859,2.08,2.08,0,0,0-.859-.552,4.216,4.216,0,0,0-1.35-.184,9.286,9.286,0,0,0-1.963.184c-.552.123-1.1.245-1.472.368l-.368-2.515c.368-.123.982-.245,1.718-.429A7.53,7.53,0,0,1,813.76,119.1Zm.307,11.594a9.81,9.81,0,0,0,2.208-.184v-3.435a6.37,6.37,0,0,0-.736-.184,9.417,9.417,0,0,0-2.147,0,2.628,2.628,0,0,0-.982.307,1.5,1.5,0,0,0-.675.552,1.478,1.478,0,0,0-.245.92,1.745,1.745,0,0,0,.675,1.534A2.924,2.924,0,0,0,814.066,130.694Z" transform="translate(-368.887 -112.904)"/>
      <path id="Path_2537" data-name="Path 2537" class="cls-2" d="M832.361,119.836c.614-.184,1.411-.307,2.331-.491a16.854,16.854,0,0,1,3.19-.245,7.25,7.25,0,0,1,2.76.429,4.313,4.313,0,0,1,1.779,1.288,4.856,4.856,0,0,1,.92,1.963,10.6,10.6,0,0,1,.245,2.515v7.545h-3.129v-7.055a14.489,14.489,0,0,0-.123-1.84,3.212,3.212,0,0,0-.491-1.227,1.586,1.586,0,0,0-.859-.675,4.081,4.081,0,0,0-1.35-.245,8.641,8.641,0,0,0-1.227.061,8.4,8.4,0,0,1-.982.123v10.858H832.3V119.836Z" transform="translate(-378.164 -112.904)"/>
      <path id="Path_2538" data-name="Path 2538" class="cls-2" d="M866.044,119.561a102.35,102.35,0,0,1-4.846,13.925,14.251,14.251,0,0,1-1.043,1.963,5.2,5.2,0,0,1-1.227,1.35,4.283,4.283,0,0,1-1.472.8,5.962,5.962,0,0,1-1.9.245,5.229,5.229,0,0,1-1.411-.184c-.491-.123-.859-.245-1.043-.307l.552-2.515a4.923,4.923,0,0,0,1.84.368,2.927,2.927,0,0,0,1.9-.552,5.282,5.282,0,0,0,1.227-1.779c-.981-1.9-1.9-3.926-2.822-6.2a56.922,56.922,0,0,1-2.392-7.116h3.313c.184.736.368,1.534.613,2.331.245.859.552,1.718.8,2.576l.92,2.576c.307.859.675,1.656.981,2.392.552-1.534,1.043-3.129,1.534-4.908.491-1.718.92-3.374,1.288-5.03h3.19Z" transform="translate(-386.205 -113.059)"/>
      <path id="Path_2539" data-name="Path 2539" class="cls-2" d="M97.96,169.5a7.642,7.642,0,0,1,2.576.368,4.159,4.159,0,0,1,1.718,1.1,4.23,4.23,0,0,1,.92,1.718,8.235,8.235,0,0,1,.245,2.147V183a21.361,21.361,0,0,1-2.147.368,26.135,26.135,0,0,1-3.313.245,8.4,8.4,0,0,1-2.208-.245,6.3,6.3,0,0,1-1.718-.736,3.365,3.365,0,0,1-1.1-1.35,4.938,4.938,0,0,1-.429-2.024,3.873,3.873,0,0,1,.429-1.963A3.543,3.543,0,0,1,94.156,176a6.745,6.745,0,0,1,1.779-.736,12.1,12.1,0,0,1,2.147-.245,7.045,7.045,0,0,1,1.1.061,10.833,10.833,0,0,1,1.227.245v-.491a6.044,6.044,0,0,0-.123-1.043,1.9,1.9,0,0,0-.429-.859,2.08,2.08,0,0,0-.859-.552,4.215,4.215,0,0,0-1.35-.184,9.285,9.285,0,0,0-1.963.184,12.733,12.733,0,0,0-1.472.368l-.368-2.515c.368-.123.982-.245,1.718-.429A7.3,7.3,0,0,1,97.96,169.5Zm.245,11.594a9.811,9.811,0,0,0,2.208-.184v-3.435a6.359,6.359,0,0,0-.736-.184,9.417,9.417,0,0,0-2.147,0,2.628,2.628,0,0,0-.982.307,1.5,1.5,0,0,0-.675.552,1.478,1.478,0,0,0-.245.92A1.745,1.745,0,0,0,96.3,180.6,3.033,3.033,0,0,0,98.205,181.094Z" transform="translate(-92.193 -132.386)"/>
      <path id="Path_2540" data-name="Path 2540" class="cls-2" d="M116.461,170.236c.613-.184,1.411-.307,2.331-.491a17.275,17.275,0,0,1,3.19-.245,7.25,7.25,0,0,1,2.761.429,4.313,4.313,0,0,1,1.779,1.288,4.854,4.854,0,0,1,.92,1.963,10.6,10.6,0,0,1,.245,2.515V183.3h-3.129v-7.055a14.5,14.5,0,0,0-.123-1.84,3.212,3.212,0,0,0-.491-1.227,1.844,1.844,0,0,0-.859-.675,4.081,4.081,0,0,0-1.35-.245,8.636,8.636,0,0,0-1.227.061,8.4,8.4,0,0,1-.982.123V183.3H116.4V170.236Z" transform="translate(-101.432 -132.386)"/>
      <path id="Path_2541" data-name="Path 2541" class="cls-2" d="M151.946,179.008a15.248,15.248,0,0,1-2.331.491,15.058,15.058,0,0,1-2.945.245,8.609,8.609,0,0,1-2.883-.491,5.7,5.7,0,0,1-2.147-1.411,5.8,5.8,0,0,1-1.35-2.208,9.464,9.464,0,0,1-.061-5.828,6.326,6.326,0,0,1,1.166-2.208,4.835,4.835,0,0,1,1.9-1.411,6.651,6.651,0,0,1,2.576-.491,4.837,4.837,0,0,1,1.718.245c.491.184.92.307,1.288.491v-6.441l3.129-.491v19.508Zm-8.956-6.38a4.9,4.9,0,0,0,.982,3.251,3.28,3.28,0,0,0,2.7,1.166,8.235,8.235,0,0,0,1.288-.061c.368-.061.613-.061.859-.123v-7.729a4.569,4.569,0,0,0-1.1-.552,3.712,3.712,0,0,0-1.472-.245,2.855,2.855,0,0,0-2.515,1.166A6.542,6.542,0,0,0,142.99,172.628Z" transform="translate(-110.477 -128.521)"/>
      <path id="Path_2542" data-name="Path 2542" class="cls-2" d="M182.854,175.069q-.552,2.3-1.288,4.417c-.491,1.411-.92,2.761-1.35,4.049h-2.577c-.368-.8-.736-1.718-1.1-2.7s-.736-2.086-1.166-3.251c-.368-1.166-.736-2.331-1.166-3.619l-1.1-3.865h3.313c.184.736.307,1.472.552,2.331s.429,1.656.675,2.576.429,1.718.675,2.515.491,1.595.736,2.27c.245-.8.491-1.595.736-2.454s.491-1.656.736-2.515.429-1.656.613-2.454.368-1.534.552-2.27h2.392c.184.675.307,1.472.491,2.27s.368,1.595.613,2.454c.184.859.429,1.656.675,2.515s.491,1.656.736,2.454c.245-.675.429-1.472.675-2.27s.491-1.656.736-2.515.429-1.718.675-2.576c.184-.859.368-1.595.552-2.331h3.251q-.552,2.024-1.1,3.865c-.368,1.288-.736,2.454-1.166,3.619-.368,1.166-.736,2.208-1.166,3.251-.368,1.043-.736,1.9-1.1,2.7H185.43c-.429-1.288-.92-2.638-1.35-4.049S183.222,176.541,182.854,175.069Z" transform="translate(-123.349 -132.618)"/>
      <path id="Path_2543" data-name="Path 2543" class="cls-2" d="M219.944,176.593a8.609,8.609,0,0,1-.491,2.883,7.519,7.519,0,0,1-1.288,2.27,5.878,5.878,0,0,1-4.662,1.963,7.214,7.214,0,0,1-2.638-.491,5.4,5.4,0,0,1-2.024-1.472,8.241,8.241,0,0,1-1.35-2.27,8.715,8.715,0,0,1,0-5.766,6.156,6.156,0,0,1,3.374-3.619,7.13,7.13,0,0,1,2.576-.491,7.465,7.465,0,0,1,2.638.491A5.252,5.252,0,0,1,218.1,171.5a7.88,7.88,0,0,1,1.35,2.208A8.344,8.344,0,0,1,219.944,176.593Zm-3.19,0a5.463,5.463,0,0,0-.859-3.19,3.038,3.038,0,0,0-4.785,0,5.463,5.463,0,0,0-.859,3.19,5.33,5.33,0,0,0,.859,3.19,3.038,3.038,0,0,0,4.785,0A5.463,5.463,0,0,0,216.754,176.593Z" transform="translate(-136.453 -132.425)"/>
      <path id="Path_2544" data-name="Path 2544" class="cls-2" d="M244.226,183.066c-.613.184-1.411.307-2.331.491a17.278,17.278,0,0,1-3.19.245,6.846,6.846,0,0,1-2.7-.491,4.755,4.755,0,0,1-1.779-1.288,5.27,5.27,0,0,1-.92-1.963,10.455,10.455,0,0,1-.307-2.515V170h3.129v7.055a5.468,5.468,0,0,0,.613,3.067,2.506,2.506,0,0,0,2.208.92,8.64,8.64,0,0,0,1.227-.061,8.53,8.53,0,0,0,.92-.123V170h3.129v13.066Z" transform="translate(-146.504 -132.58)"/>
      <path id="Path_2545" data-name="Path 2545" class="cls-2" d="M262.385,179.682a8.259,8.259,0,0,1-2.331-.307,3.4,3.4,0,0,1-1.472-.8,2.731,2.731,0,0,1-.736-1.288,7.785,7.785,0,0,1-.245-1.779v-15.52l3.129-.491v15.459a4.956,4.956,0,0,0,.061.982,2.267,2.267,0,0,0,.307.675,1.566,1.566,0,0,0,.613.429,3.725,3.725,0,0,0,1.043.245Z" transform="translate(-156.013 -128.521)"/>
      <path id="Path_2546" data-name="Path 2546" class="cls-2" d="M281.146,179.008a15.248,15.248,0,0,1-2.331.491,15.058,15.058,0,0,1-2.945.245,8.609,8.609,0,0,1-2.883-.491,5.7,5.7,0,0,1-2.147-1.411,5.8,5.8,0,0,1-1.35-2.208,9.464,9.464,0,0,1-.061-5.828,6.325,6.325,0,0,1,1.166-2.208,4.835,4.835,0,0,1,1.9-1.411,6.651,6.651,0,0,1,2.576-.491,4.837,4.837,0,0,1,1.718.245c.491.184.92.307,1.288.491v-6.441l3.129-.491v19.508Zm-8.895-6.38a4.9,4.9,0,0,0,.982,3.251,3.28,3.28,0,0,0,2.7,1.166,8.234,8.234,0,0,0,1.288-.061c.368-.061.613-.061.859-.123v-7.729a4.569,4.569,0,0,0-1.1-.552,3.712,3.712,0,0,0-1.472-.245,2.855,2.855,0,0,0-2.515,1.166A5.9,5.9,0,0,0,272.251,172.628Z" transform="translate(-160.42 -128.521)"/>
      <path id="Path_2547" data-name="Path 2547" class="cls-2" d="M309.685,179.682a8.259,8.259,0,0,1-2.331-.307,3.4,3.4,0,0,1-1.472-.8,2.73,2.73,0,0,1-.736-1.288,7.783,7.783,0,0,1-.245-1.779v-15.52l3.129-.491v15.459a4.959,4.959,0,0,0,.061.982,2.267,2.267,0,0,0,.307.675,1.566,1.566,0,0,0,.613.429,3.725,3.725,0,0,0,1.043.245Z" transform="translate(-174.297 -128.521)"/>
      <path id="Path_2548" data-name="Path 2548" class="cls-2" d="M320.8,162.4a1.848,1.848,0,0,1-.552,1.411,1.757,1.757,0,0,1-1.35.491,2.021,2.021,0,0,1-1.35-.491,1.9,1.9,0,0,1,1.35-3.313,2.144,2.144,0,0,1,1.35.491A1.76,1.76,0,0,1,320.8,162.4Zm-.307,17.422h-3.129v-13.5H320.5Z" transform="translate(-178.974 -128.907)"/>
      <path id="Path_2549" data-name="Path 2549" class="cls-2" d="M332.229,171.178c.368-.429.8-.859,1.288-1.35.429-.491.859-.92,1.288-1.411s.859-.92,1.227-1.35a14.2,14.2,0,0,0,.982-1.166h3.681c-.859.982-1.779,1.963-2.7,3.006-.982,1.043-1.9,2.024-2.883,3.006a18.053,18.053,0,0,1,1.595,1.534c.552.613,1.1,1.288,1.656,1.963a16.043,16.043,0,0,1,1.472,2.086A17.8,17.8,0,0,1,341,179.4h-3.619c-.307-.552-.675-1.1-1.043-1.656-.429-.613-.859-1.166-1.288-1.718a16.718,16.718,0,0,0-1.411-1.534,11.784,11.784,0,0,0-1.411-1.227V179.4H329.1V159.891l3.129-.491v11.778Z" transform="translate(-183.651 -128.482)"/>
      <path id="Path_2550" data-name="Path 2550" class="cls-2" d="M350.1,176.616a8.366,8.366,0,0,1,.552-3.129,5.715,5.715,0,0,1,1.411-2.208,5.589,5.589,0,0,1,2.024-1.35,6.047,6.047,0,0,1,2.331-.429,5.553,5.553,0,0,1,4.355,1.718,7.5,7.5,0,0,1,1.534,5.153v.552a1.362,1.362,0,0,1-.061.552h-8.9a3.493,3.493,0,0,0,1.166,2.515,4.225,4.225,0,0,0,2.945.859,11,11,0,0,0,2.086-.184,11.273,11.273,0,0,0,1.472-.429l.429,2.576a5.111,5.111,0,0,1-.736.245,4.35,4.35,0,0,1-1.043.245c-.368.061-.8.123-1.227.184a9.94,9.94,0,0,1-1.35.061,7.825,7.825,0,0,1-3.067-.552,6.075,6.075,0,0,1-2.147-1.472,6.551,6.551,0,0,1-1.288-2.208A6.242,6.242,0,0,1,350.1,176.616Zm9.079-1.411a3.956,3.956,0,0,0-.184-1.227,2.56,2.56,0,0,0-.552-.982,3.224,3.224,0,0,0-.859-.675,2.433,2.433,0,0,0-1.227-.245,2.845,2.845,0,0,0-1.288.245,2.716,2.716,0,0,0-.92.736,3.111,3.111,0,0,0-.552.982,6.471,6.471,0,0,0-.307,1.166Z" transform="translate(-191.769 -132.386)"/>
      <path id="Path_2551" data-name="Path 2551" class="cls-2" d="M384.9,163.891l3.129-.491v4.049h4.785v2.576h-4.785v5.46a4.393,4.393,0,0,0,.491,2.331,1.937,1.937,0,0,0,1.779.675,6.18,6.18,0,0,0,1.534-.184c.429-.123.8-.245,1.043-.307l.491,2.454a12.226,12.226,0,0,1-1.411.491,7.212,7.212,0,0,1-2.086.245,6.533,6.533,0,0,1-2.392-.368,3.212,3.212,0,0,1-1.534-1.1,4.288,4.288,0,0,1-.8-1.779,9.258,9.258,0,0,1-.245-2.392V163.891Z" transform="translate(-205.221 -130.028)"/>
      <path id="Path_2552" data-name="Path 2552" class="cls-2" d="M402.7,179.4V159.891l3.129-.491v6.687a5.968,5.968,0,0,1,1.227-.307,10.032,10.032,0,0,1,1.35-.123,6.919,6.919,0,0,1,2.7.429,4.107,4.107,0,0,1,1.718,1.288,4.854,4.854,0,0,1,.92,1.963,10.939,10.939,0,0,1,.245,2.515V179.4h-3.129v-7.055a14.5,14.5,0,0,0-.123-1.84,3.212,3.212,0,0,0-.491-1.227,1.845,1.845,0,0,0-.859-.675,4.081,4.081,0,0,0-1.35-.245,9.153,9.153,0,0,0-1.288.123,7.521,7.521,0,0,0-.982.245V179.4Z" transform="translate(-212.102 -128.482)"/>
      <path id="Path_2553" data-name="Path 2553" class="cls-2" d="M425.9,176.616a8.366,8.366,0,0,1,.552-3.129,5.715,5.715,0,0,1,1.411-2.208,5.589,5.589,0,0,1,2.024-1.35,6.047,6.047,0,0,1,2.331-.429,5.553,5.553,0,0,1,4.355,1.718,7.5,7.5,0,0,1,1.534,5.153v.552a1.362,1.362,0,0,1-.061.552h-8.9a3.493,3.493,0,0,0,1.166,2.515,4.225,4.225,0,0,0,2.945.859,11,11,0,0,0,2.086-.184,11.273,11.273,0,0,0,1.472-.429l.429,2.576a5.111,5.111,0,0,1-.736.245,4.35,4.35,0,0,1-1.043.245c-.368.061-.8.123-1.227.184a9.94,9.94,0,0,1-1.35.061,7.825,7.825,0,0,1-3.067-.552,6.075,6.075,0,0,1-2.147-1.472,6.551,6.551,0,0,1-1.288-2.208A6.242,6.242,0,0,1,425.9,176.616Zm9.018-1.411a3.955,3.955,0,0,0-.184-1.227,2.559,2.559,0,0,0-.552-.982,3.224,3.224,0,0,0-.859-.675,2.433,2.433,0,0,0-1.227-.245,2.845,2.845,0,0,0-1.288.245,2.716,2.716,0,0,0-.92.736,3.11,3.11,0,0,0-.552.982,6.468,6.468,0,0,0-.307,1.166Z" transform="translate(-221.07 -132.386)"/>
      <path id="Path_2554" data-name="Path 2554" class="cls-2" d="M464.76,169.5a7.642,7.642,0,0,1,2.576.368,4.159,4.159,0,0,1,1.718,1.1,4.229,4.229,0,0,1,.92,1.718,8.236,8.236,0,0,1,.245,2.147V183a21.363,21.363,0,0,1-2.147.368,26.135,26.135,0,0,1-3.313.245,8.4,8.4,0,0,1-2.208-.245,6.3,6.3,0,0,1-1.718-.736,3.365,3.365,0,0,1-1.1-1.35,4.939,4.939,0,0,1-.429-2.024,3.874,3.874,0,0,1,.429-1.963A3.543,3.543,0,0,1,460.956,176a6.744,6.744,0,0,1,1.779-.736,12.1,12.1,0,0,1,2.147-.245,7.045,7.045,0,0,1,1.1.061,10.834,10.834,0,0,1,1.227.245v-.491a6.044,6.044,0,0,0-.123-1.043,1.9,1.9,0,0,0-.429-.859,2.08,2.08,0,0,0-.859-.552,4.216,4.216,0,0,0-1.35-.184,9.285,9.285,0,0,0-1.963.184,12.734,12.734,0,0,0-1.472.368l-.368-2.515c.368-.123.982-.245,1.718-.429A7.53,7.53,0,0,1,464.76,169.5Zm.245,11.594a9.811,9.811,0,0,0,2.208-.184v-3.435a6.36,6.36,0,0,0-.736-.184,9.417,9.417,0,0,0-2.147,0,2.627,2.627,0,0,0-.982.307,1.5,1.5,0,0,0-.675.552,1.479,1.479,0,0,0-.245.92,1.745,1.745,0,0,0,.675,1.534A3.033,3.033,0,0,0,465.005,181.094Z" transform="translate(-233.98 -132.386)"/>
      <path id="Path_2555" data-name="Path 2555" class="cls-2" d="M495.446,172.65a8.708,8.708,0,0,1-.491,2.945,6.679,6.679,0,0,1-1.35,2.208,5.7,5.7,0,0,1-2.147,1.411,8.344,8.344,0,0,1-2.883.491,15.059,15.059,0,0,1-2.945-.245c-.92-.184-1.718-.307-2.331-.491V159.891l3.129-.491v6.993a5.69,5.69,0,0,1,1.35-.491,5.292,5.292,0,0,1,1.718-.245,6.564,6.564,0,0,1,2.515.491,4.638,4.638,0,0,1,1.84,1.411,7.535,7.535,0,0,1,1.166,2.208A8.622,8.622,0,0,1,495.446,172.65Zm-3.19-.061a5.135,5.135,0,0,0-.8-3.129,2.786,2.786,0,0,0-2.515-1.166,4.124,4.124,0,0,0-1.472.245,9.726,9.726,0,0,0-1.1.491v7.729a3.2,3.2,0,0,0,.859.123,8.235,8.235,0,0,0,1.288.061,3.28,3.28,0,0,0,2.7-1.166A4.533,4.533,0,0,0,492.256,172.589Z" transform="translate(-243.258 -128.482)"/>
      <path id="Path_2556" data-name="Path 2556" class="cls-2" d="M511.6,162.4a1.848,1.848,0,0,1-.552,1.411,1.757,1.757,0,0,1-1.35.491,2.021,2.021,0,0,1-1.35-.491,1.9,1.9,0,0,1,1.35-3.313,2.144,2.144,0,0,1,1.35.491A1.76,1.76,0,0,1,511.6,162.4Zm-.307,17.422h-3.129v-13.5H511.3Z" transform="translate(-252.728 -128.907)"/>
      <path id="Path_2557" data-name="Path 2557" class="cls-2" d="M524.585,179.682a8.259,8.259,0,0,1-2.331-.307,3.4,3.4,0,0,1-1.472-.8,2.73,2.73,0,0,1-.736-1.288,7.781,7.781,0,0,1-.245-1.779v-15.52l3.129-.491v15.459a4.954,4.954,0,0,0,.061.982,2.266,2.266,0,0,0,.307.675,1.566,1.566,0,0,0,.613.429,3.725,3.725,0,0,0,1.043.245Z" transform="translate(-257.367 -128.521)"/>
      <path id="Path_2558" data-name="Path 2558" class="cls-2" d="M535.7,162.4a1.848,1.848,0,0,1-.552,1.411,1.757,1.757,0,0,1-1.35.491,2.021,2.021,0,0,1-1.35-.491,1.9,1.9,0,0,1,1.35-3.313,2.144,2.144,0,0,1,1.35.491A1.76,1.76,0,0,1,535.7,162.4Zm-.368,17.422h-3.129v-13.5h3.129Z" transform="translate(-262.044 -128.907)"/>
      <path id="Path_2559" data-name="Path 2559" class="cls-2" d="M543.7,163.891l3.129-.491v4.049h4.785v2.576h-4.785v5.46a4.392,4.392,0,0,0,.491,2.331,1.937,1.937,0,0,0,1.779.675,6.18,6.18,0,0,0,1.534-.184c.429-.123.8-.245,1.043-.307l.491,2.454a12.217,12.217,0,0,1-1.411.491,7.211,7.211,0,0,1-2.086.245,6.534,6.534,0,0,1-2.393-.368,3.212,3.212,0,0,1-1.534-1.1,4.288,4.288,0,0,1-.8-1.779,9.262,9.262,0,0,1-.245-2.392Z" transform="translate(-266.605 -130.028)"/>
      <path id="Path_2560" data-name="Path 2560" class="cls-2" d="M571.344,169.961a102.35,102.35,0,0,1-4.846,13.925,14.246,14.246,0,0,1-1.043,1.963,5.206,5.206,0,0,1-1.227,1.35,4.283,4.283,0,0,1-1.472.8,5.963,5.963,0,0,1-1.9.245,5.229,5.229,0,0,1-1.411-.184c-.491-.123-.859-.245-1.043-.307l.552-2.515a4.924,4.924,0,0,0,1.84.368,2.927,2.927,0,0,0,1.9-.552,5.282,5.282,0,0,0,1.227-1.779c-.982-1.9-1.9-3.926-2.822-6.2a60.5,60.5,0,0,1-2.392-7.116h3.313c.184.736.368,1.534.613,2.331.245.859.552,1.718.8,2.576l.92,2.576c.307.859.675,1.656.982,2.392.552-1.534,1.043-3.129,1.534-4.908.491-1.718.92-3.374,1.288-5.03h3.19Z" transform="translate(-272.288 -132.541)"/>
      <path id="Path_2561" data-name="Path 2561" class="cls-2" d="M604.844,176.593a8.608,8.608,0,0,1-.491,2.883,7.519,7.519,0,0,1-1.288,2.27,5.878,5.878,0,0,1-4.662,1.963,7.214,7.214,0,0,1-2.638-.491,5.4,5.4,0,0,1-2.024-1.472,8.241,8.241,0,0,1-1.35-2.27,8.714,8.714,0,0,1,0-5.766,6.157,6.157,0,0,1,3.374-3.619,7.13,7.13,0,0,1,2.577-.491,7.465,7.465,0,0,1,2.638.491A5.251,5.251,0,0,1,603,171.5a7.879,7.879,0,0,1,1.35,2.208A8.343,8.343,0,0,1,604.844,176.593Zm-3.19,0a5.462,5.462,0,0,0-.859-3.19,3.038,3.038,0,0,0-4.785,0,5.463,5.463,0,0,0-.859,3.19,5.331,5.331,0,0,0,.859,3.19,3.038,3.038,0,0,0,4.785,0A5.462,5.462,0,0,0,601.654,176.593Z" transform="translate(-285.237 -132.425)"/>
      <path id="Path_2562" data-name="Path 2562" class="cls-2" d="M623.721,159.4a8.689,8.689,0,0,1,1.9.184,6.04,6.04,0,0,1,1.227.368l-.613,2.576a4.211,4.211,0,0,0-1.043-.307,7.549,7.549,0,0,0-1.227-.123,2.845,2.845,0,0,0-1.288.245,1.646,1.646,0,0,0-.8.613,2.135,2.135,0,0,0-.429.92,7.552,7.552,0,0,0-.123,1.227v.92h4.908V168.6h-4.908v10.8H618.2V164.982a5.934,5.934,0,0,1,1.35-4.11A5.579,5.579,0,0,1,623.721,159.4Z" transform="translate(-295.404 -128.482)"/>
      <path id="Path_2563" data-name="Path 2563" class="cls-2" d="M652.468,172.667a8.924,8.924,0,0,0-1.043-.245,6.236,6.236,0,0,0-1.595-.123,6.759,6.759,0,0,0-1.1.123,3.863,3.863,0,0,0-.8.184v10.735H644.8V170.52a13.153,13.153,0,0,1,2.27-.613,15.1,15.1,0,0,1,3.006-.307,3.519,3.519,0,0,1,.736.061,3.591,3.591,0,0,1,.8.123c.245.061.552.123.8.184a3.808,3.808,0,0,1,.614.184Z" transform="translate(-305.686 -132.425)"/>
      <path id="Path_2564" data-name="Path 2564" class="cls-2" d="M660.5,176.616a8.366,8.366,0,0,1,.552-3.129,5.714,5.714,0,0,1,1.411-2.208,5.589,5.589,0,0,1,2.024-1.35,6.046,6.046,0,0,1,2.331-.429,5.553,5.553,0,0,1,4.355,1.718,7.5,7.5,0,0,1,1.534,5.153v.552a1.363,1.363,0,0,1-.061.552h-8.9a3.492,3.492,0,0,0,1.166,2.515,4.225,4.225,0,0,0,2.945.859,11,11,0,0,0,2.086-.184,11.278,11.278,0,0,0,1.472-.429l.429,2.576a5.112,5.112,0,0,1-.736.245,4.35,4.35,0,0,1-1.043.245c-.368.061-.8.123-1.227.184a9.94,9.94,0,0,1-1.35.061,7.825,7.825,0,0,1-3.067-.552,6.075,6.075,0,0,1-2.147-1.472,6.551,6.551,0,0,1-1.288-2.208A7.3,7.3,0,0,1,660.5,176.616Zm9.079-1.411a3.956,3.956,0,0,0-.184-1.227,2.557,2.557,0,0,0-.552-.982,3.222,3.222,0,0,0-.859-.675,2.433,2.433,0,0,0-1.227-.245,2.845,2.845,0,0,0-1.288.245,2.715,2.715,0,0,0-.92.736,3.109,3.109,0,0,0-.552.982,6.471,6.471,0,0,0-.307,1.166Z" transform="translate(-311.755 -132.386)"/>
      <path id="Path_2565" data-name="Path 2565" class="cls-2" d="M689.56,169.5a7.642,7.642,0,0,1,2.577.368,4.16,4.16,0,0,1,1.718,1.1,4.231,4.231,0,0,1,.92,1.718,8.236,8.236,0,0,1,.245,2.147V183a21.36,21.36,0,0,1-2.147.368,26.134,26.134,0,0,1-3.313.245,8.4,8.4,0,0,1-2.208-.245,6.3,6.3,0,0,1-1.718-.736,3.364,3.364,0,0,1-1.1-1.35,4.937,4.937,0,0,1-.43-2.024,3.873,3.873,0,0,1,.43-1.963A3.542,3.542,0,0,1,685.756,176a6.744,6.744,0,0,1,1.779-.736,12.1,12.1,0,0,1,2.147-.245,7.046,7.046,0,0,1,1.1.061,8.684,8.684,0,0,1,1.227.245v-.491a6.05,6.05,0,0,0-.123-1.043,2.267,2.267,0,0,0-.43-.859,2.079,2.079,0,0,0-.859-.552,4.215,4.215,0,0,0-1.35-.184,9.285,9.285,0,0,0-1.963.184c-.552.123-1.1.245-1.472.368l-.368-2.515c.368-.123.981-.245,1.718-.429A7.529,7.529,0,0,1,689.56,169.5Zm.307,11.594a9.811,9.811,0,0,0,2.208-.184v-3.435a6.358,6.358,0,0,0-.736-.184,9.417,9.417,0,0,0-2.147,0,2.628,2.628,0,0,0-.982.307,1.5,1.5,0,0,0-.675.552,1.479,1.479,0,0,0-.245.92,1.745,1.745,0,0,0,.675,1.534A3.033,3.033,0,0,0,689.866,181.094Z" transform="translate(-320.877 -132.386)"/>
      <path id="Path_2566" data-name="Path 2566" class="cls-2" d="M706.9,176.516a8.8,8.8,0,0,1,.491-2.822,6.567,6.567,0,0,1,1.35-2.27,6.416,6.416,0,0,1,2.086-1.472,6.723,6.723,0,0,1,2.761-.552,10.245,10.245,0,0,1,3.619.675l-.675,2.576a4.072,4.072,0,0,0-1.227-.368,9.626,9.626,0,0,0-1.472-.184,3.246,3.246,0,0,0-2.76,1.166,5.931,5.931,0,0,0-.061,6.441,3.57,3.57,0,0,0,3.067,1.166,7.073,7.073,0,0,0,1.595-.184,13.368,13.368,0,0,0,1.35-.368l.429,2.576a9.092,9.092,0,0,1-1.534.491,12.163,12.163,0,0,1-2.147.184,7.513,7.513,0,0,1-3.006-.552,5.822,5.822,0,0,1-2.086-1.472,5.41,5.41,0,0,1-1.227-2.27A6.523,6.523,0,0,1,706.9,176.516Z" transform="translate(-329.691 -132.348)"/>
      <path id="Path_2567" data-name="Path 2567" class="cls-2" d="M728,179.4V159.891l3.129-.491v6.687a5.968,5.968,0,0,1,1.227-.307,10.033,10.033,0,0,1,1.35-.123,6.92,6.92,0,0,1,2.7.429,4.107,4.107,0,0,1,1.718,1.288,4.855,4.855,0,0,1,.92,1.963,10.6,10.6,0,0,1,.245,2.515V179.4h-3.129v-7.055a14.513,14.513,0,0,0-.123-1.84,3.214,3.214,0,0,0-.491-1.227,1.587,1.587,0,0,0-.859-.675,4.081,4.081,0,0,0-1.35-.245,9.151,9.151,0,0,0-1.288.123,7.519,7.519,0,0,0-.982.245V179.4Z" transform="translate(-337.847 -128.482)"/>
      <path id="Path_2568" data-name="Path 2568" class="cls-2" d="M755.7,162.4a1.848,1.848,0,0,1-.552,1.411,1.757,1.757,0,0,1-1.35.491,2.021,2.021,0,0,1-1.35-.491,1.9,1.9,0,0,1,1.35-3.313,2.144,2.144,0,0,1,1.35.491A1.76,1.76,0,0,1,755.7,162.4Zm-.307,17.422h-3.129v-13.5H755.4Z" transform="translate(-347.086 -128.907)"/>
      <path id="Path_2569" data-name="Path 2569" class="cls-2" d="M764,170.236c.613-.184,1.411-.307,2.331-.491a16.852,16.852,0,0,1,3.19-.245,7.25,7.25,0,0,1,2.761.429,4.313,4.313,0,0,1,1.779,1.288,4.854,4.854,0,0,1,.92,1.963,10.6,10.6,0,0,1,.245,2.515V183.3H772.1v-7.055a14.5,14.5,0,0,0-.123-1.84,3.212,3.212,0,0,0-.491-1.227,1.587,1.587,0,0,0-.859-.675,4.081,4.081,0,0,0-1.35-.245,8.637,8.637,0,0,0-1.227.061,8.4,8.4,0,0,1-.982.123V183.3H764Z" transform="translate(-351.763 -132.386)"/>
      <path id="Path_2570" data-name="Path 2570" class="cls-2" d="M799.24,181.93c0,2.147-.552,3.742-1.656,4.724a7.354,7.354,0,0,1-5.03,1.472,15.124,15.124,0,0,1-2.392-.184,10.985,10.985,0,0,1-2.147-.552l.552-2.638a8.076,8.076,0,0,0,1.84.552,12.367,12.367,0,0,0,2.208.184,3.741,3.741,0,0,0,2.7-.8,2.931,2.931,0,0,0,.8-2.27v-.491a8.45,8.45,0,0,1-1.227.491,5.058,5.058,0,0,1-1.718.245,5.645,5.645,0,0,1-2.331-.429,4.24,4.24,0,0,1-1.84-1.227,5.487,5.487,0,0,1-1.166-2.024,9.309,9.309,0,0,1-.429-2.761,7.556,7.556,0,0,1,.429-2.7,5.992,5.992,0,0,1,1.288-2.086,5.336,5.336,0,0,1,2.086-1.35,7.989,7.989,0,0,1,2.822-.491,14.431,14.431,0,0,1,2.883.245c.92.184,1.656.307,2.331.491Zm-8.65-5.705a4.148,4.148,0,0,0,.859,2.883,2.826,2.826,0,0,0,2.208.92,5.227,5.227,0,0,0,1.411-.184,3.306,3.306,0,0,0,1.043-.491v-6.993a3.109,3.109,0,0,0-.8-.123,7.063,7.063,0,0,0-1.227-.061,3.088,3.088,0,0,0-2.576,1.1A4.452,4.452,0,0,0,790.59,176.225Z" transform="translate(-360.808 -132.425)"/>
      <path id="Path_2571" data-name="Path 2571" class="cls-2" d="M834.744,176.593a8.608,8.608,0,0,1-.491,2.883,7.519,7.519,0,0,1-1.288,2.27,5.4,5.4,0,0,1-2.024,1.472,6.135,6.135,0,0,1-2.638.491,7.214,7.214,0,0,1-2.638-.491,5.4,5.4,0,0,1-2.024-1.472,8.241,8.241,0,0,1-1.35-2.27,8.714,8.714,0,0,1,0-5.766,5.8,5.8,0,0,1,1.35-2.208,6.363,6.363,0,0,1,2.024-1.411,7.13,7.13,0,0,1,2.577-.491,7.465,7.465,0,0,1,2.638.491A5.251,5.251,0,0,1,832.9,171.5a7.88,7.88,0,0,1,1.35,2.208A8.345,8.345,0,0,1,834.744,176.593Zm-3.251,0a5.463,5.463,0,0,0-.859-3.19,3.038,3.038,0,0,0-4.785,0,5.462,5.462,0,0,0-.859,3.19,5.33,5.33,0,0,0,.859,3.19,3.038,3.038,0,0,0,4.785,0A5.047,5.047,0,0,0,831.492,176.593Z" transform="translate(-374.106 -132.425)"/>
      <path id="Path_2572" data-name="Path 2572" class="cls-2" d="M859.026,183.066c-.613.184-1.411.307-2.331.491a16.856,16.856,0,0,1-3.19.245,6.846,6.846,0,0,1-2.7-.491,4.756,4.756,0,0,1-1.779-1.288,5.27,5.27,0,0,1-.92-1.963,10.457,10.457,0,0,1-.307-2.515V170h3.129v7.055a5.467,5.467,0,0,0,.613,3.067,2.506,2.506,0,0,0,2.208.92,8.641,8.641,0,0,0,1.227-.061,8.533,8.533,0,0,0,.92-.123V170h3.129v13.066Z" transform="translate(-384.156 -132.58)"/>
      <path id="Path_2573" data-name="Path 2573" class="cls-2" d="M872.3,163.891l3.129-.491v4.049h4.785v2.576h-4.785v5.46a4.393,4.393,0,0,0,.491,2.331,2,2,0,0,0,1.779.675,6.18,6.18,0,0,0,1.534-.184c.429-.123.8-.245,1.043-.307l.491,2.454a12.226,12.226,0,0,1-1.411.491,7.211,7.211,0,0,1-2.086.245,6.533,6.533,0,0,1-2.392-.368,3.538,3.538,0,0,1-1.534-1.1,5.247,5.247,0,0,1-.8-1.779,9.256,9.256,0,0,1-.245-2.392Z" transform="translate(-393.626 -130.028)"/>
      <path id="Path_2574" data-name="Path 2574" class="cls-2" d="M93.8,214.291l3.129-.491v4.049h4.785v2.576H96.929v5.46a4.393,4.393,0,0,0,.491,2.331,1.937,1.937,0,0,0,1.779.675,6.181,6.181,0,0,0,1.534-.184c.429-.123.8-.245,1.043-.307l.491,2.454a12.224,12.224,0,0,1-1.411.491,7.211,7.211,0,0,1-2.086.245,6.533,6.533,0,0,1-2.392-.368,3.212,3.212,0,0,1-1.534-1.1,4.288,4.288,0,0,1-.8-1.779,9.258,9.258,0,0,1-.245-2.392V214.291Z" transform="translate(-92.696 -149.511)"/>
      <path id="Path_2575" data-name="Path 2575" class="cls-2" d="M122.844,226.993a8.609,8.609,0,0,1-.491,2.883,7.518,7.518,0,0,1-1.288,2.27,5.878,5.878,0,0,1-4.662,1.963,7.213,7.213,0,0,1-2.638-.491,5.4,5.4,0,0,1-2.024-1.472,8.24,8.24,0,0,1-1.35-2.27,8.715,8.715,0,0,1,0-5.766,6.156,6.156,0,0,1,3.374-3.619,7.13,7.13,0,0,1,2.576-.491,7.465,7.465,0,0,1,2.638.491A5.251,5.251,0,0,1,121,221.9a7.88,7.88,0,0,1,1.35,2.208A8.344,8.344,0,0,1,122.844,226.993Zm-3.19,0a5.463,5.463,0,0,0-.859-3.19,3.038,3.038,0,0,0-4.785,0,5.463,5.463,0,0,0-.859,3.19,5.33,5.33,0,0,0,.859,3.19,3.038,3.038,0,0,0,4.785,0A5.463,5.463,0,0,0,119.654,226.993Z" transform="translate(-98.919 -151.907)"/>
      <path id="Path_2576" data-name="Path 2576" class="cls-2" d="M158.146,226.955a8.258,8.258,0,0,1-.429,2.822,6.325,6.325,0,0,1-1.166,2.208,5.432,5.432,0,0,1-1.84,1.472,5.589,5.589,0,0,1-2.515.491,5.672,5.672,0,0,1-1.779-.245,7.156,7.156,0,0,1-1.288-.491v5.214H146v-17.79c.613-.184,1.411-.307,2.331-.491a15.057,15.057,0,0,1,2.945-.245,8.609,8.609,0,0,1,2.883.491,5.7,5.7,0,0,1,2.147,1.411,5.8,5.8,0,0,1,1.35,2.208A8.978,8.978,0,0,1,158.146,226.955Zm-3.19.061a5.125,5.125,0,0,0-.92-3.251,3.594,3.594,0,0,0-3.006-1.166,4.641,4.641,0,0,0-.92.061,2.462,2.462,0,0,0-.92.184v7.729a4.567,4.567,0,0,0,1.1.552,3.712,3.712,0,0,0,1.472.245,2.855,2.855,0,0,0,2.515-1.166A7.929,7.929,0,0,0,154.956,227.016Z" transform="translate(-112.874 -151.869)"/>
      <path id="Path_2577" data-name="Path 2577" class="cls-2" d="M178.668,223.106a8.946,8.946,0,0,0-1.043-.245,6.236,6.236,0,0,0-1.595-.123,6.76,6.76,0,0,0-1.1.123,3.863,3.863,0,0,0-.8.184v10.8H171V221.02a13.152,13.152,0,0,1,2.27-.613,15.1,15.1,0,0,1,3.006-.307,3.522,3.522,0,0,1,.736.061,3.592,3.592,0,0,1,.8.123c.245.061.552.123.8.184a3.813,3.813,0,0,1,.613.184Z" transform="translate(-122.538 -151.946)"/>
      <path id="Path_2578" data-name="Path 2578" class="cls-2" d="M199.644,226.993a8.609,8.609,0,0,1-.491,2.883,7.518,7.518,0,0,1-1.288,2.27,5.878,5.878,0,0,1-4.662,1.963,7.213,7.213,0,0,1-2.638-.491,5.4,5.4,0,0,1-2.024-1.472,8.24,8.24,0,0,1-1.35-2.27,8.715,8.715,0,0,1,0-5.766,6.156,6.156,0,0,1,3.374-3.619,7.13,7.13,0,0,1,2.576-.491,7.465,7.465,0,0,1,2.638.491A5.251,5.251,0,0,1,197.8,221.9a7.879,7.879,0,0,1,1.35,2.208A7.118,7.118,0,0,1,199.644,226.993Zm-3.19,0a5.463,5.463,0,0,0-.859-3.19,3.038,3.038,0,0,0-4.785,0,5.463,5.463,0,0,0-.859,3.19,5.33,5.33,0,0,0,.859,3.19,3.038,3.038,0,0,0,4.785,0A5.463,5.463,0,0,0,196.454,226.993Z" transform="translate(-128.606 -151.907)"/>
      <path id="Path_2579" data-name="Path 2579" class="cls-2" d="M215.778,231.394a4.208,4.208,0,0,0,1.779-.307,1.075,1.075,0,0,0,.552-1.043,1.3,1.3,0,0,0-.613-1.1,8.847,8.847,0,0,0-2.024-.982,8.869,8.869,0,0,1-1.534-.675,6.048,6.048,0,0,1-1.227-.8,2.839,2.839,0,0,1-.8-1.1,4.1,4.1,0,0,1-.307-1.595,3.554,3.554,0,0,1,1.35-2.945,5.706,5.706,0,0,1,3.681-1.043,9.2,9.2,0,0,1,2.27.245,7.88,7.88,0,0,1,1.595.429l-.552,2.515a6.336,6.336,0,0,0-1.288-.429,8.5,8.5,0,0,0-1.84-.184,3.576,3.576,0,0,0-1.534.307,1.166,1.166,0,0,0-.613.982,1.815,1.815,0,0,0,.123.613,1.031,1.031,0,0,0,.429.491,3.894,3.894,0,0,0,.736.429,10.474,10.474,0,0,0,1.1.429,19.846,19.846,0,0,1,1.9.8,4.912,4.912,0,0,1,1.288.92,3.4,3.4,0,0,1,.736,1.166,3.834,3.834,0,0,1,.245,1.534,3.447,3.447,0,0,1-1.411,2.945,7.149,7.149,0,0,1-4.11.982,12.174,12.174,0,0,1-2.883-.307,11.471,11.471,0,0,1-1.534-.491l.552-2.577q.736.276,1.656.552A8.582,8.582,0,0,0,215.778,231.394Z" transform="translate(-138.116 -151.83)"/>
      <path id="Path_2580" data-name="Path 2580" class="cls-2" d="M244.446,226.955a8.258,8.258,0,0,1-.429,2.822,6.326,6.326,0,0,1-1.166,2.208,5.432,5.432,0,0,1-1.84,1.472,5.589,5.589,0,0,1-2.515.491,5.672,5.672,0,0,1-1.779-.245,7.155,7.155,0,0,1-1.288-.491v5.214H232.3v-17.79c.613-.184,1.411-.307,2.331-.491a15.057,15.057,0,0,1,2.945-.245,8.609,8.609,0,0,1,2.883.491,5.7,5.7,0,0,1,2.147,1.411,5.8,5.8,0,0,1,1.35,2.208A8.978,8.978,0,0,1,244.446,226.955Zm-3.251.061a5.125,5.125,0,0,0-.92-3.251,3.594,3.594,0,0,0-3.006-1.166,4.641,4.641,0,0,0-.92.061,2.462,2.462,0,0,0-.92.184v7.729a4.567,4.567,0,0,0,1.1.552,3.712,3.712,0,0,0,1.472.245,2.855,2.855,0,0,0,2.515-1.166A7.019,7.019,0,0,0,241.195,227.016Z" transform="translate(-146.233 -151.869)"/>
      <path id="Path_2581" data-name="Path 2581" class="cls-2" d="M256.1,227.016a8.367,8.367,0,0,1,.552-3.129,5.715,5.715,0,0,1,1.411-2.208,5.59,5.59,0,0,1,2.024-1.35,6.047,6.047,0,0,1,2.331-.429,5.553,5.553,0,0,1,4.355,1.718,7.5,7.5,0,0,1,1.534,5.153v.552a1.361,1.361,0,0,1-.061.552h-8.895a3.493,3.493,0,0,0,1.166,2.515,4.225,4.225,0,0,0,2.945.859,11,11,0,0,0,2.086-.184,11.272,11.272,0,0,0,1.472-.429l.429,2.576a5.113,5.113,0,0,1-.736.245,4.349,4.349,0,0,1-1.043.245c-.368.061-.8.123-1.227.184a9.945,9.945,0,0,1-1.35.061,7.826,7.826,0,0,1-3.067-.552,6.076,6.076,0,0,1-2.147-1.472,6.551,6.551,0,0,1-1.288-2.208A6.242,6.242,0,0,1,256.1,227.016Zm9.018-1.411a3.955,3.955,0,0,0-.184-1.227,2.56,2.56,0,0,0-.552-.982,3.224,3.224,0,0,0-.859-.675,2.433,2.433,0,0,0-1.227-.245,2.845,2.845,0,0,0-1.288.245,2.716,2.716,0,0,0-.92.736,3.111,3.111,0,0,0-.552.982,6.471,6.471,0,0,0-.307,1.166h5.889Z" transform="translate(-155.433 -151.869)"/>
      <path id="Path_2582" data-name="Path 2582" class="cls-2" d="M280.1,226.916a8.8,8.8,0,0,1,.491-2.822,6.565,6.565,0,0,1,1.35-2.27,6.416,6.416,0,0,1,2.086-1.472,6.723,6.723,0,0,1,2.761-.552,10.245,10.245,0,0,1,3.619.675l-.675,2.576a4.071,4.071,0,0,0-1.227-.368,5.369,5.369,0,0,0-1.472-.184,3.247,3.247,0,0,0-2.761,1.166,5.931,5.931,0,0,0-.061,6.441,3.57,3.57,0,0,0,3.067,1.166,7.073,7.073,0,0,0,1.595-.184,13.362,13.362,0,0,0,1.35-.368l.429,2.576a9.094,9.094,0,0,1-1.534.491,12.163,12.163,0,0,1-2.147.184,7.512,7.512,0,0,1-3.006-.552,5.823,5.823,0,0,1-2.086-1.472,5.409,5.409,0,0,1-1.227-2.27A5.708,5.708,0,0,1,280.1,226.916Z" transform="translate(-164.71 -151.83)"/>
      <path id="Path_2583" data-name="Path 2583" class="cls-2" d="M300.9,214.291l3.129-.491v4.049h4.785v2.576h-4.785v5.46a4.392,4.392,0,0,0,.491,2.331,1.937,1.937,0,0,0,1.779.675,6.181,6.181,0,0,0,1.534-.184c.429-.123.8-.245,1.043-.307l.491,2.454a12.227,12.227,0,0,1-1.411.491,7.212,7.212,0,0,1-2.086.245,6.533,6.533,0,0,1-2.392-.368,3.212,3.212,0,0,1-1.534-1.1,4.288,4.288,0,0,1-.8-1.779,9.259,9.259,0,0,1-.245-2.392V214.291Z" transform="translate(-172.751 -149.511)"/>
      <path id="Path_2584" data-name="Path 2584" class="cls-2" d="M321.378,231.394a4.208,4.208,0,0,0,1.779-.307,1.075,1.075,0,0,0,.552-1.043,1.3,1.3,0,0,0-.613-1.1,8.847,8.847,0,0,0-2.024-.982,8.869,8.869,0,0,1-1.534-.675,6.05,6.05,0,0,1-1.227-.8,2.839,2.839,0,0,1-.8-1.1,4.1,4.1,0,0,1-.307-1.595,3.554,3.554,0,0,1,1.35-2.945,5.706,5.706,0,0,1,3.681-1.043,9.2,9.2,0,0,1,2.27.245,7.879,7.879,0,0,1,1.6.429l-.552,2.515a6.336,6.336,0,0,0-1.288-.429,8.5,8.5,0,0,0-1.84-.184,3.576,3.576,0,0,0-1.534.307,1.166,1.166,0,0,0-.613.982,1.816,1.816,0,0,0,.123.613,1.03,1.03,0,0,0,.429.491,3.893,3.893,0,0,0,.736.429,10.475,10.475,0,0,0,1.1.429,19.84,19.84,0,0,1,1.9.8,4.912,4.912,0,0,1,1.288.92,3.4,3.4,0,0,1,.736,1.166,3.834,3.834,0,0,1,.245,1.534,3.447,3.447,0,0,1-1.411,2.945,7.149,7.149,0,0,1-4.11.982,12.175,12.175,0,0,1-2.883-.307,11.471,11.471,0,0,1-1.534-.491l.552-2.577q.736.276,1.656.552A8.581,8.581,0,0,0,321.378,231.394Z" transform="translate(-178.936 -151.83)"/>
      <path id="Path_2585" data-name="Path 2585" class="cls-2" d="M359.344,226.993a8.609,8.609,0,0,1-.491,2.883,7.519,7.519,0,0,1-1.288,2.27,5.878,5.878,0,0,1-4.662,1.963,7.213,7.213,0,0,1-2.638-.491,5.4,5.4,0,0,1-2.024-1.472,8.241,8.241,0,0,1-1.35-2.27,8.714,8.714,0,0,1,0-5.766,6.156,6.156,0,0,1,3.374-3.619,7.13,7.13,0,0,1,2.576-.491,7.464,7.464,0,0,1,2.638.491A5.252,5.252,0,0,1,357.5,221.9a7.88,7.88,0,0,1,1.35,2.208A8.345,8.345,0,0,1,359.344,226.993Zm-3.19,0a5.463,5.463,0,0,0-.859-3.19,3.038,3.038,0,0,0-4.785,0,5.463,5.463,0,0,0-.859,3.19,5.33,5.33,0,0,0,.859,3.19,3.038,3.038,0,0,0,4.785,0A5.463,5.463,0,0,0,356.154,226.993Z" transform="translate(-190.339 -151.907)"/>
      <path id="Path_2586" data-name="Path 2586" class="cls-2" d="M372.761,220.636c.613-.184,1.411-.307,2.331-.491a17.275,17.275,0,0,1,3.19-.245,7.25,7.25,0,0,1,2.76.429,4.313,4.313,0,0,1,1.779,1.288,4.854,4.854,0,0,1,.92,1.963,10.6,10.6,0,0,1,.245,2.515v7.545h-3.129v-7.055a14.5,14.5,0,0,0-.123-1.84,3.212,3.212,0,0,0-.491-1.227,1.844,1.844,0,0,0-.859-.675,4.081,4.081,0,0,0-1.35-.245,8.64,8.64,0,0,0-1.227.061,8.4,8.4,0,0,1-.982.123v10.858H372.7V220.636Z" transform="translate(-200.505 -151.869)"/>
      <path id="Path_2587" data-name="Path 2587" class="cls-2" d="M401.985,230.082a8.259,8.259,0,0,1-2.331-.307,3.4,3.4,0,0,1-1.472-.8,2.731,2.731,0,0,1-.736-1.288,7.784,7.784,0,0,1-.245-1.779v-15.52l3.129-.491v15.459a4.959,4.959,0,0,0,.061.982,2.267,2.267,0,0,0,.307.675,1.565,1.565,0,0,0,.613.429,3.726,3.726,0,0,0,1.043.245Z" transform="translate(-209.976 -148.003)"/>
      <path id="Path_2588" data-name="Path 2588" class="cls-2" d="M413.1,212.8a1.848,1.848,0,0,1-.552,1.411,1.757,1.757,0,0,1-1.35.491,2.021,2.021,0,0,1-1.35-.491,1.9,1.9,0,0,1,1.35-3.313,2.144,2.144,0,0,1,1.35.491A1.76,1.76,0,0,1,413.1,212.8Zm-.368,17.422h-3.129v-13.5h3.129Z" transform="translate(-214.653 -148.39)"/>
      <path id="Path_2589" data-name="Path 2589" class="cls-2" d="M421.361,220.636c.613-.184,1.411-.307,2.331-.491a17.275,17.275,0,0,1,3.19-.245,7.25,7.25,0,0,1,2.76.429,4.313,4.313,0,0,1,1.779,1.288,4.855,4.855,0,0,1,.92,1.963,10.6,10.6,0,0,1,.245,2.515v7.545h-3.129v-7.055a14.5,14.5,0,0,0-.123-1.84,3.212,3.212,0,0,0-.491-1.227,1.845,1.845,0,0,0-.859-.675,4.081,4.081,0,0,0-1.35-.245,8.639,8.639,0,0,0-1.227.061,8.4,8.4,0,0,1-.982.123v10.858H421.3V220.636Z" transform="translate(-219.292 -151.869)"/>
      <path id="Path_2590" data-name="Path 2590" class="cls-2" d="M444.7,227.016a8.367,8.367,0,0,1,.552-3.129,5.715,5.715,0,0,1,1.411-2.208,5.589,5.589,0,0,1,2.024-1.35,6.047,6.047,0,0,1,2.331-.429,5.553,5.553,0,0,1,4.355,1.718,7.5,7.5,0,0,1,1.534,5.153v.552a1.362,1.362,0,0,1-.061.552h-8.895a3.492,3.492,0,0,0,1.166,2.515,4.225,4.225,0,0,0,2.945.859,11,11,0,0,0,2.086-.184,11.273,11.273,0,0,0,1.472-.429l.429,2.576a5.112,5.112,0,0,1-.736.245,4.348,4.348,0,0,1-1.043.245c-.368.061-.8.123-1.227.184a9.944,9.944,0,0,1-1.35.061,7.826,7.826,0,0,1-3.067-.552,6.076,6.076,0,0,1-2.147-1.472,6.55,6.55,0,0,1-1.288-2.208A7.3,7.3,0,0,1,444.7,227.016Zm9.079-1.411a3.956,3.956,0,0,0-.184-1.227,2.559,2.559,0,0,0-.552-.982,3.225,3.225,0,0,0-.859-.675,2.433,2.433,0,0,0-1.227-.245,2.845,2.845,0,0,0-1.288.245,2.716,2.716,0,0,0-.92.736,3.11,3.11,0,0,0-.552.982,6.476,6.476,0,0,0-.307,1.166h5.889Z" transform="translate(-228.337 -151.869)"/>
      <path id="Path_2591" data-name="Path 2591" class="cls-2" d="M473.071,238.324a1.819,1.819,0,0,1-.613,1.472,2.09,2.09,0,0,1-1.472.552,1.99,1.99,0,0,1-1.472-.552,2.032,2.032,0,0,1-.613-1.472,1.819,1.819,0,0,1,.613-1.472,1.99,1.99,0,0,1,1.472-.552,2.2,2.2,0,0,1,1.472.552A2.032,2.032,0,0,1,473.071,238.324Z" transform="translate(-237.691 -158.208)"/>
    </g>
    <g id="Group_344" data-name="Group 344" transform="translate(73.552)">
      <path id="Path_2592" data-name="Path 2592" class="cls-3" d="M128.3,21.749a9,9,0,0,1-3.435-.613,8,8,0,0,1-2.638-1.779,8.674,8.674,0,0,1-1.718-2.945,11.583,11.583,0,0,1-.613-3.987,11.556,11.556,0,0,1,.675-3.987,8.015,8.015,0,0,1,1.84-2.945,7.15,7.15,0,0,1,2.7-1.779,8.592,8.592,0,0,1,3.313-.613,10.341,10.341,0,0,1,2.024.184c.613.123,1.1.245,1.534.368a3.336,3.336,0,0,1,1.043.429,3.537,3.537,0,0,1,.552.307l-.736,2.086a3.571,3.571,0,0,0-.675-.307c-.307-.123-.613-.245-.982-.368a7.175,7.175,0,0,0-1.227-.307,9.189,9.189,0,0,0-1.35-.123,7.13,7.13,0,0,0-2.576.491,4.835,4.835,0,0,0-1.9,1.411,6.191,6.191,0,0,0-1.227,2.27,9.373,9.373,0,0,0-.429,3.006,10.592,10.592,0,0,0,.368,2.883,6.529,6.529,0,0,0,1.1,2.27,5.432,5.432,0,0,0,1.84,1.472,5.8,5.8,0,0,0,2.638.491,9.693,9.693,0,0,0,2.883-.368,16.425,16.425,0,0,0,1.718-.613l.675,2.086a3.764,3.764,0,0,1-.675.307c-.368.123-.675.245-1.166.368a10.531,10.531,0,0,1-1.595.307C129.715,21.687,129.04,21.749,128.3,21.749Z" transform="translate(-119.9 -1.198)"/>
      <path id="Path_2593" data-name="Path 2593" class="cls-3" d="M150.849,20.544a4.623,4.623,0,0,1-3.129-.982,3.81,3.81,0,0,1-.92-2.822V.729L149.192.3V16.372a4.27,4.27,0,0,0,.123.982,1.439,1.439,0,0,0,.307.613,2.682,2.682,0,0,0,.613.368,9.627,9.627,0,0,0,.982.184Z" transform="translate(-130.298 -0.116)"/>
      <path id="Path_2594" data-name="Path 2594" class="cls-3" d="M159.334,5.09a1.478,1.478,0,0,1-1.1-.429,1.527,1.527,0,0,1-.429-1.166,1.527,1.527,0,0,1,.429-1.166,1.634,1.634,0,0,1,2.208,0,1.527,1.527,0,0,1,.429,1.166,1.527,1.527,0,0,1-.429,1.166A1.478,1.478,0,0,1,159.334,5.09Zm1.227,15.827h-2.392V7.482h2.392Z" transform="translate(-134.55 -0.734)"/>
      <path id="Path_2595" data-name="Path 2595" class="cls-3" d="M167.8,17.555a9.845,9.845,0,0,1,.491-3.129,7.88,7.88,0,0,1,1.35-2.208,4.572,4.572,0,0,1,1.963-1.288,5.746,5.746,0,0,1,2.27-.429,5.159,5.159,0,0,1,4.171,1.718q1.472,1.656,1.472,5.153v.859h-9.2a4.9,4.9,0,0,0,1.227,3.19,4.312,4.312,0,0,0,3.313,1.1A7.384,7.384,0,0,0,177,22.278c.613-.184.982-.307,1.288-.429l.307,2.024a6.391,6.391,0,0,1-1.534.491,10.277,10.277,0,0,1-2.515.245,7.513,7.513,0,0,1-3.006-.552,5.823,5.823,0,0,1-2.086-1.472,5.564,5.564,0,0,1-1.227-2.208A8.259,8.259,0,0,1,167.8,17.555Zm9.14-1.288a3.983,3.983,0,0,0-.8-2.638,2.893,2.893,0,0,0-2.331-1.043,3.707,3.707,0,0,0-1.472.307,2.91,2.91,0,0,0-1.043.859,4.442,4.442,0,0,0-.675,1.166,5.358,5.358,0,0,0-.307,1.35Z" transform="translate(-138.416 -4.059)"/>
      <path id="Path_2596" data-name="Path 2596" class="cls-3" d="M192.361,11.275c.552-.123,1.288-.307,2.208-.429A16.188,16.188,0,0,1,197.7,10.6a6.6,6.6,0,0,1,2.638.429,4.536,4.536,0,0,1,1.718,1.288,4.1,4.1,0,0,1,.859,1.963,10.6,10.6,0,0,1,.245,2.515v7.545h-2.392V17.287a10.12,10.12,0,0,0-.184-2.086,3.765,3.765,0,0,0-.552-1.411,2.275,2.275,0,0,0-1.043-.8,4.155,4.155,0,0,0-1.595-.245h-.8c-.245,0-.552.061-.8.061s-.491.061-.675.061a1.382,1.382,0,0,1-.429.061V24.219H192.3V11.275Z" transform="translate(-147.886 -4.097)"/>
      <path id="Path_2597" data-name="Path 2597" class="cls-3" d="M218.731,8.41h5.092v2.024h-5.092v6.2a6.172,6.172,0,0,0,.184,1.656,2.361,2.361,0,0,0,.491,1.043,1.868,1.868,0,0,0,.8.552,2.972,2.972,0,0,0,1.1.184,4.429,4.429,0,0,0,1.718-.245q.644-.276.92-.368l.491,1.963a10.136,10.136,0,0,1-1.288.429,7.212,7.212,0,0,1-2.086.245,6.061,6.061,0,0,1-2.27-.368,3.053,3.053,0,0,1-1.411-1.043,3.959,3.959,0,0,1-.736-1.718,12.952,12.952,0,0,1-.245-2.331V4.729l2.392-.429V8.41Z" transform="translate(-157.202 -1.662)"/>
      <path id="Path_2598" data-name="Path 2598" class="cls-3" d="M241.254,24.967H238.8L247.511,0H249.9Z" transform="translate(-165.861)"/>
      <path id="Path_2599" data-name="Path 2599" class="cls-3" d="M257.354,24.967H254.9L263.611,0H266Z" transform="translate(-172.085)"/>
      <path id="Path_2600" data-name="Path 2600" class="cls-3" d="M285.6,7.481a16.017,16.017,0,0,0,2.883-1.472A14.47,14.47,0,0,0,291.06,3.8h1.718V21.651h-2.392V7.113c-.184.184-.429.368-.736.613a5.3,5.3,0,0,1-.982.613l-1.1.552a8.194,8.194,0,0,1-1.1.429Z" transform="translate(-183.952 -1.469)"/>
      <path id="Path_2601" data-name="Path 2601" class="cls-3" d="M309.3,7.481a16.016,16.016,0,0,0,2.883-1.472A14.47,14.47,0,0,0,314.76,3.8h1.718V21.651h-2.454V7.113c-.184.184-.429.368-.736.613a5.3,5.3,0,0,1-.982.613l-1.1.552a8.2,8.2,0,0,1-1.1.429Z" transform="translate(-193.113 -1.469)"/>
      <path id="Path_2602" data-name="Path 2602" class="cls-3" d="M334.858,12.818a1.824,1.824,0,0,1-.491,1.227,1.546,1.546,0,0,1-1.288.491,1.757,1.757,0,0,1-1.288-.491,1.779,1.779,0,0,1,0-2.454,1.546,1.546,0,0,1,1.288-.491,1.757,1.757,0,0,1,1.288.491A1.713,1.713,0,0,1,334.858,12.818Zm0,10.245a1.824,1.824,0,0,1-.491,1.227,1.546,1.546,0,0,1-1.288.491,1.757,1.757,0,0,1-1.288-.491,1.779,1.779,0,0,1,0-2.454,1.546,1.546,0,0,1,1.288-.491,1.757,1.757,0,0,1,1.288.491A1.948,1.948,0,0,1,334.858,23.062Z" transform="translate(-201.617 -4.291)"/>
      <path id="Path_2603" data-name="Path 2603" class="cls-3" d="M341.5,12.424a12.875,12.875,0,0,1,1.595-6.932A4.983,4.983,0,0,1,347.512,3.1a5.053,5.053,0,0,1,4.417,2.392c1.1,1.595,1.595,3.926,1.595,6.932a12.875,12.875,0,0,1-1.595,6.932,4.983,4.983,0,0,1-4.417,2.392,5.053,5.053,0,0,1-4.417-2.392A12.875,12.875,0,0,1,341.5,12.424Zm9.447,0a19.547,19.547,0,0,0-.184-2.761,10.252,10.252,0,0,0-.552-2.27,3.58,3.58,0,0,0-1.043-1.534,2.761,2.761,0,0,0-3.313,0,4,4,0,0,0-1.043,1.534,11.184,11.184,0,0,0-.552,2.27,19.547,19.547,0,0,0-.184,2.761,19.551,19.551,0,0,0,.184,2.761,10.253,10.253,0,0,0,.552,2.27,3.58,3.58,0,0,0,1.043,1.534,2.761,2.761,0,0,0,3.313,0,4,4,0,0,0,1.043-1.534,11.184,11.184,0,0,0,.552-2.27A19.547,19.547,0,0,0,350.947,12.424Z" transform="translate(-205.56 -1.198)"/>
      <path id="Path_2604" data-name="Path 2604" class="cls-3" d="M376.129,7.992a4.4,4.4,0,0,1-.368,1.779,8.185,8.185,0,0,1-.981,1.718,16.907,16.907,0,0,1-1.411,1.656c-.552.552-1.043,1.043-1.534,1.595l-1.043,1.043c-.368.368-.736.8-1.1,1.227a11.411,11.411,0,0,0-.859,1.227,1.955,1.955,0,0,0-.368,1.043h8.22V21.3h-10.8V20.69a5.746,5.746,0,0,1,.429-2.27,8.645,8.645,0,0,1,1.043-1.963,13.326,13.326,0,0,1,1.472-1.779c.552-.552,1.043-1.1,1.595-1.595.429-.429.859-.8,1.227-1.227s.736-.8,1.043-1.227A6.5,6.5,0,0,0,373.43,9.4a3.3,3.3,0,0,0,.245-1.35,2.686,2.686,0,0,0-.245-1.288,2.683,2.683,0,0,0-1.656-1.472,3.572,3.572,0,0,0-1.166-.184,4.488,4.488,0,0,0-1.35.184,4.6,4.6,0,0,0-1.1.491,4.476,4.476,0,0,0-.8.552c-.245.184-.368.368-.491.429L365.7,5.047a7.384,7.384,0,0,1,.675-.613,8.611,8.611,0,0,1,1.1-.736,5.241,5.241,0,0,1,1.472-.552,7.732,7.732,0,0,1,1.718-.245A6.13,6.13,0,0,1,374.9,4.188,5.776,5.776,0,0,1,376.129,7.992Z" transform="translate(-214.914 -1.121)"/>
    </g>
    <path id="Path_2605" data-name="Path 2605" class="cls-1" d="M78.778,288.4s9.57,42.267-19.078,40.917c0,0,43.432,13.435,51.714-35.519Z" transform="translate(-23.077 -111.482)"/>
  </g>
</svg>
