<svg xmlns="http://www.w3.org/2000/svg" viewBox="0 0 771.255 240.479">
  <defs>
    <style>
      .cls-1 {
        fill: #545a66;
      }

      .cls-2 {
        fill: #f17821;
      }

      .cls-3 {
        fill: #fff;
      }
    </style>
  </defs>
  <g id="Group_344" data-name="Group 344" transform="translate(0)">
    <g id="Group_343" data-name="Group 343" transform="translate(0 0)">
      <g id="Group_341" data-name="Group 341" transform="translate(74.342)">
        <path id="Path_2327" data-name="Path 2327" class="cls-1" d="M128.394,21.949a9.1,9.1,0,0,1-3.472-.62,8.087,8.087,0,0,1-2.666-1.8,8.767,8.767,0,0,1-1.736-2.976,11.707,11.707,0,0,1-.62-4.03,11.68,11.68,0,0,1,.682-4.03,8.1,8.1,0,0,1,1.86-2.976,7.226,7.226,0,0,1,2.728-1.8,8.685,8.685,0,0,1,3.348-.62,10.452,10.452,0,0,1,2.046.186c.62.124,1.116.248,1.55.372a3.372,3.372,0,0,1,1.054.434,3.575,3.575,0,0,1,.558.31l-.744,2.108a3.61,3.61,0,0,0-.682-.31c-.31-.124-.62-.248-.992-.372a7.252,7.252,0,0,0-1.24-.31,9.287,9.287,0,0,0-1.364-.124,7.206,7.206,0,0,0-2.6.5,4.887,4.887,0,0,0-1.922,1.426,6.257,6.257,0,0,0-1.24,2.294,9.474,9.474,0,0,0-.434,3.038,10.706,10.706,0,0,0,.372,2.914,6.6,6.6,0,0,0,1.116,2.294,5.49,5.49,0,0,0,1.86,1.488,5.858,5.858,0,0,0,2.666.5,9.8,9.8,0,0,0,2.914-.372,16.6,16.6,0,0,0,1.736-.62l.682,2.108a3.8,3.8,0,0,1-.682.31c-.372.124-.682.248-1.178.372a10.644,10.644,0,0,1-1.612.31C129.82,21.887,129.138,21.949,128.394,21.949Z" transform="translate(-119.9 -1.178)"/>
        <path id="Path_2328" data-name="Path 2328" class="cls-1" d="M150.892,20.761a4.673,4.673,0,0,1-3.162-.992,3.851,3.851,0,0,1-.93-2.852V.734L149.218.3V16.545a4.315,4.315,0,0,0,.124.992,1.454,1.454,0,0,0,.31.62,2.711,2.711,0,0,0,.62.372,9.73,9.73,0,0,0,.992.186Z" transform="translate(-130.121 -0.114)"/>
        <path id="Path_2329" data-name="Path 2329" class="cls-1" d="M159.35,5.124a1.494,1.494,0,0,1-1.116-.434,1.544,1.544,0,0,1-.434-1.178,1.544,1.544,0,0,1,.434-1.178,1.652,1.652,0,0,1,2.232,0,1.543,1.543,0,0,1,.434,1.178,1.543,1.543,0,0,1-.434,1.178A1.494,1.494,0,0,1,159.35,5.124Zm1.24,16h-2.418V7.542h2.418Z" transform="translate(-134.301 -0.722)"/>
        <path id="Path_2330" data-name="Path 2330" class="cls-1" d="M167.8,17.63a9.951,9.951,0,0,1,.5-3.162,7.965,7.965,0,0,1,1.364-2.232,4.621,4.621,0,0,1,1.984-1.3,5.807,5.807,0,0,1,2.294-.434,5.215,5.215,0,0,1,4.216,1.736q1.488,1.674,1.488,5.208v.868h-9.3a4.948,4.948,0,0,0,1.24,3.224,4.358,4.358,0,0,0,3.348,1.116,7.463,7.463,0,0,0,2.17-.248c.62-.186.992-.31,1.3-.434l.31,2.046a6.46,6.46,0,0,1-1.55.5,10.387,10.387,0,0,1-2.542.248,7.593,7.593,0,0,1-3.038-.558,5.885,5.885,0,0,1-2.108-1.488,5.623,5.623,0,0,1-1.24-2.232A8.347,8.347,0,0,1,167.8,17.63Zm9.238-1.3a4.026,4.026,0,0,0-.806-2.666,2.924,2.924,0,0,0-2.356-1.054,3.746,3.746,0,0,0-1.488.31,2.941,2.941,0,0,0-1.054.868,4.489,4.489,0,0,0-.682,1.178,5.417,5.417,0,0,0-.31,1.364Z" transform="translate(-138.101 -3.99)"/>
        <path id="Path_2331" data-name="Path 2331" class="cls-1" d="M192.362,11.282c.558-.124,1.3-.31,2.232-.434a16.361,16.361,0,0,1,3.162-.248,6.668,6.668,0,0,1,2.666.434,4.585,4.585,0,0,1,1.736,1.3,4.144,4.144,0,0,1,.868,1.984,10.714,10.714,0,0,1,.248,2.542v7.626h-2.418v-7.13a10.228,10.228,0,0,0-.186-2.108,3.8,3.8,0,0,0-.558-1.426,2.3,2.3,0,0,0-1.054-.806,4.2,4.2,0,0,0-1.612-.248h-.806c-.248,0-.558.062-.806.062s-.5.062-.682.062a1.4,1.4,0,0,1-.434.062V24.365H192.3V11.282Z" transform="translate(-147.41 -4.028)"/>
        <path id="Path_2332" data-name="Path 2332" class="cls-1" d="M218.756,8.454H223.9V10.5h-5.146v6.262a6.24,6.24,0,0,0,.186,1.674,2.386,2.386,0,0,0,.5,1.054,1.888,1.888,0,0,0,.806.558,3,3,0,0,0,1.116.186,4.476,4.476,0,0,0,1.736-.248q.651-.279.93-.372l.5,1.984a10.246,10.246,0,0,1-1.3.434,7.289,7.289,0,0,1-2.108.248,6.126,6.126,0,0,1-2.294-.372,3.086,3.086,0,0,1-1.426-1.054,4,4,0,0,1-.744-1.736,13.088,13.088,0,0,1-.248-2.356V4.734l2.418-.434V8.454Z" transform="translate(-156.567 -1.634)"/>
        <path id="Path_2333" data-name="Path 2333" class="cls-1" d="M241.28,25.235H238.8L247.6,0h2.418Z" transform="translate(-165.078)"/>
        <path id="Path_2334" data-name="Path 2334" class="cls-1" d="M257.38,25.235H254.9L263.7,0h2.418Z" transform="translate(-171.196)"/>
        <path id="Path_2335" data-name="Path 2335" class="cls-1" d="M285.6,7.52a16.187,16.187,0,0,0,2.914-1.488,14.625,14.625,0,0,0,2.6-2.232h1.736V21.843h-2.418V7.148c-.186.186-.434.372-.744.62a5.354,5.354,0,0,1-.992.62l-1.116.558a8.28,8.28,0,0,1-1.116.434Z" transform="translate(-182.861 -1.444)"/>
        <path id="Path_2336" data-name="Path 2336" class="cls-1" d="M309.3,7.52a16.189,16.189,0,0,0,2.914-1.488,14.624,14.624,0,0,0,2.6-2.232h1.736V21.843h-2.48V7.148c-.186.186-.434.372-.744.62a5.355,5.355,0,0,1-.992.62l-1.116.558a8.28,8.28,0,0,1-1.116.434Z" transform="translate(-191.866 -1.444)"/>
        <path id="Path_2337" data-name="Path 2337" class="cls-1" d="M334.9,12.836a1.843,1.843,0,0,1-.5,1.24,1.562,1.562,0,0,1-1.3.5,1.776,1.776,0,0,1-1.3-.5,1.8,1.8,0,0,1,0-2.48,1.562,1.562,0,0,1,1.3-.5,1.776,1.776,0,0,1,1.3.5A1.731,1.731,0,0,1,334.9,12.836Zm0,10.355a1.843,1.843,0,0,1-.5,1.24,1.562,1.562,0,0,1-1.3.5,1.776,1.776,0,0,1-1.3-.5,1.8,1.8,0,0,1,0-2.48,1.562,1.562,0,0,1,1.3-.5,1.776,1.776,0,0,1,1.3.5A1.969,1.969,0,0,1,334.9,23.191Z" transform="translate(-200.226 -4.218)"/>
        <path id="Path_2338" data-name="Path 2338" class="cls-1" d="M341.5,12.524a13.013,13.013,0,0,1,1.612-7.006A5.036,5.036,0,0,1,347.576,3.1a5.107,5.107,0,0,1,4.464,2.418c1.116,1.612,1.612,3.968,1.612,7.006a13.013,13.013,0,0,1-1.612,7.006,5.036,5.036,0,0,1-4.464,2.418,5.107,5.107,0,0,1-4.464-2.418A13.013,13.013,0,0,1,341.5,12.524Zm9.548,0a19.757,19.757,0,0,0-.186-2.79A10.36,10.36,0,0,0,350.3,7.44a3.618,3.618,0,0,0-1.054-1.55,2.79,2.79,0,0,0-3.348,0,4.042,4.042,0,0,0-1.054,1.55,11.3,11.3,0,0,0-.558,2.294,19.757,19.757,0,0,0-.186,2.79,19.757,19.757,0,0,0,.186,2.79,10.362,10.362,0,0,0,.558,2.294,3.618,3.618,0,0,0,1.054,1.55,2.79,2.79,0,0,0,3.348,0,4.042,4.042,0,0,0,1.054-1.55,11.3,11.3,0,0,0,.558-2.294A19.757,19.757,0,0,0,351.048,12.524Z" transform="translate(-204.101 -1.178)"/>
        <path id="Path_2339" data-name="Path 2339" class="cls-1" d="M365.2,12.524a13.013,13.013,0,0,1,1.612-7.006A5.036,5.036,0,0,1,371.276,3.1a5.107,5.107,0,0,1,4.464,2.418c1.116,1.612,1.612,3.968,1.612,7.006a13.013,13.013,0,0,1-1.612,7.006,5.036,5.036,0,0,1-4.464,2.418,5.107,5.107,0,0,1-4.464-2.418A13.013,13.013,0,0,1,365.2,12.524Zm9.548,0a19.752,19.752,0,0,0-.186-2.79A10.36,10.36,0,0,0,374,7.44a3.618,3.618,0,0,0-1.054-1.55,2.79,2.79,0,0,0-3.348,0,4.043,4.043,0,0,0-1.054,1.55,11.3,11.3,0,0,0-.558,2.294,19.757,19.757,0,0,0-.186,2.79,19.761,19.761,0,0,0,.186,2.79,10.364,10.364,0,0,0,.558,2.294,3.619,3.619,0,0,0,1.054,1.55,2.79,2.79,0,0,0,3.348,0A4.042,4.042,0,0,0,374,17.609a11.3,11.3,0,0,0,.558-2.294A19.752,19.752,0,0,0,374.749,12.524Z" transform="translate(-213.107 -1.178)"/>
      </g>
      <path id="Path_2340" data-name="Path 2340" class="cls-2" d="M78.983,318.4s9.672,42.72-19.283,41.356c0,0,43.9,13.579,52.269-35.9Z" transform="translate(-22.684 -120.982)"/>
      <path id="Path_2341" data-name="Path 2341" class="cls-2" d="M690.279,231.055H80.976A81.012,81.012,0,0,1,0,150.017V130.176A81,81,0,0,1,80.976,49.2h609.3a81,81,0,0,1,80.976,80.976v19.841A80.972,80.972,0,0,1,690.279,231.055Z" transform="translate(0 -18.695)"/>
      <g id="Group_342" data-name="Group 342" transform="translate(56.361 76.45)">
        <path id="Path_2342" data-name="Path 2342" class="cls-3" d="M94.3,126.8h3.286v18.043H94.3Z" transform="translate(-92.192 -124.63)"/>
        <path id="Path_2343" data-name="Path 2343" class="cls-3" d="M108.616,124.1a2.109,2.109,0,0,0,.062.62v.558a10.2,10.2,0,0,1-.62,3.038,9.909,9.909,0,0,1-1.364,2.542l-2.294-.62a10.079,10.079,0,0,0,.806-2.418,11.749,11.749,0,0,0,.31-2.418v-.558a3.018,3.018,0,0,0-.062-.744Z" transform="translate(-96.03 -123.604)"/>
        <path id="Path_2344" data-name="Path 2344" class="cls-3" d="M124.65,140.22a6.405,6.405,0,0,0-.558-3.1,2.078,2.078,0,0,0-1.984-.93,6.738,6.738,0,0,0-1.116.062c-.434.062-.744.124-.93.124v10.975H116.9V134.144c.62-.186,1.426-.31,2.356-.5a16.97,16.97,0,0,1,3.1-.248,5.908,5.908,0,0,1,2.294.372,3.7,3.7,0,0,1,1.488.992,3.935,3.935,0,0,1,.744-.434c.31-.124.62-.31.992-.434a6.539,6.539,0,0,1,1.178-.31,8.4,8.4,0,0,1,1.24-.124,6.35,6.35,0,0,1,2.6.434,3.761,3.761,0,0,1,1.612,1.3,4.782,4.782,0,0,1,.806,1.984,15.359,15.359,0,0,1,.248,2.542v7.626H132.4v-7.13a7.425,7.425,0,0,0-.5-3.1,2.017,2.017,0,0,0-1.984-.93,4.4,4.4,0,0,0-2.418.744,8.8,8.8,0,0,1,.31,1.364,12.448,12.448,0,0,1,.062,1.55v7.5h-3.162v-7.13Z" transform="translate(-100.779 -127.138)"/>
        <path id="Path_2345" data-name="Path 2345" class="cls-3" d="M174.077,143.117a15.415,15.415,0,0,1-2.356.5,15.218,15.218,0,0,1-2.976.248,8.7,8.7,0,0,1-2.914-.5,5.76,5.76,0,0,1-2.17-1.426,5.864,5.864,0,0,1-1.364-2.232,9.565,9.565,0,0,1-.062-5.89,6.393,6.393,0,0,1,1.178-2.232,4.887,4.887,0,0,1,1.922-1.426,6.722,6.722,0,0,1,2.6-.5,4.889,4.889,0,0,1,1.736.248c.5.186.93.31,1.3.5V123.9l3.162-.5v19.717Zm-9.052-6.386a4.952,4.952,0,0,0,.992,3.286,3.315,3.315,0,0,0,2.728,1.178,8.322,8.322,0,0,0,1.3-.062c.372-.062.62-.062.868-.124V133.2a4.617,4.617,0,0,0-1.116-.558,3.752,3.752,0,0,0-1.488-.248,2.885,2.885,0,0,0-2.542,1.178A5.678,5.678,0,0,0,165.024,136.731Z" transform="translate(-117.84 -123.338)"/>
        <path id="Path_2346" data-name="Path 2346" class="cls-3" d="M199.883,140.568a8.7,8.7,0,0,1-.5,2.914,7.6,7.6,0,0,1-1.3,2.294,5.941,5.941,0,0,1-4.712,1.984,7.29,7.29,0,0,1-2.666-.5,5.454,5.454,0,0,1-2.046-1.488,8.328,8.328,0,0,1-1.364-2.294,8.808,8.808,0,0,1,0-5.828,6.222,6.222,0,0,1,3.41-3.658,7.206,7.206,0,0,1,2.6-.5,7.544,7.544,0,0,1,2.666.5,5.308,5.308,0,0,1,2.046,1.426,7.964,7.964,0,0,1,1.364,2.232A8.7,8.7,0,0,1,199.883,140.568Zm-3.224,0a5.522,5.522,0,0,0-.868-3.224,3.071,3.071,0,0,0-4.836,0,5.522,5.522,0,0,0-.868,3.224,5.388,5.388,0,0,0,.868,3.224,3.071,3.071,0,0,0,4.836,0A5.388,5.388,0,0,0,196.658,140.568Z" transform="translate(-127.339 -127.176)"/>
        <path id="Path_2347" data-name="Path 2347" class="cls-3" d="M216.444,126.322a1.868,1.868,0,0,1-.558,1.426,1.776,1.776,0,0,1-1.364.5,2.043,2.043,0,0,1-1.364-.5,1.868,1.868,0,0,1-.558-1.426,1.779,1.779,0,0,1,.558-1.426,1.865,1.865,0,0,1,1.364-.5,2.167,2.167,0,0,1,1.364.5A1.868,1.868,0,0,1,216.444,126.322Zm-.31,17.609h-3.162V130.29h3.162Z" transform="translate(-137.142 -123.718)"/>
        <path id="Path_2348" data-name="Path 2348" class="cls-3" d="M224.7,134.244c.62-.186,1.426-.31,2.356-.5a17.462,17.462,0,0,1,3.224-.248,7.327,7.327,0,0,1,2.79.434,4.359,4.359,0,0,1,1.8,1.3,4.906,4.906,0,0,1,.93,1.984,11.056,11.056,0,0,1,.248,2.542v7.626h-3.1v-7.13a14.657,14.657,0,0,0-.124-1.86,3.246,3.246,0,0,0-.5-1.24,1.864,1.864,0,0,0-.868-.682,4.125,4.125,0,0,0-1.364-.248,8.733,8.733,0,0,0-1.24.062,8.49,8.49,0,0,1-.992.124v10.975H224.7Z" transform="translate(-141.74 -127.176)"/>
        <path id="Path_2349" data-name="Path 2349" class="cls-3" d="M260.167,146.063c0,2.17-.558,3.782-1.674,4.774a7.432,7.432,0,0,1-5.084,1.488,15.29,15.29,0,0,1-2.418-.186,11.105,11.105,0,0,1-2.17-.558l.558-2.666a8.161,8.161,0,0,0,1.86.558,12.5,12.5,0,0,0,2.232.186,3.781,3.781,0,0,0,2.728-.806,2.962,2.962,0,0,0,.806-2.294v-.5a8.544,8.544,0,0,1-1.24.5,5.112,5.112,0,0,1-1.736.248,5.705,5.705,0,0,1-2.356-.434,4.286,4.286,0,0,1-1.86-1.24,5.545,5.545,0,0,1-1.178-2.046,7.76,7.76,0,0,1-.434-2.79,7.638,7.638,0,0,1,.434-2.728,6.056,6.056,0,0,1,1.3-2.108,5.394,5.394,0,0,1,2.108-1.364,8.075,8.075,0,0,1,2.852-.5,14.584,14.584,0,0,1,2.914.248c.93.186,1.674.31,2.356.5Zm-8.8-5.766a4.193,4.193,0,0,0,.868,2.914,2.856,2.856,0,0,0,2.232.93,5.286,5.286,0,0,0,1.426-.186,3.341,3.341,0,0,0,1.054-.5V136.39a3.14,3.14,0,0,0-.806-.124,7.142,7.142,0,0,0-1.24-.062,3.121,3.121,0,0,0-2.6,1.116A4.5,4.5,0,0,0,251.362,140.3Z" transform="translate(-150.669 -127.214)"/>
        <path id="Path_2350" data-name="Path 2350" class="cls-3" d="M286.426,145.119a4.253,4.253,0,0,0,1.8-.31,1.086,1.086,0,0,0,.558-1.054,1.314,1.314,0,0,0-.62-1.116,8.943,8.943,0,0,0-2.046-.992,8.966,8.966,0,0,1-1.55-.682,6.112,6.112,0,0,1-1.24-.806,2.869,2.869,0,0,1-.806-1.116,4.148,4.148,0,0,1-.31-1.612,3.592,3.592,0,0,1,1.364-2.976,5.767,5.767,0,0,1,3.72-1.054,9.3,9.3,0,0,1,2.294.248,7.963,7.963,0,0,1,1.612.434l-.558,2.542a6.407,6.407,0,0,0-1.3-.434,8.591,8.591,0,0,0-1.86-.186,3.614,3.614,0,0,0-1.55.31,1.179,1.179,0,0,0-.62.992,1.834,1.834,0,0,0,.124.62,1.041,1.041,0,0,0,.434.5,3.934,3.934,0,0,0,.744.434,10.582,10.582,0,0,0,1.116.434,20.064,20.064,0,0,1,1.922.806,4.966,4.966,0,0,1,1.3.93,3.433,3.433,0,0,1,.744,1.178,3.875,3.875,0,0,1,.248,1.55,3.484,3.484,0,0,1-1.426,2.976,7.225,7.225,0,0,1-4.154.992,12.306,12.306,0,0,1-2.914-.31,11.593,11.593,0,0,1-1.55-.5l.558-2.6q.744.279,1.674.558A13.676,13.676,0,0,0,286.426,145.119Z" transform="translate(-163.474 -127.138)"/>
        <path id="Path_2351" data-name="Path 2351" class="cls-3" d="M314.783,140.568a8.7,8.7,0,0,1-.5,2.914,7.6,7.6,0,0,1-1.3,2.294,5.941,5.941,0,0,1-4.712,1.984,7.29,7.29,0,0,1-2.666-.5,5.454,5.454,0,0,1-2.046-1.488,8.328,8.328,0,0,1-1.364-2.294,8.809,8.809,0,0,1,0-5.828,6.222,6.222,0,0,1,3.41-3.658,7.206,7.206,0,0,1,2.6-.5,7.545,7.545,0,0,1,2.666.5,5.308,5.308,0,0,1,2.046,1.426,7.964,7.964,0,0,1,1.364,2.232A8.7,8.7,0,0,1,314.783,140.568Zm-3.224,0a5.522,5.522,0,0,0-.868-3.224,3.071,3.071,0,0,0-4.836,0,5.522,5.522,0,0,0-.868,3.224,5.388,5.388,0,0,0,.868,3.224,3.071,3.071,0,0,0,4.836,0A5.388,5.388,0,0,0,311.559,140.568Z" transform="translate(-170.998 -127.176)"/>
        <path id="Path_2352" data-name="Path 2352" class="cls-3" d="M335.75,140.22a6.405,6.405,0,0,0-.558-3.1,2.078,2.078,0,0,0-1.984-.93,6.738,6.738,0,0,0-1.116.062c-.434.062-.744.124-.93.124v10.975H328V134.144c.62-.186,1.426-.31,2.356-.5a16.97,16.97,0,0,1,3.1-.248,5.908,5.908,0,0,1,2.294.372,3.7,3.7,0,0,1,1.488.992,3.935,3.935,0,0,1,.744-.434c.31-.124.62-.31.992-.434a6.541,6.541,0,0,1,1.178-.31,8.4,8.4,0,0,1,1.24-.124,6.35,6.35,0,0,1,2.6.434,3.761,3.761,0,0,1,1.612,1.3,4.781,4.781,0,0,1,.806,1.984,15.352,15.352,0,0,1,.248,2.542v7.626H343.5v-7.13a7.425,7.425,0,0,0-.5-3.1,2.017,2.017,0,0,0-1.984-.93,4.4,4.4,0,0,0-2.418.744,8.8,8.8,0,0,1,.31,1.364,12.456,12.456,0,0,1,.062,1.55v7.5h-3.162v-7.13Z" transform="translate(-180.991 -127.138)"/>
        <path id="Path_2353" data-name="Path 2353" class="cls-3" d="M363.1,140.592a8.456,8.456,0,0,1,.558-3.162,5.776,5.776,0,0,1,1.426-2.232,5.649,5.649,0,0,1,2.046-1.364,6.112,6.112,0,0,1,2.356-.434,5.612,5.612,0,0,1,4.4,1.736,7.579,7.579,0,0,1,1.55,5.208v.558a1.376,1.376,0,0,1-.062.558h-8.99A3.53,3.53,0,0,0,367.564,144a4.271,4.271,0,0,0,2.976.868,11.113,11.113,0,0,0,2.108-.186,11.4,11.4,0,0,0,1.488-.434l.434,2.6a5.169,5.169,0,0,1-.744.248,4.4,4.4,0,0,1-1.054.248c-.372.062-.806.124-1.24.186a10.044,10.044,0,0,1-1.364.062,7.909,7.909,0,0,1-3.1-.558,6.141,6.141,0,0,1-2.17-1.488,6.621,6.621,0,0,1-1.3-2.232A7.147,7.147,0,0,1,363.1,140.592Zm9.176-1.364a4,4,0,0,0-.186-1.24,2.587,2.587,0,0,0-.558-.992,2.366,2.366,0,0,0-.868-.682,2.459,2.459,0,0,0-1.24-.248,2.876,2.876,0,0,0-1.3.248,2.745,2.745,0,0,0-.93.744,3.145,3.145,0,0,0-.558.992,6.542,6.542,0,0,0-.31,1.178h5.952Z" transform="translate(-194.328 -127.138)"/>
        <path id="Path_2354" data-name="Path 2354" class="cls-3" d="M405.85,136.6a9.033,9.033,0,0,0-1.054-.248,6.3,6.3,0,0,0-1.612-.124,6.831,6.831,0,0,0-1.116.124,3.9,3.9,0,0,0-.806.186v10.913H398.1V134.43a13.3,13.3,0,0,1,2.294-.62,15.258,15.258,0,0,1,3.038-.31,3.558,3.558,0,0,1,.744.062,3.629,3.629,0,0,1,.806.124c.248.062.558.124.806.186a3.853,3.853,0,0,1,.62.186Z" transform="translate(-207.627 -127.176)"/>
        <path id="Path_2355" data-name="Path 2355" class="cls-3" d="M413.8,140.592a8.456,8.456,0,0,1,.558-3.162,5.776,5.776,0,0,1,1.426-2.232,5.65,5.65,0,0,1,2.046-1.364,6.112,6.112,0,0,1,2.356-.434,5.613,5.613,0,0,1,4.4,1.736,7.579,7.579,0,0,1,1.55,5.208v.558a1.377,1.377,0,0,1-.062.558h-8.99A3.53,3.53,0,0,0,418.264,144a4.271,4.271,0,0,0,2.976.868,11.112,11.112,0,0,0,2.108-.186,11.4,11.4,0,0,0,1.488-.434l.434,2.6a5.168,5.168,0,0,1-.744.248,4.395,4.395,0,0,1-1.054.248c-.372.062-.806.124-1.24.186a10.044,10.044,0,0,1-1.364.062,7.909,7.909,0,0,1-3.1-.558,6.14,6.14,0,0,1-2.17-1.488,6.621,6.621,0,0,1-1.3-2.232A7.147,7.147,0,0,1,413.8,140.592Zm9.176-1.364a4,4,0,0,0-.186-1.24,2.586,2.586,0,0,0-.558-.992,2.365,2.365,0,0,0-.868-.682,2.459,2.459,0,0,0-1.24-.248,2.876,2.876,0,0,0-1.3.248,2.745,2.745,0,0,0-.93.744,3.144,3.144,0,0,0-.558.992,6.542,6.542,0,0,0-.31,1.178h5.952Z" transform="translate(-213.592 -127.138)"/>
        <path id="Path_2356" data-name="Path 2356" class="cls-3" d="M441.726,145.119a4.253,4.253,0,0,0,1.8-.31,1.086,1.086,0,0,0,.558-1.054,1.314,1.314,0,0,0-.62-1.116,8.942,8.942,0,0,0-2.046-.992,8.965,8.965,0,0,1-1.55-.682,6.112,6.112,0,0,1-1.24-.806,2.869,2.869,0,0,1-.806-1.116,4.147,4.147,0,0,1-.31-1.612,3.592,3.592,0,0,1,1.364-2.976,5.767,5.767,0,0,1,3.72-1.054,9.3,9.3,0,0,1,2.294.248,7.963,7.963,0,0,1,1.612.434l-.558,2.542a6.407,6.407,0,0,0-1.3-.434,8.591,8.591,0,0,0-1.86-.186,3.615,3.615,0,0,0-1.55.31,1.179,1.179,0,0,0-.62.992,1.836,1.836,0,0,0,.124.62,1.042,1.042,0,0,0,.434.5,3.935,3.935,0,0,0,.744.434,10.585,10.585,0,0,0,1.116.434,20.067,20.067,0,0,1,1.922.806,4.966,4.966,0,0,1,1.3.93A3.434,3.434,0,0,1,447,142.2a3.876,3.876,0,0,1,.248,1.55,3.484,3.484,0,0,1-1.426,2.976,7.226,7.226,0,0,1-4.154.992,12.307,12.307,0,0,1-2.914-.31,11.592,11.592,0,0,1-1.55-.5l.558-2.6q.744.279,1.674.558A13.675,13.675,0,0,0,441.726,145.119Z" transform="translate(-222.484 -127.138)"/>
        <path id="Path_2357" data-name="Path 2357" class="cls-3" d="M457,140.592a8.456,8.456,0,0,1,.558-3.162,5.776,5.776,0,0,1,1.426-2.232,5.65,5.65,0,0,1,2.046-1.364,6.112,6.112,0,0,1,2.356-.434,5.612,5.612,0,0,1,4.4,1.736,7.579,7.579,0,0,1,1.55,5.208v.558a1.376,1.376,0,0,1-.062.558h-8.99A3.53,3.53,0,0,0,461.464,144a4.271,4.271,0,0,0,2.976.868,11.113,11.113,0,0,0,2.108-.186,11.4,11.4,0,0,0,1.488-.434l.434,2.6a5.169,5.169,0,0,1-.744.248,4.4,4.4,0,0,1-1.054.248c-.372.062-.806.124-1.24.186a10.044,10.044,0,0,1-1.364.062,7.909,7.909,0,0,1-3.1-.558,6.14,6.14,0,0,1-2.17-1.488,6.622,6.622,0,0,1-1.3-2.232A6.136,6.136,0,0,1,457,140.592Zm9.114-1.364a4,4,0,0,0-.186-1.24,2.587,2.587,0,0,0-.558-.992,2.365,2.365,0,0,0-.868-.682,2.459,2.459,0,0,0-1.24-.248,2.876,2.876,0,0,0-1.3.248,2.745,2.745,0,0,0-.93.744,3.144,3.144,0,0,0-.558.992,6.54,6.54,0,0,0-.31,1.178h5.952Z" transform="translate(-230.007 -127.138)"/>
        <path id="Path_2358" data-name="Path 2358" class="cls-3" d="M486.118,133.4a7.724,7.724,0,0,1,2.6.372,4.2,4.2,0,0,1,1.736,1.116,4.275,4.275,0,0,1,.93,1.736,8.324,8.324,0,0,1,.248,2.17v8.246a21.583,21.583,0,0,1-2.17.372,26.417,26.417,0,0,1-3.348.248,8.5,8.5,0,0,1-2.232-.248,6.371,6.371,0,0,1-1.736-.744,3.4,3.4,0,0,1-1.116-1.364,4.991,4.991,0,0,1-.434-2.046,3.914,3.914,0,0,1,.434-1.984,3.581,3.581,0,0,1,1.24-1.3,6.817,6.817,0,0,1,1.8-.744,12.231,12.231,0,0,1,2.17-.248,7.119,7.119,0,0,1,1.116.062,10.954,10.954,0,0,1,1.24.248v-.558a6.1,6.1,0,0,0-.124-1.054,2.289,2.289,0,0,0-.434-.868,2.1,2.1,0,0,0-.868-.558,4.262,4.262,0,0,0-1.364-.186,9.388,9.388,0,0,0-1.984.186,12.877,12.877,0,0,0-1.488.372l-.372-2.542c.372-.124.992-.248,1.736-.434A9.989,9.989,0,0,1,486.118,133.4Zm.248,11.719a9.915,9.915,0,0,0,2.232-.186V141.46a6.434,6.434,0,0,0-.744-.186,9.519,9.519,0,0,0-2.17,0,2.656,2.656,0,0,0-.992.31,1.516,1.516,0,0,0-.682.558,1.494,1.494,0,0,0-.248.93,1.764,1.764,0,0,0,.682,1.55A3.378,3.378,0,0,0,486.366,145.119Z" transform="translate(-238.974 -127.138)"/>
        <path id="Path_2359" data-name="Path 2359" class="cls-3" d="M512.451,136.6a9.04,9.04,0,0,0-1.054-.248,6.3,6.3,0,0,0-1.612-.124,6.831,6.831,0,0,0-1.116.124,3.9,3.9,0,0,0-.806.186v10.913H504.7V134.43a13.3,13.3,0,0,1,2.294-.62,15.258,15.258,0,0,1,3.038-.31,3.558,3.558,0,0,1,.744.062,3.629,3.629,0,0,1,.806.124c.248.062.558.124.806.186a3.858,3.858,0,0,1,.62.186Z" transform="translate(-248.132 -127.176)"/>
        <path id="Path_2360" data-name="Path 2360" class="cls-3" d="M520.3,140.492a8.9,8.9,0,0,1,.5-2.852,6.111,6.111,0,0,1,1.364-2.294,6.485,6.485,0,0,1,2.108-1.488,6.8,6.8,0,0,1,2.79-.558,10.354,10.354,0,0,1,3.658.682l-.682,2.6a4.116,4.116,0,0,0-1.24-.372,5.425,5.425,0,0,0-1.488-.186,3.281,3.281,0,0,0-2.79,1.178,5.995,5.995,0,0,0-.062,6.51,3.609,3.609,0,0,0,3.1,1.178,7.149,7.149,0,0,0,1.612-.186,13.506,13.506,0,0,0,1.364-.372l.434,2.6a9.192,9.192,0,0,1-1.55.5,12.294,12.294,0,0,1-2.17.186,7.593,7.593,0,0,1-3.038-.558,5.885,5.885,0,0,1-2.108-1.488,5.466,5.466,0,0,1-1.24-2.294A6.593,6.593,0,0,1,520.3,140.492Z" transform="translate(-254.059 -127.1)"/>
        <path id="Path_2361" data-name="Path 2361" class="cls-3" d="M541.4,143.513V123.8l3.162-.5v6.758a6.033,6.033,0,0,1,1.24-.31,10.138,10.138,0,0,1,1.364-.124,6.994,6.994,0,0,1,2.728.434,4.152,4.152,0,0,1,1.736,1.3,4.906,4.906,0,0,1,.93,1.984,10.717,10.717,0,0,1,.248,2.542v7.626h-3.162v-7.13a14.654,14.654,0,0,0-.124-1.86,3.247,3.247,0,0,0-.5-1.24,1.864,1.864,0,0,0-.868-.682,4.124,4.124,0,0,0-1.364-.248,9.25,9.25,0,0,0-1.3.124,7.6,7.6,0,0,0-.992.248v10.851h-3.1Z" transform="translate(-262.077 -123.3)"/>
        <path id="Path_2362" data-name="Path 2362" class="cls-3" d="M587.483,140.568a8.7,8.7,0,0,1-.5,2.914,7.6,7.6,0,0,1-1.3,2.294,5.941,5.941,0,0,1-4.712,1.984,7.289,7.289,0,0,1-2.666-.5,5.454,5.454,0,0,1-2.046-1.488,8.331,8.331,0,0,1-1.364-2.294,8.808,8.808,0,0,1,0-5.828,6.222,6.222,0,0,1,3.41-3.658,7.206,7.206,0,0,1,2.6-.5,7.544,7.544,0,0,1,2.666.5,5.308,5.308,0,0,1,2.046,1.426,7.963,7.963,0,0,1,1.364,2.232A8.7,8.7,0,0,1,587.483,140.568Zm-3.224,0a5.521,5.521,0,0,0-.868-3.224,3.071,3.071,0,0,0-4.836,0,5.521,5.521,0,0,0-.868,3.224,5.387,5.387,0,0,0,.868,3.224,3.071,3.071,0,0,0,4.836,0A5.387,5.387,0,0,0,584.259,140.568Z" transform="translate(-274.616 -127.176)"/>
        <path id="Path_2363" data-name="Path 2363" class="cls-3" d="M600.7,134.244c.62-.186,1.426-.31,2.356-.5a17.463,17.463,0,0,1,3.224-.248,7.328,7.328,0,0,1,2.79.434,4.359,4.359,0,0,1,1.8,1.3,4.906,4.906,0,0,1,.93,1.984,11.051,11.051,0,0,1,.248,2.542v7.626h-3.1v-7.13a14.654,14.654,0,0,0-.124-1.86,3.247,3.247,0,0,0-.5-1.24,1.865,1.865,0,0,0-.868-.682,4.126,4.126,0,0,0-1.364-.248,8.734,8.734,0,0,0-1.24.062,8.493,8.493,0,0,1-.992.124v10.975H600.7Z" transform="translate(-284.609 -127.176)"/>
        <path id="Path_2364" data-name="Path 2364" class="cls-3" d="M646.077,143.117a15.413,15.413,0,0,1-2.356.5,15.218,15.218,0,0,1-2.976.248,8.7,8.7,0,0,1-2.914-.5,5.76,5.76,0,0,1-2.17-1.426,5.864,5.864,0,0,1-1.364-2.232,9.567,9.567,0,0,1-.062-5.89,6.392,6.392,0,0,1,1.178-2.232,4.886,4.886,0,0,1,1.922-1.426,6.723,6.723,0,0,1,2.6-.5,4.889,4.889,0,0,1,1.736.248c.5.186.93.31,1.3.5V123.9l3.162-.5v19.717Zm-8.99-6.386a4.952,4.952,0,0,0,.992,3.286,3.315,3.315,0,0,0,2.728,1.178,8.321,8.321,0,0,0,1.3-.062c.372-.062.62-.062.868-.124V133.2a4.615,4.615,0,0,0-1.116-.558,3.752,3.752,0,0,0-1.488-.248,2.885,2.885,0,0,0-2.542,1.178A5.678,5.678,0,0,0,637.086,136.731Z" transform="translate(-297.186 -123.338)"/>
        <path id="Path_2365" data-name="Path 2365" class="cls-3" d="M663.444,126.322a1.868,1.868,0,0,1-.558,1.426,1.776,1.776,0,0,1-1.364.5,2.043,2.043,0,0,1-1.364-.5,1.868,1.868,0,0,1-.558-1.426,1.779,1.779,0,0,1,.558-1.426,1.865,1.865,0,0,1,1.364-.5,2.167,2.167,0,0,1,1.364.5A1.868,1.868,0,0,1,663.444,126.322Zm-.372,17.609H659.91V130.29h3.162Z" transform="translate(-306.989 -123.718)"/>
        <path id="Path_2366" data-name="Path 2366" class="cls-3" d="M677.28,123.3a8.781,8.781,0,0,1,1.922.186,6.1,6.1,0,0,1,1.24.372l-.62,2.6a4.255,4.255,0,0,0-1.054-.31,7.633,7.633,0,0,0-1.24-.124,2.875,2.875,0,0,0-1.3.248,1.663,1.663,0,0,0-.806.62,2.157,2.157,0,0,0-.434.93,7.632,7.632,0,0,0-.124,1.24V130h4.96v2.6h-4.96v10.975H671.7V129a6,6,0,0,1,1.364-4.154A5.346,5.346,0,0,1,677.28,123.3Zm10.478,0a8.78,8.78,0,0,1,1.922.186,6.1,6.1,0,0,1,1.24.372l-.62,2.6a4.255,4.255,0,0,0-1.054-.31,7.632,7.632,0,0,0-1.24-.124,2.876,2.876,0,0,0-1.3.248,1.663,1.663,0,0,0-.806.62,2.157,2.157,0,0,0-.434.93,7.639,7.639,0,0,0-.124,1.24V130h4.96v2.6h-4.96v10.975h-3.162V129a6,6,0,0,1,1.364-4.154A5.434,5.434,0,0,1,687.759,123.3Z" transform="translate(-311.587 -123.3)"/>
        <path id="Path_2367" data-name="Path 2367" class="cls-3" d="M703.8,140.592a8.456,8.456,0,0,1,.558-3.162,5.777,5.777,0,0,1,1.426-2.232,5.649,5.649,0,0,1,2.046-1.364,6.112,6.112,0,0,1,2.356-.434,5.612,5.612,0,0,1,4.4,1.736,7.579,7.579,0,0,1,1.55,5.208v.558a1.377,1.377,0,0,1-.062.558h-8.99A3.53,3.53,0,0,0,708.264,144a4.271,4.271,0,0,0,2.976.868,11.113,11.113,0,0,0,2.108-.186,11.4,11.4,0,0,0,1.488-.434l.434,2.6a5.166,5.166,0,0,1-.744.248,4.4,4.4,0,0,1-1.054.248c-.434.062-.806.124-1.24.186a10.044,10.044,0,0,1-1.364.062,7.91,7.91,0,0,1-3.1-.558,6.139,6.139,0,0,1-2.17-1.488,6.621,6.621,0,0,1-1.3-2.232A7.146,7.146,0,0,1,703.8,140.592Zm9.176-1.364a4,4,0,0,0-.186-1.24,2.586,2.586,0,0,0-.558-.992,2.365,2.365,0,0,0-.868-.682,2.459,2.459,0,0,0-1.24-.248,2.876,2.876,0,0,0-1.3.248,2.746,2.746,0,0,0-.93.744,3.144,3.144,0,0,0-.558.992,6.534,6.534,0,0,0-.31,1.178h5.952Z" transform="translate(-323.784 -127.138)"/>
        <path id="Path_2368" data-name="Path 2368" class="cls-3" d="M736.812,136.6a9.03,9.03,0,0,0-1.054-.248,6.3,6.3,0,0,0-1.612-.124,6.832,6.832,0,0,0-1.116.124,3.9,3.9,0,0,0-.806.186v10.913H729V134.43a13.3,13.3,0,0,1,2.294-.62,15.257,15.257,0,0,1,3.038-.31,3.558,3.558,0,0,1,.744.062c.31.062.558.062.806.124s.558.124.806.186a3.85,3.85,0,0,1,.62.186Z" transform="translate(-333.359 -127.176)"/>
        <path id="Path_2369" data-name="Path 2369" class="cls-3" d="M744.7,140.592a8.456,8.456,0,0,1,.558-3.162,5.777,5.777,0,0,1,1.426-2.232,5.649,5.649,0,0,1,2.046-1.364,6.112,6.112,0,0,1,2.356-.434,5.612,5.612,0,0,1,4.4,1.736,7.58,7.58,0,0,1,1.55,5.208v.558a1.377,1.377,0,0,1-.062.558h-8.99A3.53,3.53,0,0,0,749.164,144a4.271,4.271,0,0,0,2.976.868,11.114,11.114,0,0,0,2.108-.186,11.4,11.4,0,0,0,1.488-.434l.434,2.6a5.169,5.169,0,0,1-.744.248,4.4,4.4,0,0,1-1.054.248c-.434.062-.806.124-1.24.186a10.045,10.045,0,0,1-1.364.062,7.909,7.909,0,0,1-3.1-.558,6.14,6.14,0,0,1-2.17-1.488,6.622,6.622,0,0,1-1.3-2.232A7.146,7.146,0,0,1,744.7,140.592Zm9.176-1.364a4,4,0,0,0-.186-1.24,2.586,2.586,0,0,0-.558-.992,2.366,2.366,0,0,0-.868-.682,2.459,2.459,0,0,0-1.24-.248,2.876,2.876,0,0,0-1.3.248,2.746,2.746,0,0,0-.93.744,3.144,3.144,0,0,0-.558.992,6.54,6.54,0,0,0-.31,1.178h5.952Z" transform="translate(-339.324 -127.138)"/>
        <path id="Path_2370" data-name="Path 2370" class="cls-3" d="M769.862,134.244c.62-.186,1.426-.31,2.356-.5a17.035,17.035,0,0,1,3.224-.248,7.327,7.327,0,0,1,2.79.434,4.359,4.359,0,0,1,1.8,1.3,4.906,4.906,0,0,1,.93,1.984,10.717,10.717,0,0,1,.248,2.542v7.626h-3.162v-7.13a14.643,14.643,0,0,0-.124-1.86,3.248,3.248,0,0,0-.5-1.24,1.6,1.6,0,0,0-.868-.682,4.126,4.126,0,0,0-1.364-.248,8.733,8.733,0,0,0-1.24.062,8.493,8.493,0,0,1-.992.124v10.975H769.8V134.244Z" transform="translate(-348.862 -127.176)"/>
        <path id="Path_2371" data-name="Path 2371" class="cls-3" d="M794.3,127.8l3.162-.5v4.092H802.3V134h-4.836v5.518a4.44,4.44,0,0,0,.5,2.356,2.026,2.026,0,0,0,1.8.682,6.246,6.246,0,0,0,1.55-.186c.434-.124.806-.248,1.054-.31l.5,2.48a12.348,12.348,0,0,1-1.426.5,7.289,7.289,0,0,1-2.108.248,6.6,6.6,0,0,1-2.418-.372,3.576,3.576,0,0,1-1.55-1.116,5.3,5.3,0,0,1-.806-1.8,9.353,9.353,0,0,1-.248-2.418Z" transform="translate(-358.171 -124.82)"/>
        <path id="Path_2372" data-name="Path 2372" class="cls-3" d="M824.626,145.119a4.253,4.253,0,0,0,1.8-.31,1.086,1.086,0,0,0,.558-1.054,1.314,1.314,0,0,0-.62-1.116,8.941,8.941,0,0,0-2.046-.992,8.964,8.964,0,0,1-1.55-.682,6.111,6.111,0,0,1-1.24-.806,2.869,2.869,0,0,1-.806-1.116,4.148,4.148,0,0,1-.31-1.612,3.592,3.592,0,0,1,1.364-2.976,5.767,5.767,0,0,1,3.72-1.054,9.3,9.3,0,0,1,2.294.248,7.966,7.966,0,0,1,1.612.434l-.558,2.542a6.41,6.41,0,0,0-1.3-.434,8.59,8.59,0,0,0-1.86-.186,3.615,3.615,0,0,0-1.55.31,1.179,1.179,0,0,0-.62.992,1.833,1.833,0,0,0,.124.62,1.041,1.041,0,0,0,.434.5,3.932,3.932,0,0,0,.744.434,10.58,10.58,0,0,0,1.116.434,20.051,20.051,0,0,1,1.922.806,4.965,4.965,0,0,1,1.3.93,3.813,3.813,0,0,1,.744,1.178,3.875,3.875,0,0,1,.248,1.55,3.484,3.484,0,0,1-1.426,2.976,7.225,7.225,0,0,1-4.154.992,12.307,12.307,0,0,1-2.914-.31,11.6,11.6,0,0,1-1.55-.5l.558-2.6q.744.279,1.674.558A12.374,12.374,0,0,0,824.626,145.119Z" transform="translate(-367.974 -127.138)"/>
        <path id="Path_2373" data-name="Path 2373" class="cls-3" d="M852.883,140.568a8.7,8.7,0,0,1-.5,2.914,7.6,7.6,0,0,1-1.3,2.294,5.454,5.454,0,0,1-2.046,1.488,6.2,6.2,0,0,1-2.666.5,7.29,7.29,0,0,1-2.666-.5,5.454,5.454,0,0,1-2.046-1.488,8.33,8.33,0,0,1-1.364-2.294,8.809,8.809,0,0,1,0-5.828,6.223,6.223,0,0,1,3.41-3.658,7.207,7.207,0,0,1,2.6-.5,7.544,7.544,0,0,1,2.666.5,5.308,5.308,0,0,1,2.046,1.426,7.963,7.963,0,0,1,1.364,2.232A7.387,7.387,0,0,1,852.883,140.568Zm-3.224,0a5.521,5.521,0,0,0-.868-3.224,3.071,3.071,0,0,0-4.836,0,5.521,5.521,0,0,0-.868,3.224,5.387,5.387,0,0,0,.868,3.224,3.071,3.071,0,0,0,4.836,0A5.387,5.387,0,0,0,849.659,140.568Z" transform="translate(-375.46 -127.176)"/>
        <path id="Path_2374" data-name="Path 2374" class="cls-3" d="M870.836,143.8a8.347,8.347,0,0,1-2.356-.31,3.432,3.432,0,0,1-1.488-.806,2.76,2.76,0,0,1-.744-1.3,7.863,7.863,0,0,1-.248-1.8V123.9l3.162-.5v15.625a5.016,5.016,0,0,0,.062.992,2.292,2.292,0,0,0,.31.682,1.583,1.583,0,0,0,.62.434,3.766,3.766,0,0,0,1.054.248Z" transform="translate(-385.415 -123.338)"/>
        <path id="Path_2375" data-name="Path 2375" class="cls-3" d="M889.747,147.069c-.62.186-1.426.31-2.356.5a17.033,17.033,0,0,1-3.224.248,6.92,6.92,0,0,1-2.728-.5,4.806,4.806,0,0,1-1.8-1.3,5.327,5.327,0,0,1-.93-1.984,10.57,10.57,0,0,1-.31-2.542v-7.626h3.162v7.13a5.526,5.526,0,0,0,.62,3.1,2.533,2.533,0,0,0,2.232.93,8.731,8.731,0,0,0,1.24-.062,8.62,8.62,0,0,0,.93-.124V133.8h3.162v13.269Z" transform="translate(-390.126 -127.29)"/>
        <path id="Path_2376" data-name="Path 2376" class="cls-3" d="M902.9,127.8l3.162-.5v4.092H910.9V134h-4.836v5.518a4.44,4.44,0,0,0,.5,2.356,2.026,2.026,0,0,0,1.8.682,6.247,6.247,0,0,0,1.55-.186c.434-.124.806-.248,1.054-.31l.5,2.48a12.354,12.354,0,0,1-1.426.5,7.289,7.289,0,0,1-2.108.248,6.6,6.6,0,0,1-2.418-.372,3.575,3.575,0,0,1-1.55-1.116,5.3,5.3,0,0,1-.806-1.8,9.353,9.353,0,0,1-.248-2.418V127.8Z" transform="translate(-399.436 -124.82)"/>
        <path id="Path_2377" data-name="Path 2377" class="cls-3" d="M923.944,126.322a1.868,1.868,0,0,1-.558,1.426,1.776,1.776,0,0,1-1.364.5,2.043,2.043,0,0,1-1.364-.5,1.868,1.868,0,0,1-.558-1.426,1.779,1.779,0,0,1,.558-1.426,1.865,1.865,0,0,1,1.364-.5,2.167,2.167,0,0,1,1.364.5A1.868,1.868,0,0,1,923.944,126.322Zm-.31,17.609h-3.162V130.29h3.162Z" transform="translate(-405.971 -123.718)"/>
        <path id="Path_2378" data-name="Path 2378" class="cls-3" d="M944.083,140.568a8.7,8.7,0,0,1-.5,2.914,7.6,7.6,0,0,1-1.3,2.294,5.453,5.453,0,0,1-2.046,1.488,6.2,6.2,0,0,1-2.666.5,7.29,7.29,0,0,1-2.666-.5,5.454,5.454,0,0,1-2.046-1.488,8.333,8.333,0,0,1-1.364-2.294,8.809,8.809,0,0,1,0-5.828,6.222,6.222,0,0,1,3.41-3.658,7.206,7.206,0,0,1,2.6-.5,7.544,7.544,0,0,1,2.666.5,5.308,5.308,0,0,1,2.046,1.426,7.965,7.965,0,0,1,1.364,2.232A7.388,7.388,0,0,1,944.083,140.568Zm-3.224,0a5.522,5.522,0,0,0-.868-3.224,3.071,3.071,0,0,0-4.836,0,5.521,5.521,0,0,0-.868,3.224,5.387,5.387,0,0,0,.868,3.224,3.071,3.071,0,0,0,4.836,0A4.989,4.989,0,0,0,940.859,140.568Z" transform="translate(-410.113 -127.176)"/>
        <path id="Path_2379" data-name="Path 2379" class="cls-3" d="M957.362,134.244c.62-.186,1.426-.31,2.356-.5a17.035,17.035,0,0,1,3.224-.248,7.328,7.328,0,0,1,2.79.434,4.36,4.36,0,0,1,1.8,1.3,4.906,4.906,0,0,1,.93,1.984,10.714,10.714,0,0,1,.248,2.542v7.626h-3.162v-7.13a14.656,14.656,0,0,0-.124-1.86,3.246,3.246,0,0,0-.5-1.24,1.6,1.6,0,0,0-.868-.682,4.125,4.125,0,0,0-1.364-.248,8.734,8.734,0,0,0-1.24.062,8.492,8.492,0,0,1-.992.124v10.975H957.3V134.244Z" transform="translate(-420.106 -127.176)"/>
        <path id="Path_2380" data-name="Path 2380" class="cls-3" d="M984.726,145.119a4.253,4.253,0,0,0,1.8-.31,1.086,1.086,0,0,0,.558-1.054,1.314,1.314,0,0,0-.62-1.116,8.943,8.943,0,0,0-2.046-.992,8.971,8.971,0,0,1-1.55-.682,6.111,6.111,0,0,1-1.24-.806,2.869,2.869,0,0,1-.806-1.116,4.148,4.148,0,0,1-.31-1.612,3.592,3.592,0,0,1,1.364-2.976,5.767,5.767,0,0,1,3.72-1.054,9.3,9.3,0,0,1,2.294.248,7.963,7.963,0,0,1,1.612.434l-.558,2.542a6.409,6.409,0,0,0-1.3-.434,8.59,8.59,0,0,0-1.86-.186,3.614,3.614,0,0,0-1.55.31,1.179,1.179,0,0,0-.62.992,1.833,1.833,0,0,0,.124.62,1.041,1.041,0,0,0,.434.5,3.934,3.934,0,0,0,.744.434,10.586,10.586,0,0,0,1.116.434,20.046,20.046,0,0,1,1.922.806,4.966,4.966,0,0,1,1.3.93A3.813,3.813,0,0,1,990,142.2a3.875,3.875,0,0,1,.248,1.55,3.484,3.484,0,0,1-1.426,2.976,7.225,7.225,0,0,1-4.154.992,12.305,12.305,0,0,1-2.914-.31,11.59,11.59,0,0,1-1.55-.5l.558-2.6q.744.279,1.674.558A12.371,12.371,0,0,0,984.726,145.119Z" transform="translate(-428.807 -127.138)"/>
        <path id="Path_2381" data-name="Path 2381" class="cls-3" d="M99.58,173.7a8.781,8.781,0,0,1,1.922.186,6.1,6.1,0,0,1,1.24.372l-.62,2.6a4.257,4.257,0,0,0-1.054-.31,7.634,7.634,0,0,0-1.24-.124,2.876,2.876,0,0,0-1.3.248,1.664,1.664,0,0,0-.806.62,2.157,2.157,0,0,0-.434.93,7.633,7.633,0,0,0-.124,1.24v.93h4.96V183h-4.96v10.975H94V179.4a6,6,0,0,1,1.364-4.154A5.434,5.434,0,0,1,99.58,173.7Z" transform="translate(-92.078 -142.45)"/>
        <path id="Path_2382" data-name="Path 2382" class="cls-3" d="M122.283,190.968a8.7,8.7,0,0,1-.5,2.914,7.6,7.6,0,0,1-1.3,2.294,5.941,5.941,0,0,1-4.712,1.984,7.29,7.29,0,0,1-2.666-.5,5.454,5.454,0,0,1-2.046-1.488,8.329,8.329,0,0,1-1.364-2.294,8.808,8.808,0,0,1,0-5.828,6.222,6.222,0,0,1,3.41-3.658,7.207,7.207,0,0,1,2.6-.5,7.545,7.545,0,0,1,2.666.5,5.308,5.308,0,0,1,2.046,1.426,7.965,7.965,0,0,1,1.364,2.232A8.7,8.7,0,0,1,122.283,190.968Zm-3.224,0a5.521,5.521,0,0,0-.868-3.224,3.071,3.071,0,0,0-4.836,0,5.521,5.521,0,0,0-.868,3.224,5.388,5.388,0,0,0,.868,3.224,3.071,3.071,0,0,0,4.836,0A5.388,5.388,0,0,0,119.058,190.968Z" transform="translate(-97.853 -146.326)"/>
        <path id="Path_2383" data-name="Path 2383" class="cls-3" d="M143.35,187.038a9.04,9.04,0,0,0-1.054-.248,6.3,6.3,0,0,0-1.612-.124,6.833,6.833,0,0,0-1.116.124,3.906,3.906,0,0,0-.806.186v10.913H135.6V184.93a13.3,13.3,0,0,1,2.294-.62,15.258,15.258,0,0,1,3.038-.31,3.558,3.558,0,0,1,.744.062,3.629,3.629,0,0,1,.806.124c.248.062.558.124.806.186a3.853,3.853,0,0,1,.62.186Z" transform="translate(-107.885 -146.364)"/>
        <path id="Path_2384" data-name="Path 2384" class="cls-3" d="M174.083,190.968a8.7,8.7,0,0,1-.5,2.914,7.6,7.6,0,0,1-1.3,2.294,5.941,5.941,0,0,1-4.712,1.984,7.29,7.29,0,0,1-2.666-.5,5.454,5.454,0,0,1-2.046-1.488,8.329,8.329,0,0,1-1.364-2.294,8.808,8.808,0,0,1,0-5.828,6.222,6.222,0,0,1,3.41-3.658,7.207,7.207,0,0,1,2.6-.5,7.545,7.545,0,0,1,2.666.5,5.308,5.308,0,0,1,2.046,1.426,7.965,7.965,0,0,1,1.364,2.232A7.387,7.387,0,0,1,174.083,190.968Zm-3.224,0a5.521,5.521,0,0,0-.868-3.224,3.071,3.071,0,0,0-4.836,0,5.521,5.521,0,0,0-.868,3.224,5.387,5.387,0,0,0,.868,3.224,3.071,3.071,0,0,0,4.836,0A5.387,5.387,0,0,0,170.858,190.968Z" transform="translate(-117.536 -146.326)"/>
        <path id="Path_2385" data-name="Path 2385" class="cls-3" d="M198.447,197.469c-.62.186-1.426.31-2.356.5a17.461,17.461,0,0,1-3.224.248,6.92,6.92,0,0,1-2.728-.5,4.806,4.806,0,0,1-1.8-1.3,5.328,5.328,0,0,1-.93-1.984,10.569,10.569,0,0,1-.31-2.542v-7.626h3.162v7.13a5.526,5.526,0,0,0,.62,3.1,2.533,2.533,0,0,0,2.232.93,8.731,8.731,0,0,0,1.24-.062,8.61,8.61,0,0,0,.93-.124V184.2h3.162v13.269Z" transform="translate(-127.453 -146.44)"/>
        <path id="Path_2386" data-name="Path 2386" class="cls-3" d="M219.65,187.038a9.04,9.04,0,0,0-1.054-.248,6.3,6.3,0,0,0-1.612-.124,6.832,6.832,0,0,0-1.116.124,3.906,3.906,0,0,0-.806.186v10.913H211.9V184.93a13.293,13.293,0,0,1,2.294-.62,15.258,15.258,0,0,1,3.038-.31,3.558,3.558,0,0,1,.744.062,3.629,3.629,0,0,1,.806.124c.248.062.558.124.806.186a3.852,3.852,0,0,1,.62.186Z" transform="translate(-136.876 -146.364)"/>
        <path id="Path_2387" data-name="Path 2387" class="cls-3" d="M237.4,190.892a8.9,8.9,0,0,1,.5-2.852,6.636,6.636,0,0,1,1.364-2.294,6.484,6.484,0,0,1,2.108-1.488,6.8,6.8,0,0,1,2.79-.558,10.354,10.354,0,0,1,3.658.682l-.682,2.6a4.116,4.116,0,0,0-1.24-.372,5.426,5.426,0,0,0-1.488-.186,3.281,3.281,0,0,0-2.79,1.178,5.995,5.995,0,0,0-.062,6.51,3.609,3.609,0,0,0,3.1,1.178,7.148,7.148,0,0,0,1.612-.186,13.5,13.5,0,0,0,1.364-.372l.434,2.6a9.192,9.192,0,0,1-1.55.5,12.3,12.3,0,0,1-2.17.186,7.593,7.593,0,0,1-3.038-.558,5.885,5.885,0,0,1-2.108-1.488,5.467,5.467,0,0,1-1.24-2.294A5.77,5.77,0,0,1,237.4,190.892Z" transform="translate(-146.566 -146.25)"/>
        <path id="Path_2388" data-name="Path 2388" class="cls-3" d="M269.783,190.968a8.7,8.7,0,0,1-.5,2.914,7.6,7.6,0,0,1-1.3,2.294,5.941,5.941,0,0,1-4.712,1.984,7.29,7.29,0,0,1-2.666-.5,5.455,5.455,0,0,1-2.046-1.488,8.33,8.33,0,0,1-1.364-2.294,8.809,8.809,0,0,1,0-5.828,6.222,6.222,0,0,1,3.41-3.658,7.207,7.207,0,0,1,2.6-.5,7.545,7.545,0,0,1,2.666.5,5.308,5.308,0,0,1,2.046,1.426,7.965,7.965,0,0,1,1.364,2.232A8.7,8.7,0,0,1,269.783,190.968Zm-3.224,0a5.521,5.521,0,0,0-.868-3.224,3.071,3.071,0,0,0-4.836,0,5.521,5.521,0,0,0-.868,3.224,5.387,5.387,0,0,0,.868,3.224,3.071,3.071,0,0,0,4.836,0A5.387,5.387,0,0,0,266.559,190.968Z" transform="translate(-153.899 -146.326)"/>
        <path id="Path_2389" data-name="Path 2389" class="cls-3" d="M290.812,190.62a6.4,6.4,0,0,0-.558-3.1,2.078,2.078,0,0,0-1.984-.93,6.738,6.738,0,0,0-1.116.062c-.434.062-.744.124-.93.124v10.975H283V184.544c.62-.186,1.426-.31,2.356-.5a16.968,16.968,0,0,1,3.1-.248,5.908,5.908,0,0,1,2.294.372,3.7,3.7,0,0,1,1.488.992,3.934,3.934,0,0,1,.744-.434c.31-.124.62-.31.992-.434a6.54,6.54,0,0,1,1.178-.31,8.4,8.4,0,0,1,1.24-.124,6.35,6.35,0,0,1,2.6.434,3.761,3.761,0,0,1,1.612,1.3,4.782,4.782,0,0,1,.806,1.984,15.356,15.356,0,0,1,.248,2.542v7.626H298.5v-7.13a7.426,7.426,0,0,0-.5-3.1,2.079,2.079,0,0,0-1.984-.93,4.4,4.4,0,0,0-2.418.744,8.8,8.8,0,0,1,.31,1.364,12.451,12.451,0,0,1,.062,1.55v7.5h-3.162Z" transform="translate(-163.892 -146.288)"/>
        <path id="Path_2390" data-name="Path 2390" class="cls-3" d="M331.677,190.93a8.348,8.348,0,0,1-.434,2.852,6.394,6.394,0,0,1-1.178,2.232,5.491,5.491,0,0,1-1.86,1.488,5.65,5.65,0,0,1-2.542.5,5.733,5.733,0,0,1-1.8-.248,7.235,7.235,0,0,1-1.3-.5v5.27H319.4V184.544c.62-.186,1.426-.31,2.356-.5a15.22,15.22,0,0,1,2.976-.248,8.7,8.7,0,0,1,2.914.5,5.76,5.76,0,0,1,2.17,1.426,5.864,5.864,0,0,1,1.364,2.232A9.361,9.361,0,0,1,331.677,190.93Zm-3.286.062a5.181,5.181,0,0,0-.93-3.286,3.633,3.633,0,0,0-3.038-1.178,4.692,4.692,0,0,0-.93.062,2.488,2.488,0,0,0-.93.186v7.812a4.62,4.62,0,0,0,1.116.558,3.752,3.752,0,0,0,1.488.248,2.885,2.885,0,0,0,2.542-1.178A6.91,6.91,0,0,0,328.39,190.992Z" transform="translate(-177.723 -146.288)"/>
        <path id="Path_2391" data-name="Path 2391" class="cls-3" d="M348.318,183.8a7.724,7.724,0,0,1,2.6.372,4.2,4.2,0,0,1,1.736,1.116,4.274,4.274,0,0,1,.93,1.736,8.322,8.322,0,0,1,.248,2.17v8.246a21.578,21.578,0,0,1-2.17.372,26.41,26.41,0,0,1-3.348.248,8.493,8.493,0,0,1-2.232-.248,6.37,6.37,0,0,1-1.736-.744,3.4,3.4,0,0,1-1.116-1.364,4.992,4.992,0,0,1-.434-2.046,3.915,3.915,0,0,1,.434-1.984,3.581,3.581,0,0,1,1.24-1.3,6.816,6.816,0,0,1,1.8-.744,12.232,12.232,0,0,1,2.17-.248,7.118,7.118,0,0,1,1.116.062,10.95,10.95,0,0,1,1.24.248v-.5a6.108,6.108,0,0,0-.124-1.054,1.915,1.915,0,0,0-.434-.868,2.1,2.1,0,0,0-.868-.558,4.261,4.261,0,0,0-1.364-.186,9.387,9.387,0,0,0-1.984.186,12.865,12.865,0,0,0-1.488.372l-.372-2.542c.372-.124.992-.248,1.736-.434A7.611,7.611,0,0,1,348.318,183.8Zm.248,11.719a9.914,9.914,0,0,0,2.232-.186V191.86a6.445,6.445,0,0,0-.744-.186,9.519,9.519,0,0,0-2.17,0,2.657,2.657,0,0,0-.992.31,1.516,1.516,0,0,0-.682.558,1.494,1.494,0,0,0-.248.93,1.764,1.764,0,0,0,.682,1.55A3.066,3.066,0,0,0,348.566,195.519Z" transform="translate(-186.614 -146.288)"/>
        <path id="Path_2392" data-name="Path 2392" class="cls-3" d="M366.762,184.644c.62-.186,1.426-.31,2.356-.5a17.462,17.462,0,0,1,3.224-.248,7.328,7.328,0,0,1,2.79.434,4.359,4.359,0,0,1,1.8,1.3,4.906,4.906,0,0,1,.93,1.984,10.715,10.715,0,0,1,.248,2.542v7.626h-3.162v-7.13a14.655,14.655,0,0,0-.124-1.86,3.246,3.246,0,0,0-.5-1.24,1.864,1.864,0,0,0-.868-.682,4.124,4.124,0,0,0-1.364-.248,8.732,8.732,0,0,0-1.24.062,8.49,8.49,0,0,1-.992.124v10.975H366.7V184.644Z" transform="translate(-195.696 -146.326)"/>
        <path id="Path_2393" data-name="Path 2393" class="cls-3" d="M400.683,184.262a103.441,103.441,0,0,1-4.9,14.075,14.4,14.4,0,0,1-1.054,1.984,5.262,5.262,0,0,1-1.24,1.364,4.33,4.33,0,0,1-1.488.806,6.027,6.027,0,0,1-1.922.248,5.285,5.285,0,0,1-1.426-.186c-.5-.124-.868-.248-1.054-.31l.558-2.542a4.976,4.976,0,0,0,1.86.372,2.958,2.958,0,0,0,1.922-.558,5.338,5.338,0,0,0,1.24-1.8c-.992-1.922-1.922-3.968-2.852-6.262a61.144,61.144,0,0,1-2.418-7.192h3.348c.186.744.372,1.55.62,2.356.248.868.558,1.736.806,2.6l.93,2.6c.31.868.682,1.674.992,2.418.558-1.55,1.054-3.162,1.55-4.96.5-1.736.93-3.41,1.3-5.084h3.224Z" transform="translate(-203.637 -146.44)"/>
        <path id="Path_2394" data-name="Path 2394" class="cls-3" d="M426.218,183.8a7.724,7.724,0,0,1,2.6.372,4.2,4.2,0,0,1,1.736,1.116,4.275,4.275,0,0,1,.93,1.736,8.325,8.325,0,0,1,.248,2.17v8.246a21.585,21.585,0,0,1-2.17.372,26.41,26.41,0,0,1-3.348.248,8.493,8.493,0,0,1-2.232-.248,6.37,6.37,0,0,1-1.736-.744,3.4,3.4,0,0,1-1.116-1.364,4.992,4.992,0,0,1-.434-2.046,3.915,3.915,0,0,1,.434-1.984,3.581,3.581,0,0,1,1.24-1.3,6.816,6.816,0,0,1,1.8-.744,12.233,12.233,0,0,1,2.17-.248,7.117,7.117,0,0,1,1.116.062,10.952,10.952,0,0,1,1.24.248v-.5a6.111,6.111,0,0,0-.124-1.054,1.915,1.915,0,0,0-.434-.868,2.1,2.1,0,0,0-.868-.558,4.261,4.261,0,0,0-1.364-.186,9.386,9.386,0,0,0-1.984.186,12.865,12.865,0,0,0-1.488.372l-.372-2.542c.372-.124.992-.248,1.736-.434A7.61,7.61,0,0,1,426.218,183.8Zm.248,11.719a9.915,9.915,0,0,0,2.232-.186V191.86a6.444,6.444,0,0,0-.744-.186,9.519,9.519,0,0,0-2.17,0,2.657,2.657,0,0,0-.992.31,1.516,1.516,0,0,0-.682.558,1.5,1.5,0,0,0-.248.93,1.764,1.764,0,0,0,.682,1.55A3.181,3.181,0,0,0,426.466,195.519Z" transform="translate(-216.214 -146.288)"/>
        <path id="Path_2395" data-name="Path 2395" class="cls-3" d="M444.7,184.644c.62-.186,1.426-.31,2.356-.5a17.463,17.463,0,0,1,3.224-.248,7.327,7.327,0,0,1,2.79.434,4.359,4.359,0,0,1,1.8,1.3,4.907,4.907,0,0,1,.93,1.984,10.716,10.716,0,0,1,.248,2.542v7.626h-3.1v-7.13a14.649,14.649,0,0,0-.124-1.86,3.246,3.246,0,0,0-.5-1.24,1.864,1.864,0,0,0-.868-.682,4.124,4.124,0,0,0-1.364-.248,8.731,8.731,0,0,0-1.24.062,8.49,8.49,0,0,1-.992.124v10.975H444.7Z" transform="translate(-225.333 -146.326)"/>
        <path id="Path_2396" data-name="Path 2396" class="cls-3" d="M480.377,193.517a15.414,15.414,0,0,1-2.356.5,15.22,15.22,0,0,1-2.976.248,8.7,8.7,0,0,1-2.914-.5,5.76,5.76,0,0,1-2.17-1.426,5.864,5.864,0,0,1-1.364-2.232,9.566,9.566,0,0,1-.062-5.89,6.394,6.394,0,0,1,1.178-2.232,4.886,4.886,0,0,1,1.922-1.426,6.722,6.722,0,0,1,2.6-.5,4.889,4.889,0,0,1,1.736.248c.5.186.93.31,1.3.5V174.3l3.162-.5v19.717Zm-9.052-6.386a4.952,4.952,0,0,0,.992,3.286,3.315,3.315,0,0,0,2.728,1.178,8.322,8.322,0,0,0,1.3-.062c.372-.062.62-.062.868-.124V183.6a4.617,4.617,0,0,0-1.116-.558,3.752,3.752,0,0,0-1.488-.248,2.885,2.885,0,0,0-2.542,1.178A5.678,5.678,0,0,0,471.324,187.131Z" transform="translate(-234.225 -142.488)"/>
        <path id="Path_2397" data-name="Path 2397" class="cls-3" d="M511.258,189.422q-.558,2.325-1.3,4.464c-.5,1.426-.93,2.79-1.364,4.092h-2.6c-.372-.806-.744-1.736-1.116-2.728s-.744-2.108-1.178-3.286c-.372-1.178-.744-2.356-1.178-3.658L501.4,184.4h3.348c.186.744.31,1.488.558,2.356s.434,1.674.682,2.6.434,1.736.682,2.542.5,1.612.744,2.294c.248-.806.5-1.612.744-2.48s.5-1.674.744-2.542.434-1.674.62-2.48.372-1.55.558-2.294H512.5c.186.682.31,1.488.5,2.294s.372,1.612.62,2.48c.186.868.434,1.674.682,2.542s.5,1.674.744,2.48c.248-.682.434-1.488.682-2.294s.5-1.674.744-2.542.434-1.736.682-2.6c.186-.868.372-1.612.558-2.356h3.286q-.558,2.046-1.116,3.906c-.372,1.3-.744,2.48-1.178,3.658-.372,1.178-.744,2.232-1.178,3.286-.372,1.054-.744,1.922-1.116,2.728h-2.542c-.434-1.3-.93-2.666-1.364-4.092S511.631,190.972,511.258,189.422Z" transform="translate(-246.878 -146.516)"/>
        <path id="Path_2398" data-name="Path 2398" class="cls-3" d="M540.818,183.8a7.724,7.724,0,0,1,2.6.372,4.2,4.2,0,0,1,1.736,1.116,4.276,4.276,0,0,1,.93,1.736,8.322,8.322,0,0,1,.248,2.17v8.246a21.578,21.578,0,0,1-2.17.372,26.411,26.411,0,0,1-3.348.248,8.493,8.493,0,0,1-2.232-.248,6.369,6.369,0,0,1-1.736-.744,3.4,3.4,0,0,1-1.116-1.364,4.991,4.991,0,0,1-.434-2.046,3.915,3.915,0,0,1,.434-1.984,3.581,3.581,0,0,1,1.24-1.3,6.817,6.817,0,0,1,1.8-.744,12.233,12.233,0,0,1,2.17-.248,7.119,7.119,0,0,1,1.116.062,10.95,10.95,0,0,1,1.24.248v-.5a6.108,6.108,0,0,0-.124-1.054,1.915,1.915,0,0,0-.434-.868,2.1,2.1,0,0,0-.868-.558,4.261,4.261,0,0,0-1.364-.186,9.386,9.386,0,0,0-1.984.186,12.862,12.862,0,0,0-1.488.372l-.372-2.542c.372-.124.992-.248,1.736-.434A7.61,7.61,0,0,1,540.818,183.8Zm.248,11.719a9.914,9.914,0,0,0,2.232-.186V191.86a6.447,6.447,0,0,0-.744-.186,9.518,9.518,0,0,0-2.17,0,2.657,2.657,0,0,0-.992.31,1.517,1.517,0,0,0-.682.558,1.494,1.494,0,0,0-.248.93,1.764,1.764,0,0,0,.682,1.55A3.066,3.066,0,0,0,541.066,195.519Z" transform="translate(-259.759 -146.288)"/>
        <path id="Path_2399" data-name="Path 2399" class="cls-3" d="M559.262,184.644c.62-.186,1.426-.31,2.356-.5a17.462,17.462,0,0,1,3.224-.248,7.327,7.327,0,0,1,2.79.434,4.359,4.359,0,0,1,1.8,1.3,4.905,4.905,0,0,1,.93,1.984,10.714,10.714,0,0,1,.248,2.542v7.626h-3.162v-7.13a14.655,14.655,0,0,0-.124-1.86,3.247,3.247,0,0,0-.5-1.24,1.864,1.864,0,0,0-.868-.682,4.124,4.124,0,0,0-1.364-.248,8.732,8.732,0,0,0-1.24.062,8.492,8.492,0,0,1-.992.124v10.975H559.2V184.644Z" transform="translate(-268.84 -146.326)"/>
        <path id="Path_2400" data-name="Path 2400" class="cls-3" d="M583.6,178.2l3.162-.5v4.092H591.6v2.6h-4.836v5.518a4.44,4.44,0,0,0,.5,2.356,1.958,1.958,0,0,0,1.8.682,6.247,6.247,0,0,0,1.55-.186c.434-.124.806-.248,1.054-.31l.5,2.48a12.354,12.354,0,0,1-1.426.5,7.289,7.289,0,0,1-2.108.248,6.6,6.6,0,0,1-2.418-.372,3.247,3.247,0,0,1-1.55-1.116,4.334,4.334,0,0,1-.806-1.8,9.356,9.356,0,0,1-.248-2.418V178.2Z" transform="translate(-278.111 -143.97)"/>
        <path id="Path_2401" data-name="Path 2401" class="cls-3" d="M599.8,190.992a8.456,8.456,0,0,1,.558-3.162,5.777,5.777,0,0,1,1.426-2.232,5.649,5.649,0,0,1,2.046-1.364,6.112,6.112,0,0,1,2.356-.434,5.612,5.612,0,0,1,4.4,1.736,7.579,7.579,0,0,1,1.55,5.208v.558a1.376,1.376,0,0,1-.062.558h-8.99a3.53,3.53,0,0,0,1.178,2.542,4.27,4.27,0,0,0,2.976.868,11.113,11.113,0,0,0,2.108-.186,11.4,11.4,0,0,0,1.488-.434l.434,2.6a5.168,5.168,0,0,1-.744.248,4.4,4.4,0,0,1-1.054.248c-.372.062-.806.124-1.24.186a10.042,10.042,0,0,1-1.364.062,7.909,7.909,0,0,1-3.1-.558,6.14,6.14,0,0,1-2.17-1.488,6.621,6.621,0,0,1-1.3-2.232A7.146,7.146,0,0,1,599.8,190.992Zm9.176-1.364a4,4,0,0,0-.186-1.24,2.584,2.584,0,0,0-.558-.992,3.258,3.258,0,0,0-.868-.682,2.458,2.458,0,0,0-1.24-.248,2.876,2.876,0,0,0-1.3.248,2.745,2.745,0,0,0-.93.744,3.145,3.145,0,0,0-.558.992,6.54,6.54,0,0,0-.31,1.178h5.952Z" transform="translate(-284.267 -146.288)"/>
        <path id="Path_2402" data-name="Path 2402" class="cls-3" d="M636.077,193.517a15.413,15.413,0,0,1-2.356.5,15.218,15.218,0,0,1-2.976.248,8.7,8.7,0,0,1-2.914-.5,5.759,5.759,0,0,1-2.17-1.426,5.865,5.865,0,0,1-1.364-2.232,8.8,8.8,0,0,1-.5-2.976,8.713,8.713,0,0,1,.434-2.914,6.392,6.392,0,0,1,1.178-2.232,4.887,4.887,0,0,1,1.922-1.426,6.722,6.722,0,0,1,2.6-.5,4.889,4.889,0,0,1,1.736.248c.5.186.93.31,1.3.5V174.3l3.162-.5v19.717Zm-9.052-6.386a4.952,4.952,0,0,0,.992,3.286,3.315,3.315,0,0,0,2.728,1.178,8.321,8.321,0,0,0,1.3-.062c.372-.062.62-.062.868-.124V183.6a4.618,4.618,0,0,0-1.116-.558,3.752,3.752,0,0,0-1.488-.248,2.885,2.885,0,0,0-2.542,1.178A6.255,6.255,0,0,0,627.024,187.131Z" transform="translate(-293.386 -142.488)"/>
        <path id="Path_2403" data-name="Path 2403" class="cls-3" d="M659.6,178.2l3.162-.5v4.092H667.6v2.6h-4.836v5.518a4.44,4.44,0,0,0,.5,2.356,1.958,1.958,0,0,0,1.8.682,6.246,6.246,0,0,0,1.55-.186c.434-.124.806-.248,1.054-.31l.5,2.48a12.356,12.356,0,0,1-1.426.5,7.29,7.29,0,0,1-2.108.248,6.6,6.6,0,0,1-2.418-.372,3.246,3.246,0,0,1-1.55-1.116,4.335,4.335,0,0,1-.806-1.8,9.356,9.356,0,0,1-.248-2.418V178.2Z" transform="translate(-306.989 -143.97)"/>
        <path id="Path_2404" data-name="Path 2404" class="cls-3" d="M688.783,190.968a8.7,8.7,0,0,1-.5,2.914,7.6,7.6,0,0,1-1.3,2.294,5.454,5.454,0,0,1-2.046,1.488,6.2,6.2,0,0,1-2.666.5,7.29,7.29,0,0,1-2.666-.5,5.454,5.454,0,0,1-2.046-1.488,8.33,8.33,0,0,1-1.364-2.294,8.808,8.808,0,0,1,0-5.828,6.222,6.222,0,0,1,3.41-3.658,7.207,7.207,0,0,1,2.6-.5,7.545,7.545,0,0,1,2.666.5,5.308,5.308,0,0,1,2.046,1.426,7.964,7.964,0,0,1,1.364,2.232A8.7,8.7,0,0,1,688.783,190.968Zm-3.224,0a5.521,5.521,0,0,0-.868-3.224,3.071,3.071,0,0,0-4.836,0,5.521,5.521,0,0,0-.868,3.224,5.387,5.387,0,0,0,.868,3.224,3.071,3.071,0,0,0,4.836,0A5.521,5.521,0,0,0,685.558,190.968Z" transform="translate(-313.107 -146.326)"/>
        <path id="Path_2405" data-name="Path 2405" class="cls-3" d="M714.962,185.643c.372-.434.806-.868,1.3-1.364.434-.5.868-.93,1.3-1.426s.868-.93,1.24-1.364a14.323,14.323,0,0,0,.992-1.178h3.72c-.868.992-1.8,1.984-2.728,3.038s-1.922,2.046-2.914,3.038a18.252,18.252,0,0,1,1.612,1.55c.558.62,1.116,1.3,1.674,1.984a16.215,16.215,0,0,1,1.488,2.108,18.016,18.016,0,0,1,1.178,1.922H720.17c-.31-.558-.682-1.116-1.054-1.674-.434-.62-.868-1.178-1.3-1.736-.5-.558-.93-1.054-1.426-1.55a11.9,11.9,0,0,0-1.426-1.24v6.262H711.8V174.3l3.162-.5Z" transform="translate(-326.824 -142.488)"/>
        <path id="Path_2406" data-name="Path 2406" class="cls-3" d="M735,184.644c.62-.186,1.426-.31,2.356-.5a17.035,17.035,0,0,1,3.224-.248,7.328,7.328,0,0,1,2.79.434,4.36,4.36,0,0,1,1.8,1.3,4.908,4.908,0,0,1,.93,1.984,10.717,10.717,0,0,1,.248,2.542v7.626h-3.162v-7.13a14.645,14.645,0,0,0-.124-1.86,3.248,3.248,0,0,0-.5-1.24,1.6,1.6,0,0,0-.868-.682,4.125,4.125,0,0,0-1.364-.248,8.731,8.731,0,0,0-1.24.062,8.491,8.491,0,0,1-.992.124v10.975H735Z" transform="translate(-335.639 -146.326)"/>
        <path id="Path_2407" data-name="Path 2407" class="cls-3" d="M771.383,190.968a8.7,8.7,0,0,1-.5,2.914,7.6,7.6,0,0,1-1.3,2.294,5.453,5.453,0,0,1-2.046,1.488,6.2,6.2,0,0,1-2.666.5,7.291,7.291,0,0,1-2.666-.5,5.454,5.454,0,0,1-2.046-1.488,8.333,8.333,0,0,1-1.364-2.294,8.809,8.809,0,0,1,0-5.828,5.864,5.864,0,0,1,1.364-2.232,6.433,6.433,0,0,1,2.046-1.426,7.207,7.207,0,0,1,2.6-.5,7.544,7.544,0,0,1,2.666.5,5.307,5.307,0,0,1,2.046,1.426,7.967,7.967,0,0,1,1.364,2.232A8.7,8.7,0,0,1,771.383,190.968Zm-3.224,0a5.521,5.521,0,0,0-.868-3.224,3.071,3.071,0,0,0-4.836,0,5.52,5.52,0,0,0-.868,3.224,5.386,5.386,0,0,0,.868,3.224,3.071,3.071,0,0,0,4.836,0A5.387,5.387,0,0,0,768.159,190.968Z" transform="translate(-344.492 -146.326)"/>
        <path id="Path_2408" data-name="Path 2408" class="cls-3" d="M791.258,189.422q-.558,2.325-1.3,4.464c-.5,1.426-.93,2.79-1.364,4.092h-2.6c-.372-.806-.744-1.736-1.116-2.728-.372-1.054-.744-2.108-1.178-3.286s-.744-2.356-1.178-3.658-.744-2.6-1.116-3.906h3.348c.186.744.31,1.488.558,2.356.186.868.434,1.674.682,2.6s.434,1.736.682,2.542.5,1.612.744,2.294c.248-.806.5-1.612.744-2.48s.5-1.674.744-2.542.434-1.674.62-2.48.372-1.55.558-2.294H792.5c.186.682.31,1.488.5,2.294s.372,1.612.62,2.48c.186.868.434,1.674.682,2.542s.5,1.674.744,2.48c.248-.682.434-1.488.682-2.294s.5-1.674.744-2.542.434-1.736.682-2.6c.186-.868.372-1.612.558-2.356h3.286q-.558,2.046-1.116,3.906c-.372,1.3-.744,2.48-1.178,3.658s-.744,2.232-1.178,3.286c-.372,1.054-.744,1.922-1.116,2.728h-2.542c-.434-1.3-.93-2.666-1.364-4.092C792.127,192.46,791.693,190.972,791.258,189.422Z" transform="translate(-353.269 -146.516)"/>
        <path id="Path_2409" data-name="Path 2409" class="cls-3" d="M834.451,190.62a6.405,6.405,0,0,0-.558-3.1,2.079,2.079,0,0,0-1.984-.93,6.738,6.738,0,0,0-1.116.062,7.773,7.773,0,0,1-.93.124v10.975H826.7V184.544c.62-.186,1.426-.31,2.356-.5a16.969,16.969,0,0,1,3.1-.248,5.908,5.908,0,0,1,2.294.372,3.7,3.7,0,0,1,1.488.992,3.929,3.929,0,0,1,.744-.434,4.8,4.8,0,0,1,.992-.434,6.541,6.541,0,0,1,1.178-.31,8.4,8.4,0,0,1,1.24-.124,6.349,6.349,0,0,1,2.6.434,3.759,3.759,0,0,1,1.612,1.3,4.781,4.781,0,0,1,.806,1.984,15.363,15.363,0,0,1,.248,2.542v7.626H842.2v-7.13a7.424,7.424,0,0,0-.5-3.1,2.078,2.078,0,0,0-1.984-.93,4.4,4.4,0,0,0-2.418.744,8.8,8.8,0,0,1,.31,1.364,12.463,12.463,0,0,1,.062,1.55v7.5h-3.162v-7.13Z" transform="translate(-370.482 -146.288)"/>
        <path id="Path_2410" data-name="Path 2410" class="cls-3" d="M874.883,190.968a8.7,8.7,0,0,1-.5,2.914,7.6,7.6,0,0,1-1.3,2.294,5.454,5.454,0,0,1-2.046,1.488,6.2,6.2,0,0,1-2.666.5,7.29,7.29,0,0,1-2.666-.5,5.454,5.454,0,0,1-2.046-1.488,8.331,8.331,0,0,1-1.364-2.294,8.808,8.808,0,0,1,0-5.828,5.864,5.864,0,0,1,1.364-2.232,6.433,6.433,0,0,1,2.046-1.426,7.206,7.206,0,0,1,2.6-.5,7.545,7.545,0,0,1,2.666.5,5.308,5.308,0,0,1,2.046,1.426,7.965,7.965,0,0,1,1.364,2.232A7.388,7.388,0,0,1,874.883,190.968Zm-3.224,0a5.521,5.521,0,0,0-.868-3.224,3.071,3.071,0,0,0-4.836,0,5.521,5.521,0,0,0-.868,3.224,5.387,5.387,0,0,0,.868,3.224,3.071,3.071,0,0,0,4.836,0A5.387,5.387,0,0,0,871.659,190.968Z" transform="translate(-383.819 -146.326)"/>
        <path id="Path_2411" data-name="Path 2411" class="cls-3" d="M895.95,187.038a9.037,9.037,0,0,0-1.054-.248,6.3,6.3,0,0,0-1.612-.124,6.833,6.833,0,0,0-1.116.124,3.908,3.908,0,0,0-.806.186v10.913H888.2V184.93a13.292,13.292,0,0,1,2.294-.62,15.258,15.258,0,0,1,3.038-.31,3.558,3.558,0,0,1,.744.062c.31.062.558.062.806.124s.558.124.806.186a3.853,3.853,0,0,1,.62.186Z" transform="translate(-393.85 -146.364)"/>
        <path id="Path_2412" data-name="Path 2412" class="cls-3" d="M903.9,190.992a8.455,8.455,0,0,1,.558-3.162,5.776,5.776,0,0,1,1.426-2.232,5.65,5.65,0,0,1,2.046-1.364,6.112,6.112,0,0,1,2.356-.434,5.612,5.612,0,0,1,4.4,1.736,7.579,7.579,0,0,1,1.55,5.208v.558a1.376,1.376,0,0,1-.062.558h-8.99a3.53,3.53,0,0,0,1.178,2.542,4.27,4.27,0,0,0,2.976.868,11.114,11.114,0,0,0,2.108-.186,11.4,11.4,0,0,0,1.488-.434l.434,2.6a5.173,5.173,0,0,1-.744.248,4.4,4.4,0,0,1-1.054.248c-.434.062-.806.124-1.24.186a10.041,10.041,0,0,1-1.364.062,7.909,7.909,0,0,1-3.1-.558,6.14,6.14,0,0,1-2.17-1.488,6.622,6.622,0,0,1-1.3-2.232A6.134,6.134,0,0,1,903.9,190.992Zm9.114-1.364a4,4,0,0,0-.186-1.24,2.585,2.585,0,0,0-.558-.992,2.364,2.364,0,0,0-.868-.682,2.459,2.459,0,0,0-1.24-.248,2.876,2.876,0,0,0-1.3.248,2.745,2.745,0,0,0-.93.744,3.144,3.144,0,0,0-.558.992,6.529,6.529,0,0,0-.31,1.178h5.952Z" transform="translate(-399.816 -146.288)"/>
        <path id="Path_2413" data-name="Path 2413" class="cls-3" d="M942.818,183.8a7.724,7.724,0,0,1,2.6.372,4.2,4.2,0,0,1,1.736,1.116,4.275,4.275,0,0,1,.93,1.736,8.328,8.328,0,0,1,.248,2.17v8.246a21.583,21.583,0,0,1-2.17.372,26.409,26.409,0,0,1-3.348.248,8.494,8.494,0,0,1-2.232-.248,6.371,6.371,0,0,1-1.736-.744,3.4,3.4,0,0,1-1.116-1.364,4.992,4.992,0,0,1-.434-2.046,3.914,3.914,0,0,1,.434-1.984,3.581,3.581,0,0,1,1.24-1.3,6.815,6.815,0,0,1,1.8-.744,12.232,12.232,0,0,1,2.17-.248,7.117,7.117,0,0,1,1.116.062,8.78,8.78,0,0,1,1.24.248v-.5a6.1,6.1,0,0,0-.124-1.054,2.29,2.29,0,0,0-.434-.868,2.1,2.1,0,0,0-.868-.558,4.261,4.261,0,0,0-1.364-.186,9.385,9.385,0,0,0-1.984.186c-.558.124-1.116.248-1.488.372l-.372-2.542c.372-.124.992-.248,1.736-.434A7.61,7.61,0,0,1,942.818,183.8Zm.248,11.719a9.913,9.913,0,0,0,2.232-.186V191.86a6.439,6.439,0,0,0-.744-.186,9.519,9.519,0,0,0-2.17,0,2.657,2.657,0,0,0-.992.31,1.516,1.516,0,0,0-.682.558,1.5,1.5,0,0,0-.248.93,1.764,1.764,0,0,0,.682,1.55A3.065,3.065,0,0,0,943.066,195.519Z" transform="translate(-412.507 -146.288)"/>
        <path id="Path_2414" data-name="Path 2414" class="cls-3" d="M973.577,187.093a8.8,8.8,0,0,1-.5,2.976,6.75,6.75,0,0,1-1.364,2.232,5.312,5.312,0,0,1-2.17,1.426,8.434,8.434,0,0,1-2.914.5,15.219,15.219,0,0,1-2.976-.248c-.93-.186-1.736-.31-2.356-.5V174.2l3.162-.5v7.068a5.751,5.751,0,0,1,1.364-.5,5.35,5.35,0,0,1,1.736-.248,6.634,6.634,0,0,1,2.542.5,4.689,4.689,0,0,1,1.86,1.426,7.618,7.618,0,0,1,1.178,2.232A8.962,8.962,0,0,1,973.577,187.093Zm-3.224,0a5.191,5.191,0,0,0-.806-3.162A2.816,2.816,0,0,0,967,182.752a4.168,4.168,0,0,0-1.488.248,6.522,6.522,0,0,0-1.116.5v7.812a3.231,3.231,0,0,0,.868.124,8.323,8.323,0,0,0,1.3.062,3.315,3.315,0,0,0,2.728-1.178A4.689,4.689,0,0,0,970.352,187.093Z" transform="translate(-421.626 -142.45)"/>
        <path id="Path_2415" data-name="Path 2415" class="cls-3" d="M998.183,190.968a8.7,8.7,0,0,1-.5,2.914,7.6,7.6,0,0,1-1.3,2.294,5.454,5.454,0,0,1-2.046,1.488,6.2,6.2,0,0,1-2.666.5,7.29,7.29,0,0,1-2.666-.5,5.454,5.454,0,0,1-2.046-1.488,8.331,8.331,0,0,1-1.364-2.294,8.809,8.809,0,0,1,0-5.828,5.865,5.865,0,0,1,1.364-2.232,6.432,6.432,0,0,1,2.046-1.426,7.206,7.206,0,0,1,2.6-.5,7.545,7.545,0,0,1,2.666.5,5.308,5.308,0,0,1,2.046,1.426,7.964,7.964,0,0,1,1.364,2.232A8.7,8.7,0,0,1,998.183,190.968Zm-3.224,0a5.521,5.521,0,0,0-.868-3.224,3.071,3.071,0,0,0-4.836,0,5.521,5.521,0,0,0-.868,3.224,5.387,5.387,0,0,0,.868,3.224,3.071,3.071,0,0,0,4.836,0A5.387,5.387,0,0,0,994.958,190.968Z" transform="translate(-430.669 -146.326)"/>
        <path id="Path_2416" data-name="Path 2416" class="cls-3" d="M1022.546,197.469c-.62.186-1.426.31-2.356.5a17.034,17.034,0,0,1-3.224.248,6.921,6.921,0,0,1-2.728-.5,4.807,4.807,0,0,1-1.8-1.3,5.328,5.328,0,0,1-.93-1.984,10.567,10.567,0,0,1-.31-2.542v-7.626h3.162v7.13a5.526,5.526,0,0,0,.62,3.1,2.533,2.533,0,0,0,2.232.93,8.731,8.731,0,0,0,1.24-.062,8.615,8.615,0,0,0,.93-.124V184.2h3.162Z" transform="translate(-440.586 -146.44)"/>
        <path id="Path_2417" data-name="Path 2417" class="cls-3" d="M1035.7,178.2l3.162-.5v4.092h4.836v2.6h-4.836v5.518a4.44,4.44,0,0,0,.5,2.356,2.026,2.026,0,0,0,1.8.682,6.246,6.246,0,0,0,1.55-.186c.434-.124.806-.248,1.054-.31l.5,2.48a12.355,12.355,0,0,1-1.426.5,7.289,7.289,0,0,1-2.108.248,6.6,6.6,0,0,1-2.418-.372,3.576,3.576,0,0,1-1.55-1.116,5.3,5.3,0,0,1-.806-1.8,9.351,9.351,0,0,1-.248-2.418V178.2Z" transform="translate(-449.896 -143.97)"/>
        <path id="Path_2418" data-name="Path 2418" class="cls-3" d="M103.983,234.662a103.444,103.444,0,0,1-4.9,14.075,14.407,14.407,0,0,1-1.054,1.984,5.262,5.262,0,0,1-1.24,1.364,4.33,4.33,0,0,1-1.488.806,6.027,6.027,0,0,1-1.922.248,5.285,5.285,0,0,1-1.426-.186c-.5-.124-.868-.248-1.054-.31l.558-2.542a4.976,4.976,0,0,0,1.86.372,2.958,2.958,0,0,0,1.922-.558,5.338,5.338,0,0,0,1.24-1.8c-.992-1.922-1.922-3.968-2.852-6.262a61.145,61.145,0,0,1-2.418-7.192h3.348c.186.744.372,1.55.62,2.356.248.868.558,1.736.806,2.6l.93,2.6c.31.868.682,1.674.992,2.418.558-1.55,1.054-3.162,1.55-4.96.5-1.736.93-3.41,1.3-5.084h3.224Z" transform="translate(-90.9 -165.591)"/>
        <path id="Path_2419" data-name="Path 2419" class="cls-3" d="M127.683,241.368a8.7,8.7,0,0,1-.5,2.914,7.6,7.6,0,0,1-1.3,2.294,5.941,5.941,0,0,1-4.712,1.984,7.29,7.29,0,0,1-2.666-.5,5.454,5.454,0,0,1-2.046-1.488,8.329,8.329,0,0,1-1.364-2.294,8.808,8.808,0,0,1,0-5.828,6.222,6.222,0,0,1,3.41-3.658,7.207,7.207,0,0,1,2.6-.5,7.545,7.545,0,0,1,2.666.5,5.308,5.308,0,0,1,2.046,1.426,7.964,7.964,0,0,1,1.364,2.232A7.387,7.387,0,0,1,127.683,241.368Zm-3.224,0a5.521,5.521,0,0,0-.868-3.224,3.071,3.071,0,0,0-4.836,0,5.521,5.521,0,0,0-.868,3.224,5.388,5.388,0,0,0,.868,3.224,3.071,3.071,0,0,0,4.836,0A5.388,5.388,0,0,0,124.458,241.368Z" transform="translate(-99.905 -165.477)"/>
        <path id="Path_2420" data-name="Path 2420" class="cls-3" d="M152.047,247.869c-.62.186-1.426.31-2.356.5a17.461,17.461,0,0,1-3.224.248,6.92,6.92,0,0,1-2.728-.5,4.807,4.807,0,0,1-1.8-1.3,5.328,5.328,0,0,1-.93-1.984,10.568,10.568,0,0,1-.31-2.542v-7.626h3.162v7.13a5.527,5.527,0,0,0,.62,3.1,2.533,2.533,0,0,0,2.232.93,8.731,8.731,0,0,0,1.24-.062,8.618,8.618,0,0,0,.93-.124V234.6h3.162v13.269Z" transform="translate(-109.823 -165.591)"/>
        <path id="Path_2421" data-name="Path 2421" class="cls-3" d="M173.25,237.438a9.04,9.04,0,0,0-1.054-.248,6.3,6.3,0,0,0-1.612-.124,6.832,6.832,0,0,0-1.116.124,3.906,3.906,0,0,0-.806.186v10.913H165.5V235.33a13.3,13.3,0,0,1,2.294-.62,15.258,15.258,0,0,1,3.038-.31,3.559,3.559,0,0,1,.744.062,3.629,3.629,0,0,1,.806.124c.248.062.558.124.806.186a3.854,3.854,0,0,1,.62.186Z" transform="translate(-119.246 -165.515)"/>
        <path id="Path_2422" data-name="Path 2422" class="cls-3" d="M204.377,241.33a8.347,8.347,0,0,1-.434,2.852,6.394,6.394,0,0,1-1.178,2.232,5.491,5.491,0,0,1-1.86,1.488,5.649,5.649,0,0,1-2.542.5,5.733,5.733,0,0,1-1.8-.248,7.233,7.233,0,0,1-1.3-.5v5.27H192.1V234.944c.62-.186,1.426-.31,2.356-.5a15.22,15.22,0,0,1,2.976-.248,8.7,8.7,0,0,1,2.914.5,5.76,5.76,0,0,1,2.17,1.426,5.864,5.864,0,0,1,1.364,2.232A7.9,7.9,0,0,1,204.377,241.33Zm-3.224.062a5.181,5.181,0,0,0-.93-3.286,3.633,3.633,0,0,0-3.038-1.178,4.691,4.691,0,0,0-.93.062,2.488,2.488,0,0,0-.93.186v7.812a4.617,4.617,0,0,0,1.116.558,3.752,3.752,0,0,0,1.488.248,2.885,2.885,0,0,0,2.542-1.178A6.91,6.91,0,0,0,201.152,241.392Z" transform="translate(-129.353 -165.439)"/>
        <path id="Path_2423" data-name="Path 2423" class="cls-3" d="M224.95,237.438a9.041,9.041,0,0,0-1.054-.248,6.3,6.3,0,0,0-1.612-.124,6.833,6.833,0,0,0-1.116.124,3.907,3.907,0,0,0-.806.186v10.913H217.2V235.33a13.3,13.3,0,0,1,2.294-.62,15.258,15.258,0,0,1,3.038-.31,3.558,3.558,0,0,1,.744.062,3.629,3.629,0,0,1,.806.124c.248.062.558.124.806.186a3.854,3.854,0,0,1,.62.186Z" transform="translate(-138.89 -165.515)"/>
        <path id="Path_2424" data-name="Path 2424" class="cls-3" d="M245.983,241.368a8.7,8.7,0,0,1-.5,2.914,7.6,7.6,0,0,1-1.3,2.294,5.941,5.941,0,0,1-4.712,1.984,7.29,7.29,0,0,1-2.666-.5,5.454,5.454,0,0,1-2.046-1.488,8.328,8.328,0,0,1-1.364-2.294,8.808,8.808,0,0,1,0-5.828,6.222,6.222,0,0,1,3.41-3.658,7.207,7.207,0,0,1,2.6-.5,7.545,7.545,0,0,1,2.666.5,5.308,5.308,0,0,1,2.046,1.426,7.965,7.965,0,0,1,1.364,2.232A8.7,8.7,0,0,1,245.983,241.368Zm-3.224,0a5.521,5.521,0,0,0-.868-3.224,3.071,3.071,0,0,0-4.836,0,5.522,5.522,0,0,0-.868,3.224,5.388,5.388,0,0,0,.868,3.224,3.071,3.071,0,0,0,4.836,0A5.388,5.388,0,0,0,242.758,241.368Z" transform="translate(-144.856 -165.477)"/>
        <path id="Path_2425" data-name="Path 2425" class="cls-3" d="M270.277,243.917a15.415,15.415,0,0,1-2.356.5,15.219,15.219,0,0,1-2.976.248,8.7,8.7,0,0,1-2.914-.5,5.76,5.76,0,0,1-2.17-1.426,5.864,5.864,0,0,1-1.364-2.232,9.566,9.566,0,0,1-.062-5.89,6.394,6.394,0,0,1,1.178-2.232,4.886,4.886,0,0,1,1.922-1.426,6.722,6.722,0,0,1,2.6-.5,4.889,4.889,0,0,1,1.736.248c.5.186.93.31,1.3.5V224.7l3.162-.5v19.717Zm-9.052-6.386a4.952,4.952,0,0,0,.992,3.286,3.315,3.315,0,0,0,2.728,1.178,8.323,8.323,0,0,0,1.3-.062c.372-.062.62-.062.868-.124V234a4.617,4.617,0,0,0-1.116-.558,3.752,3.752,0,0,0-1.488-.248,2.885,2.885,0,0,0-2.542,1.178A5.677,5.677,0,0,0,261.224,237.531Z" transform="translate(-154.393 -161.639)"/>
        <path id="Path_2426" data-name="Path 2426" class="cls-3" d="M295.347,247.869c-.62.186-1.426.31-2.356.5a17.46,17.46,0,0,1-3.224.248,6.92,6.92,0,0,1-2.728-.5,4.806,4.806,0,0,1-1.8-1.3,5.327,5.327,0,0,1-.93-1.984,10.568,10.568,0,0,1-.31-2.542v-7.626h3.162v7.13a5.526,5.526,0,0,0,.62,3.1,2.533,2.533,0,0,0,2.232.93,8.731,8.731,0,0,0,1.24-.062,8.614,8.614,0,0,0,.93-.124V234.6h3.162Z" transform="translate(-164.272 -165.591)"/>
        <path id="Path_2427" data-name="Path 2427" class="cls-3" d="M307.5,241.292a8.9,8.9,0,0,1,.5-2.852,6.636,6.636,0,0,1,1.364-2.294,6.484,6.484,0,0,1,2.108-1.488,6.8,6.8,0,0,1,2.79-.558,10.355,10.355,0,0,1,3.658.682l-.682,2.6a4.116,4.116,0,0,0-1.24-.372,5.426,5.426,0,0,0-1.488-.186,3.281,3.281,0,0,0-2.79,1.178,5.995,5.995,0,0,0-.062,6.51,3.609,3.609,0,0,0,3.1,1.178,7.149,7.149,0,0,0,1.612-.186,13.5,13.5,0,0,0,1.364-.372l.434,2.6a9.189,9.189,0,0,1-1.55.5,12.293,12.293,0,0,1-2.17.186,7.593,7.593,0,0,1-3.038-.558,5.885,5.885,0,0,1-2.108-1.488,5.467,5.467,0,0,1-1.24-2.294A6.592,6.592,0,0,1,307.5,241.292Z" transform="translate(-173.202 -165.401)"/>
        <path id="Path_2428" data-name="Path 2428" class="cls-3" d="M328.3,228.6l3.162-.5v4.092H336.3v2.6h-4.836v5.518a4.44,4.44,0,0,0,.5,2.356,1.957,1.957,0,0,0,1.8.682,6.248,6.248,0,0,0,1.55-.186c.434-.124.806-.248,1.054-.31l.5,2.48a12.354,12.354,0,0,1-1.426.5,7.289,7.289,0,0,1-2.108.248,6.6,6.6,0,0,1-2.418-.372,3.246,3.246,0,0,1-1.55-1.116,4.333,4.333,0,0,1-.806-1.8,9.357,9.357,0,0,1-.248-2.418V228.6Z" transform="translate(-181.105 -163.121)"/>
        <path id="Path_2429" data-name="Path 2429" class="cls-3" d="M349.616,252.646a1.838,1.838,0,0,1-.62,1.488,2.112,2.112,0,0,1-1.488.558,2.011,2.011,0,0,1-1.488-.558,2.054,2.054,0,0,1-.62-1.488,1.838,1.838,0,0,1,.62-1.488,2.011,2.011,0,0,1,1.488-.558,2.222,2.222,0,0,1,1.488.558A1.923,1.923,0,0,1,349.616,252.646Z" transform="translate(-187.602 -171.67)"/>
      </g>
    </g>
  </g>
</svg>
